<?xml version="1.0" standalone="no"?>
<!DOCTYPE svg PUBLIC "-//W3C//DTD SVG 1.1//EN" "http://www.w3.org/Graphics/SVG/1.1/DTD/svg11.dtd" >
<svg xmlns="http://www.w3.org/2000/svg">
<metadata></metadata>
<defs>
<font id="quarklight" horiz-adv-x="0" >
<font-face units-per-em="2048" ascent="1536" descent="-512" />
<missing-glyph horiz-adv-x="691" />
<glyph unicode="&#x3b;&#x3b;For&#x20;Education&#x20;Used&#x20;Only&#x3b;&#x3b;" horiz-adv-x="1762" d="M74 795q0 163 64.5 312t172.5 257t258 172t315 64q163 0 312 -64t257 -172t172.5 -257t64.5 -312q0 -165 -64.5 -315t-172.5 -258.5t-257 -172.5t-312 -64q-165 0 -315 64t-258 172.5t-172.5 258.5t-64.5 315zM174 795q0 -147 55.5 -278.5t150 -226t226 -150t278.5 -55.5 q145 0 275.5 55.5t224.5 150t149.5 226t55.5 278.5q0 144 -55.5 275t-149.5 225t-224.5 149.5t-275.5 55.5q-147 0 -278.5 -55.5t-226 -149.5t-150 -225t-55.5 -275zM437 752v66q0 129 34 228t95 158.5t140 89t174 29.5q139 0 279 -55l-11 -92q-145 54 -264 54 q-77 0 -138.5 -23.5t-108.5 -71.5t-73 -128.5t-26 -188.5v-66q0 -97 26 -172t72.5 -122t108 -70.5t135.5 -23.5q70 0 148 21t148 60l12 -92q-149 -83 -311 -83q-75 0 -141 18.5t-121 57t-94.5 95t-61.5 136t-22 175.5z" />
<glyph unicode="&#x3b;&#x3b;Registered&#x3b;&#x3b;" horiz-adv-x="1187" d="M56 1063q0 109 42.5 208.5t114.5 171.5t172 114.5t209 42.5t208.5 -42.5t171.5 -114.5t114.5 -171.5t42.5 -208.5t-42.5 -209t-114.5 -172t-171.5 -115t-208.5 -43t-209 43t-172 115t-114.5 172t-42.5 209zM141 1063q0 -91 36 -174.5t96.5 -144.5t144 -97t174.5 -36 t174.5 36t143.5 97t96 144.5t36 174.5t-36 174.5t-96 144t-143.5 96.5t-174.5 36t-174.5 -36t-144 -96.5t-96.5 -144t-36 -174.5zM420 765v611h205q81 0 132 -53t51 -122q0 -48 -27.5 -88t-81.5 -59q18 -16 27.5 -30.5t19.5 -43.5l80 -215h-80l-77 202q-13 35 -34 48.5 t-62 13.5h-77v-264h-76zM496 1099h129q51 0 79 30.5t28 71.5q0 42 -28.5 73.5t-78.5 31.5h-129v-207z" />
<glyph unicode="&#x3b;&#x3b;Multiply&#x3b;&#x3b;" horiz-adv-x="935" d="M102 170l307 384l-307 386h117l248 -313l247 313h117l-307 -386l307 -384h-117l-247 312l-248 -312h-117z" />
<glyph unicode="&#x3b;&#x3b;Divide&#x3b;&#x3b;" horiz-adv-x="935" d="M76 509v94h781v-94h-781zM377 254q0 37 25.5 63t64.5 26q35 0 61 -26t26 -63q0 -18 -7 -34t-19 -27.5t-28 -18t-33 -6.5q-39 0 -64.5 24.5t-25.5 61.5zM377 855q0 24 11.5 44.5t32 32.5t46.5 12q35 0 61 -26.5t26 -62.5q0 -37 -26 -62t-61 -25q-39 0 -64.5 25t-25.5 62z " />
<glyph unicode="&#x2018;&#x2018;" horiz-adv-x="644" d="M40 1071l192 514h100l-136 -514h-156zM311 1071l191 514h101l-136 -514h-156z" />
<glyph unicode="&#x2019;&#x2019;" horiz-adv-x="644" d="M40 1071l137 514h155l-191 -514h-101zM311 1071l136 514h156l-192 -514h-100z" />
<glyph unicode="&#x3b;&#x3b;Trademark&#x3b;&#x3b;" horiz-adv-x="1231" d="M58 1521v64h455v-64h-189v-465h-77v465h-189zM588 1056v529h113l163 -433l163 433h114v-529h-76v431l-164 -431h-75l-163 431v-431h-75z" />
<glyph unicode="&#xe24;&#xe32;" horiz-adv-x="1570" d="M85 1014q128 57 227.5 87t203.5 30q188 0 285 -93q147 93 315 93q70 0 128 -19t103 -58.5t70 -104.5t25 -150v-1246h-100v1242q0 65 -17.5 113.5t-48.5 76t-70 40.5t-88 13q-130 0 -263 -69q44 -81 44 -210v-1206h-100v1206q0 77 -20 132.5t-59 87t-89 45.5t-115 14 q-152 0 -322 -73l36 -209v-522q0 -75 30 -107.5t100 -32.5h120v-94h-122q-77 0 -129 29.5t-75.5 79.5t-23.5 119v528z" />
<glyph unicode="&#xe26;&#xe32;" horiz-adv-x="1597" d="M36 0v94h85q18 0 26.5 7.5t8.5 28.5v626l-45 258q127 57 227.5 87t204.5 30q189 0 285 -93q147 93 315 93q70 0 128 -19t103 -58.5t70 -104.5t25 -150v-1246h-101v1242q0 65 -17 113.5t-48 76t-70 40.5t-87 13q-130 0 -264 -69q44 -81 44 -210v-1206h-100v1206 q0 77 -20 132.5t-59 87t-88.5 45.5t-115.5 14q-152 0 -322 -73l36 -209v-633q0 -64 -31.5 -93.5t-97.5 -29.5h-92z" />
<glyph unicode=" "  horiz-adv-x="691" />
<glyph unicode="&#x09;" horiz-adv-x="691" />
<glyph unicode="&#xa0;" horiz-adv-x="691" />
<glyph unicode="!" horiz-adv-x="426" d="M113 85q0 42 30 71t71.5 29t71 -29t29.5 -71t-29.5 -71t-71 -29t-71.5 29t-30 71zM152 1585h123l-13 -1232h-96z" />
<glyph unicode="&#x22;" horiz-adv-x="642" d="M98 1585h145l-17 -580h-107zM390 1585h146l-18 -580h-107z" />
<glyph unicode="#" horiz-adv-x="1638" d="M89 473v94h358l58 455h-369v94h382l60 469h96l-60 -469h466l61 469h96l-61 -469h364v-94h-377l-58 -455h388v-94h-402l-60 -473h-96l60 473h-466l-60 -473h-96l60 473h-344zM543 567h466l58 455h-466z" />
<glyph unicode="$" horiz-adv-x="1146" d="M89 98l18 100q79 -42 193.5 -76t225.5 -41v607q-50 18 -85.5 32t-80.5 36.5t-75.5 44t-62.5 53t-51 66.5t-31 80.5t-12 98.5q0 71 21 128t57 95t87.5 63.5t108.5 38t124 16.5v196h101v-196q197 -9 382 -79l-18 -89q-65 26 -165.5 48t-198.5 26v-587q40 -15 65.5 -25 t63 -26t61.5 -29.5t55 -33t50.5 -39t40.5 -45.5t32.5 -53.5t19 -62t7.5 -72.5q0 -81 -21 -145.5t-56.5 -107.5t-87 -72t-108 -43.5t-122.5 -17.5v-210h-101v210q-112 6 -227.5 37t-209.5 74zM228 1103q0 -50 16.5 -92.5t42 -72.5t66.5 -57t80.5 -45.5t92.5 -38.5v549 q-64 -3 -115.5 -17.5t-94 -42t-65.5 -74t-23 -109.5zM627 78q64 5 115.5 23t93 51.5t64 89.5t22.5 131q0 45 -16.5 83.5t-41 65.5t-66 52t-79.5 41.5t-92 36.5v-574z" />
<glyph unicode="%" horiz-adv-x="1597" d="M116 0l1257 1585h118l-1257 -1585h-118zM134 1301q0 125 87 212t211.5 87t212 -87t87.5 -211.5t-87.5 -211.5t-211.5 -87q-61 0 -116.5 23.5t-95.5 63.5t-63.5 95t-23.5 116zM237 1301.5q0 -81.5 57 -139t139 -57.5t139.5 57.5t57.5 139t-57.5 139t-139.5 57.5 t-139 -57.5t-57 -139zM880 283.5q0 124.5 87 212t211.5 87.5t212 -87.5t87.5 -212t-87.5 -211.5t-212 -87t-211.5 87t-87 211.5zM982 283.5q0 -81.5 57.5 -139t139 -57.5t139.5 57.5t58 139t-58 139t-139.5 57.5t-139 -57.5t-57.5 -139z" />
<glyph unicode="&#x26;" horiz-adv-x="1365" d="M87 402q0 74 25.5 144t79.5 137t134 123q-107 232 -107 417q0 93 29 167t78.5 118.5t110.5 68t128 23.5q68 0 131.5 -25t115 -71t82 -119t30.5 -162v-26h-100q0 51 -10 95.5t-28.5 78t-42.5 60t-53.5 42.5t-61 24.5t-63.5 8.5q-48 0 -91 -17t-78 -51t-56 -89.5 t-21 -125.5q0 -153 77.5 -335t212.5 -352.5t300 -292.5q120 145 120 366q0 87 -17 190h-258v94h539v-94h-181q17 -96 17 -190q0 -260 -132 -424q109 -69 228 -107l-33 -93q-136 44 -266 128q-151 -128 -383 -128q-104 0 -191 34t-144.5 91.5t-89 133t-31.5 158.5zM187 400 q0 -65 24.5 -123t69.5 -102.5t112.5 -70.5t149.5 -26q168 0 294 99q-142 108 -263.5 250t-205.5 297q-61 -46 -102 -101t-60 -110.5t-19 -112.5z" />
<glyph unicode="'" horiz-adv-x="343" d="M98 1585h145l-17 -580h-107z" />
<glyph unicode="(" horiz-adv-x="414" d="M56 681q0 470 210 904h100q-210 -434 -210 -904q0 -464 210 -904h-100q-210 440 -210 904z" />
<glyph unicode=")" horiz-adv-x="414" d="M49 -223q210 440 210 904q0 470 -210 904h100q211 -434 211 -904q0 -464 -211 -904h-100z" />
<glyph unicode="*" horiz-adv-x="869" d="M53 1293l54 136l270 -125l-17 290h145l-16 -290l270 125l53 -136l-290 -94l210 -249l-116 -88l-183 279l-183 -279l-116 88l207 249z" />
<glyph unicode="+" horiz-adv-x="935" d="M83 509v94h334v337h101v-337h334v-94h-334v-339h-101v339h-334z" />
<glyph unicode="," horiz-adv-x="437" d="M58 -223l185 446h123l-219 -446h-89z" />
<glyph unicode="-" horiz-adv-x="546" d="M56 509v94h436v-94h-436z" />
<glyph unicode="." horiz-adv-x="437" d="M121 83q0 40 29 69t69 29t69 -29t29 -69t-29 -69t-69 -29t-69 29t-29 69z" />
<glyph unicode="/" horiz-adv-x="892" d="M20 -223l768 1808h92l-769 -1808h-91z" />
<glyph unicode="0" horiz-adv-x="1305" d="M105 716v153q0 166 33 299t99 230t171.5 149.5t243.5 52.5t243 -52.5t171.5 -149.5t99.5 -230t33 -299v-153q0 -132 -20.5 -243.5t-64 -202.5t-108 -154t-154 -97t-200.5 -34q-138 0 -243.5 52.5t-171.5 149.5t-99 230t-33 299zM205 705q0 -191 50.5 -331.5t152 -218 t244.5 -77.5q107 0 191.5 44.5t140.5 126.5t85.5 197.5t29.5 258.5v175q0 191 -51 331.5t-152 217.5t-244 77t-244.5 -77t-152 -217.5t-50.5 -331.5v-175z" />
<glyph unicode="1" horiz-adv-x="1305" d="M257 1216l414 369h102v-1491h290v-94h-681v94h289v1366l-356 -322z" />
<glyph unicode="2" horiz-adv-x="1305" d="M164 0v130q142 115 258.5 222.5t218.5 220.5t171 217t108.5 209t39.5 200q0 80 -28 141t-77.5 96.5t-111 52.5t-134.5 17q-188 0 -408 -89l-14 92q88 40 200.5 65.5t221.5 25.5q60 0 115 -9.5t106.5 -29.5t92.5 -53t72.5 -76.5t48.5 -104t17 -132.5q0 -449 -789 -1101 h871v-94h-979z" />
<glyph unicode="3" horiz-adv-x="1305" d="M177 81l19 104q59 -29 129.5 -52.5t153 -39t155.5 -15.5q64 0 118.5 11t103.5 37.5t84 66.5t55.5 102.5t20.5 141.5q0 64 -21.5 123t-62 105.5t-105 74.5t-144.5 28h-281v94h279q60 0 110 18.5t84 49.5t58.5 72t35.5 85.5t11 90.5q0 74 -20 131.5t-53.5 94t-82 60 t-101.5 33t-116 9.5q-154 0 -360 -55l-15 91q195 58 375 58q42 0 81 -3.5t77.5 -11.5t73 -21t66.5 -31.5t58.5 -42t48.5 -55t37 -68.5t23 -83t8 -99q0 -75 -29 -149.5t-82.5 -133t-118.5 -82.5q88 -38 149 -99.5t89 -136t28 -160.5q0 -96 -25.5 -172t-69.5 -125.5t-106 -82 t-131 -46t-150 -13.5q-219 0 -457 96z" />
<glyph unicode="4" horiz-adv-x="1305" d="M125 268v94l706 1223h111v-1223h236v-94h-236v-268h-101v268h-716zM234 362h607v1053z" />
<glyph unicode="5" horiz-adv-x="1305" d="M170 81l24 93q51 -23 108.5 -41.5t112 -30t106.5 -18t97 -6.5q101 0 181.5 31t130 82.5t75.5 115.5t26 136q0 109 -43.5 193t-132 136.5t-214.5 62.5l-407 32v718h829v-94h-728v-538l306 -22q120 -9 214.5 -52t154 -109t90.5 -149t31 -176q0 -71 -19.5 -137.5t-61.5 -125 t-101.5 -102.5t-144 -69.5t-184.5 -25.5q-105 0 -227 25.5t-223 70.5z" />
<glyph unicode="6" horiz-adv-x="1305" d="M177 543v397q0 168 37.5 295.5t108 206.5t165 118.5t213.5 39.5q156 0 349 -69l-23 -93q-178 68 -326 68q-96 0 -172 -31.5t-133.5 -97.5t-88 -174.5t-30.5 -254.5v-115q199 100 394 100q65 0 122 -13t102.5 -37t83.5 -57t65 -73t46 -85.5t28 -94t9 -98.5 q0 -52 -10 -103.5t-30.5 -100t-49.5 -91.5t-70 -79t-89.5 -61.5t-109.5 -40t-129 -14.5q-72 0 -138 20t-125.5 64t-103.5 107.5t-69.5 158t-25.5 208.5zM277 543q0 -96 20 -174.5t54 -131.5t80.5 -89.5t98.5 -53t109 -16.5q75 0 139.5 22.5t109.5 61t76.5 89.5t47 108 t15.5 116q0 71 -22.5 135.5t-65.5 116t-113 82t-157 30.5q-92 0 -195 -27.5t-197 -76.5v-192z" />
<glyph unicode="7" horiz-adv-x="1305" d="M164 1491v94h979v-94l-690 -1491h-107l690 1491h-872z" />
<glyph unicode="8" horiz-adv-x="1305" d="M172 390q0 130 75 257.5t226 223.5q-60 30 -103 60t-81 70t-57 90t-19 110q0 80 25 147t68 113t100.5 77.5t121.5 46.5t133 15q41 0 82 -6t80 -18.5t75 -31.5t67 -43.5t56.5 -56.5t43.5 -68.5t28 -81t10 -93.5q0 -116 -76.5 -226t-193.5 -169q52 -27 94 -54t81.5 -63.5 t65.5 -77t41.5 -93t15.5 -111.5q0 -84 -27 -154t-73.5 -118.5t-108.5 -83t-131.5 -50.5t-143.5 -16q-111 0 -202 32.5t-150 88t-91 129t-32 155.5zM275 390q0 -64 23.5 -120t69 -99t117.5 -68t162 -25q49 0 95 9t89 26t79.5 44.5t63.5 63t42 82.5t15 101q0 35 -7.5 67 t-19 58t-33 51.5t-40 44.5t-50.5 40.5t-55 35.5t-62 33t-63 30t-67 30.5t-65 29.5q-142 -79 -218 -197t-76 -237zM313 1203q0 -27 6.5 -52t17 -46t29.5 -41.5t36.5 -36.5t46 -34t50.5 -30.5t57 -29t59 -27t63.5 -28t62.5 -28.5q79 36 138 91t91.5 123t32.5 139q0 73 -29 132 t-78 95.5t-109.5 56t-125.5 19.5q-54 0 -103.5 -11t-94.5 -35t-78 -59t-52.5 -85.5t-19.5 -112.5z" />
<glyph unicode="9" horiz-adv-x="1305" d="M177 1110q0 73 19 143.5t59.5 133.5t97.5 110.5t137.5 75t174.5 27.5q71 0 137 -20t125.5 -64t103.5 -107.5t70 -158t26 -208.5v-397q0 -175 -37 -303t-108 -205.5t-166.5 -114.5t-219.5 -37q-133 0 -300 42l15 94q156 -43 285 -43q80 0 145 18.5t119 59.5t90.5 105 t56.5 159t20 217v102q-178 -117 -369 -117q-217 0 -349 132.5t-132 355.5zM277 1110q0 -95 29 -171t81 -124t121 -73.5t150 -25.5q189 0 369 121v205q0 96 -20 174t-54 131.5t-80.5 89.5t-98.5 52.5t-109 16.5q-76 0 -140 -22t-109 -60.5t-77 -89.5t-47 -108t-15 -116z" />
<glyph unicode=":" horiz-adv-x="374" d="M78 92q0 45 31.5 77t77.5 32q29 0 53.5 -15t39 -40t14.5 -54q0 -45 -31.5 -76t-75.5 -31q-46 0 -77.5 30.5t-31.5 76.5zM78 924q0 46 31.5 77.5t77.5 31.5q44 0 75.5 -32t31.5 -77q0 -44 -31.5 -75t-75.5 -31q-46 0 -77.5 30.5t-31.5 75.5z" />
<glyph unicode=";" horiz-adv-x="374" d="M-32 -223l186 446h123l-219 -446h-90zM78 924q0 46 31.5 77.5t77.5 31.5q44 0 75.5 -32t31.5 -77q0 -44 -31.5 -75t-75.5 -31q-46 0 -77.5 30.5t-31.5 75.5z" />
<glyph unicode="&#x3c;" horiz-adv-x="943" d="M69 607v94l802 622v-120l-701 -549l701 -549v-120z" />
<glyph unicode="=" horiz-adv-x="935" d="M83 379v94h769v-94h-769zM83 639v93h769v-93h-769z" />
<glyph unicode="&#x3e;" horiz-adv-x="943" d="M69 -15v120l702 549l-702 549v120l802 -622v-94z" />
<glyph unicode="?" horiz-adv-x="965" d="M109 1536q184 64 355 64q67 0 124 -11.5t107 -38t85.5 -67.5t56 -103.5t20.5 -142.5q0 -58 -13 -110t-34.5 -94t-50 -82t-59.5 -77t-62 -74.5t-59 -80.5t-50 -89t-34.5 -105t-12.5 -125v-47h-100v35q0 92 20.5 172t53.5 139t73 112t80 101.5t73 96t53.5 106t20.5 122.5 q0 75 -22.5 129t-64.5 84t-92 43t-113 13q-141 0 -334 -62zM335 85q0 27 13 50.5t36.5 36.5t50.5 13q42 0 71.5 -29t29.5 -71t-29.5 -71t-71.5 -29q-27 0 -50.5 13t-36.5 36.5t-13 50.5z" />
<glyph unicode="@" horiz-adv-x="1698" d="M58 562q0 123 30 235.5t84.5 204.5t131.5 167.5t169.5 127t200 79.5t221.5 28q169 0 307.5 -53.5t234.5 -152.5t148.5 -243.5t52.5 -322.5q0 -141 -43 -253t-120 -175t-174 -63q-73 0 -125 45.5t-73 124.5q-61 -84 -142.5 -127t-163.5 -43q-53 0 -102 18t-90 54.5 t-71.5 86.5t-47.5 117.5t-17 144.5q0 230 101.5 349.5t273.5 119.5q134 0 323 -81v-526q0 -80 34 -135t100 -55q44 0 85.5 25t75.5 72t55 125.5t21 175.5q0 208 -72 357.5t-217.5 232t-353.5 82.5q-123 0 -235 -35t-203 -101t-158.5 -155.5t-104 -205.5t-36.5 -245 q0 -135 35.5 -248.5t97 -193.5t146.5 -135.5t183.5 -81.5t207.5 -26q220 0 422 110l20 -89q-209 -121 -444 -121q-102 0 -197.5 22t-181.5 64.5t-157 109.5t-123 152.5t-80.5 197t-28.5 239.5zM569 562q0 -152 66.5 -240t165.5 -88q68 0 136.5 39.5t129.5 116.5v507 q-122 40 -215 40q-138 0 -210.5 -98.5t-72.5 -276.5z" />
<glyph unicode="A" horiz-adv-x="1338" d="M43 0l575 1585h104l575 -1585h-94l-196 538h-677l-194 -538h-93zM366 632h607l-304 837z" />
<glyph unicode="B" horiz-adv-x="1195" d="M143 29v1556h449q89 0 164.5 -22t129.5 -60.5t92.5 -91t57 -114t18.5 -130.5q0 -123 -59 -218.5t-180 -149.5q279 -114 279 -401q0 -39 -6.5 -77.5t-23.5 -80t-43 -77.5t-68 -69.5t-95.5 -57t-128.5 -37.5t-164 -14q-214 0 -422 44zM243 107q163 -29 322 -29 q68 0 125.5 8.5t99.5 24t75 35t54.5 44.5t36.5 49.5t23 53t11 52.5t3 50q0 99 -43 178.5t-129 128t-201 48.5h-377v-643zM243 844h373q83 0 148.5 25t106 69t61.5 99.5t21 118.5q0 71 -23.5 131t-67.5 106t-113.5 72t-156.5 26h-349v-647z" />
<glyph unicode="C" horiz-adv-x="1182" d="M100 652v212q0 177 44.5 317t125.5 231.5t192.5 139.5t247.5 48q193 0 370 -94l-19 -86q-181 86 -354 86q-85 0 -159.5 -23t-139 -73t-110 -123.5t-71.5 -179.5t-26 -236v-224q0 -117 26 -212.5t72.5 -161t111 -110t138.5 -65t158 -20.5q97 0 197.5 31.5t186.5 93.5 l23 -90q-189 -128 -407 -128q-102 0 -190.5 22t-166 73t-132.5 127t-86.5 189.5t-31.5 255.5z" />
<glyph unicode="D" horiz-adv-x="1316" d="M143 0v1567q201 33 359 33q151 0 271 -43t201 -118.5t134.5 -182t77.5 -228.5t24 -263q0 -129 -24 -242.5t-75 -210t-126 -165.5t-183 -108t-240 -39h-419zM243 94h319q136 0 241 48t171.5 137t101 211.5t34.5 274.5q0 174 -36.5 309.5t-110.5 232.5t-190 148t-271 51 q-127 0 -259 -24v-1388z" />
<glyph unicode="E" horiz-adv-x="1137" d="M143 0v1585h873v-94h-773v-650h677v-93h-677v-654h804v-94h-904z" />
<glyph unicode="F" horiz-adv-x="1057" d="M143 0v1585h841v-94h-741v-701h645v-93h-645v-697h-100z" />
<glyph unicode="G" horiz-adv-x="1312" d="M111 652v212q0 154 33.5 278.5t91 209t138 141t172 82t195.5 25.5q194 0 405 -96l-23 -89q-198 91 -380 91q-94 0 -175 -24t-147 -74.5t-112 -125t-71 -179t-25 -232.5v-224q0 -122 29 -220t78.5 -162.5t118.5 -107t144.5 -61t159.5 -18.5q179 0 333 60v494 q0 47 -20.5 65.5t-66.5 18.5h-250v94h250q97 0 142 -41.5t45 -136.5v-554q-97 -44 -209.5 -68.5t-223.5 -24.5q-71 0 -137 10.5t-129.5 34.5t-118 60t-100.5 90t-78.5 121.5t-50.5 156.5t-18 194z" />
<glyph unicode="H" horiz-adv-x="1323" d="M143 0v1585h100v-782h837v782h100v-1585h-100v710h-837v-710h-100z" />
<glyph unicode="I" horiz-adv-x="412" d="M156 0v1585h101v-1585h-101z" />
<glyph unicode="J" horiz-adv-x="626" d="M36 32l9 98q81 -52 156 -52q54 0 94.5 26t64.5 84t24 142v1255h100v-1261q0 -160 -78.5 -249.5t-202.5 -89.5q-85 0 -167 47z" />
<glyph unicode="K" horiz-adv-x="1233" d="M143 0v1585h100v-773h326l464 773h110l-469 -782q84 -16 143 -70t101 -153l243 -580h-100l-233 554q-39 96 -93.5 130t-161.5 34h-330v-718h-100z" />
<glyph unicode="L" horiz-adv-x="1052" d="M143 0v1585h100v-1491h743v-94h-843z" />
<glyph unicode="M" horiz-adv-x="1557" d="M143 0v1585h143l493 -1453l493 1453h143v-1585h-100v1395l-484 -1395h-103l-485 1395v-1395h-100z" />
<glyph unicode="N" horiz-adv-x="1293" d="M143 0v1585h121l788 -1436v1436h100v-1585h-132l-777 1415v-1415h-100z" />
<glyph unicode="O" horiz-adv-x="1410" d="M81 728v129q0 224 75 392t216.5 259.5t332.5 91.5t333 -91.5t217.5 -259.5t75.5 -392v-129q0 -224 -75.5 -392t-217.5 -259.5t-333 -91.5t-332.5 91.5t-216.5 259.5t-75 392zM181 722q0 -135 35 -252t100 -204t165.5 -137.5t223.5 -50.5t223.5 50.5t165.5 137.5 t100.5 204t35.5 252v142q0 135 -35.5 251.5t-100.5 204t-165 137t-223.5 49.5t-224 -49.5t-165.5 -137t-100 -204t-35 -251.5v-142z" />
<glyph unicode="P" horiz-adv-x="1184" d="M143 0v1551q207 49 373 49q121 0 222 -26t170.5 -71t117.5 -106.5t70 -130t22 -143.5q0 -74 -19.5 -141t-61 -126t-101 -102.5t-144 -68t-185.5 -24.5h-364v-661h-100zM243 754h364q191 0 301 103t110 266q0 79 -29.5 146.5t-88.5 121.5t-158.5 84.5t-228.5 30.5 q-130 0 -270 -30v-722z" />
<glyph unicode="Q" horiz-adv-x="1410" d="M81 728v129q0 224 75 392t216.5 259.5t332.5 91.5t333 -91.5t217.5 -259.5t75.5 -392v-129q0 -209 -66.5 -370.5t-191 -256.5t-294.5 -112l27 -65q37 -92 92.5 -128.5t159.5 -36.5h222v-94h-228q-131 0 -208 55.5t-130 177.5l-37 87q-182 6 -317.5 99.5t-207 259.5 t-71.5 384zM181 722q0 -135 35 -252t100 -204t165.5 -137.5t223.5 -50.5t223.5 50.5t165.5 137.5t100.5 204t35.5 252v142q0 135 -35.5 251.5t-100.5 204t-165 137t-223.5 49.5t-224 -49.5t-165.5 -137t-100 -204t-35 -251.5v-142z" />
<glyph unicode="R" horiz-adv-x="1214" d="M143 0v1551q207 49 390 49q112 0 205 -25.5t157.5 -69.5t109.5 -103t65.5 -124.5t20.5 -136.5q0 -66 -18.5 -128.5t-54.5 -117.5t-94 -98t-132 -67q59 -46 105 -150l244 -580h-105l-233 552q-27 63 -56.5 95t-68 44t-102.5 12h-333v-703h-100zM243 797h345q70 0 130.5 14 t103.5 38.5t76.5 57t53 71.5t29.5 80t10 83q0 56 -16.5 108t-53 99t-89.5 82t-130.5 55.5t-170.5 20.5q-148 0 -288 -30v-679z" />
<glyph unicode="S" horiz-adv-x="1169" d="M89 98l18 100q81 -44 221.5 -82t269.5 -38q59 0 111 9t100 30.5t82.5 54t55 84t20.5 117.5q0 43 -13 82.5t-30.5 69.5t-52.5 61t-62 50.5t-78 46.5t-80.5 41t-87.5 40q-62 28 -93.5 43t-86 44t-83.5 51t-67.5 57t-57.5 69t-33 79.5t-14 95.5q0 88 27.5 157t73.5 113.5 t111 73.5t135.5 41t151.5 12q225 0 427 -79l-18 -90q-79 32 -189 53.5t-217 21.5q-65 0 -121.5 -8.5t-109 -30t-90 -55t-59.5 -85.5t-22 -119q0 -62 28.5 -114t77 -90t111.5 -72t132.5 -65.5t139.5 -64.5t133 -74t111.5 -89.5t77 -116.5t28.5 -149q0 -84 -25.5 -151 t-68.5 -110.5t-104 -72.5t-127.5 -41.5t-143.5 -12.5q-123 0 -257 30.5t-252 82.5z" />
<glyph unicode="T" horiz-adv-x="1300" d="M64 1491v94h1173v-94h-536v-1491h-100v1491h-537z" />
<glyph unicode="U" horiz-adv-x="1412" d="M136 538v1047h101v-1047q0 -95 26.5 -173t71 -130.5t105.5 -88.5t127.5 -52t138 -16t138 16t127.5 52t106 88.5t72 130.5t27 173v1047h100v-1047q0 -112 -32.5 -205.5t-87 -157t-128.5 -107t-155 -63.5t-168 -20q-61 0 -120 10t-115.5 32t-106 53.5t-91.5 77t-72 101 t-47 127t-17 152.5z" />
<glyph unicode="V" horiz-adv-x="1338" d="M25 1585h109l535 -1457l537 1457h109l-593 -1585h-104z" />
<glyph unicode="W" horiz-adv-x="1847" d="M34 1585h100l435 -1442l436 1442h100l-132 -429l307 -1013l435 1442h100l-484 -1585h-104l-303 993l-304 -993h-102z" />
<glyph unicode="X" horiz-adv-x="1308" d="M40 0l556 818l-522 767h116l464 -684l464 684h117l-523 -767l556 -818h-116l-498 732l-498 -732h-116z" />
<glyph unicode="Y" horiz-adv-x="1251" d="M27 1585h109l489 -846l491 846h109l-548 -946v-639h-101v639z" />
<glyph unicode="Z" horiz-adv-x="1200" d="M66 0v94l890 1397h-826v94h939v-94l-890 -1397h955v-94h-1068z" />
<glyph unicode="[" horiz-adv-x="524" d="M145 -223v1808h277v-94h-177v-1621h177v-93h-277z" />
<glyph unicode="\" horiz-adv-x="876" d="M17 1585h92l768 -1808h-91z" />
<glyph unicode="]" horiz-adv-x="524" d="M102 -130h177v1621h-177v94h277v-1808h-277v93z" />
<glyph unicode="^" horiz-adv-x="1129" d="M34 960l484 625h93l486 -625h-121l-411 525l-411 -525h-120z" />
<glyph unicode="_" horiz-adv-x="972" d="M51 0h871v-94h-871v94z" />
<glyph unicode="`" horiz-adv-x="347" d="M17 1585h135l176 -279h-102z" />
<glyph unicode="a" horiz-adv-x="988" d="M76 290q0 66 22 124t66 105t117 77t168 36l307 20v130q0 47 -11 86.5t-31.5 67t-47 47.5t-59.5 32t-67.5 17.5t-72.5 5.5q-134 0 -313 -69l-11 96q159 66 328 66q62 0 118 -11.5t105.5 -38.5t85 -66t56.5 -97t21 -130v-788h-89l-12 143q-69 -69 -171.5 -113.5 t-205.5 -44.5q-76 0 -135.5 25.5t-95 69t-54 97t-18.5 113.5zM177 292q0 -43 11 -80.5t34.5 -68t63.5 -48t93 -17.5q101 0 203.5 46.5t173.5 114.5v321l-305 -22q-47 -3 -87 -14t-70 -28t-52.5 -39.5t-36.5 -49t-21 -55.5t-7 -60z" />
<glyph unicode="b" horiz-adv-x="1063" d="M132 83v1553h100v-683q73 90 160.5 134t178.5 44q79 0 149.5 -32t126 -92.5t88 -155.5t32.5 -212v-159q0 -106 -22 -190t-61 -140.5t-94 -94t-119.5 -54t-139.5 -16.5q-169 0 -399 98zM232 145q164 -67 299 -67q159 0 247.5 97t88.5 305v157q0 99 -24.5 177.5t-66 126.5 t-95 72.5t-114.5 24.5q-89 0 -178 -52t-157 -151v-690z" />
<glyph unicode="c" horiz-adv-x="948" d="M85 509v64q0 130 35.5 235.5t99 176t153.5 108.5t198 38q134 0 277 -55l-11 -96q-145 58 -259 58q-89 0 -160 -28.5t-123.5 -84.5t-81 -145.5t-28.5 -206.5v-64q0 -103 29 -185.5t81 -135.5t121.5 -81.5t152.5 -28.5q72 0 139 20.5t151 65.5l12 -98q-154 -81 -302 -81 q-106 0 -195 35t-153 101t-100 165.5t-36 222.5z" />
<glyph unicode="d" horiz-adv-x="1061" d="M96 480v159q0 117 32 212t87.5 155.5t128 92.5t154.5 32q190 0 333 -178v683h100v-1636h-90l-10 192q-143 -207 -337 -207q-86 0 -158.5 32.5t-126 94t-83.5 156t-30 212.5zM196 480q0 -194 83.5 -298t216.5 -104q91 0 178.5 59t156.5 171v527q-69 100 -155 151.5 t-174 51.5q-64 0 -119 -24.5t-97 -72.5t-66 -126t-24 -178v-157z" />
<glyph unicode="e" horiz-adv-x="1012" d="M89 526q0 147 37.5 264t101.5 190.5t145.5 112t173.5 38.5q77 0 146 -29.5t124 -86t87.5 -146.5t32.5 -202q0 -89 -21 -178h-726q5 -132 49 -223.5t128 -139.5t204 -48q112 0 275 74l13 -96q-145 -71 -288 -71q-158 0 -267.5 68t-162 188t-52.5 285zM190 583h641 q6 44 6 84q0 71 -16 131.5t-43.5 104t-64.5 74.5t-79.5 46t-88.5 15q-54 0 -104 -18.5t-93.5 -55.5t-77 -90.5t-54.5 -128t-26 -162.5z" />
<glyph unicode="f" horiz-adv-x="613" d="M36 1022v94h134v239q0 136 74.5 216.5t198.5 80.5q64 0 135 -25l-13 -91q-67 23 -120 23q-175 0 -175 -206v-237h303v-94h-303v-1022h-100v1022h-134z" />
<glyph unicode="g" horiz-adv-x="982" d="M76 -100h101v-56q0 -105 84 -158.5t233 -53.5q96 0 168 20.5t115 65.5t43 110v23q0 86 -51 133.5t-171 47.5h-219q-71 0 -123.5 24t-79.5 69t-27 105v15q0 61 30.5 108.5t86.5 74.5q-82 47 -127 132t-45 192q0 108 44.5 193.5t130.5 135.5t200 50q82 0 152 -28t120 -78 q15 21 27 64l22 94h101l-24 -105q-11 -45 -27.5 -73t-47.5 -49q54 -91 54 -204q0 -108 -45.5 -192.5t-131.5 -132.5t-200 -48q-62 0 -116 13q-103 -47 -103 -142v-22q0 -52 31 -77.5t98 -25.5h219q99 0 172.5 -34.5t111.5 -95t38 -138.5v-34q0 -71 -33 -126.5t-91.5 -89.5 t-135 -51.5t-166.5 -17.5q-123 0 -215.5 33t-147.5 103t-55 170v56zM194 752q0 -123 73.5 -201t201.5 -78t202.5 78t74.5 201q0 124 -75 205t-202 81q-128 0 -201.5 -81t-73.5 -205z" />
<glyph unicode="h" horiz-adv-x="1046" d="M132 0v1636h100v-741q37 46 79.5 85.5t94 74.5t111.5 55.5t120 20.5q58 0 107.5 -16.5t88.5 -50t61 -90t22 -130.5v-844h-101v844q0 99 -44 146.5t-134 47.5q-44 0 -91 -15.5t-89.5 -40.5t-84.5 -59t-76 -69t-64 -72v-782h-100z" />
<glyph unicode="i" horiz-adv-x="441" d="M66 1022v94h77q83 0 119.5 -35t36.5 -119v-962h-101v960q0 23 -5.5 36.5t-18.5 19.5t-36 6h-72zM102 1433.5q0 41.5 29.5 71t71.5 29.5t71.5 -29.5t29.5 -71t-29.5 -71t-71.5 -29.5t-71.5 29.5t-29.5 71z" />
<glyph unicode="j" horiz-adv-x="450" d="M-81 -428l15 96q77 -36 128 -36q157 0 157 221v1107q0 34 -14 48t-47 14h-80v94h86q83 0 119 -35t36 -119v-1116q0 -145 -69.5 -226.5t-180.5 -81.5q-70 0 -150 34zM123 1433.5q0 41.5 29.5 71t70.5 29.5q28 0 51 -13.5t36.5 -36.5t13.5 -51q0 -41 -29.5 -70.5t-71 -29.5 t-71 29.5t-29.5 71z" />
<glyph unicode="k" horiz-adv-x="927" d="M132 0v1636h100v-1020h237l259 500h107l-266 -513q134 -39 183 -199l123 -404h-98l-116 382q-24 75 -69.5 107.5t-127.5 32.5h-232v-522h-100z" />
<glyph unicode="l" horiz-adv-x="452" d="M132 198v1438h100v-1435q0 -123 92 -123q33 0 85 22l11 -91q-53 -24 -103 -24q-58 0 -99 23.5t-63.5 71.5t-22.5 118z" />
<glyph unicode="m" horiz-adv-x="1631" d="M132 0v1116h89l11 -205q26 40 61.5 76.5t80.5 70t101 53.5t113 20q102 0 176 -52t95 -157q61 83 161 146t201 63q57 0 106 -16.5t88.5 -50t62 -90t22.5 -130.5v-844h-100v844q0 97 -47.5 145.5t-131.5 48.5q-91 0 -188.5 -67t-165.5 -159v-812h-102v844q0 98 -46.5 146 t-130.5 48q-35 0 -70.5 -9.5t-68 -27t-63 -40t-58.5 -49.5t-51.5 -56t-44.5 -59v-797h-100z" />
<glyph unicode="n" horiz-adv-x="1046" d="M132 0v1116h89l11 -221q37 46 79.5 85.5t94 74.5t111.5 55.5t120 20.5q58 0 107.5 -16.5t88.5 -50t61 -90t22 -130.5v-844h-101v844q0 99 -44 146.5t-134 47.5q-44 0 -91 -15.5t-89.5 -40.5t-84.5 -59t-76 -69t-64 -72v-782h-100z" />
<glyph unicode="o" horiz-adv-x="1116" d="M83 516v85q0 87 14.5 162.5t50 144t88.5 117.5t135.5 77.5t186.5 28.5t186.5 -28.5t136 -77.5t88.5 -117.5t49.5 -144t14.5 -162.5v-85q0 -87 -14.5 -163t-49.5 -144.5t-88.5 -117.5t-136 -77.5t-186.5 -28.5t-186.5 28.5t-135.5 77.5t-88.5 117.5t-50 144.5t-14.5 163z M183 524q0 -99 21.5 -178.5t65.5 -140t117 -94t171 -33.5t171.5 33.5t117 94t65 140t21.5 178.5v68q0 99 -21.5 178.5t-65 140.5t-117 94t-171.5 33t-171 -33t-117 -94t-65.5 -140.5t-21.5 -178.5v-68z" />
<glyph unicode="p" horiz-adv-x="1063" d="M132 -447v1563h89l11 -163q73 90 160.5 134t178.5 44q79 0 149.5 -32t126 -92.5t88 -155.5t32.5 -212v-159q0 -94 -21.5 -175t-58.5 -139t-86.5 -99.5t-106.5 -61.5t-118 -20q-95 0 -183.5 51.5t-160.5 155.5v-639h-100zM232 308q69 -112 159 -171t182 -59q60 0 112 25.5 t93 74.5t65 126.5t24 175.5v157q0 99 -24.5 177.5t-66 126.5t-95 72.5t-114.5 24.5q-89 0 -178 -52t-157 -151v-527z" />
<glyph unicode="q" horiz-adv-x="1063" d="M98 480v159q0 117 32.5 212t88 155.5t126 92.5t149.5 32q91 0 178.5 -44t160.5 -134l11 163h89v-1563h-100v639q-72 -104 -160.5 -155.5t-183.5 -51.5q-77 0 -146.5 32.5t-124.5 93.5t-87.5 156.5t-32.5 212.5zM198 480q0 -66 11 -123t30.5 -100.5t47 -77.5t60 -56 t69 -33.5t76.5 -11.5q92 0 182 59t159 171v527q-68 99 -157.5 151t-177.5 52q-49 0 -93 -15.5t-82 -47.5t-65.5 -78.5t-43.5 -113t-16 -146.5v-157z" />
<glyph unicode="r" horiz-adv-x="682" d="M132 0v1116h89l11 -179q29 54 72 96.5t103.5 70t125.5 27.5q55 0 108 -15l-11 -94q-47 16 -89 16q-189 0 -309 -218v-820h-100z" />
<glyph unicode="s" horiz-adv-x="888" d="M51 36l13 105q203 -63 356 -63q49 0 90.5 7t80 23t65 41.5t42.5 65.5t16 91q0 40 -18 72t-48.5 53.5t-71.5 41t-87 33.5t-95 31.5t-95 35t-87 44t-71.5 58t-48.5 78.5t-18 104q0 59 20 106.5t53.5 78.5t80.5 51.5t98.5 29t110.5 8.5q176 0 349 -55l-13 -87 q-177 49 -322 49q-56 0 -103.5 -10t-87.5 -30.5t-63 -56.5t-23 -84q0 -46 18 -82.5t49 -60.5t72 -44.5t87 -34.5t95 -30.5t95 -32t87 -40t71.5 -54t48.5 -73.5t18 -99q0 -72 -21 -128t-56.5 -92t-87.5 -59t-108.5 -32.5t-124.5 -9.5q-176 0 -366 51z" />
<glyph unicode="t" horiz-adv-x="615" d="M32 1022v94h149v315l100 20v-335h257v-94h-257v-799q0 -72 32.5 -108.5t86.5 -36.5q60 0 126 41l7 -92q-66 -42 -143 -42q-88 0 -148.5 61t-60.5 175v801h-149z" />
<glyph unicode="u" horiz-adv-x="1046" d="M132 279v837h100v-837q0 -201 179 -201q105 0 216.5 70t187.5 167v801h101v-1116h-90l-11 201q-75 -94 -181 -155t-223 -61q-58 0 -107.5 17.5t-88.5 52t-61 92.5t-22 132z" />
<glyph unicode="v" horiz-adv-x="1031" d="M27 1116h109l380 -993l379 993h110l-438 -1116h-103z" />
<glyph unicode="w" horiz-adv-x="1300" d="M29 1116h103l263 -982l263 982h103l-60 -215l205 -767l264 982h102l-314 -1116h-36q-27 0 -43 6t-25.5 19t-16.5 37l-187 664l-186 -664q-10 -35 -27.5 -48.5t-57.5 -13.5h-36z" />
<glyph unicode="x" horiz-adv-x="995" d="M40 0l399 569l-381 547h116l324 -464l326 464h116l-384 -547l402 -569h-117l-343 486l-342 -486h-116z" />
<glyph unicode="y" horiz-adv-x="1066" d="M32 -400l11 96q94 -64 187 -64q115 0 162 125l94 243l-441 1116h109l382 -988l377 988h109l-545 -1388q-72 -190 -247 -190q-93 0 -198 62z" />
<glyph unicode="z" horiz-adv-x="967" d="M66 0v94l682 928h-656v94h770v-94l-683 -928h714v-94h-827z" />
<glyph unicode="{" horiz-adv-x="473" d="M94 634v94q125 78 125 239q0 56 -21 131t-42.5 150t-21.5 130q0 96 40 159t116 63q41 0 85 -15v-90q-42 11 -64 11q-39 0 -58 -34t-19 -94q0 -55 21.5 -130t42.5 -150t21 -131q0 -42 -7 -81t-23.5 -78t-46.5 -72t-72 -55q42 -21 72 -54.5t46.5 -72.5t23.5 -78.5t7 -80.5 q0 -56 -21 -131t-42.5 -149.5t-21.5 -129.5q0 -60 19 -95t58 -35q22 0 64 11v-89q-44 -16 -85 -16q-76 0 -116 63.5t-40 160.5q0 55 21.5 129.5t42.5 149.5t21 131q0 161 -125 239z" />
<glyph unicode="|" horiz-adv-x="390" d="M145 -223v1919h100v-1919h-100z" />
<glyph unicode="}" horiz-adv-x="473" d="M94 -134q42 -11 64 -11q20 0 34.5 9.5t23.5 27t13.5 41t4.5 52.5q0 55 -21 129.5t-42.5 149.5t-21.5 131q0 33 4.5 64t15.5 64t27.5 61.5t42.5 54t60 42.5q-42 22 -72 55t-46.5 72t-24 78t-7.5 81q0 56 21.5 131t42.5 150t21 130q0 23 -2.5 42.5t-8.5 35.5t-15 27 t-21.5 17t-28.5 6q-22 0 -64 -11v90q44 15 85 15q76 0 116 -63t40 -159q0 -55 -21.5 -130t-42.5 -150t-21 -131q0 -161 125 -239v-94q-125 -78 -125 -239q0 -56 21 -131t42.5 -149.5t21.5 -129.5q0 -97 -40 -160.5t-116 -63.5q-41 0 -85 16v89z" />
<glyph unicode="~" horiz-adv-x="886" d="M58 618v16q0 57 9.5 106.5t30.5 92t60 67t92 24.5q39 0 79 -16t71 -41t64 -53.5t59.5 -53t56 -41t54.5 -16.5q31 0 52.5 14t33 40.5t16.5 58.5t5 75v18h94v-21q0 -30 -3 -58.5t-9.5 -57.5t-16.5 -53.5t-26 -46t-36 -37t-47.5 -24t-59.5 -8.5q-36 0 -73.5 16.5t-67 41 t-61.5 53t-59 53t-58 41t-59 16.5q-32 0 -53.5 -13.5t-32.5 -40.5t-15 -59t-4 -79v-14h-96z" />
<glyph unicode="&#xa1;" horiz-adv-x="426" d="M113 1172q0 27 14 50t37 36.5t51 13.5q41 0 70.5 -29.5t29.5 -71t-29.5 -71t-71 -29.5t-71.5 29.5t-30 71.5zM152 -328l14 1232h96l13 -1232h-123z" />
<glyph unicode="&#xa2;" horiz-adv-x="948" d="M85 509v64q0 229 104 373t284 177v261h100v-253q132 0 275 -55l-11 -96q-145 58 -264 58v-960q36 0 70 5.5t68.5 16t70 26t77.5 38.5l12 -98q-148 -78 -298 -81v-253h-100v261q-117 20 -203.5 84.5t-135.5 175.5t-49 256zM185 509q0 -174 78 -283t210 -139v940 q-135 -31 -211.5 -145.5t-76.5 -308.5v-64z" />
<glyph unicode="&#xa3;" horiz-adv-x="1052" d="M17 0v94h88q93 0 139 52t46 171v397h-226v94h226v366q0 112 27.5 196t76 133t108.5 73t132 24q152 0 308 -94l-24 -86q-156 86 -279 86q-56 0 -100.5 -19.5t-78 -59.5t-52 -106t-18.5 -154v-359h400v-94h-400v-382q0 -172 -79 -238h675v-94h-969z" />
<glyph unicode="&#xa5;" horiz-adv-x="1251" d="M27 1585h109l489 -846l491 846h109l-495 -853h282v-93h-335v-166h335v-94h-335v-379h-101v379h-335v94h335v166h-335v93h279z" />
<glyph unicode="&#xa6;" horiz-adv-x="390" d="M145 -223v855h100v-855h-100zM145 841v855h100v-855h-100z" />
<glyph unicode="&#xa7;" horiz-adv-x="943" d="M51 -76l13 105q206 -63 356 -63q49 0 90.5 6.5t80 23t65 42t42.5 65.5t16 91q0 40 -18 72t-48.5 53.5t-71.5 41t-87 33.5t-95 31.5t-95 35t-87 44t-71.5 58.5t-48.5 78.5t-18 104.5q0 138 102.5 199.5t296.5 61.5q-77 16 -138.5 42t-110 64t-75 92.5t-26.5 121.5 q0 59 20 106.5t53.5 78t80.5 51t98.5 29t110.5 8.5q176 0 349 -55l-13 -88q-177 49 -322 49q-56 0 -103.5 -9.5t-87.5 -29.5t-63 -56t-23 -84q0 -51 22 -90t59 -64.5t85.5 -45.5t101.5 -36.5t106 -33.5t101 -41t85.5 -54.5t59 -78t21.5 -108.5q0 -149 -93 -226.5t-271 -77.5 q315 -49 315 -277q0 -60 -14 -109.5t-41 -84t-63 -60t-81.5 -40t-94 -21.5t-104.5 -7q-176 0 -366 52zM174 746q0 -56 24 -96t66.5 -61.5t92.5 -31.5t112 -10q49 0 90.5 6.5t80 23t65 42t42.5 65.5t16 91q0 45 -23 76t-66 47t-92 22t-113 6q-96 0 -161 -19.5t-99.5 -60 t-34.5 -100.5z" />
<glyph unicode="&#xa8;" horiz-adv-x="722" d="M64 1433.5q0 38.5 26.5 65t65 26.5t65 -26.5t26.5 -65t-26.5 -65t-65 -26.5t-65 26.5t-26.5 65zM475 1433q0 26 12 47t33.5 33t46.5 12q38 0 64.5 -26.5t26.5 -65t-26.5 -65t-65 -26.5t-65 26.5t-26.5 64.5z" />
<glyph unicode="&#xaa;" horiz-adv-x="642" d="M60 1076q0 91 63 152t181 69l173 11v53q0 155 -151 155q-52 0 -111 -18.5t-108 -46.5l-7 91q110 58 228 58q49 0 90.5 -12.5t75.5 -39t53.5 -74t19.5 -110.5v-471h-83l-7 89q-98 -98 -215 -98q-90 0 -146 55t-56 137zM154 1078q0 -109 112 -109q116 0 211 100v161 l-151 -11q-98 -8 -135 -43t-37 -98z" />
<glyph unicode="&#xab;" horiz-adv-x="1016" d="M69 516v85l476 464v-123l-393 -384l393 -384v-123zM453 516v85l476 464v-123l-393 -384l393 -384v-123z" />
<glyph unicode="&#xac;" horiz-adv-x="856" d="M66 641v94h726v-277h-100v183h-626z" />
<glyph unicode="&#xad;" horiz-adv-x="571" d="M66 509v94h439v-94h-439z" />
<glyph unicode="&#xaf;" horiz-adv-x="747" d="M66 1306v94h613v-94h-613z" />
<glyph unicode="&#xb0;" horiz-adv-x="724" d="M81 1321q0 131 73 205t203.5 74t203.5 -74t73 -205t-73 -205t-203.5 -74t-203.5 74t-73 205zM172 1321q0 -91 47.5 -138t138 -47t138 47t47.5 138t-47.5 138t-138 47t-138 -47t-47.5 -138z" />
<glyph unicode="&#xb1;" horiz-adv-x="935" d="M83 0v94h769v-94h-769zM83 545v94h334v337h101v-337h334v-94h-334v-340h-101v340h-334z" />
<glyph unicode="&#xb2;" horiz-adv-x="599" d="M74 1206v98q52 42 82 67t69.5 60t61 58.5t46 54t37 56t20.5 55t8 60.5q0 113 -128 113q-85 0 -178 -53l-5 89q86 49 190 49q58 0 104 -20.5t75.5 -66.5t29.5 -111q0 -100 -76.5 -202t-226.5 -222h337v-85h-446z" />
<glyph unicode="&#xb3;" horiz-adv-x="599" d="M76 1248l9 87q99 -55 198 -55q77 0 114.5 31t37.5 86q0 59 -40.5 92.5t-126.5 33.5h-98v85h98q152 0 152 120q0 47 -32 73.5t-98 26.5q-82 0 -179 -43l-6 88q105 40 187 40q105 0 161 -48t56 -126q0 -39 -10 -69.5t-36.5 -57.5t-70.5 -47q24 -9 43.5 -20.5t34 -24t25 -27 t17 -30.5t9.5 -33.5t3 -36.5q0 -88 -65 -143t-178 -55q-62 0 -109.5 12.5t-95.5 40.5z" />
<glyph unicode="&#xb4;" horiz-adv-x="347" d="M17 1306l177 279h134l-207 -279h-104z" />
<glyph unicode="&#xb5;" horiz-adv-x="1046" d="M132 -447v1563h100v-837q0 -201 179 -201q105 0 216.5 70t187.5 167v801h101v-1116h-90l-11 201q-75 -93 -183.5 -154.5t-211.5 -61.5q-61 0 -103 16.5t-85 56.5v-505h-100z" />
<glyph unicode="&#xb6;" horiz-adv-x="1249" d="M83 1182.5q0 64.5 12 119.5t44.5 108.5t84 91t135 60.5t193.5 23h542v-1808h-101v1714h-169v-1714h-100v1007h-175q-108 0 -191.5 22.5t-134.5 59.5t-83.5 90t-44.5 107.5t-12 119z" />
<glyph unicode="&#xb7;" horiz-adv-x="437" d="M121 669q0 40 29 69.5t69 29.5t69 -29.5t29 -69.5t-29 -69t-69 -29t-69 29t-29 69z" />
<glyph unicode="&#xb8;" horiz-adv-x="379" d="M29 -368l20 93q70 -26 125 -26q85 0 85 71q0 51 -56 51h-90l36 179h90l-18 -89q63 -2 95 -38t32 -101q0 -74 -43 -120.5t-131 -46.5q-72 0 -145 27z" />
<glyph unicode="&#xb9;" horiz-adv-x="599" d="M94 1734l185 164h89v-607h132v-85h-353v85h132v492l-134 -120z" />
<glyph unicode="&#xba;" horiz-adv-x="709" d="M66 1208v68q0 52 9.5 98.5t31.5 88.5t54.5 72t82 47.5t111.5 17.5t111.5 -17.5t82 -47.5t54 -72t31 -88t9.5 -99v-68q0 -43 -6.5 -82.5t-20.5 -76t-37 -66.5t-54.5 -52.5t-74.5 -34.5t-95 -12q-62 0 -111.5 17.5t-82 48t-54.5 72t-31.5 88t-9.5 98.5zM156 1212 q0 -243 199 -243t199 243v60q0 244 -199 244t-199 -244v-60z" />
<glyph unicode="&#xbb;" horiz-adv-x="1016" d="M76 51v123l393 384l-393 384v123l476 -464v-85zM460 51v123l392 384l-392 384v123l475 -464v-85z" />
<glyph unicode="&#xbc;" horiz-adv-x="1568" d="M94 1422l185 163h89v-607h132v-85h-353v85h132v494l-134 -121zM98 0l1275 1585h105l-1275 -1585h-105zM913 96v74l317 522h85v-511h95v-85h-95v-96h-90v96h-312zM1007 181h218v360z" />
<glyph unicode="&#xbd;" horiz-adv-x="1568" d="M94 1422l185 163h89v-607h132v-85h-353v85h132v494l-134 -121zM98 0l1275 1585h105l-1275 -1585h-105zM973 0v98q52 42 82 67t69.5 60.5t61.5 59t46.5 54t36.5 56t20 55t8 59.5q0 113 -127 113q-86 0 -179 -53l-5 89q87 49 190 49q58 0 104.5 -20.5t76 -66.5t29.5 -111 q0 -100 -77 -201.5t-227 -222.5h338v-85h-447z" />
<glyph unicode="&#xbe;" horiz-adv-x="1568" d="M76 935l9 87q99 -55 198 -55q77 0 114.5 31t37.5 87q0 58 -40.5 91.5t-126.5 33.5h-98v85h98q152 0 152 120q0 47 -32 74t-98 27q-82 0 -179 -42l-6 87q102 39 187 39q105 0 161 -47.5t56 -125.5q0 -29 -6 -53t-19 -46.5t-36 -41.5t-56 -34q70 -27 101 -69.5t31 -102.5 q0 -88 -65 -143t-178 -55q-62 0 -109.5 12.5t-95.5 40.5zM98 0l1275 1585h105l-1275 -1585h-105zM913 96v74l317 522h85v-511h95v-85h-95v-96h-90v96h-312zM1007 181h218v360z" />
<glyph unicode="&#xbf;" horiz-adv-x="965" d="M109 20q0 73 20.5 138t53.5 115t73 98t80 98.5t73.5 104.5t54 126.5t20.5 156.5v47h101v-35q0 -92 -20.5 -172t-53.5 -139t-73 -112.5t-80 -101.5t-73 -95.5t-54 -106t-21 -122.5q0 -75 23 -129t64.5 -84t92 -43.5t112.5 -13.5q142 0 335 63l20 -92q-184 -64 -355 -64 q-66 0 -123 11t-107.5 38t-86 68t-56 103.5t-20.5 142.5zM431 1171.5q0 41.5 29 71t71 29.5t71.5 -29.5t29.5 -71t-29.5 -71t-71.5 -29.5t-71 29.5t-29 71z" />
<glyph unicode="&#xc0;" horiz-adv-x="1338" d="M43 0l575 1585h104l575 -1585h-94l-196 538h-677l-194 -538h-93zM366 632h607l-304 837zM413 2054h134l177 -279h-104z" />
<glyph unicode="&#xc1;" horiz-adv-x="1338" d="M43 0l575 1585h104l575 -1585h-94l-196 538h-677l-194 -538h-93zM366 632h607l-304 837zM614 1775l176 279h134l-208 -279h-102z" />
<glyph unicode="&#xc2;" horiz-adv-x="1338" d="M43 0l575 1585h104l575 -1585h-94l-196 538h-677l-194 -538h-93zM366 632h607l-304 837zM411 1775l216 279h85l217 -279h-117l-143 183l-143 -183h-115z" />
<glyph unicode="&#xc3;" horiz-adv-x="1338" d="M43 0l575 1585h104l575 -1585h-94l-196 538h-677l-194 -538h-93zM366 632h607l-304 837zM371 1834q14 77 62 124t112 47q34 0 70.5 -17.5t62.5 -37.5t58 -37t59 -17t48.5 25.5t27.5 74.5l96 -25q-15 -77 -63 -123t-112 -46q-35 0 -72.5 17t-64 37.5t-57 37.5t-53.5 17 q-29 0 -50.5 -25.5t-27.5 -75.5z" />
<glyph unicode="&#xc4;" horiz-adv-x="1338" d="M43 0l575 1585h104l575 -1585h-94l-196 538h-677l-194 -538h-93zM366 632h607l-304 837zM373 1902q0 38 26.5 65t65 27t65 -27t26.5 -65t-26.5 -65t-65 -27t-65 27t-26.5 65zM784 1902q0 25 12 46t33 33.5t46 12.5q39 0 65.5 -27t26.5 -65t-26.5 -65t-65 -27t-65 27 t-26.5 65z" />
<glyph unicode="&#xc5;" horiz-adv-x="1338" d="M43 0l575 1585h104l575 -1585h-94l-196 538h-677l-194 -538h-93zM366 632h607l-304 837zM516 1915q0 69 42 111.5t109 42.5q69 0 112 -42.5t43 -111.5q0 -44 -19.5 -78.5t-55 -53.5t-80.5 -19q-67 0 -109 42t-42 109zM596 1915q0 -71 71 -71q74 0 74 71q0 74 -74 74 q-71 0 -71 -74z" />
<glyph unicode="&#xc6;" horiz-adv-x="1892" d="M43 0l596 1585h1131v-94h-748l25 -650h627v-93h-624l24 -654h728v-94h-829l-17 538h-619l-201 -538h-93zM373 632h577l-28 859h-225z" />
<glyph unicode="&#xc7;" horiz-adv-x="1182" d="M100 652v212q0 177 44.5 317t125.5 231.5t192.5 139.5t247.5 48q193 0 370 -94l-19 -86q-181 86 -354 86q-85 0 -159.5 -23t-139 -73t-110 -123.5t-71.5 -179.5t-26 -236v-224q0 -117 26 -212.5t72.5 -161t111 -110t138.5 -65t158 -20.5q97 0 197.5 31.5t186.5 93.5 l23 -90q-183 -124 -404 -128l-13 -74q62 -2 94.5 -38t32.5 -101q0 -74 -43.5 -120.5t-130.5 -46.5q-72 0 -145 27l19 93q71 -26 126 -26q85 0 85 71q0 51 -56 51h-89l32 168q-90 9 -167 37t-143.5 81t-112.5 127.5t-72.5 180.5t-26.5 237z" />
<glyph unicode="&#xc8;" horiz-adv-x="1137" d="M143 0v1585h873v-94h-773v-650h677v-93h-677v-654h804v-94h-904zM341 2054h134l177 -279h-103z" />
<glyph unicode="&#xc9;" horiz-adv-x="1137" d="M143 0v1585h873v-94h-773v-650h677v-93h-677v-654h804v-94h-904zM536 1775l176 279h134l-207 -279h-103z" />
<glyph unicode="&#xca;" horiz-adv-x="1137" d="M143 0v1585h873v-94h-773v-650h677v-93h-677v-654h804v-94h-904zM335 1775l217 279h85l215 -279h-115l-143 183l-143 -183h-116z" />
<glyph unicode="&#xcb;" horiz-adv-x="1137" d="M143 0v1585h873v-94h-773v-650h677v-93h-677v-654h804v-94h-904zM296 1902q0 38 27 65t65 27t65 -27t27 -65t-27 -65t-65 -27t-65 27t-27 65zM707 1902q0 25 12.5 46t33.5 33.5t46 12.5q38 0 65 -27t27 -65t-27 -65t-65 -27t-65 27t-27 65z" />
<glyph unicode="&#xcc;" horiz-adv-x="412" d="M-45 2054h134l177 -279h-102zM156 0v1585h101v-1585h-101z" />
<glyph unicode="&#xcd;" horiz-adv-x="412" d="M154 1775l176 279h134l-207 -279h-103zM156 0v1585h101v-1585h-101z" />
<glyph unicode="&#xce;" horiz-adv-x="412" d="M-51 1775l217 279h84l217 -279h-116l-144 183l-143 -183h-115zM156 0v1585h101v-1585h-101z" />
<glyph unicode="&#xcf;" horiz-adv-x="412" d="M-89 1902q0 38 26.5 65t65 27t65 -27t26.5 -65t-26.5 -65t-65 -27t-65 27t-26.5 65zM156 0v1585h101v-1585h-101zM322 1902q0 38 26.5 65t65 27t65 -27t26.5 -65t-26.5 -65t-65 -27t-65 27t-26.5 65z" />
<glyph unicode="&#xd0;" horiz-adv-x="1316" d="M0 722v93h143v752q201 33 359 33q151 0 271 -43t201 -118.5t134.5 -182t77.5 -228.5t24 -263q0 -129 -24 -242.5t-75 -210t-126 -165.5t-183 -108t-240 -39h-419v722h-143zM243 94h319q136 0 241 48t171.5 137t101 211.5t34.5 274.5q0 174 -36.5 309.5t-110.5 232.5 t-190 148t-271 51q-127 0 -259 -24v-667h415v-93h-415v-628z" />
<glyph unicode="&#xd1;" horiz-adv-x="1293" d="M143 0v1585h121l788 -1436v1436h100v-1585h-132l-777 1415v-1415h-100zM371 1834q14 77 62 124t112 47q34 0 70.5 -17.5t62.5 -37.5t58 -37t59 -17t48.5 25.5t27.5 74.5l96 -25q-15 -77 -63 -123t-112 -46q-35 0 -72.5 17t-64 37.5t-57 37.5t-53.5 17q-29 0 -50.5 -25.5 t-27.5 -75.5z" />
<glyph unicode="&#xd2;" horiz-adv-x="1419" d="M81 728v129q0 224 75 392t216.5 259.5t332.5 91.5t333 -91.5t217.5 -259.5t75.5 -392v-129q0 -224 -75.5 -392t-217.5 -259.5t-333 -91.5t-332.5 91.5t-216.5 259.5t-75 392zM181 722q0 -135 35 -252t100 -204t165.5 -137.5t223.5 -50.5t223.5 50.5t165.5 137.5 t100.5 204t35.5 252v142q0 135 -35.5 251.5t-100.5 204t-165 137t-223.5 49.5t-224 -49.5t-165.5 -137t-100 -204t-35 -251.5v-142zM451 2054h134l176 -279h-103z" />
<glyph unicode="&#xd3;" horiz-adv-x="1419" d="M81 728v129q0 224 75 392t216.5 259.5t332.5 91.5t333 -91.5t217.5 -259.5t75.5 -392v-129q0 -224 -75.5 -392t-217.5 -259.5t-333 -91.5t-332.5 91.5t-216.5 259.5t-75 392zM181 722q0 -135 35 -252t100 -204t165.5 -137.5t223.5 -50.5t223.5 50.5t165.5 137.5 t100.5 204t35.5 252v142q0 135 -35.5 251.5t-100.5 204t-165 137t-223.5 49.5t-224 -49.5t-165.5 -137t-100 -204t-35 -251.5v-142zM652 1775l176 279h134l-208 -279h-102z" />
<glyph unicode="&#xd4;" horiz-adv-x="1419" d="M81 728v129q0 224 75 392t216.5 259.5t332.5 91.5t333 -91.5t217.5 -259.5t75.5 -392v-129q0 -224 -75.5 -392t-217.5 -259.5t-333 -91.5t-332.5 91.5t-216.5 259.5t-75 392zM181 722q0 -135 35 -252t100 -204t165.5 -137.5t223.5 -50.5t223.5 50.5t165.5 137.5 t100.5 204t35.5 252v142q0 135 -35.5 251.5t-100.5 204t-165 137t-223.5 49.5t-224 -49.5t-165.5 -137t-100 -204t-35 -251.5v-142zM451 1775l216 279h85l217 -279h-117l-142 183l-143 -183h-116z" />
<glyph unicode="&#xd5;" horiz-adv-x="1419" d="M81 728v129q0 224 75 392t216.5 259.5t332.5 91.5t333 -91.5t217.5 -259.5t75.5 -392v-129q0 -224 -75.5 -392t-217.5 -259.5t-333 -91.5t-332.5 91.5t-216.5 259.5t-75 392zM181 722q0 -135 35 -252t100 -204t165.5 -137.5t223.5 -50.5t223.5 50.5t165.5 137.5 t100.5 204t35.5 252v142q0 135 -35.5 251.5t-100.5 204t-165 137t-223.5 49.5t-224 -49.5t-165.5 -137t-100 -204t-35 -251.5v-142zM411 1834q15 77 62.5 124t111.5 47q35 0 71.5 -17.5t62 -37.5t57.5 -37t59 -17q17 0 32.5 10t27.5 33.5t16 56.5l96 -25q-15 -77 -62.5 -123 t-111.5 -46q-35 0 -73 17t-64.5 37.5t-57 37.5t-53.5 17q-28 0 -50 -25.5t-28 -75.5z" />
<glyph unicode="&#xd6;" horiz-adv-x="1419" d="M81 728v129q0 224 75 392t216.5 259.5t332.5 91.5t333 -91.5t217.5 -259.5t75.5 -392v-129q0 -224 -75.5 -392t-217.5 -259.5t-333 -91.5t-332.5 91.5t-216.5 259.5t-75 392zM181 722q0 -135 35 -252t100 -204t165.5 -137.5t223.5 -50.5t223.5 50.5t165.5 137.5 t100.5 204t35.5 252v142q0 135 -35.5 251.5t-100.5 204t-165 137t-223.5 49.5t-224 -49.5t-165.5 -137t-100 -204t-35 -251.5v-142zM413 1902q0 38 26.5 65t65 27t65 -27t26.5 -65t-26.5 -65t-65 -27t-65 27t-26.5 65zM824 1902q0 25 12 46t33 33.5t47 12.5q38 0 64.5 -27 t26.5 -65t-26.5 -65t-65 -27t-65 27t-26.5 65z" />
<glyph unicode="&#xd8;" horiz-adv-x="1419" d="M81 728v129q0 224 75 392t216.5 259.5t332.5 91.5q134 0 232 -39l90 247h91l-102 -285q99 -58 169.5 -154t108 -226.5t37.5 -285.5v-129q0 -224 -75.5 -392t-217.5 -259.5t-333 -91.5q-128 0 -230 37l-87 -245h-92l102 283q-151 85 -234 259t-83 409zM181 722 q0 -188 65 -337.5t187 -228.5l471 1311q-94 39 -199 39q-123 0 -223.5 -49.5t-165.5 -137t-100 -204t-35 -251.5v-142zM509 116q85 -38 196 -38q123 0 223.5 50.5t165.5 137.5t100.5 204t35.5 252v142q0 186 -64.5 334t-185.5 229z" />
<glyph unicode="&#xd9;" horiz-adv-x="1412" d="M136 538v1047h101v-1047q0 -95 26.5 -173t71 -130.5t105.5 -88.5t127.5 -52t138 -16t138 16t127.5 52t106 88.5t72 130.5t27 173v1047h100v-1047q0 -112 -32.5 -205.5t-87 -157t-128.5 -107t-155 -63.5t-168 -20q-61 0 -120 10t-115.5 32t-106 53.5t-91.5 77t-72 101 t-47 127t-17 152.5zM449 2054h134l176 -279h-103z" />
<glyph unicode="&#xda;" horiz-adv-x="1412" d="M136 538v1047h101v-1047q0 -95 26.5 -173t71 -130.5t105.5 -88.5t127.5 -52t138 -16t138 16t127.5 52t106 88.5t72 130.5t27 173v1047h100v-1047q0 -112 -32.5 -205.5t-87 -157t-128.5 -107t-155 -63.5t-168 -20q-61 0 -120 10t-115.5 32t-106 53.5t-91.5 77t-72 101 t-47 127t-17 152.5zM650 1775l176 279h134l-208 -279h-102z" />
<glyph unicode="&#xdb;" horiz-adv-x="1412" d="M136 538v1047h101v-1047q0 -95 26.5 -173t71 -130.5t105.5 -88.5t127.5 -52t138 -16t138 16t127.5 52t106 88.5t72 130.5t27 173v1047h100v-1047q0 -112 -32.5 -205.5t-87 -157t-128.5 -107t-155 -63.5t-168 -20q-61 0 -120 10t-115.5 32t-106 53.5t-91.5 77t-72 101 t-47 127t-17 152.5zM447 1775l216 279h85l217 -279h-117l-143 183l-143 -183h-115z" />
<glyph unicode="&#xdc;" horiz-adv-x="1412" d="M136 538v1047h101v-1047q0 -95 26.5 -173t71 -130.5t105.5 -88.5t127.5 -52t138 -16t138 16t127.5 52t106 88.5t72 130.5t27 173v1047h100v-1047q0 -112 -32.5 -205.5t-87 -157t-128.5 -107t-155 -63.5t-168 -20q-61 0 -120 10t-115.5 32t-106 53.5t-91.5 77t-72 101 t-47 127t-17 152.5zM409 1902q0 38 26.5 65t65 27t65 -27t26.5 -65t-26.5 -65t-65 -27t-65 27t-26.5 65zM820 1902q0 38 26.5 65t65 27t65 -27t26.5 -65t-26.5 -65t-65 -27t-65 27t-26.5 65z" />
<glyph unicode="&#xdd;" horiz-adv-x="1251" d="M27 1585h109l489 -846l491 846h109l-548 -946v-639h-101v639zM569 1775l177 279h134l-209 -279h-102z" />
<glyph unicode="&#xde;" horiz-adv-x="1135" d="M143 0v1585h100v-303q127 24 230 24q274 0 432 -126t158 -352q0 -55 -10 -106t-31 -97.5t-51.5 -86t-73 -71.5t-93.5 -54.5t-115.5 -34.5t-136.5 -12h-309v-366h-100zM243 460h309q128 0 221 44.5t141 127.5t48 196q0 86 -28.5 153.5t-75 110t-111.5 70.5t-133 39 t-143 11q-121 0 -228 -32v-720z" />
<glyph unicode="&#xdf;" horiz-adv-x="1035" d="M132 0v1306q0 89 25.5 156.5t72 108.5t106.5 61t133 20q42 0 87.5 -7t92 -20.5t94 -34t92.5 -45.5l-275 -674q46 -26 76.5 -45t68.5 -44.5t63.5 -46t54.5 -48.5t48 -54.5t37.5 -60.5t29 -69.5t16.5 -78.5t6 -92q0 -170 -78.5 -258.5t-220.5 -88.5q-125 0 -252 51l13 105 q117 -63 228 -63q98 0 153.5 62.5t55.5 191.5q0 49 -8.5 90t-19.5 73t-40 66.5t-50.5 57t-71 58.5t-81.5 57.5t-102 66.5q-11 7 -17 11v89l243 599q-136 59 -243 59q-42 0 -76.5 -9t-64.5 -29t-51 -50t-33 -75t-12 -101v-1295h-100z" />
<glyph unicode="&#xe0;" horiz-adv-x="988" d="M76 290q0 66 22 124t66 105t117 77t168 36l307 20v130q0 47 -11 86.5t-31.5 67t-47 47.5t-59.5 32t-67.5 17.5t-72.5 5.5q-134 0 -313 -69l-11 96q159 66 328 66q62 0 118 -11.5t105.5 -38.5t85 -66t56.5 -97t21 -130v-788h-89l-12 143q-69 -69 -171.5 -113.5 t-205.5 -44.5q-76 0 -135.5 25.5t-95 69t-54 97t-18.5 113.5zM177 292q0 -43 11 -80.5t34.5 -68t63.5 -48t93 -17.5q101 0 203.5 46.5t173.5 114.5v321l-305 -22q-47 -3 -87 -14t-70 -28t-52.5 -39.5t-36.5 -49t-21 -55.5t-7 -60zM241 1585h134l177 -279h-103z" />
<glyph unicode="&#xe1;" horiz-adv-x="988" d="M76 290q0 66 22 124t66 105t117 77t168 36l307 20v130q0 47 -11 86.5t-31.5 67t-47 47.5t-59.5 32t-67.5 17.5t-72.5 5.5q-134 0 -313 -69l-11 96q159 66 328 66q62 0 118 -11.5t105.5 -38.5t85 -66t56.5 -97t21 -130v-788h-89l-12 143q-69 -69 -171.5 -113.5 t-205.5 -44.5q-76 0 -135.5 25.5t-95 69t-54 97t-18.5 113.5zM177 292q0 -43 11 -80.5t34.5 -68t63.5 -48t93 -17.5q101 0 203.5 46.5t173.5 114.5v321l-305 -22q-47 -3 -87 -14t-70 -28t-52.5 -39.5t-36.5 -49t-21 -55.5t-7 -60zM439 1306l177 279h134l-207 -279h-104z" />
<glyph unicode="&#xe2;" horiz-adv-x="988" d="M76 290q0 66 22 124t66 105t117 77t168 36l307 20v130q0 47 -11 86.5t-31.5 67t-47 47.5t-59.5 32t-67.5 17.5t-72.5 5.5q-134 0 -313 -69l-11 96q159 66 328 66q62 0 118 -11.5t105.5 -38.5t85 -66t56.5 -97t21 -130v-788h-89l-12 143q-69 -69 -171.5 -113.5 t-205.5 -44.5q-76 0 -135.5 25.5t-95 69t-54 97t-18.5 113.5zM177 292q0 -43 11 -80.5t34.5 -68t63.5 -48t93 -17.5q101 0 203.5 46.5t173.5 114.5v321l-305 -22q-47 -3 -87 -14t-70 -28t-52.5 -39.5t-36.5 -49t-21 -55.5t-7 -60zM234 1306l217 279h85l216 -279h-115 l-143 183l-143 -183h-117z" />
<glyph unicode="&#xe3;" horiz-adv-x="988" d="M76 290q0 66 22 124t66 105t117 77t168 36l307 20v130q0 47 -11 86.5t-31.5 67t-47 47.5t-59.5 32t-67.5 17.5t-72.5 5.5q-134 0 -313 -69l-11 96q159 66 328 66q62 0 118 -11.5t105.5 -38.5t85 -66t56.5 -97t21 -130v-788h-89l-12 143q-69 -69 -171.5 -113.5 t-205.5 -44.5q-76 0 -135.5 25.5t-95 69t-54 97t-18.5 113.5zM177 292q0 -43 11 -80.5t34.5 -68t63.5 -48t93 -17.5q101 0 203.5 46.5t173.5 114.5v321l-305 -22q-47 -3 -87 -14t-70 -28t-52.5 -39.5t-36.5 -49t-21 -55.5t-7 -60zM196 1366q15 77 63 123.5t112 46.5 q34 0 70.5 -17t62 -37.5t58 -37.5t58.5 -17q27 0 48.5 25.5t28.5 74.5l95 -25q-9 -51 -34 -89t-61.5 -59t-78.5 -21q-29 0 -59 11.5t-54 27.5t-47 32t-46 27t-41.5 11t-34.5 -10.5t-28 -33.5t-16 -56z" />
<glyph unicode="&#xe4;" horiz-adv-x="988" d="M76 290q0 66 22 124t66 105t117 77t168 36l307 20v130q0 47 -11 86.5t-31.5 67t-47 47.5t-59.5 32t-67.5 17.5t-72.5 5.5q-134 0 -313 -69l-11 96q159 66 328 66q62 0 118 -11.5t105.5 -38.5t85 -66t56.5 -97t21 -130v-788h-89l-12 143q-69 -69 -171.5 -113.5 t-205.5 -44.5q-76 0 -135.5 25.5t-95 69t-54 97t-18.5 113.5zM177 292q0 -43 11 -80.5t34.5 -68t63.5 -48t93 -17.5q101 0 203.5 46.5t173.5 114.5v321l-305 -22q-47 -3 -87 -14t-70 -28t-52.5 -39.5t-36.5 -49t-21 -55.5t-7 -60zM196 1433.5q0 38.5 26.5 65t65 26.5 t65 -26.5t26.5 -65t-26.5 -65t-65 -26.5t-65 26.5t-26.5 65zM607 1433.5q0 38.5 26.5 65t65 26.5t65 -26.5t26.5 -65t-26.5 -65t-65 -26.5t-65 26.5t-26.5 65z" />
<glyph unicode="&#xe5;" horiz-adv-x="988" d="M76 290q0 66 22 124t66 105t117 77t168 36l307 20v130q0 47 -11 86.5t-31.5 67t-47 47.5t-59.5 32t-67.5 17.5t-72.5 5.5q-134 0 -313 -69l-11 96q159 66 328 66q62 0 118 -11.5t105.5 -38.5t85 -66t56.5 -97t21 -130v-788h-89l-12 143q-69 -69 -171.5 -113.5 t-205.5 -44.5q-76 0 -135.5 25.5t-95 69t-54 97t-18.5 113.5zM177 292q0 -43 11 -80.5t34.5 -68t63.5 -48t93 -17.5q101 0 203.5 46.5t173.5 114.5v321l-305 -22q-47 -3 -87 -14t-70 -28t-52.5 -39.5t-36.5 -49t-21 -55.5t-7 -60zM341 1446q0 69 42.5 111.5t110.5 42.5 t110.5 -42.5t42.5 -111.5q0 -67 -42.5 -109t-110.5 -42q-67 0 -110 42.5t-43 108.5zM422 1446q0 -70 72 -70q73 0 73 70q0 75 -73 75q-72 0 -72 -75z" />
<glyph unicode="&#xe6;" horiz-adv-x="1638" d="M76 290q0 66 22 124t66 105t117 77t168 36l273 18q16 119 55 205q-16 48 -47.5 84.5t-73 57.5t-89 31t-100.5 10q-78 0 -161 -19t-152 -50l-11 96q169 66 328 66q245 0 366 -171q63 84 149.5 127.5t185.5 43.5q76 0 145.5 -29.5t125 -86t88 -146.5t32.5 -202 q0 -84 -23 -178h-725q6 -132 50 -223.5t127.5 -139.5t204.5 -48q111 0 275 74l13 -96q-145 -71 -288 -71q-255 0 -382 171q-99 -80 -210 -125.5t-221 -45.5q-143 0 -225.5 74.5t-82.5 230.5zM177 292q0 -214 213 -214q68 0 142 23t131.5 54t111.5 71q-61 125 -61 300v30 l-263 -18q-47 -3 -87 -14t-70 -28t-52.5 -39.5t-36.5 -49t-21 -55.5t-7 -60zM815 583h640q7 44 7 84q0 71 -16 131.5t-43.5 104t-64.5 74.5t-80 46t-88 15q-68 0 -129 -29.5t-109 -85t-79 -143t-38 -197.5z" />
<glyph unicode="&#xe7;" horiz-adv-x="948" d="M85 509v64q0 130 35.5 235.5t99 176t153.5 108.5t198 38q134 0 277 -55l-11 -96q-145 58 -259 58q-89 0 -160 -28.5t-123.5 -84.5t-81 -145.5t-28.5 -206.5v-64q0 -103 29 -185.5t81 -135.5t121.5 -81.5t152.5 -28.5q72 0 139 20.5t151 65.5l12 -98q-148 -78 -300 -81 l-13 -74q63 -2 95.5 -38t32.5 -101q0 -74 -43.5 -120.5t-131.5 -46.5q-72 0 -145 27l20 93q70 -26 125 -26q85 0 85 71q0 51 -55 51h-90l33 170q-120 17 -209.5 81.5t-139.5 176.5t-50 260z" />
<glyph unicode="&#xe8;" horiz-adv-x="1012" d="M89 526q0 147 37.5 264t101.5 190.5t145.5 112t173.5 38.5q77 0 146 -29.5t124 -86t87.5 -146.5t32.5 -202q0 -89 -21 -178h-726q5 -132 49 -223.5t128 -139.5t204 -48q112 0 275 74l13 -96q-145 -71 -288 -71q-158 0 -267.5 68t-162 188t-52.5 285zM190 583h641 q6 44 6 84q0 71 -16 131.5t-43.5 104t-64.5 74.5t-79.5 46t-88.5 15q-54 0 -104 -18.5t-93.5 -55.5t-77 -90.5t-54.5 -128t-26 -162.5zM259 1585h133l177 -279h-102z" />
<glyph unicode="&#xe9;" horiz-adv-x="1012" d="M89 526q0 147 37.5 264t101.5 190.5t145.5 112t173.5 38.5q77 0 146 -29.5t124 -86t87.5 -146.5t32.5 -202q0 -89 -21 -178h-726q5 -132 49 -223.5t128 -139.5t204 -48q112 0 275 74l13 -96q-145 -71 -288 -71q-158 0 -267.5 68t-162 188t-52.5 285zM190 583h641 q6 44 6 84q0 71 -16 131.5t-43.5 104t-64.5 74.5t-79.5 46t-88.5 15q-54 0 -104 -18.5t-93.5 -55.5t-77 -90.5t-54.5 -128t-26 -162.5zM453 1306l177 279h133l-207 -279h-103z" />
<glyph unicode="&#xea;" horiz-adv-x="1012" d="M89 526q0 147 37.5 264t101.5 190.5t145.5 112t173.5 38.5q77 0 146 -29.5t124 -86t87.5 -146.5t32.5 -202q0 -89 -21 -178h-726q5 -132 49 -223.5t128 -139.5t204 -48q112 0 275 74l13 -96q-145 -71 -288 -71q-158 0 -267.5 68t-162 188t-52.5 285zM190 583h641 q6 44 6 84q0 71 -16 131.5t-43.5 104t-64.5 74.5t-79.5 46t-88.5 15q-54 0 -104 -18.5t-93.5 -55.5t-77 -90.5t-54.5 -128t-26 -162.5zM252 1306l217 279h85l217 -279h-117l-143 183l-143 -183h-116z" />
<glyph unicode="&#xeb;" horiz-adv-x="1012" d="M89 526q0 147 37.5 264t101.5 190.5t145.5 112t173.5 38.5q77 0 146 -29.5t124 -86t87.5 -146.5t32.5 -202q0 -89 -21 -178h-726q5 -132 49 -223.5t128 -139.5t204 -48q112 0 275 74l13 -96q-145 -71 -288 -71q-158 0 -267.5 68t-162 188t-52.5 285zM190 583h641 q6 44 6 84q0 71 -16 131.5t-43.5 104t-64.5 74.5t-79.5 46t-88.5 15q-54 0 -104 -18.5t-93.5 -55.5t-77 -90.5t-54.5 -128t-26 -162.5zM221 1433.5q0 38.5 26.5 65t65 26.5t65 -26.5t26.5 -65t-26.5 -65t-65 -26.5t-65 26.5t-26.5 65zM632 1433.5q0 38.5 26.5 65t65 26.5 t65 -26.5t26.5 -65t-26.5 -65t-65 -26.5t-65 26.5t-26.5 65z" />
<glyph unicode="&#xec;" horiz-adv-x="441" d="M-38 1585h134l176 -279h-102zM66 1022v94h77q83 0 119.5 -35t36.5 -119v-962h-101v960q0 23 -5.5 36.5t-18.5 19.5t-36 6h-72z" />
<glyph unicode="&#xed;" horiz-adv-x="441" d="M66 1022v94h77q83 0 119.5 -35t36.5 -119v-962h-101v960q0 23 -5.5 36.5t-18.5 19.5t-36 6h-72zM164 1306l175 279h134l-207 -279h-102z" />
<glyph unicode="&#xee;" horiz-adv-x="441" d="M-38 1306l217 279h85l216 -279h-116l-143 183l-143 -183h-116zM66 1022v94h77q83 0 119.5 -35t36.5 -119v-962h-101v960q0 23 -5.5 36.5t-18.5 19.5t-36 6h-72z" />
<glyph unicode="&#xef;" horiz-adv-x="441" d="M-76 1433.5q0 38.5 26.5 65t65 26.5t65 -26.5t26.5 -65t-26.5 -65t-65 -26.5t-65 26.5t-26.5 65zM66 1022v94h77q83 0 119.5 -35t36.5 -119v-962h-101v960q0 23 -5.5 36.5t-18.5 19.5t-36 6h-72zM335 1433.5q0 38.5 26.5 65t65 26.5t65 -26.5t26.5 -65t-26.5 -65 t-65 -26.5t-65 26.5t-26.5 65z" />
<glyph unicode="&#xf0;" horiz-adv-x="1014" d="M96 471v168q0 237 96 364.5t261 127.5q200 0 331 -178q0 166 -34 280t-116 184l-101 -111h-124l147 166q-80 38 -183 57l70 71q99 -16 177 -55l92 100h125l-136 -152q99 -82 141 -222t42 -340v-815q-216 -131 -415 -131q-181 0 -277 116.5t-96 369.5zM196 471 q0 -210 66 -301.5t207 -91.5q139 0 315 90v663q-70 95 -156.5 151t-169.5 56q-262 0 -262 -401v-166z" />
<glyph unicode="&#xf1;" horiz-adv-x="1046" d="M132 0v1116h89l11 -221q37 46 79.5 85.5t94 74.5t111.5 55.5t120 20.5q58 0 107.5 -16.5t88.5 -50t61 -90t22 -130.5v-844h-101v844q0 99 -44 146.5t-134 47.5q-44 0 -91 -15.5t-89.5 -40.5t-84.5 -59t-76 -69t-64 -72v-782h-100zM239 1366q14 77 62 123.5t112 46.5 q34 0 70.5 -17t62.5 -37.5t58 -37.5t59 -17t48.5 25.5t27.5 74.5l96 -25q-6 -30 -17.5 -56.5t-28 -47t-36.5 -35.5t-43.5 -22.5t-48.5 -7.5q-36 0 -73.5 17t-64 37.5t-57 37.5t-53.5 17q-29 0 -50.5 -25.5t-27.5 -74.5z" />
<glyph unicode="&#xf2;" horiz-adv-x="1116" d="M83 516v85q0 87 14.5 162.5t50 144t88.5 117.5t135.5 77.5t186.5 28.5t186.5 -28.5t136 -77.5t88.5 -117.5t49.5 -144t14.5 -162.5v-85q0 -87 -14.5 -163t-49.5 -144.5t-88.5 -117.5t-136 -77.5t-186.5 -28.5t-186.5 28.5t-135.5 77.5t-88.5 117.5t-50 144.5t-14.5 163z M183 524q0 -99 21.5 -178.5t65.5 -140t117 -94t171 -33.5t171.5 33.5t117 94t65 140t21.5 178.5v68q0 99 -21.5 178.5t-65 140.5t-117 94t-171.5 33t-171 -33t-117 -94t-65.5 -140.5t-21.5 -178.5v-68zM304 1585h133l177 -279h-103z" />
<glyph unicode="&#xf3;" horiz-adv-x="1116" d="M83 516v85q0 87 14.5 162.5t50 144t88.5 117.5t135.5 77.5t186.5 28.5t186.5 -28.5t136 -77.5t88.5 -117.5t49.5 -144t14.5 -162.5v-85q0 -87 -14.5 -163t-49.5 -144.5t-88.5 -117.5t-136 -77.5t-186.5 -28.5t-186.5 28.5t-135.5 77.5t-88.5 117.5t-50 144.5t-14.5 163z M183 524q0 -99 21.5 -178.5t65.5 -140t117 -94t171 -33.5t171.5 33.5t117 94t65 140t21.5 178.5v68q0 99 -21.5 178.5t-65 140.5t-117 94t-171.5 33t-171 -33t-117 -94t-65.5 -140.5t-21.5 -178.5v-68zM502 1306l177 279h133l-207 -279h-103z" />
<glyph unicode="&#xf4;" horiz-adv-x="1116" d="M83 516v85q0 87 14.5 162.5t50 144t88.5 117.5t135.5 77.5t186.5 28.5t186.5 -28.5t136 -77.5t88.5 -117.5t49.5 -144t14.5 -162.5v-85q0 -87 -14.5 -163t-49.5 -144.5t-88.5 -117.5t-136 -77.5t-186.5 -28.5t-186.5 28.5t-135.5 77.5t-88.5 117.5t-50 144.5t-14.5 163z M183 524q0 -99 21.5 -178.5t65.5 -140t117 -94t171 -33.5t171.5 33.5t117 94t65 140t21.5 178.5v68q0 99 -21.5 178.5t-65 140.5t-117 94t-171.5 33t-171 -33t-117 -94t-65.5 -140.5t-21.5 -178.5v-68zM299 1306l217 279h85l217 -279h-117l-143 183l-143 -183h-116z" />
<glyph unicode="&#xf5;" horiz-adv-x="1116" d="M83 516v85q0 87 14.5 162.5t50 144t88.5 117.5t135.5 77.5t186.5 28.5t186.5 -28.5t136 -77.5t88.5 -117.5t49.5 -144t14.5 -162.5v-85q0 -87 -14.5 -163t-49.5 -144.5t-88.5 -117.5t-136 -77.5t-186.5 -28.5t-186.5 28.5t-135.5 77.5t-88.5 117.5t-50 144.5t-14.5 163z M183 524q0 -99 21.5 -178.5t65.5 -140t117 -94t171 -33.5t171.5 33.5t117 94t65 140t21.5 178.5v68q0 99 -21.5 178.5t-65 140.5t-117 94t-171.5 33t-171 -33t-117 -94t-65.5 -140.5t-21.5 -178.5v-68zM259 1366q15 77 62.5 123.5t111.5 46.5q34 0 70.5 -17t62.5 -37.5 t58.5 -37.5t58.5 -17q27 0 48 25.5t28 74.5l96 -25q-15 -77 -62.5 -123t-111.5 -46q-35 0 -73 17t-64.5 37.5t-57.5 37.5t-53 17q-29 0 -50 -25.5t-28 -74.5z" />
<glyph unicode="&#xf6;" horiz-adv-x="1116" d="M83 516v85q0 87 14.5 162.5t50 144t88.5 117.5t135.5 77.5t186.5 28.5t186.5 -28.5t136 -77.5t88.5 -117.5t49.5 -144t14.5 -162.5v-85q0 -87 -14.5 -163t-49.5 -144.5t-88.5 -117.5t-136 -77.5t-186.5 -28.5t-186.5 28.5t-135.5 77.5t-88.5 117.5t-50 144.5t-14.5 163z M183 524q0 -99 21.5 -178.5t65.5 -140t117 -94t171 -33.5t171.5 33.5t117 94t65 140t21.5 178.5v68q0 99 -21.5 178.5t-65 140.5t-117 94t-171.5 33t-171 -33t-117 -94t-65.5 -140.5t-21.5 -178.5v-68zM262 1433.5q0 38.5 26.5 65t65 26.5t65 -26.5t26.5 -65t-26.5 -65 t-65 -26.5t-65 26.5t-26.5 65zM671 1433.5q0 38.5 27 65t65 26.5t65 -26.5t27 -65t-27 -65t-65 -26.5t-65 26.5t-27 65z" />
<glyph unicode="&#xf8;" horiz-adv-x="1116" d="M83 516v85q0 87 14.5 162.5t50 144t88.5 117.5t135.5 77.5t186.5 28.5q85 0 152 -19l85 232h91l-94 -262q65 -31 112.5 -81.5t75 -114.5t40.5 -135t13 -150v-85q0 -87 -14.5 -163t-49.5 -144.5t-88.5 -117.5t-136 -77.5t-186.5 -28.5q-79 0 -154 17l-80 -225h-92l92 255 q-65 31 -113 82.5t-75 116t-40 135t-13 150.5zM183 524q0 -295 175 -396l321 894q-63 16 -121 16q-98 0 -171 -33t-117 -94t-65.5 -140.5t-21.5 -178.5v-68zM437 94q50 -16 121 -16q98 0 171.5 33.5t117 94t65 140t21.5 178.5v68q0 138 -43 240.5t-131 156.5z" />
<glyph unicode="&#xf9;" horiz-adv-x="1046" d="M132 279v837h100v-837q0 -201 179 -201q105 0 216.5 70t187.5 167v801h101v-1116h-90l-11 201q-75 -94 -181 -155t-223 -61q-58 0 -107.5 17.5t-88.5 52t-61 92.5t-22 132zM272 1585h135l176 -279h-103z" />
<glyph unicode="&#xfa;" horiz-adv-x="1046" d="M132 279v837h100v-837q0 -201 179 -201q105 0 216.5 70t187.5 167v801h101v-1116h-90l-11 201q-75 -94 -181 -155t-223 -61q-58 0 -107.5 17.5t-88.5 52t-61 92.5t-22 132zM475 1306l177 279h134l-208 -279h-103z" />
<glyph unicode="&#xfb;" horiz-adv-x="1046" d="M132 279v837h100v-837q0 -201 179 -201q105 0 216.5 70t187.5 167v801h101v-1116h-90l-11 201q-75 -94 -181 -155t-223 -61q-58 0 -107.5 17.5t-88.5 52t-61 92.5t-22 132zM270 1306l216 279h85l217 -279h-117l-142 183l-143 -183h-116z" />
<glyph unicode="&#xfc;" horiz-adv-x="1046" d="M132 279v837h100v-837q0 -201 179 -201q105 0 216.5 70t187.5 167v801h101v-1116h-90l-11 201q-75 -94 -181 -155t-223 -61q-58 0 -107.5 17.5t-88.5 52t-61 92.5t-22 132zM230 1433.5q0 38.5 26.5 65t65 26.5t65 -26.5t26.5 -65t-26.5 -65t-65 -26.5t-65 26.5t-26.5 65z M641 1433.5q0 38.5 26.5 65t65 26.5t65 -26.5t26.5 -65t-26.5 -65t-65 -26.5t-65 26.5t-26.5 65z" />
<glyph unicode="&#xfd;" horiz-adv-x="1066" d="M32 -400l11 96q94 -64 187 -64q115 0 162 125l94 243l-441 1116h109l382 -988l377 988h109l-545 -1388q-72 -190 -247 -190q-93 0 -198 62zM489 1306l176 279h134l-207 -279h-103z" />
<glyph unicode="&#xfe;" horiz-adv-x="1063" d="M132 -447v2083h100v-683q73 90 160.5 134t178.5 44q79 0 149.5 -32t126 -92.5t88 -155.5t32.5 -212v-159q0 -106 -22 -190t-61 -140.5t-94 -94t-119.5 -54t-139.5 -16.5q-144 0 -299 58v-490h-100zM232 145q164 -67 299 -67q159 0 247.5 97t88.5 305v157 q0 99 -24.5 177.5t-66 126.5t-95 72.5t-114.5 24.5q-89 0 -178 -52t-157 -151v-690z" />
<glyph unicode="&#xff;" horiz-adv-x="1066" d="M32 -400l11 96q94 -64 187 -64q115 0 162 125l94 243l-441 1116h109l382 -988l377 988h109l-545 -1388q-72 -190 -247 -190q-93 0 -198 62zM237 1433.5q0 38.5 26.5 65t65 26.5t65 -26.5t26.5 -65t-26.5 -65t-65 -26.5t-65 26.5t-26.5 65zM647 1433q0 26 12.5 47t33.5 33 t46 12q38 0 65 -26.5t27 -65t-27 -65t-65 -26.5t-65 26.5t-27 64.5z" />
<glyph unicode="&#x100;" horiz-adv-x="1338" d="M43 0l575 1585h104l575 -1585h-94l-196 538h-677l-194 -538h-93zM364 1775v93h612v-93h-612zM366 632h607l-304 837z" />
<glyph unicode="&#x101;" horiz-adv-x="988" d="M76 290q0 66 22 124t66 105t117 77t168 36l307 20v130q0 47 -11 86.5t-31.5 67t-47 47.5t-59.5 32t-67.5 17.5t-72.5 5.5q-134 0 -313 -69l-11 96q159 66 328 66q62 0 118 -11.5t105.5 -38.5t85 -66t56.5 -97t21 -130v-788h-89l-12 143q-69 -69 -171.5 -113.5 t-205.5 -44.5q-76 0 -135.5 25.5t-95 69t-54 97t-18.5 113.5zM177 292q0 -43 11 -80.5t34.5 -68t63.5 -48t93 -17.5q101 0 203.5 46.5t173.5 114.5v321l-305 -22q-47 -3 -87 -14t-70 -28t-52.5 -39.5t-36.5 -49t-21 -55.5t-7 -60zM187 1306v94h612v-94h-612z" />
<glyph unicode="&#x102;" horiz-adv-x="1338" d="M43 0l575 1585h104l575 -1585h-94l-196 538h-677l-194 -538h-93zM366 632h607l-304 837zM458 1938v116h94v-109q0 -40 32 -60.5t83 -20.5q57 0 121 27v163h94v-212q-116 -67 -217 -67q-88 0 -147.5 42t-59.5 121z" />
<glyph unicode="&#x103;" horiz-adv-x="988" d="M76 290q0 66 22 124t66 105t117 77t168 36l307 20v130q0 47 -11 86.5t-31.5 67t-47 47.5t-59.5 32t-67.5 17.5t-72.5 5.5q-134 0 -313 -69l-11 96q159 66 328 66q62 0 118 -11.5t105.5 -38.5t85 -66t56.5 -97t21 -130v-788h-89l-12 143q-69 -69 -171.5 -113.5 t-205.5 -44.5q-76 0 -135.5 25.5t-95 69t-54 97t-18.5 113.5zM177 292q0 -43 11 -80.5t34.5 -68t63.5 -48t93 -17.5q101 0 203.5 46.5t173.5 114.5v321l-305 -22q-47 -3 -87 -14t-70 -28t-52.5 -39.5t-36.5 -49t-21 -55.5t-7 -60zM281 1469v116h94v-109q0 -40 32.5 -60.5 t84.5 -20.5q55 0 119 27v163h94v-212q-39 -23 -73 -37.5t-69.5 -22t-73.5 -7.5q-88 0 -148 42t-60 121z" />
<glyph unicode="&#x104;" horiz-adv-x="1338" d="M43 0l575 1585h104l575 -1585q-77 -54 -118 -105t-41 -112q0 -42 23 -65.5t66 -23.5q35 0 85 20l15 -87q-55 -22 -104 -22q-76 0 -126 45t-50 124q0 75 41.5 129t114.5 97l-196 538h-677l-194 -538h-93zM366 632h607l-304 837z" />
<glyph unicode="&#x105;" horiz-adv-x="988" d="M76 290q0 66 22 124t66 105t117 77t168 36l307 20v130q0 47 -11 86.5t-31.5 67t-47 47.5t-59.5 32t-67.5 17.5t-72.5 5.5q-134 0 -313 -69l-11 96q159 66 328 66q62 0 118 -11.5t105.5 -38.5t85 -66t56.5 -97t21 -130v-788q-77 -54 -117.5 -105t-40.5 -112 q0 -42 23 -65.5t66 -23.5q35 0 85 20l13 -87q-54 -22 -102 -22q-77 0 -127 45t-50 124q0 74 43.5 128t117.5 98l-12 143q-69 -69 -171.5 -113.5t-205.5 -44.5q-76 0 -135.5 25.5t-95 69t-54 97t-18.5 113.5zM177 292q0 -43 11 -80.5t34.5 -68t63.5 -48t93 -17.5 q101 0 203.5 46.5t173.5 114.5v321l-305 -22q-47 -3 -87 -14t-70 -28t-52.5 -39.5t-36.5 -49t-21 -55.5t-7 -60z" />
<glyph unicode="&#x106;" horiz-adv-x="1182" d="M100 652v212q0 177 44.5 317t125.5 231.5t192.5 139.5t247.5 48q193 0 370 -94l-19 -86q-181 86 -354 86q-85 0 -159.5 -23t-139 -73t-110 -123.5t-71.5 -179.5t-26 -236v-224q0 -117 26 -212.5t72.5 -161t111 -110t138.5 -65t158 -20.5q97 0 197.5 31.5t186.5 93.5 l23 -90q-189 -128 -407 -128q-102 0 -190.5 22t-166 73t-132.5 127t-86.5 189.5t-31.5 255.5zM622 1775l177 279h134l-207 -279h-104z" />
<glyph unicode="&#x107;" horiz-adv-x="948" d="M85 509v64q0 130 35.5 235.5t99 176t153.5 108.5t198 38q134 0 277 -55l-11 -96q-145 58 -259 58q-89 0 -160 -28.5t-123.5 -84.5t-81 -145.5t-28.5 -206.5v-64q0 -103 29 -185.5t81 -135.5t121.5 -81.5t152.5 -28.5q72 0 139 20.5t151 65.5l12 -98q-154 -81 -302 -81 q-106 0 -195 35t-153 101t-100 165.5t-36 222.5zM489 1306l176 279h134l-207 -279h-103z" />
<glyph unicode="&#x108;" horiz-adv-x="1182" d="M100 652v212q0 177 44.5 317t125.5 231.5t192.5 139.5t247.5 48q193 0 370 -94l-19 -86q-181 86 -354 86q-85 0 -159.5 -23t-139 -73t-110 -123.5t-71.5 -179.5t-26 -236v-224q0 -117 26 -212.5t72.5 -161t111 -110t138.5 -65t158 -20.5q97 0 197.5 31.5t186.5 93.5 l23 -90q-189 -128 -407 -128q-102 0 -190.5 22t-166 73t-132.5 127t-86.5 189.5t-31.5 255.5zM422 1775l217 279h85l216 -279h-116l-143 183l-143 -183h-116z" />
<glyph unicode="&#x109;" horiz-adv-x="948" d="M85 509v64q0 130 35.5 235.5t99 176t153.5 108.5t198 38q134 0 277 -55l-11 -96q-145 58 -259 58q-89 0 -160 -28.5t-123.5 -84.5t-81 -145.5t-28.5 -206.5v-64q0 -103 29 -185.5t81 -135.5t121.5 -81.5t152.5 -28.5q72 0 139 20.5t151 65.5l12 -98q-154 -81 -302 -81 q-106 0 -195 35t-153 101t-100 165.5t-36 222.5zM290 1306l217 279h85l216 -279h-116l-143 183l-142 -183h-117z" />
<glyph unicode="&#x10a;" horiz-adv-x="1182" d="M100 652v212q0 177 44.5 317t125.5 231.5t192.5 139.5t247.5 48q193 0 370 -94l-19 -86q-181 86 -354 86q-85 0 -159.5 -23t-139 -73t-110 -123.5t-71.5 -179.5t-26 -236v-224q0 -117 26 -212.5t72.5 -161t111 -110t138.5 -65t158 -20.5q97 0 197.5 31.5t186.5 93.5 l23 -90q-189 -128 -407 -128q-102 0 -190.5 22t-166 73t-132.5 127t-86.5 189.5t-31.5 255.5zM590 1902q0 38 26.5 65t65 27t65 -27t26.5 -65t-26.5 -65t-65 -27t-65 27t-26.5 65z" />
<glyph unicode="&#x10b;" horiz-adv-x="948" d="M85 509v64q0 130 35.5 235.5t99 176t153.5 108.5t198 38q134 0 277 -55l-11 -96q-145 58 -259 58q-89 0 -160 -28.5t-123.5 -84.5t-81 -145.5t-28.5 -206.5v-64q0 -103 29 -185.5t81 -135.5t121.5 -81.5t152.5 -28.5q72 0 139 20.5t151 65.5l12 -98q-154 -81 -302 -81 q-106 0 -195 35t-153 101t-100 165.5t-36 222.5zM458 1433.5q0 38.5 26.5 65t65 26.5t65 -26.5t26.5 -65t-26.5 -65t-65 -26.5t-65 26.5t-26.5 65z" />
<glyph unicode="&#x10c;" horiz-adv-x="1182" d="M100 652v212q0 177 44.5 317t125.5 231.5t192.5 139.5t247.5 48q193 0 370 -94l-19 -86q-181 86 -354 86q-85 0 -159.5 -23t-139 -73t-110 -123.5t-71.5 -179.5t-26 -236v-224q0 -117 26 -212.5t72.5 -161t111 -110t138.5 -65t158 -20.5q97 0 197.5 31.5t186.5 93.5 l23 -90q-189 -128 -407 -128q-102 0 -190.5 22t-166 73t-132.5 127t-86.5 189.5t-31.5 255.5zM422 2054h116l143 -184l143 184h116l-216 -279h-85z" />
<glyph unicode="&#x10d;" horiz-adv-x="948" d="M85 509v64q0 130 35.5 235.5t99 176t153.5 108.5t198 38q134 0 277 -55l-11 -96q-145 58 -259 58q-89 0 -160 -28.5t-123.5 -84.5t-81 -145.5t-28.5 -206.5v-64q0 -103 29 -185.5t81 -135.5t121.5 -81.5t152.5 -28.5q72 0 139 20.5t151 65.5l12 -98q-154 -81 -302 -81 q-106 0 -195 35t-153 101t-100 165.5t-36 222.5zM279 1585h116l143 -183l143 183h116l-217 -279h-84z" />
<glyph unicode="&#x10e;" horiz-adv-x="1316" d="M143 0v1567q201 33 359 33q151 0 271 -43t201 -118.5t134.5 -182t77.5 -228.5t24 -263q0 -129 -24 -242.5t-75 -210t-126 -165.5t-183 -108t-240 -39h-419zM243 94h319q136 0 241 48t171.5 137t101 211.5t34.5 274.5q0 174 -36.5 309.5t-110.5 232.5t-190 148t-271 51 q-127 0 -259 -24v-1388zM245 2054h117l143 -184l142 184h116l-216 -279h-85z" />
<glyph unicode="&#x10f;" horiz-adv-x="1376" d="M96 480v159q0 117 32 212t87.5 155.5t128 92.5t154.5 32q190 0 333 -178v683h100v-1636h-90l-10 192q-143 -207 -337 -207q-86 0 -158.5 32.5t-126 94t-83.5 156t-30 212.5zM196 480q0 -194 83.5 -298t216.5 -104q91 0 178.5 59t156.5 171v527q-69 100 -155 151.5 t-174 51.5q-64 0 -119 -24.5t-97 -72.5t-66 -126t-24 -178v-157zM1031 1071l136 514h156l-192 -514h-100z" />
<glyph unicode="&#x111;" horiz-adv-x="1061" d="M96 480v159q0 117 32 212t87.5 155.5t128 92.5t154.5 32q190 0 333 -178v398h-273v93h273v192h100v-192h132v-93h-132v-1351h-90l-10 192q-143 -207 -337 -207q-86 0 -158.5 32.5t-126 94t-83.5 156t-30 212.5zM196 480q0 -194 83.5 -298t216.5 -104q91 0 178.5 59 t156.5 171v527q-69 100 -155 151.5t-174 51.5q-64 0 -119 -24.5t-97 -72.5t-66 -126t-24 -178v-157z" />
<glyph unicode="&#x112;" horiz-adv-x="1137" d="M143 0v1585h873v-94h-773v-650h677v-93h-677v-654h804v-94h-904zM290 1775v93h611v-93h-611z" />
<glyph unicode="&#x113;" horiz-adv-x="1012" d="M89 526q0 147 37.5 264t101.5 190.5t145.5 112t173.5 38.5q77 0 146 -29.5t124 -86t87.5 -146.5t32.5 -202q0 -89 -21 -178h-726q5 -132 49 -223.5t128 -139.5t204 -48q112 0 275 74l13 -96q-145 -71 -288 -71q-158 0 -267.5 68t-162 188t-52.5 285zM190 583h641 q6 44 6 84q0 71 -16 131.5t-43.5 104t-64.5 74.5t-79.5 46t-88.5 15q-54 0 -104 -18.5t-93.5 -55.5t-77 -90.5t-54.5 -128t-26 -162.5zM223 1306v94h612v-94h-612z" />
<glyph unicode="&#x114;" horiz-adv-x="1137" d="M143 0v1585h873v-94h-773v-650h677v-93h-677v-654h804v-94h-904zM382 1938v116h93v-109q0 -40 33 -60.5t84 -20.5q56 0 120 27v163h94v-212q-40 -23 -73.5 -37.5t-69.5 -22t-73 -7.5q-88 0 -148 42t-60 121z" />
<glyph unicode="&#x115;" horiz-adv-x="1012" d="M89 526q0 147 37.5 264t101.5 190.5t145.5 112t173.5 38.5q77 0 146 -29.5t124 -86t87.5 -146.5t32.5 -202q0 -89 -21 -178h-726q5 -132 49 -223.5t128 -139.5t204 -48q112 0 275 74l13 -96q-145 -71 -288 -71q-158 0 -267.5 68t-162 188t-52.5 285zM190 583h641 q6 44 6 84q0 71 -16 131.5t-43.5 104t-64.5 74.5t-79.5 46t-88.5 15q-54 0 -104 -18.5t-93.5 -55.5t-77 -90.5t-54.5 -128t-26 -162.5zM322 1469v116h93v-109q0 -40 32.5 -60.5t83.5 -20.5q57 0 121 27v163h94v-212q-116 -67 -217 -67q-88 0 -147.5 42t-59.5 121z" />
<glyph unicode="&#x116;" horiz-adv-x="1137" d="M143 0v1585h873v-94h-773v-650h677v-93h-677v-654h804v-94h-904zM502 1902q0 25 12.5 46t33.5 33.5t46 12.5q38 0 65 -27t27 -65t-27 -65t-65 -27t-65 27t-27 65z" />
<glyph unicode="&#x117;" horiz-adv-x="1012" d="M89 526q0 147 37.5 264t101.5 190.5t145.5 112t173.5 38.5q77 0 146 -29.5t124 -86t87.5 -146.5t32.5 -202q0 -89 -21 -178h-726q5 -132 49 -223.5t128 -139.5t204 -48q112 0 275 74l13 -96q-145 -71 -288 -71q-158 0 -267.5 68t-162 188t-52.5 285zM190 583h641 q6 44 6 84q0 71 -16 131.5t-43.5 104t-64.5 74.5t-79.5 46t-88.5 15q-54 0 -104 -18.5t-93.5 -55.5t-77 -90.5t-54.5 -128t-26 -162.5zM451 1433.5q0 38.5 26.5 65t65 26.5t65 -26.5t26.5 -65t-26.5 -65t-65 -26.5t-65 26.5t-26.5 65z" />
<glyph unicode="&#x118;" horiz-adv-x="1137" d="M143 0v1585h873v-94h-773v-650h677v-93h-677v-654h804v-94q-77 -54 -118 -105t-41 -112q0 -28 10.5 -48t30.5 -30.5t49 -10.5q35 0 85 20l13 -87q-55 -22 -103 -22q-76 0 -126 45t-50 124q0 74 43 128t118 98h-815z" />
<glyph unicode="&#x119;" horiz-adv-x="1012" d="M89 526q0 147 37.5 264t101.5 190.5t145.5 112t173.5 38.5q77 0 146 -29.5t124 -86t87.5 -146.5t32.5 -202q0 -89 -21 -178h-726q5 -132 49 -223.5t128 -139.5t204 -48q112 0 275 74l13 -94q-214 -172 -214 -275q0 -42 23.5 -65.5t66.5 -23.5q35 0 85 20l13 -87 q-55 -22 -103 -22q-76 0 -126 45t-50 124q0 135 162 233q-70 -22 -145 -22q-158 0 -267.5 68t-162 188t-52.5 285zM190 583h641q6 44 6 84q0 71 -16 131.5t-43.5 104t-64.5 74.5t-79.5 46t-88.5 15q-54 0 -104 -18.5t-93.5 -55.5t-77 -90.5t-54.5 -128t-26 -162.5z" />
<glyph unicode="&#x11a;" horiz-adv-x="1137" d="M143 0v1585h873v-94h-773v-650h677v-93h-677v-654h804v-94h-904zM335 2054h116l143 -184l143 184h115l-215 -279h-85z" />
<glyph unicode="&#x11b;" horiz-adv-x="1012" d="M89 526q0 147 37.5 264t101.5 190.5t145.5 112t173.5 38.5q77 0 146 -29.5t124 -86t87.5 -146.5t32.5 -202q0 -89 -21 -178h-726q5 -132 49 -223.5t128 -139.5t204 -48q112 0 275 74l13 -96q-145 -71 -288 -71q-158 0 -267.5 68t-162 188t-52.5 285zM190 583h641 q6 44 6 84q0 71 -16 131.5t-43.5 104t-64.5 74.5t-79.5 46t-88.5 15q-54 0 -104 -18.5t-93.5 -55.5t-77 -90.5t-54.5 -128t-26 -162.5zM283 1585h117l143 -183l143 183h115l-216 -279h-85z" />
<glyph unicode="&#x11c;" horiz-adv-x="1312" d="M111 652v212q0 154 33.5 278.5t91 209t138 141t172 82t195.5 25.5q194 0 405 -96l-23 -89q-198 91 -380 91q-94 0 -175 -24t-147 -74.5t-112 -125t-71 -179t-25 -232.5v-224q0 -122 29 -220t78.5 -162.5t118.5 -107t144.5 -61t159.5 -18.5q179 0 333 60v494 q0 47 -20.5 65.5t-66.5 18.5h-250v94h250q97 0 142 -41.5t45 -136.5v-554q-97 -44 -209.5 -68.5t-223.5 -24.5q-71 0 -137 10.5t-129.5 34.5t-118 60t-100.5 90t-78.5 121.5t-50.5 156.5t-18 194zM462 1775l217 279h84l217 -279h-116l-142 183l-144 -183h-116z" />
<glyph unicode="&#x11d;" horiz-adv-x="982" d="M76 -100h101v-56q0 -105 84 -158.5t233 -53.5q96 0 168 20.5t115 65.5t43 110v23q0 86 -51 133.5t-171 47.5h-219q-71 0 -123.5 24t-79.5 69t-27 105v15q0 61 30.5 108.5t86.5 74.5q-82 47 -127 132t-45 192q0 108 44.5 193.5t130.5 135.5t200 50q82 0 152 -28t120 -78 q15 21 27 64l22 94h101l-24 -105q-11 -45 -27.5 -73t-47.5 -49q54 -91 54 -204q0 -108 -45.5 -192.5t-131.5 -132.5t-200 -48q-62 0 -116 13q-103 -47 -103 -142v-22q0 -52 31 -77.5t98 -25.5h219q99 0 172.5 -34.5t111.5 -95t38 -138.5v-34q0 -71 -33 -126.5t-91.5 -89.5 t-135 -51.5t-166.5 -17.5q-123 0 -215.5 33t-147.5 103t-55 170v56zM194 752q0 -123 73.5 -201t201.5 -78t202.5 78t74.5 201q0 124 -75 205t-202 81q-128 0 -201.5 -81t-73.5 -205zM210 1306l216 279h85l217 -279h-117l-142 183l-143 -183h-116z" />
<glyph unicode="&#x11e;" horiz-adv-x="1312" d="M111 652v212q0 154 33.5 278.5t91 209t138 141t172 82t195.5 25.5q194 0 405 -96l-23 -89q-198 91 -380 91q-94 0 -175 -24t-147 -74.5t-112 -125t-71 -179t-25 -232.5v-224q0 -122 29 -220t78.5 -162.5t118.5 -107t144.5 -61t159.5 -18.5q179 0 333 60v494 q0 47 -20.5 65.5t-66.5 18.5h-250v94h250q97 0 142 -41.5t45 -136.5v-554q-97 -44 -209.5 -68.5t-223.5 -24.5q-71 0 -137 10.5t-129.5 34.5t-118 60t-100.5 90t-78.5 121.5t-50.5 156.5t-18 194zM505 1938v116h93v-109q0 -40 32.5 -60.5t83.5 -20.5q57 0 121 27v163h94 v-212q-116 -67 -217 -67q-57 0 -102.5 17t-75 55t-29.5 91z" />
<glyph unicode="&#x11f;" horiz-adv-x="982" d="M76 -100h101v-56q0 -105 84 -158.5t233 -53.5q96 0 168 20.5t115 65.5t43 110v23q0 86 -51 133.5t-171 47.5h-219q-71 0 -123.5 24t-79.5 69t-27 105v15q0 61 30.5 108.5t86.5 74.5q-82 47 -127 132t-45 192q0 108 44.5 193.5t130.5 135.5t200 50q82 0 152 -28t120 -78 q15 21 27 64l22 94h101l-24 -105q-11 -45 -27.5 -73t-47.5 -49q54 -91 54 -204q0 -108 -45.5 -192.5t-131.5 -132.5t-200 -48q-62 0 -116 13q-103 -47 -103 -142v-22q0 -52 31 -77.5t98 -25.5h219q99 0 172.5 -34.5t111.5 -95t38 -138.5v-34q0 -71 -33 -126.5t-91.5 -89.5 t-135 -51.5t-166.5 -17.5q-123 0 -215.5 33t-147.5 103t-55 170v56zM194 752q0 -123 73.5 -201t201.5 -78t202.5 78t74.5 201q0 124 -75 205t-202 81q-128 0 -201.5 -81t-73.5 -205zM257 1469v116h94v-109q0 -20 9 -36t25 -25.5t36.5 -14.5t45.5 -5q56 0 121 27v163h93v-212 q-115 -67 -217 -67q-56 0 -102 17t-75.5 55t-29.5 91z" />
<glyph unicode="&#x120;" horiz-adv-x="1312" d="M111 652v212q0 154 33.5 278.5t91 209t138 141t172 82t195.5 25.5q194 0 405 -96l-23 -89q-198 91 -380 91q-94 0 -175 -24t-147 -74.5t-112 -125t-71 -179t-25 -232.5v-224q0 -122 29 -220t78.5 -162.5t118.5 -107t144.5 -61t159.5 -18.5q179 0 333 60v494 q0 47 -20.5 65.5t-66.5 18.5h-250v94h250q97 0 142 -41.5t45 -136.5v-554q-97 -44 -209.5 -68.5t-223.5 -24.5q-71 0 -137 10.5t-129.5 34.5t-118 60t-100.5 90t-78.5 121.5t-50.5 156.5t-18 194zM637 1902q0 38 26.5 65t65 27t65 -27t26.5 -65t-26.5 -65t-65 -27t-65 27 t-26.5 65z" />
<glyph unicode="&#x121;" horiz-adv-x="982" d="M76 -100h101v-56q0 -105 84 -158.5t233 -53.5q96 0 168 20.5t115 65.5t43 110v23q0 86 -51 133.5t-171 47.5h-219q-71 0 -123.5 24t-79.5 69t-27 105v15q0 61 30.5 108.5t86.5 74.5q-82 47 -127 132t-45 192q0 108 44.5 193.5t130.5 135.5t200 50q82 0 152 -28t120 -78 q15 21 27 64l22 94h101l-24 -105q-11 -45 -27.5 -73t-47.5 -49q54 -91 54 -204q0 -108 -45.5 -192.5t-131.5 -132.5t-200 -48q-62 0 -116 13q-103 -47 -103 -142v-22q0 -52 31 -77.5t98 -25.5h219q99 0 172.5 -34.5t111.5 -95t38 -138.5v-34q0 -71 -33 -126.5t-91.5 -89.5 t-135 -51.5t-166.5 -17.5q-123 0 -215.5 33t-147.5 103t-55 170v56zM194 752q0 -123 73.5 -201t201.5 -78t202.5 78t74.5 201q0 124 -75 205t-202 81q-128 0 -201.5 -81t-73.5 -205zM377 1433.5q0 38.5 26.5 65t65 26.5t65 -26.5t26.5 -65t-26.5 -65t-65 -26.5t-65 26.5 t-26.5 65z" />
<glyph unicode="&#x122;" horiz-adv-x="1312" d="M111 652v212q0 154 33.5 278.5t91 209t138 141t172 82t195.5 25.5q194 0 405 -96l-23 -89q-198 91 -380 91q-94 0 -175 -24t-147 -74.5t-112 -125t-71 -179t-25 -232.5v-224q0 -122 29 -220t78.5 -162.5t118.5 -107t144.5 -61t159.5 -18.5q179 0 333 60v494 q0 47 -20.5 65.5t-66.5 18.5h-250v94h250q97 0 142 -41.5t45 -136.5v-554q-97 -44 -209.5 -68.5t-223.5 -24.5q-71 0 -137 10.5t-129.5 34.5t-118 60t-100.5 90t-78.5 121.5t-50.5 156.5t-18 194zM562 -447l119 302h122l-151 -302h-90z" />
<glyph unicode="&#x123;" horiz-adv-x="982" d="M76 -100h101v-56q0 -105 84 -158.5t233 -53.5q96 0 168 20.5t115 65.5t43 110v23q0 86 -51 133.5t-171 47.5h-219q-71 0 -123.5 24t-79.5 69t-27 105v15q0 61 30.5 108.5t86.5 74.5q-82 47 -127 132t-45 192q0 108 44.5 193.5t130.5 135.5t200 50q82 0 152 -28t120 -78 q15 21 27 64l22 94h101l-24 -105q-11 -45 -27.5 -73t-47.5 -49q54 -91 54 -204q0 -108 -45.5 -192.5t-131.5 -132.5t-200 -48q-62 0 -116 13q-103 -47 -103 -142v-22q0 -52 31 -77.5t98 -25.5h219q99 0 172.5 -34.5t111.5 -95t38 -138.5v-34q0 -71 -33 -126.5t-91.5 -89.5 t-135 -51.5t-166.5 -17.5q-123 0 -215.5 33t-147.5 103t-55 170v56zM194 752q0 -123 73.5 -201t201.5 -78t202.5 78t74.5 201q0 124 -75 205t-202 81q-128 0 -201.5 -81t-73.5 -205zM424 1272l156 313h89l-122 -313h-123z" />
<glyph unicode="&#x124;" horiz-adv-x="1323" d="M143 0v1585h100v-782h837v782h100v-1585h-100v710h-837v-710h-100zM402 1775l216 279h85l217 -279h-117l-142 183l-143 -183h-116z" />
<glyph unicode="&#x125;" horiz-adv-x="1046" d="M-62 1775l216 279h85l217 -279h-117l-143 183l-143 -183h-115zM132 0v1636h100v-741q37 46 79.5 85.5t94 74.5t111.5 55.5t120 20.5q58 0 107.5 -16.5t88.5 -50t61 -90t22 -130.5v-844h-101v844q0 99 -44 146.5t-134 47.5q-44 0 -91 -15.5t-89.5 -40.5t-84.5 -59t-76 -69 t-64 -72v-782h-100z" />
<glyph unicode="&#x126;" horiz-adv-x="1323" d="M0 1219v93h143v273h100v-273h837v273h100v-273h143v-93h-143v-1219h-100v710h-837v-710h-100v1219h-143zM243 803h837v416h-837v-416z" />
<glyph unicode="&#x127;" horiz-adv-x="1046" d="M0 1351v93h132v192h100v-192h273v-93h-273v-456q37 46 79.5 85.5t94 74.5t111.5 55.5t120 20.5q58 0 107.5 -16.5t88.5 -50t61 -90t22 -130.5v-844h-101v844q0 99 -44 146.5t-134 47.5q-44 0 -91 -15.5t-89.5 -40.5t-84.5 -59t-76 -69t-64 -72v-782h-100v1351h-132z" />
<glyph unicode="&#x128;" horiz-adv-x="412" d="M-92 1834q15 77 63 124t112 47q34 0 70.5 -17.5t62.5 -37.5t58 -37t58 -17q28 0 49.5 25.5t27.5 74.5l96 -25q-15 -77 -63 -123t-112 -46q-35 0 -73 17t-64.5 37.5t-57 37.5t-52.5 17q-29 0 -50.5 -25.5t-28.5 -75.5zM156 0v1585h101v-1585h-101z" />
<glyph unicode="&#x129;" horiz-adv-x="441" d="M-76 1366q14 77 62 123.5t112 46.5q34 0 70.5 -17t62.5 -37.5t58 -37.5t59 -17t48.5 25.5t27.5 74.5l96 -25q-10 -51 -35 -89t-61 -59t-78 -21q-36 0 -73.5 17t-64 37.5t-57 37.5t-53.5 17q-18 0 -34 -10.5t-28 -33.5t-16 -56zM66 1022v94h77q83 0 119.5 -35t36.5 -119 v-962h-101v960q0 23 -5.5 36.5t-18.5 19.5t-36 6h-72z" />
<glyph unicode="&#x12a;" horiz-adv-x="412" d="M-98 1775v93h611v-93h-611zM156 0v1585h101v-1585h-101z" />
<glyph unicode="&#x12b;" horiz-adv-x="441" d="M-85 1306v94h611v-94h-611zM66 1022v94h77q83 0 119.5 -35t36.5 -119v-962h-101v960q0 23 -5.5 36.5t-18.5 19.5t-36 6h-72z" />
<glyph unicode="&#x12e;" horiz-adv-x="412" d="M7 -226q0 76 39 130t110 96v1585h101v-1585q-77 -54 -118 -105t-41 -112q0 -42 23.5 -65.5t65.5 -23.5q35 0 85 20l14 -87q-55 -22 -103 -22q-76 0 -126 45t-50 124z" />
<glyph unicode="&#x12f;" horiz-adv-x="441" d="M49 -226q0 76 39 130t110 96v960q0 23 -5.5 36.5t-18.5 19.5t-36 6h-72v94h77q83 0 119.5 -35t36.5 -119v-962q-50 -35 -82.5 -65.5t-54 -70t-21.5 -81.5t23 -65.5t66 -23.5q35 0 85 20l13 -87q-54 -22 -102 -22q-50 0 -89.5 19.5t-63.5 58t-24 91.5zM102 1433.5 q0 41.5 29.5 71t71.5 29.5t71.5 -29.5t29.5 -71t-29.5 -71t-71.5 -29.5t-71.5 29.5t-29.5 71z" />
<glyph unicode="&#x130;" horiz-adv-x="412" d="M113 1902q0 38 26.5 65t65 27t65 -27t26.5 -65t-26.5 -65t-65 -27t-65 27t-26.5 65zM156 0v1585h101v-1585h-101z" />
<glyph unicode="&#x131;" horiz-adv-x="441" d="M66 1022v94h77q83 0 119.5 -35t36.5 -119v-962h-101v960q0 23 -5.5 36.5t-18.5 19.5t-36 6h-72z" />
<glyph unicode="&#x134;" horiz-adv-x="626" d="M36 32l9 98q81 -52 156 -52q54 0 94.5 26t64.5 84t24 142v1255h100v-1261q0 -160 -78.5 -249.5t-202.5 -89.5q-85 0 -167 47zM164 1775l215 279h85l217 -279h-116l-143 183l-143 -183h-115z" />
<glyph unicode="&#x135;" horiz-adv-x="450" d="M-81 -428l15 96q77 -36 128 -36q157 0 157 221v1107q0 34 -14 48t-47 14h-80v94h86q83 0 119 -35t36 -119v-1116q0 -145 -69.5 -226.5t-180.5 -81.5q-70 0 -150 34zM-34 1306l217 279h85l216 -279h-116l-142 183l-143 -183h-117z" />
<glyph unicode="&#x136;" horiz-adv-x="1233" d="M143 0v1585h100v-773h326l464 773h110l-469 -782q84 -16 143 -70t101 -153l243 -580h-100l-233 554q-39 96 -93.5 130t-161.5 34h-330v-718h-100zM420 -447l118 302h123l-152 -302h-89z" />
<glyph unicode="&#x137;" horiz-adv-x="927" d="M132 0v1636h100v-1020h237l259 500h107l-266 -513q134 -39 183 -199l123 -404h-98l-116 382q-24 75 -69.5 107.5t-127.5 32.5h-232v-522h-100zM294 -447l119 302h123l-152 -302h-90z" />
<glyph unicode="&#x139;" horiz-adv-x="1052" d="M143 0v1585h100v-1491h743v-94h-843zM160 1764l177 290h134l-207 -290h-104z" />
<glyph unicode="&#x13a;" horiz-adv-x="452" d="M132 198v1438h100v-1435q0 -123 92 -123q33 0 85 22l11 -91q-53 -24 -103 -24q-58 0 -99 23.5t-63.5 71.5t-22.5 118zM136 1764l177 290h134l-208 -290h-103z" />
<glyph unicode="&#x13b;" horiz-adv-x="1052" d="M143 0v1585h100v-1491h743v-94h-843zM360 -447l117 302h124l-152 -302h-89z" />
<glyph unicode="&#x13c;" horiz-adv-x="452" d="M66 -447l119 302h123l-152 -302h-90zM132 198v1438h100v-1435q0 -123 92 -123q33 0 85 22l11 -91q-53 -24 -103 -24q-58 0 -99 23.5t-63.5 71.5t-22.5 118z" />
<glyph unicode="&#x13d;" horiz-adv-x="1052" d="M143 0v1585h100v-1491h743v-94h-843zM437 1071l136 514h157l-192 -514h-101z" />
<glyph unicode="&#x13e;" horiz-adv-x="452" d="M132 198v1438h100v-1435q0 -123 92 -123q33 0 85 22l11 -91q-53 -24 -103 -24q-58 0 -99 23.5t-63.5 71.5t-22.5 118zM355 1071l137 514h155l-191 -514h-101z" />
<glyph unicode="&#x13f;" horiz-adv-x="1052" d="M143 0v1585h100v-1491h743v-94h-843zM498 669q0 40 29 69.5t69 29.5t69 -29.5t29 -69.5t-29 -69t-69 -29t-69 29t-29 69z" />
<glyph unicode="&#x140;" horiz-adv-x="601" d="M132 198v1438h100v-1435q0 -123 92 -123q33 0 85 22l11 -91q-53 -24 -103 -24q-58 0 -99 23.5t-63.5 71.5t-22.5 118zM335 669q0 40 29 69.5t69 29.5t69 -29.5t29 -69.5q0 -19 -8 -37.5t-21 -31.5t-31.5 -21t-37.5 -8q-40 0 -69 29t-29 69z" />
<glyph unicode="&#x141;" horiz-adv-x="1052" d="M0 473v105l143 67v940h100v-893l281 132v-106l-281 -130v-494h743v-94h-843v541z" />
<glyph unicode="&#x142;" horiz-adv-x="452" d="M0 473v105l132 61v997h100v-950l221 104v-104l-221 -106v-379q0 -123 92 -123q33 0 85 22l11 -91q-53 -24 -103 -24q-58 0 -99 23.5t-63.5 71.5t-22.5 118v335z" />
<glyph unicode="&#x143;" horiz-adv-x="1293" d="M143 0v1585h121l788 -1436v1436h100v-1585h-132l-777 1415v-1415h-100zM616 1775l176 279h134l-208 -279h-102z" />
<glyph unicode="&#x144;" horiz-adv-x="1046" d="M132 0v1116h89l11 -221q37 46 79.5 85.5t94 74.5t111.5 55.5t120 20.5q58 0 107.5 -16.5t88.5 -50t61 -90t22 -130.5v-844h-101v844q0 99 -44 146.5t-134 47.5q-44 0 -91 -15.5t-89.5 -40.5t-84.5 -59t-76 -69t-64 -72v-782h-100zM489 1306l176 279h134l-207 -279h-103z " />
<glyph unicode="&#x145;" horiz-adv-x="1293" d="M143 0v1585h121l788 -1436v1436h100v-1585h-132l-777 1415v-1415h-100zM453 -447l118 302h123l-151 -302h-90z" />
<glyph unicode="&#x146;" horiz-adv-x="1046" d="M132 0v1116h89l11 -221q37 46 79.5 85.5t94 74.5t111.5 55.5t120 20.5q58 0 107.5 -16.5t88.5 -50t61 -90t22 -130.5v-844h-101v844q0 99 -44 146.5t-134 47.5q-44 0 -91 -15.5t-89.5 -40.5t-84.5 -59t-76 -69t-64 -72v-782h-100zM368 -447l118 302h123l-151 -302h-90z " />
<glyph unicode="&#x147;" horiz-adv-x="1293" d="M143 0v1585h121l788 -1436v1436h100v-1585h-132l-777 1415v-1415h-100zM417 2054h116l144 -184l143 184h115l-217 -279h-84z" />
<glyph unicode="&#x148;" horiz-adv-x="1046" d="M132 0v1116h89l11 -221q37 46 79.5 85.5t94 74.5t111.5 55.5t120 20.5q58 0 107.5 -16.5t88.5 -50t61 -90t22 -130.5v-844h-101v844q0 99 -44 146.5t-134 47.5q-44 0 -91 -15.5t-89.5 -40.5t-84.5 -59t-76 -69t-64 -72v-782h-100zM283 1585h117l143 -183l143 183h115 l-216 -279h-85z" />
<glyph unicode="&#x149;" horiz-adv-x="1222" d="M58 1071l136 514h157l-193 -514h-100zM308 0v1116h90l11 -221q37 46 79 85.5t93.5 74.5t111.5 55.5t119 20.5t108 -16.5t88 -50t61 -90t22 -130.5v-844h-100v844q0 99 -44.5 146.5t-134.5 47.5q-53 0 -112 -23t-111.5 -61.5t-97.5 -81.5t-82 -90v-782h-101z" />
<glyph unicode="&#x14c;" horiz-adv-x="1419" d="M81 728v129q0 224 75 392t216.5 259.5t332.5 91.5t333 -91.5t217.5 -259.5t75.5 -392v-129q0 -224 -75.5 -392t-217.5 -259.5t-333 -91.5t-332.5 91.5t-216.5 259.5t-75 392zM181 722q0 -135 35 -252t100 -204t165.5 -137.5t223.5 -50.5t223.5 50.5t165.5 137.5 t100.5 204t35.5 252v142q0 135 -35.5 251.5t-100.5 204t-165 137t-223.5 49.5t-224 -49.5t-165.5 -137t-100 -204t-35 -251.5v-142zM404 1775v93h612v-93h-612z" />
<glyph unicode="&#x14d;" horiz-adv-x="1116" d="M83 516v85q0 87 14.5 162.5t50 144t88.5 117.5t135.5 77.5t186.5 28.5t186.5 -28.5t136 -77.5t88.5 -117.5t49.5 -144t14.5 -162.5v-85q0 -87 -14.5 -163t-49.5 -144.5t-88.5 -117.5t-136 -77.5t-186.5 -28.5t-186.5 28.5t-135.5 77.5t-88.5 117.5t-50 144.5t-14.5 163z M183 524q0 -99 21.5 -178.5t65.5 -140t117 -94t171 -33.5t171.5 33.5t117 94t65 140t21.5 178.5v68q0 99 -21.5 178.5t-65 140.5t-117 94t-171.5 33t-171 -33t-117 -94t-65.5 -140.5t-21.5 -178.5v-68zM252 1306v94h612v-94h-612z" />
<glyph unicode="&#x14e;" horiz-adv-x="1419" d="M81 728v129q0 224 75 392t216.5 259.5t332.5 91.5t333 -91.5t217.5 -259.5t75.5 -392v-129q0 -224 -75.5 -392t-217.5 -259.5t-333 -91.5t-332.5 91.5t-216.5 259.5t-75 392zM181 722q0 -135 35 -252t100 -204t165.5 -137.5t223.5 -50.5t223.5 50.5t165.5 137.5 t100.5 204t35.5 252v142q0 135 -35.5 251.5t-100.5 204t-165 137t-223.5 49.5t-224 -49.5t-165.5 -137t-100 -204t-35 -251.5v-142zM498 1938v116h94v-109q0 -40 32 -60.5t83 -20.5q57 0 121 27v163h94v-212q-115 -67 -217 -67q-56 0 -102 17t-75.5 55t-29.5 91z" />
<glyph unicode="&#x14f;" horiz-adv-x="1116" d="M83 516v85q0 87 14.5 162.5t50 144t88.5 117.5t135.5 77.5t186.5 28.5t186.5 -28.5t136 -77.5t88.5 -117.5t49.5 -144t14.5 -162.5v-85q0 -87 -14.5 -163t-49.5 -144.5t-88.5 -117.5t-136 -77.5t-186.5 -28.5t-186.5 28.5t-135.5 77.5t-88.5 117.5t-50 144.5t-14.5 163z M183 524q0 -99 21.5 -178.5t65.5 -140t117 -94t171 -33.5t171.5 33.5t117 94t65 140t21.5 178.5v68q0 99 -21.5 178.5t-65 140.5t-117 94t-171.5 33t-171 -33t-117 -94t-65.5 -140.5t-21.5 -178.5v-68zM346 1469v116h93v-109q0 -40 33 -60.5t84 -20.5q57 0 121 27v163h94 v-212q-116 -67 -217 -67q-88 0 -148 42t-60 121z" />
<glyph unicode="&#x150;" horiz-adv-x="1419" d="M81 728v129q0 224 75 392t216.5 259.5t332.5 91.5t333 -91.5t217.5 -259.5t75.5 -392v-129q0 -224 -75.5 -392t-217.5 -259.5t-333 -91.5t-332.5 91.5t-216.5 259.5t-75 392zM181 722q0 -135 35 -252t100 -204t165.5 -137.5t223.5 -50.5t223.5 50.5t165.5 137.5 t100.5 204t35.5 252v142q0 135 -35.5 251.5t-100.5 204t-165 137t-223.5 49.5t-224 -49.5t-165.5 -137t-100 -204t-35 -251.5v-142zM526 1775l177 279h134l-207 -279h-104zM759 1775l176 279h134l-207 -279h-103z" />
<glyph unicode="&#x151;" horiz-adv-x="1116" d="M83 516v85q0 87 14.5 162.5t50 144t88.5 117.5t135.5 77.5t186.5 28.5t186.5 -28.5t136 -77.5t88.5 -117.5t49.5 -144t14.5 -162.5v-85q0 -87 -14.5 -163t-49.5 -144.5t-88.5 -117.5t-136 -77.5t-186.5 -28.5t-186.5 28.5t-135.5 77.5t-88.5 117.5t-50 144.5t-14.5 163z M183 524q0 -99 21.5 -178.5t65.5 -140t117 -94t171 -33.5t171.5 33.5t117 94t65 140t21.5 178.5v68q0 99 -21.5 178.5t-65 140.5t-117 94t-171.5 33t-171 -33t-117 -94t-65.5 -140.5t-21.5 -178.5v-68zM386 1306l176 279h135l-208 -279h-103zM618 1306l177 279h134 l-207 -279h-104z" />
<glyph unicode="&#x152;" horiz-adv-x="2017" d="M85 728v129q0 168 43 306t122 234.5t195.5 149.5t259.5 53q43 0 155.5 -7.5t161.5 -7.5h874v-94h-773v-650h677v-93h-677v-654h803v-94h-904q-49 0 -161.5 -7.5t-155.5 -7.5q-190 0 -331 91.5t-215 259t-74 392.5zM185 722q0 -108 21.5 -204.5t65 -177t105 -139 t145.5 -91t183 -32.5q43 0 155.5 8t161.5 8v1397q-49 0 -161.5 7.5t-155.5 7.5q-123 0 -222.5 -49.5t-164 -137t-99 -204t-34.5 -251.5v-142z" />
<glyph unicode="&#x153;" horiz-adv-x="1640" d="M87 516v85q0 87 14.5 162.5t49 144.5t87 117.5t134.5 77t186 28.5q209 0 328 -115q119 115 288 115q76 0 145.5 -29.5t125 -86t88 -146.5t32.5 -202q0 -84 -23 -178h-724q8 -199 104 -305t277 -106q112 0 275 74l13 -96q-145 -71 -288 -71q-199 0 -322 107 q-119 -107 -319 -107q-104 0 -186 28.5t-134.5 77.5t-87 117.5t-49 144t-14.5 163.5zM187 524q0 -99 21 -178.5t64 -140.5t115.5 -94t170.5 -33q155 0 252 90q-94 138 -94 358q0 248 106 409q-92 103 -264 103q-98 0 -170.5 -33t-115.5 -94t-64 -140.5t-21 -178.5v-68z M818 583h639q7 44 7 84q0 71 -16 131.5t-43.5 104t-64.5 74.5t-79.5 46t-88.5 15q-68 0 -128.5 -29.5t-109 -85t-79.5 -143t-37 -197.5z" />
<glyph unicode="&#x154;" horiz-adv-x="1214" d="M143 0v1551q207 49 390 49q112 0 205 -25.5t157.5 -69.5t109.5 -103t65.5 -124.5t20.5 -136.5q0 -66 -18.5 -128.5t-54.5 -117.5t-94 -98t-132 -67q59 -46 105 -150l244 -580h-105l-233 552q-27 63 -56.5 95t-68 44t-102.5 12h-333v-703h-100zM243 797h345q70 0 130.5 14 t103.5 38.5t76.5 57t53 71.5t29.5 80t10 83q0 56 -16.5 108t-53 99t-89.5 82t-130.5 55.5t-170.5 20.5q-148 0 -288 -30v-679zM451 1775l176 279h134l-207 -279h-103z" />
<glyph unicode="&#x155;" horiz-adv-x="682" d="M132 0v1116h89l11 -179q29 54 72 96.5t103.5 70t125.5 27.5q55 0 108 -15l-11 -94q-47 16 -89 16q-189 0 -309 -218v-820h-100zM254 1306l177 279h134l-207 -279h-104z" />
<glyph unicode="&#x156;" horiz-adv-x="1214" d="M143 0v1551q207 49 390 49q112 0 205 -25.5t157.5 -69.5t109.5 -103t65.5 -124.5t20.5 -136.5q0 -66 -18.5 -128.5t-54.5 -117.5t-94 -98t-132 -67q59 -46 105 -150l244 -580h-105l-233 552q-27 63 -56.5 95t-68 44t-102.5 12h-333v-703h-100zM243 797h345q70 0 130.5 14 t103.5 38.5t76.5 57t53 71.5t29.5 80t10 83q0 56 -16.5 108t-53 99t-89.5 82t-130.5 55.5t-170.5 20.5q-148 0 -288 -30v-679zM409 -447l117 302h124l-152 -302h-89z" />
<glyph unicode="&#x157;" horiz-adv-x="682" d="M-2 -447l118 302h123l-152 -302h-89zM132 0v1116h89l11 -179q29 54 72 96.5t103.5 70t125.5 27.5q55 0 108 -15l-11 -94q-47 16 -89 16q-189 0 -309 -218v-820h-100z" />
<glyph unicode="&#x158;" horiz-adv-x="1214" d="M143 0v1551q207 49 390 49q112 0 205 -25.5t157.5 -69.5t109.5 -103t65.5 -124.5t20.5 -136.5q0 -66 -18.5 -128.5t-54.5 -117.5t-94 -98t-132 -67q59 -46 105 -150l244 -580h-105l-233 552q-27 63 -56.5 95t-68 44t-102.5 12h-333v-703h-100zM243 797h345q70 0 130.5 14 t103.5 38.5t76.5 57t53 71.5t29.5 80t10 83q0 56 -16.5 108t-53 99t-89.5 82t-130.5 55.5t-170.5 20.5q-148 0 -288 -30v-679zM270 2054h116l143 -184l142 184h117l-217 -279h-85z" />
<glyph unicode="&#x159;" horiz-adv-x="682" d="M64 1585h117l143 -183l143 183h116l-217 -279h-85zM132 0v1116h89l11 -179q29 54 72 96.5t103.5 70t125.5 27.5q55 0 108 -15l-11 -94q-47 16 -89 16q-189 0 -309 -218v-820h-100z" />
<glyph unicode="&#x15a;" horiz-adv-x="1169" d="M89 98l18 100q81 -44 221.5 -82t269.5 -38q59 0 111 9t100 30.5t82.5 54t55 84t20.5 117.5q0 43 -13 82.5t-30.5 69.5t-52.5 61t-62 50.5t-78 46.5t-80.5 41t-87.5 40q-62 28 -93.5 43t-86 44t-83.5 51t-67.5 57t-57.5 69t-33 79.5t-14 95.5q0 88 27.5 157t73.5 113.5 t111 73.5t135.5 41t151.5 12q225 0 427 -79l-18 -90q-79 32 -189 53.5t-217 21.5q-65 0 -121.5 -8.5t-109 -30t-90 -55t-59.5 -85.5t-22 -119q0 -62 28.5 -114t77 -90t111.5 -72t132.5 -65.5t139.5 -64.5t133 -74t111.5 -89.5t77 -116.5t28.5 -149q0 -84 -25.5 -151 t-68.5 -110.5t-104 -72.5t-127.5 -41.5t-143.5 -12.5q-123 0 -257 30.5t-252 82.5zM526 1775l177 279h134l-207 -279h-104z" />
<glyph unicode="&#x15b;" horiz-adv-x="888" d="M51 36l13 105q203 -63 356 -63q49 0 90.5 7t80 23t65 41.5t42.5 65.5t16 91q0 40 -18 72t-48.5 53.5t-71.5 41t-87 33.5t-95 31.5t-95 35t-87 44t-71.5 58t-48.5 78.5t-18 104q0 59 20 106.5t53.5 78.5t80.5 51.5t98.5 29t110.5 8.5q176 0 349 -55l-13 -87 q-177 49 -322 49q-56 0 -103.5 -10t-87.5 -30.5t-63 -56.5t-23 -84q0 -46 18 -82.5t49 -60.5t72 -44.5t87 -34.5t95 -30.5t95 -32t87 -40t71.5 -54t48.5 -73.5t18 -99q0 -72 -21 -128t-56.5 -92t-87.5 -59t-108.5 -32.5t-124.5 -9.5q-176 0 -366 51zM392 1306l177 279h134 l-207 -279h-104z" />
<glyph unicode="&#x15c;" horiz-adv-x="1169" d="M89 98l18 100q81 -44 221.5 -82t269.5 -38q59 0 111 9t100 30.5t82.5 54t55 84t20.5 117.5q0 43 -13 82.5t-30.5 69.5t-52.5 61t-62 50.5t-78 46.5t-80.5 41t-87.5 40q-62 28 -93.5 43t-86 44t-83.5 51t-67.5 57t-57.5 69t-33 79.5t-14 95.5q0 88 27.5 157t73.5 113.5 t111 73.5t135.5 41t151.5 12q225 0 427 -79l-18 -90q-79 32 -189 53.5t-217 21.5q-65 0 -121.5 -8.5t-109 -30t-90 -55t-59.5 -85.5t-22 -119q0 -62 28.5 -114t77 -90t111.5 -72t132.5 -65.5t139.5 -64.5t133 -74t111.5 -89.5t77 -116.5t28.5 -149q0 -84 -25.5 -151 t-68.5 -110.5t-104 -72.5t-127.5 -41.5t-143.5 -12.5q-123 0 -257 30.5t-252 82.5zM353 1775l216 279h85l217 -279h-117l-143 183l-142 -183h-116z" />
<glyph unicode="&#x15d;" horiz-adv-x="888" d="M51 36l13 105q203 -63 356 -63q49 0 90.5 7t80 23t65 41.5t42.5 65.5t16 91q0 40 -18 72t-48.5 53.5t-71.5 41t-87 33.5t-95 31.5t-95 35t-87 44t-71.5 58t-48.5 78.5t-18 104q0 59 20 106.5t53.5 78.5t80.5 51.5t98.5 29t110.5 8.5q176 0 349 -55l-13 -87 q-177 49 -322 49q-56 0 -103.5 -10t-87.5 -30.5t-63 -56.5t-23 -84q0 -46 18 -82.5t49 -60.5t72 -44.5t87 -34.5t95 -30.5t95 -32t87 -40t71.5 -54t48.5 -73.5t18 -99q0 -72 -21 -128t-56.5 -92t-87.5 -59t-108.5 -32.5t-124.5 -9.5q-176 0 -366 51zM185 1306l217 279h84 l217 -279h-115l-143 183l-144 -183h-116z" />
<glyph unicode="&#x15e;" horiz-adv-x="1169" d="M89 98l18 100q81 -44 221.5 -82t269.5 -38q59 0 111 9t100 30.5t82.5 54t55 84t20.5 117.5q0 43 -13 82.5t-30.5 69.5t-52.5 61t-62 50.5t-78 46.5t-80.5 41t-87.5 40q-62 28 -93.5 43t-86 44t-83.5 51t-67.5 57t-57.5 69t-33 79.5t-14 95.5q0 88 27.5 157t73.5 113.5 t111 73.5t135.5 41t151.5 12q225 0 427 -79l-18 -90q-79 32 -189 53.5t-217 21.5q-65 0 -121.5 -8.5t-109 -30t-90 -55t-59.5 -85.5t-22 -119q0 -62 28.5 -114t77 -90t111.5 -72t132.5 -65.5t139.5 -64.5t133 -74t111.5 -89.5t77 -116.5t28.5 -149q0 -83 -24.5 -149 t-66 -109.5t-100.5 -72.5t-124.5 -42.5t-140.5 -14.5l-13 -74q63 -2 95.5 -38t32.5 -101q0 -74 -43.5 -120.5t-130.5 -46.5q-73 0 -145 27l19 93q70 -26 126 -26q85 0 85 71q0 51 -57 51h-88l32 168q-227 17 -435 109z" />
<glyph unicode="&#x15f;" horiz-adv-x="888" d="M51 36l13 105q203 -63 356 -63q49 0 90.5 7t80 23t65 41.5t42.5 65.5t16 91q0 40 -18 72t-48.5 53.5t-71.5 41t-87 33.5t-95 31.5t-95 35t-87 44t-71.5 58t-48.5 78.5t-18 104q0 59 20 106.5t53.5 78.5t80.5 51.5t98.5 29t110.5 8.5q176 0 349 -55l-13 -87 q-177 49 -322 49q-56 0 -103.5 -10t-87.5 -30.5t-63 -56.5t-23 -84q0 -46 18 -82.5t49 -60.5t72 -44.5t87 -34.5t95 -30.5t95 -32t87 -40t71.5 -54t48.5 -73.5t18 -99q0 -69 -19.5 -124t-53 -90.5t-81.5 -59.5t-101.5 -34.5t-116.5 -12.5l-15 -74q63 -2 95.5 -38t32.5 -101 q0 -74 -43.5 -120.5t-130.5 -46.5q-73 0 -145 27l20 93q71 -26 125 -26q85 0 85 71q0 51 -56 51h-89l31 166q-145 6 -302 49z" />
<glyph unicode="&#x160;" horiz-adv-x="1169" d="M89 98l18 100q81 -44 221.5 -82t269.5 -38q59 0 111 9t100 30.5t82.5 54t55 84t20.5 117.5q0 43 -13 82.5t-30.5 69.5t-52.5 61t-62 50.5t-78 46.5t-80.5 41t-87.5 40q-62 28 -93.5 43t-86 44t-83.5 51t-67.5 57t-57.5 69t-33 79.5t-14 95.5q0 88 27.5 157t73.5 113.5 t111 73.5t135.5 41t151.5 12q225 0 427 -79l-18 -90q-79 32 -189 53.5t-217 21.5q-65 0 -121.5 -8.5t-109 -30t-90 -55t-59.5 -85.5t-22 -119q0 -62 28.5 -114t77 -90t111.5 -72t132.5 -65.5t139.5 -64.5t133 -74t111.5 -89.5t77 -116.5t28.5 -149q0 -84 -25.5 -151 t-68.5 -110.5t-104 -72.5t-127.5 -41.5t-143.5 -12.5q-123 0 -257 30.5t-252 82.5zM326 2054h117l142 -184l143 184h116l-217 -279h-84z" />
<glyph unicode="&#x161;" horiz-adv-x="888" d="M51 36l13 105q203 -63 356 -63q49 0 90.5 7t80 23t65 41.5t42.5 65.5t16 91q0 40 -18 72t-48.5 53.5t-71.5 41t-87 33.5t-95 31.5t-95 35t-87 44t-71.5 58t-48.5 78.5t-18 104q0 59 20 106.5t53.5 78.5t80.5 51.5t98.5 29t110.5 8.5q176 0 349 -55l-13 -87 q-177 49 -322 49q-56 0 -103.5 -10t-87.5 -30.5t-63 -56.5t-23 -84q0 -46 18 -82.5t49 -60.5t72 -44.5t87 -34.5t95 -30.5t95 -32t87 -40t71.5 -54t48.5 -73.5t18 -99q0 -72 -21 -128t-56.5 -92t-87.5 -59t-108.5 -32.5t-124.5 -9.5q-176 0 -366 51zM185 1585h116l144 -183 l143 183h115l-217 -279h-84z" />
<glyph unicode="&#x162;" horiz-adv-x="1300" d="M17 1491v94h1173v-94h-536v-1491h-100v1491h-537zM417 -447l119 302h122l-151 -302h-90z" />
<glyph unicode="&#x163;" horiz-adv-x="615" d="M32 1022v94h149v315l100 20v-335h257v-94h-257v-799q0 -72 32.5 -108.5t86.5 -36.5q60 0 126 41l7 -92q-66 -42 -143 -42q-88 0 -148.5 61t-60.5 175v801h-149zM81 -447l117 302h124l-152 -302h-89z" />
<glyph unicode="&#x164;" horiz-adv-x="1300" d="M64 1491v94h1173v-94h-536v-1491h-100v1491h-537zM390 2054h117l143 -184l142 184h117l-217 -279h-85z" />
<glyph unicode="&#x165;" horiz-adv-x="615" d="M32 1022v94h149v315l100 20v-335h257v-94h-257v-799q0 -72 32.5 -108.5t86.5 -36.5q60 0 126 41l7 -92q-66 -42 -143 -42q-88 0 -148.5 61t-60.5 175v801h-149zM482 1250l78 335h156l-133 -335h-101z" />
<glyph unicode="&#x166;" horiz-adv-x="1300" d="M64 1491v94h1173v-94h-536v-562h366v-94h-366v-835h-100v835h-369v94h369v562h-537z" />
<glyph unicode="&#x167;" horiz-adv-x="615" d="M32 576v93h149v353h-149v94h149v315l100 20v-335h257v-94h-257v-353h257v-93h-257v-353q0 -72 32.5 -108.5t86.5 -36.5q60 0 126 41l7 -92q-66 -42 -143 -42q-88 0 -148.5 61t-60.5 175v355h-149z" />
<glyph unicode="&#x168;" horiz-adv-x="1412" d="M136 538v1047h101v-1047q0 -95 26.5 -173t71 -130.5t105.5 -88.5t127.5 -52t138 -16t138 16t127.5 52t106 88.5t72 130.5t27 173v1047h100v-1047q0 -112 -32.5 -205.5t-87 -157t-128.5 -107t-155 -63.5t-168 -20q-61 0 -120 10t-115.5 32t-106 53.5t-91.5 77t-72 101 t-47 127t-17 152.5zM409 1834q14 77 62 124t112 47q35 0 71 -17.5t62 -37.5t58 -37t59 -17t48.5 25.5t27.5 74.5l96 -25q-15 -77 -62.5 -123t-111.5 -46q-36 0 -73.5 17t-64 37.5t-57 37.5t-53.5 17q-29 0 -50.5 -25.5t-27.5 -75.5z" />
<glyph unicode="&#x169;" horiz-adv-x="1046" d="M132 279v837h100v-837q0 -201 179 -201q105 0 216.5 70t187.5 167v801h101v-1116h-90l-11 201q-75 -94 -181 -155t-223 -61q-58 0 -107.5 17.5t-88.5 52t-61 92.5t-22 132zM226 1366q14 77 62 123.5t112 46.5q34 0 70.5 -17t62.5 -37.5t58 -37.5t59 -17q17 0 32.5 10.5 t27.5 33.5t16 56l96 -25q-15 -77 -63 -123t-112 -46q-35 0 -72.5 17t-64 37.5t-57 37.5t-53.5 17q-29 0 -50.5 -25.5t-27.5 -74.5z" />
<glyph unicode="&#x16a;" horiz-adv-x="1412" d="M136 538v1047h101v-1047q0 -95 26.5 -173t71 -130.5t105.5 -88.5t127.5 -52t138 -16t138 16t127.5 52t106 88.5t72 130.5t27 173v1047h100v-1047q0 -112 -32.5 -205.5t-87 -157t-128.5 -107t-155 -63.5t-168 -20q-61 0 -120 10t-115.5 32t-106 53.5t-91.5 77t-72 101 t-47 127t-17 152.5zM400 1775v93h612v-93h-612z" />
<glyph unicode="&#x16b;" horiz-adv-x="1046" d="M132 279v837h100v-837q0 -201 179 -201q105 0 216.5 70t187.5 167v801h101v-1116h-90l-11 201q-75 -94 -181 -155t-223 -61q-58 0 -107.5 17.5t-88.5 52t-61 92.5t-22 132zM217 1306v94h611v-94h-611z" />
<glyph unicode="&#x16c;" horiz-adv-x="1412" d="M136 538v1047h101v-1047q0 -95 26.5 -173t71 -130.5t105.5 -88.5t127.5 -52t138 -16t138 16t127.5 52t106 88.5t72 130.5t27 173v1047h100v-1047q0 -112 -32.5 -205.5t-87 -157t-128.5 -107t-155 -63.5t-168 -20q-61 0 -120 10t-115.5 32t-106 53.5t-91.5 77t-72 101 t-47 127t-17 152.5zM494 1938v116h94v-109q0 -40 32 -60.5t83 -20.5q57 0 121 27v163h94v-212q-116 -67 -217 -67q-57 0 -102.5 17t-75 55t-29.5 91z" />
<glyph unicode="&#x16d;" horiz-adv-x="1046" d="M132 279v837h100v-837q0 -201 179 -201q105 0 216.5 70t187.5 167v801h101v-1116h-90l-11 201q-75 -94 -181 -155t-223 -61q-58 0 -107.5 17.5t-88.5 52t-61 92.5t-22 132zM311 1469v116h93v-109q0 -40 32.5 -60.5t83.5 -20.5q57 0 121 27v163h94v-212q-116 -67 -217 -67 q-88 0 -147.5 42t-59.5 121z" />
<glyph unicode="&#x16e;" horiz-adv-x="1412" d="M136 538v1047h101v-1047q0 -95 26.5 -173t71 -130.5t105.5 -88.5t127.5 -52t138 -16t138 16t127.5 52t106 88.5t72 130.5t27 173v1047h100v-1047q0 -112 -32.5 -205.5t-87 -157t-128.5 -107t-155 -63.5t-168 -20q-61 0 -120 10t-115.5 32t-106 53.5t-91.5 77t-72 101 t-47 127t-17 152.5zM554 1915q0 69 42 111.5t109 42.5q69 0 111.5 -42.5t42.5 -111.5q0 -67 -42.5 -109t-111.5 -42q-67 0 -109 42t-42 109zM634 1915q0 -71 71 -71q74 0 74 71q0 74 -74 74q-71 0 -71 -74z" />
<glyph unicode="&#x16f;" horiz-adv-x="1046" d="M132 279v837h100v-837q0 -201 179 -201q105 0 216.5 70t187.5 167v801h101v-1116h-90l-11 201q-75 -94 -181 -155t-223 -61q-58 0 -107.5 17.5t-88.5 52t-61 92.5t-22 132zM371 1446q0 69 42 111.5t109 42.5q69 0 112 -42.5t43 -111.5q0 -67 -43 -109t-112 -42 q-67 0 -109 42t-42 109zM451 1446q0 -70 71 -70q74 0 74 70q0 75 -74 75q-71 0 -71 -75z" />
<glyph unicode="&#x170;" horiz-adv-x="1412" d="M136 538v1047h101v-1047q0 -95 26.5 -173t71 -130.5t105.5 -88.5t127.5 -52t138 -16t138 16t127.5 52t106 88.5t72 130.5t27 173v1047h100v-1047q0 -112 -32.5 -205.5t-87 -157t-128.5 -107t-155 -63.5t-168 -20q-61 0 -120 10t-115.5 32t-106 53.5t-91.5 77t-72 101 t-47 127t-17 152.5zM538 1775l176 279h134l-207 -279h-103zM771 1775l175 279h134l-207 -279h-102z" />
<glyph unicode="&#x171;" horiz-adv-x="1046" d="M132 279v837h100v-837q0 -201 179 -201q105 0 216.5 70t187.5 167v801h101v-1116h-90l-11 201q-75 -94 -181 -155t-223 -61q-58 0 -107.5 17.5t-88.5 52t-61 92.5t-22 132zM353 1306l176 279h134l-207 -279h-103zM585 1306l176 279h134l-207 -279h-103z" />
<glyph unicode="&#x172;" horiz-adv-x="1412" d="M136 538v1047h101v-1047q0 -95 26.5 -173t71 -130.5t105.5 -88.5t127.5 -52t138 -16t138 16t127.5 52t106 88.5t72 130.5t27 173v1047h100v-1047q0 -178 -78 -301t-207 -188q-44 -34 -71 -56t-60 -52.5t-51 -54t-31 -51t-13 -52.5q0 -42 23.5 -65.5t66.5 -23.5 q35 0 85 20l13 -87q-55 -22 -103 -22q-50 0 -89.5 19.5t-63 58t-23.5 91.5q0 74 43 128t118 98q-66 -15 -130 -15q-61 0 -120 10t-115.5 32t-106 53.5t-91.5 77t-72 101t-47 127t-17 152.5z" />
<glyph unicode="&#x173;" horiz-adv-x="1046" d="M132 279v837h100v-837q0 -201 179 -201q105 0 216.5 70t187.5 167v801h101v-1116q-78 -54 -119 -105t-41 -112q0 -42 23.5 -65.5t66.5 -23.5q35 0 85 20l13 -87q-55 -22 -103 -22q-49 0 -88.5 19.5t-63.5 58t-24 91.5q0 74 43 128t118 98l-11 201q-75 -94 -181 -155 t-223 -61q-58 0 -107.5 17.5t-88.5 52t-61 92.5t-22 132z" />
<glyph unicode="&#x174;" horiz-adv-x="1847" d="M34 1585h100l435 -1442l436 1442h100l-132 -429l307 -1013l435 1442h100l-484 -1585h-104l-303 993l-304 -993h-102zM665 1775l217 279h85l216 -279h-116l-143 183l-142 -183h-117z" />
<glyph unicode="&#x175;" horiz-adv-x="1300" d="M29 1116h103l263 -982l263 982h103l-60 -215l205 -767l264 982h102l-314 -1116h-36q-27 0 -43 6t-25.5 19t-16.5 37l-187 664l-186 -664q-10 -35 -27.5 -48.5t-57.5 -13.5h-36zM390 1306l217 279h85l217 -279h-117l-142 183l-143 -183h-117z" />
<glyph unicode="&#x176;" horiz-adv-x="1251" d="M27 1585h109l489 -846l491 846h109l-548 -946v-639h-101v639zM366 1775l217 279h84l217 -279h-116l-143 183l-143 -183h-116z" />
<glyph unicode="&#x177;" horiz-adv-x="1066" d="M32 -400l11 96q94 -64 187 -64q115 0 162 125l94 243l-441 1116h109l382 -988l377 988h109l-545 -1388q-72 -190 -247 -190q-93 0 -198 62zM275 1306l217 279h84l216 -279h-115l-144 183l-143 -183h-115z" />
<glyph unicode="&#x178;" horiz-adv-x="1251" d="M27 1585h109l489 -846l491 846h109l-548 -946v-639h-101v639zM328 1902q0 38 26.5 65t65 27t65 -27t26.5 -65t-26.5 -65t-65 -27t-65 27t-26.5 65zM739 1902q0 38 26.5 65t65 27t65 -27t26.5 -65t-26.5 -65t-65 -27t-65 27t-26.5 65z" />
<glyph unicode="&#x179;" horiz-adv-x="1200" d="M66 0v94l890 1397h-826v94h939v-94l-890 -1397h955v-94h-1068zM541 1775l175 279h134l-207 -279h-102z" />
<glyph unicode="&#x17a;" horiz-adv-x="967" d="M66 0v94l682 928h-656v94h770v-94l-683 -928h714v-94h-827zM431 1306l176 279h134l-208 -279h-102z" />
<glyph unicode="&#x17b;" horiz-adv-x="1200" d="M66 0v94l890 1397h-826v94h939v-94l-890 -1397h955v-94h-1068zM509 1902q0 25 12 46t33 33.5t47 12.5q38 0 64.5 -27t26.5 -65t-26.5 -65t-65 -27t-65 27t-26.5 65z" />
<glyph unicode="&#x17c;" horiz-adv-x="967" d="M66 0v94l682 928h-656v94h770v-94l-683 -928h714v-94h-827zM392 1433.5q0 38.5 27 65t65 26.5t65 -26.5t27 -65t-27 -65t-65 -26.5t-65 26.5t-27 65z" />
<glyph unicode="&#x17d;" horiz-adv-x="1200" d="M66 0v94l890 1397h-826v94h939v-94l-890 -1397h955v-94h-1068zM341 2054h117l143 -184l142 184h116l-216 -279h-85z" />
<glyph unicode="&#x17e;" horiz-adv-x="967" d="M66 0v94l682 928h-656v94h770v-94l-683 -928h714v-94h-827zM226 1585h115l143 -183l143 183h116l-217 -279h-83z" />
<glyph unicode="&#x192;" horiz-adv-x="669" d="M-62 -428l13 96q77 -36 130 -36q70 0 110.5 50.5t45.5 170.5l38 901h-213v94h217l22 507q6 138 78.5 217.5t193.5 79.5q66 0 137 -25l-13 -91q-68 23 -121 23q-40 0 -70 -11t-53 -35t-35.5 -64t-15.5 -96l-23 -505h222v-94h-226l-38 -908q-4 -98 -36 -167.5t-86.5 -105 t-127.5 -35.5q-70 0 -149 34z" />
<glyph unicode="&#x2c6;" horiz-adv-x="519" d="M0 1306l217 279h84l217 -279h-116l-143 183l-143 -183h-116z" />
<glyph unicode="&#x2c7;" horiz-adv-x="517" d="M0 1585h116l143 -183l143 183h116l-217 -279h-84z" />
<glyph unicode="&#x2d8;" horiz-adv-x="537" d="M51 1469v116h94v-109q0 -40 32.5 -60.5t84.5 -20.5q55 0 120 27v163h93v-212q-59 -34 -109.5 -50.5t-106.5 -16.5q-87 0 -147.5 42t-60.5 121z" />
<glyph unicode="&#x2d9;" horiz-adv-x="311" d="M64 1433.5q0 38.5 26.5 65t65 26.5t65 -26.5t26.5 -65t-26.5 -65t-65 -26.5t-65 26.5t-26.5 65z" />
<glyph unicode="&#x2da;" horiz-adv-x="430" d="M62 1446q0 69 42.5 111.5t110.5 42.5t110.5 -42.5t42.5 -111.5q0 -44 -19 -78.5t-54 -53.5t-80 -19q-67 0 -110 42.5t-43 108.5zM143 1446q0 -70 72 -70q73 0 73 70q0 75 -73 75q-72 0 -72 -75z" />
<glyph unicode="&#x2db;" horiz-adv-x="352" d="M38 -226q0 74 43 128t117 98h90q-77 -54 -117.5 -105t-40.5 -112q0 -42 23 -65.5t66 -23.5q35 0 85 20l13 -87q-54 -22 -102 -22q-77 0 -127 45t-50 124z" />
<glyph unicode="&#x2dc;" horiz-adv-x="658" d="M32 1366q4 22 11 41.5t16.5 36.5t21.5 31.5t26 25.5t29.5 19t33 12t35.5 4q34 0 70.5 -17t63 -37.5t58.5 -37.5t59 -17t48 25.5t27 74.5l96 -25q-15 -77 -62.5 -123t-111.5 -46q-35 0 -73 17t-64.5 37.5t-57.5 37.5t-53 17q-29 0 -50 -25.5t-27 -74.5z" />
<glyph unicode="&#x2dd;" horiz-adv-x="575" d="M17 1306l177 279h134l-207 -279h-104zM250 1306l176 279h134l-207 -279h-103z" />
<glyph unicode="&#x3c0;" horiz-adv-x="1214" d="M74 1022v94h1057v-94h-178v-812q0 -67 25.5 -99.5t71.5 -32.5q54 0 120 38l6 -91q-66 -40 -134 -40q-84 0 -137 59t-53 163v815h-499v-1022h-101v1022h-178z" />
<glyph unicode="&#xe01;" horiz-adv-x="1028" d="M85 1014q128 57 227.5 87t203.5 30q383 0 383 -372v-759h-100v759q0 77 -20 132.5t-59 87t-89 45.5t-115 14q-152 0 -322 -73l36 -209v-756h-100v756z" />
<glyph unicode="&#xe02;" horiz-adv-x="941" d="M109 296v209q0 47 15.5 80t49.5 67l103 107q24 23 32 44.5t8 58.5v71q0 49 -22.5 69t-68.5 20h-105v94h113q83 0 133 -45.5t50 -128.5v-90q0 -82 -57 -140l-110 -114q-24 -23 -32 -47t-8 -65v-190q0 -71 36 -121.5t91.5 -73.5t122.5 -23t123 23t92.5 73.5t36.5 121.5v820 h100v-820q0 -76 -29.5 -137t-79.5 -98.5t-112 -56.5t-131 -19t-131 19t-112 56.5t-79 98t-29 137.5z" />
<glyph unicode="&#xe03;" horiz-adv-x="941" d="M81 1018v98h100v-85q0 -85 69 -85q40 0 91 23l17 147h85v-285q0 -34 -8 -60t-20 -44.5t-36 -47.5l-129 -161q-24 -28 -32 -56t-8 -76v-90q0 -71 36 -121.5t91.5 -73.5t122.5 -23t123 23t92.5 73.5t36.5 121.5v820h100v-820q0 -76 -29.5 -137t-79.5 -98.5t-112 -56.5 t-131 -19t-131 19t-112 56.5t-79 98t-29 137.5v96q0 66 15 102.5t53 81.5l127 156q22 28 29.5 48t7.5 55v56q-56 -39 -118 -39q-63 0 -102.5 43.5t-39.5 122.5z" />
<glyph unicode="&#xe04;" horiz-adv-x="1014" d="M74 688v73q0 62 16 115.5t44.5 93.5t66.5 71t83.5 50.5t94.5 29.5t101 10q62 0 120 -13.5t110.5 -43.5t91 -72.5t61.5 -104.5t23 -136v-761h-100v761q0 56 -17.5 102.5t-47 78t-69 53.5t-83 32.5t-89.5 10.5q-47 0 -91 -10.5t-83 -32.5t-68.5 -53.5t-46.5 -78t-17 -102.5 v-67q0 -67 13 -111t41 -78q55 71 179 71h147v-94h-132q-69 0 -98.5 -23.5t-44.5 -92.5l-81 -366h-102l89 411q-111 115 -111 277z" />
<glyph unicode="&#xe05;" horiz-adv-x="1028" d="M74 712v123q0 296 216 296q68 0 109 -29.5t68 -83.5l49 -100l44 89q32 66 74 95t107 29q66 0 112 -34.5t46 -93.5v-1003h-100v984q0 27 -17 40.5t-43 13.5q-34 0 -56.5 -22t-43.5 -66l-63 -126h-118l-70 143q-17 37 -38.5 54t-55.5 17q-59 0 -89.5 -51t-30.5 -150v-125 q0 -118 60 -207q57 60 170 60h141v-94h-125q-47 0 -74 -10t-43 -34.5t-26 -71.5l-79 -355h-102l91 413q-113 143 -113 299z" />
<glyph unicode="&#xe06;" horiz-adv-x="1055" d="M89 1018v98h101v-85q0 -85 69 -85q41 0 92 23l15 147h85v-239q0 -59 -12 -104t-41 -94l-94 -161q-50 -88 -50 -175v-24q76 -114 176.5 -177.5t210.5 -63.5q94 0 139.5 55.5t45.5 190.5v792h100v-797q0 -170 -76.5 -252t-208.5 -82q-73 0 -143 25t-133 74t-111 119 l-15 -203h-85v341q0 120 67 235l92 156q38 63 38 141v18q-56 -39 -119 -39t-103 43.5t-40 122.5z" />
<glyph unicode="&#xe07;" horiz-adv-x="907" d="M20 669h116l201 -486q25 -61 57.5 -83t99.5 -22h58l153 728q11 52 11 85q0 131 -151 131h-105v94h111q118 0 182.5 -60.5t64.5 -162.5q0 -34 -12 -96l-172 -797q-97 -15 -148 -15q-94 0 -153.5 41t-100.5 140z" />
<glyph unicode="&#xe08;" horiz-adv-x="939" d="M98 1063q186 68 360 68q103 0 179.5 -27.5t122 -78t67 -116t21.5 -146.5q0 -108 -40 -245l-103 -369q-24 -83 -86 -123.5t-146 -40.5q-67 0 -154 28l-47 362q-6 56 -30 78t-82 22h-35v94h41q92 0 142.5 -43t59.5 -136l36 -312h71q67 0 93.5 18t45.5 81l100 356 q34 125 34 235q0 75 -22.5 128.5t-64 83.5t-91.5 44t-112 14q-146 0 -345 -71z" />
<glyph unicode="&#xe09;" horiz-adv-x="992" d="M105 1054q168 77 346 77q57 0 108.5 -9t98 -27.5t84 -48.5t65 -69t42.5 -92.5t15 -116.5v-768h-85l-16 223q-101 -113 -194.5 -175.5t-195.5 -62.5q-52 0 -97.5 16t-83.5 49.5t-60.5 90.5t-22.5 131v286h101v-286q0 -51 13.5 -89.5t37 -60.5t52.5 -33t64 -11 q95 0 184.5 60t201.5 179v442q-1 75 -26 130.5t-69 87t-98 46.5t-119 15q-81 0 -169.5 -22.5t-160.5 -57.5z" />
<glyph unicode="&#xe0a;" horiz-adv-x="941" d="M109 296v209q0 47 15.5 80t49.5 67l103 107q24 23 32 44.5t8 58.5v71q0 49 -22.5 69t-68.5 20h-105v94h113q83 0 133 -45.5t50 -128.5v-90q0 -82 -57 -140l-110 -114q-24 -23 -32 -47t-8 -65v-190q0 -71 36 -121.5t91.5 -73.5t122.5 -23t123 23t92.5 73.5t36.5 121.5v298 q0 75 -30 109t-99 34h-70v94h52q49 0 72 20.5t37 74.5l50 205h100l-51 -215q-8 -35 -19 -58t-29 -39.5t-46 -30.5q75 -20 104 -63t29 -122v-307q0 -76 -29.5 -137t-79.5 -98.5t-112 -56.5t-131 -19t-131 19t-112 56.5t-79 98t-29 137.5z" />
<glyph unicode="&#xe0b;" horiz-adv-x="941" d="M81 1018v98h100v-85q0 -85 69 -85q40 0 91 23l17 147h85v-285q0 -34 -8 -60t-20 -44.5t-36 -47.5l-129 -161q-24 -28 -32 -56t-8 -76v-90q0 -71 36 -121.5t91.5 -73.5t122.5 -23t123 23t92.5 73.5t36.5 121.5v298q0 75 -30 109t-99 34h-70v94h52q49 0 72 20.5t37 74.5 l50 205h100l-51 -215q-8 -35 -19 -58t-29 -39.5t-46 -30.5q75 -20 104 -63t29 -122v-307q0 -76 -29.5 -137t-79.5 -98.5t-112 -56.5t-131 -19t-131 19t-112 56.5t-79 98t-29 137.5v96q0 66 15 102.5t53 81.5l127 156q22 28 29.5 48t7.5 55v56q-56 -39 -118 -39 q-63 0 -102.5 43.5t-39.5 122.5z" />
<glyph unicode="&#xe0c;" horiz-adv-x="1604" d="M85 1014q132 58 227 87.5t190 29.5q59 0 109.5 -11t95.5 -37.5t77 -66.5t50 -101t18 -138v-478q102 -111 186.5 -166t169.5 -55q81 0 124.5 51t43.5 150v837h100v-841q0 -61 -14.5 -110t-39 -82t-58.5 -55.5t-71 -32.5t-79 -10q-98 0 -184.5 54t-177.5 159l-15 -198h-85 v777q0 71 -20 123t-55.5 81.5t-79.5 43t-99 13.5q-129 0 -304 -73l36 -209v-522q0 -75 30 -107.5t100 -32.5h120v-94h-122q-77 0 -129 29.5t-75.5 79.5t-23.5 119v528z" />
<glyph unicode="&#xe0d;" horiz-adv-x="1604" d="M85 1014q132 58 227 87.5t190 29.5q59 0 109.5 -11t95.5 -37.5t77 -66.5t50 -101t18 -138v-498q0 -69 20.5 -114t58 -66t94.5 -21q81 0 175 38t176 99v901h100v-1103q0 -326 -391 -326h-344v94h339q151 0 223.5 57.5t72.5 183.5v106q-179 -143 -351 -143q-127 0 -200 71 t-73 219v502q0 71 -20 123t-55.5 81.5t-79.5 43t-99 13.5q-129 0 -304 -73l36 -209v-522q0 -75 30 -107.5t100 -32.5h120v-94h-122q-77 0 -129 29.5t-75.5 79.5t-23.5 119v528z" />
<glyph unicode="&#xe0e;" horiz-adv-x="1055" d="M36 0v94h85q18 0 26.5 7.5t8.5 28.5v626l-45 258q127 57 227.5 87t204.5 30q383 0 383 -372v-1206h-95q-232 177 -463 177q-69 0 -120.5 -18.5t-81.5 -59t-30 -99.5h-100q0 129 93 199.5t242 70.5q226 0 455 -158v1094q0 77 -20 132.5t-59 87t-88.5 45.5t-115.5 14 q-152 0 -322 -73l36 -209v-633q0 -64 -31.5 -93.5t-97.5 -29.5h-92z" />
<glyph unicode="&#xe0f;" horiz-adv-x="1055" d="M36 0v94h85q18 0 26.5 7.5t8.5 28.5v626l-45 258q127 57 227.5 87t204.5 30q383 0 383 -372v-1206h-85l-15 155q-44 -57 -77 -88.5t-71 -49t-84 -17.5q-62 0 -108.5 30t-59.5 89q-91 -119 -270 -119h-120v94h118q182 0 268 157h100v-81q0 -23 10.5 -40.5t28 -26.5 t40.5 -9q56 0 107.5 37.5t117.5 119.5v955q0 77 -20 132.5t-59 87t-88.5 45.5t-115.5 14q-152 0 -322 -73l36 -209v-633q0 -64 -31.5 -93.5t-97.5 -29.5h-92z" />
<glyph unicode="&#xe10;" horiz-adv-x="910" d="M49 -447q0 69 24.5 121.5t68.5 84.5t101 48t125 16q101 0 196.5 -42.5t170.5 -115.5v224h100v-336h-96q-65 64 -122.5 102t-118 56.5t-130.5 18.5q-106 0 -162.5 -46.5t-56.5 -130.5h-100zM81 810q0 71 22 126.5t59 91.5t88.5 60t107.5 33.5t119 9.5q157 0 313 -57 l-17 -85q-141 49 -296 49q-41 0 -77 -5t-71 -15.5t-62.5 -29t-48.5 -44t-32.5 -61.5t-11.5 -80v-42q66 0 124.5 -4.5t121 -16t114 -29.5t98.5 -48t79.5 -68.5t51.5 -93t19 -119.5v-322q-36 -23 -79.5 -40t-91 -26t-93.5 -9q-75 0 -136.5 21.5t-107.5 73t-59 127.5l-28 159 q-4 32 -18.5 43t-45.5 11h-40v91h40q72 0 110.5 -28.5t49.5 -94.5l25 -147q14 -85 71.5 -124t138.5 -39q88 0 163 35v260q0 56 -18 100.5t-48 75t-76.5 53t-94 35.5t-109.5 20.5t-115 9.5t-120 2q-19 80 -19 141z" />
<glyph unicode="&#xe11;" horiz-adv-x="1026" d="M34 1007v109h100v-96q0 -74 56 -74q26 0 74 23l15 147h85v-163q138 178 313 178q99 0 159.5 -63t60.5 -195v-873h-100v873q0 90 -33.5 127.5t-94.5 37.5q-74 0 -146 -49t-126 -126t-86 -171l-49 -140q-19 -50 -25.5 -100.5t-6.5 -123.5v-328h-100v326q0 64 4 108 t12.5 79.5t25.5 82.5l47 136q45 128 45 159q-55 -39 -108 -39q-58 0 -90 39.5t-32 115.5z" />
<glyph unicode="&#xe12;" horiz-adv-x="1604" d="M113 324v528q0 134 51.5 206.5t143.5 72.5q95 0 141 -93l58 -120l58 115q17 35 37 56t48 31.5t66 10.5q61 0 98.5 -37.5t37.5 -107.5v-687q102 -111 186.5 -166t169.5 -55q81 0 124.5 51t43.5 150v837h100v-841q0 -61 -14.5 -110t-39 -82t-58.5 -55.5t-71 -32.5t-79 -10 q-98 0 -184.5 54t-177.5 159l-15 -198h-85v978q0 29 -12 44.5t-33 15.5t-34.5 -13t-27.5 -43l-78 -158h-118l-83 171q-19 43 -58 43q-28 0 -48.5 -19.5t-32.5 -61.5t-12 -105v-528q0 -121 64 -183.5t166 -62.5q57 0 117 20v-91q-70 -22 -119 -22q-68 0 -125 19t-104 58 t-74 106t-27 156z" />
<glyph unicode="&#xe13;" horiz-adv-x="1604" d="M85 1014q132 58 227 87.5t190 29.5q59 0 109.5 -11t95.5 -37.5t77 -66.5t50 -101t18 -138v-494q0 -98 48 -151.5t129 -53.5q92 0 177 57.5t170 163.5v817h100v-1116h-85l-15 198q-81 -101 -167 -157t-187 -56q-56 0 -104 17.5t-85.5 53t-59 92.5t-21.5 131v498 q0 71 -20 123t-55.5 81.5t-79.5 43t-99 13.5q-129 0 -304 -73l36 -209v-522q0 -75 30 -107.5t100 -32.5h120v-94h-122q-77 0 -129 29.5t-75.5 79.5t-23.5 119v528z" />
<glyph unicode="&#xe14;" horiz-adv-x="1071" d="M111 324v430q0 74 23 136.5t62 106.5t92 74.5t113.5 45t125 14.5t124.5 -14.5t113 -45t92.5 -74.5t62.5 -106.5t23 -136.5v-754h-101v754q0 56 -17 103t-47 80t-70.5 56t-86 34t-94.5 11q-61 0 -116.5 -18t-100 -52t-70.5 -89t-26 -125v-430q0 -121 64 -183.5t166 -62.5 q90 0 179 47v-93q-85 -47 -183 -47q-67 0 -124 19t-104 58t-73.5 106t-26.5 156z" />
<glyph unicode="&#xe15;" horiz-adv-x="1082" d="M111 324v528q0 132 51 205.5t160 73.5q116 0 172 -113l49 -100l45 89q32 66 80.5 95t117.5 29q70 0 118.5 -42t48.5 -116v-973h-101v965q0 34 -20.5 53.5t-52.5 19.5q-71 0 -114 -88l-62 -126h-119l-69 143q-17 36 -39 53.5t-54 17.5q-109 0 -109 -186v-528 q0 -121 64 -183.5t166 -62.5q90 0 179 47v-93q-85 -47 -183 -47q-67 0 -124 19t-104 58t-73.5 106t-26.5 156z" />
<glyph unicode="&#xe16;" horiz-adv-x="1028" d="M85 1014q128 57 227.5 87t203.5 30q383 0 383 -372v-759h-100v759q0 77 -20 132.5t-59 87t-89 45.5t-115 14q-152 0 -322 -73l36 -209v-522q0 -75 30 -107.5t100 -32.5h120v-94h-122q-77 0 -129 29.5t-75.5 79.5t-23.5 119v528z" />
<glyph unicode="&#xe17;" horiz-adv-x="1026" d="M130 0v1116h100v-313q31 63 69.5 118t89 104t114 77.5t131.5 28.5q43 0 80.5 -8.5t71.5 -29.5t58 -52.5t38.5 -79t14.5 -106.5v-855h-100v855q0 97 -45.5 140t-121.5 43q-57 0 -115 -30.5t-109.5 -83t-96 -118.5t-79.5 -141v-665h-100z" />
<glyph unicode="&#xe18;" horiz-adv-x="918" d="M105 833q0 65 19.5 116.5t53.5 85t82.5 56t102.5 31.5t117 9q181 0 344 -62l-9 -89q-66 23 -158 40.5t-177 17.5q-275 0 -275 -205v-107q636 0 636 -355v-79q0 -96 -46.5 -167t-125 -105.5t-177.5 -34.5q-212 0 -379 73v451h102v-393q122 -38 277 -38q119 0 184 56.5 t65 157.5v79q0 51 -20.5 92t-53.5 68.5t-85 47.5t-102.5 31t-118 17t-121 8t-121.5 2q-14 101 -14 196z" />
<glyph unicode="&#xe19;" horiz-adv-x="1026" d="M130 279v837h100v-833q0 -205 172 -205q51 0 103 20t102.5 58t94.5 80.5t95 100.5v779h100v-1116h-85l-15 237q-92 -113 -194.5 -182.5t-207.5 -69.5q-56 0 -103 17t-84 51.5t-57.5 92.5t-20.5 133z" />
<glyph unicode="&#xe1a;" horiz-adv-x="1042" d="M130 296v820h100v-817q0 -58 22.5 -102t62 -69t88.5 -37.5t106 -12.5q81 0 163 23.5t140 62.5v952h101v-1009q-75 -56 -184 -89t-220 -33q-60 0 -114 10t-103 34t-84.5 59t-56.5 88.5t-21 119.5z" />
<glyph unicode="&#xe1b;" horiz-adv-x="1042" d="M130 296v820h100v-817q0 -58 22.5 -102t62 -69t88.5 -37.5t106 -12.5q81 0 163 23.5t140 62.5v1421h101v-1478q-75 -56 -184 -89t-220 -33q-60 0 -114 10t-103 34t-84.5 59t-56.5 88.5t-21 119.5z" />
<glyph unicode="&#xe1c;" horiz-adv-x="1144" d="M98 909q-5 105 43 156t155 51h104v-94h-96q-57 0 -83 -28t-23 -88l41 -774l283 565h98l284 -565l52 984h100l-59 -1116h-47q-38 0 -58.5 7t-32.5 21.5t-31 49.5l-257 507l-256 -507q-26 -50 -47 -64t-76 -14h-47z" />
<glyph unicode="&#xe1d;" horiz-adv-x="1142" d="M98 909q-5 105 43 156t155 51h104v-94h-96q-57 0 -83 -28t-23 -88l41 -774l283 565h98l284 -565l74 1453h100l-81 -1585h-47q-38 0 -58.5 7t-32.5 21.5t-31 49.5l-257 507l-256 -507q-26 -50 -47 -64t-76 -14h-47z" />
<glyph unicode="&#xe1e;" horiz-adv-x="1146" d="M89 1116h101l51 -975l283 716h98l284 -716l52 975h100l-57 -1116h-48q-58 0 -80 14.5t-42 63.5l-258 661l-256 -661q-20 -49 -43 -63.5t-80 -14.5h-47z" />
<glyph unicode="&#xe1f;" horiz-adv-x="1144" d="M89 1116h101l51 -975l283 716h98l284 -716l74 1444h100l-79 -1585h-48q-58 0 -80 14.5t-42 63.5l-258 661l-256 -661q-20 -49 -43 -63.5t-80 -14.5h-47z" />
<glyph unicode="&#xe20;" horiz-adv-x="1055" d="M36 0v94h85q18 0 26.5 7.5t8.5 28.5v626l-45 258q127 57 227.5 87t204.5 30q383 0 383 -372v-759h-100v759q0 77 -20 132.5t-59 87t-88.5 45.5t-115.5 14q-152 0 -322 -73l36 -209v-633q0 -64 -31.5 -93.5t-97.5 -29.5h-92z" />
<glyph unicode="&#xe21;" horiz-adv-x="1026" d="M130 0v1116h100v-808q212 -230 400 -230q88 0 127.5 49.5t39.5 151.5v837h100v-841q0 -76 -20 -132.5t-56 -90.5t-82 -50.5t-102 -16.5q-110 0 -214 59t-193 163l-15 -207h-85z" />
<glyph unicode="&#xe22;" horiz-adv-x="1028" d="M111 76v263q0 41 2 68.5t10 60t23 55t41.5 45t64.5 39.5q-60 26 -100.5 85t-40.5 139v51q0 108 57 171t167 63h167v-94h-156q-71 0 -102 -32t-31 -102v-62q0 -87 47.5 -130.5t134.5 -43.5h141v-94h-141q-53 0 -88.5 -12.5t-56 -39t-29 -63.5t-8.5 -90v-217q37 -15 84 -28 t105 -21.5t111 -8.5q60 0 108.5 11.5t90 37t64.5 71t23 108.5v810h100v-822q0 -68 -20.5 -121.5t-55.5 -88.5t-84.5 -57.5t-105 -32t-120.5 -9.5q-102 0 -208 26t-194 65z" />
<glyph unicode="&#xe23;" horiz-adv-x="861" d="M72 867q0 58 20.5 104t54.5 75.5t81.5 49t98.5 27.5t108 8q141 0 300 -46l-13 -88q-154 41 -283 41q-55 0 -100.5 -8.5t-84 -27.5t-60.5 -53.5t-22 -81.5q0 -38 17.5 -70t47 -54.5t69 -43.5t83.5 -37.5t91 -36t91.5 -39t83.5 -47t69 -59t47 -76t17 -98.5 q0 -87 -27.5 -150.5t-78 -100t-114 -53.5t-142.5 -17q-147 0 -324 51l14 96q174 -54 315 -54q257 0 257 228q0 45 -21 82t-57 62.5t-82 47.5t-97 41.5t-102 40t-97.5 47t-82 58.5t-56.5 78.5t-21 103.5z" />
<glyph unicode="&#xe24;" horiz-adv-x="1028" d="M85 1014q128 57 227.5 87t203.5 30q383 0 383 -372v-1206h-100v1206q0 77 -20 132.5t-59 87t-89 45.5t-115 14q-152 0 -322 -73l36 -209v-522q0 -75 30 -107.5t100 -32.5h120v-94h-122q-77 0 -129 29.5t-75.5 79.5t-23.5 119v528z" />
<glyph unicode="&#xe25;" horiz-adv-x="977" d="M72 281q0 79 22 141t60 101.5t91 65.5t111.5 37t125.5 11q112 0 266 -32v179q0 254 -273 254q-76 0 -168.5 -21.5t-168.5 -51.5l-15 93q76 33 170 53t182 20q63 0 116.5 -10.5t101.5 -35.5t82 -63.5t53.5 -98t19.5 -135.5v-788h-100v513q-151 30 -264 30 q-312 0 -312 -260q0 -95 59.5 -150t150.5 -55q90 0 163 38v-94q-73 -37 -172 -37q-59 0 -113 19.5t-96 55.5t-67 93.5t-25 127.5z" />
<glyph unicode="&#xe26;" horiz-adv-x="1055" d="M36 0v94h85q18 0 26.5 7.5t8.5 28.5v626l-45 258q127 57 227.5 87t204.5 30q383 0 383 -372v-1206h-100v1206q0 77 -20 132.5t-59 87t-88.5 45.5t-115.5 14q-152 0 -322 -73l36 -209v-633q0 -64 -31.5 -93.5t-97.5 -29.5h-92z" />
<glyph unicode="&#xe27;" horiz-adv-x="872" d="M74 1065q149 66 303 66q80 0 148 -23t121.5 -69t84 -120.5t30.5 -170.5v-402q0 -167 -92.5 -256.5t-261.5 -89.5h-179v94h174q127 0 193 63t66 198v386q0 82 -22.5 141.5t-63 92.5t-89.5 48t-109 15q-141 0 -288 -65z" />
<glyph unicode="&#xe28;" horiz-adv-x="1014" d="M74 688v73q0 62 16 115.5t44.5 93.5t66.5 71t83.5 50.5t94.5 29.5t101 10q55 0 108 -11.5t103 -35.5t88 -59q9 19 16 46l27 112h100l-29 -122q-9 -41 -22 -65.5t-36 -42.5q51 -83 51 -192v-761h-100v761q0 56 -17.5 102.5t-47 78t-69 53.5t-83 32.5t-89.5 10.5 q-47 0 -91 -10.5t-83 -32.5t-68.5 -53.5t-46.5 -78t-17 -102.5v-67q0 -67 13 -111t41 -78q55 71 179 71h138v-94h-123q-69 0 -98.5 -23.5t-44.5 -92.5l-81 -366h-102l89 411q-111 115 -111 277z" />
<glyph unicode="&#xe29;" horiz-adv-x="1042" d="M130 296v820h100v-817q0 -58 22.5 -102t62 -69t88.5 -37.5t106 -12.5q81 0 163 23.5t140 62.5v388h-224q-106 0 -106 102v70h101v-79h229v471h101v-1009q-75 -56 -184 -89t-220 -33q-60 0 -114 10t-103 34t-84.5 59t-56.5 88.5t-21 119.5z" />
<glyph unicode="&#xe2a;" horiz-adv-x="977" d="M72 281q0 79 22 141t60 101.5t91 65.5t111.5 37t125.5 11q112 0 266 -32v179q0 254 -273 254q-76 0 -168.5 -21.5t-168.5 -51.5l-15 93q76 33 170 53t182 20q177 0 273 -84q8 22 13 42l23 94h100l-25 -105q-9 -40 -20.5 -63.5t-32.5 -38.5q42 -77 42 -188v-788h-100v513 q-151 30 -264 30q-312 0 -312 -260q0 -95 59.5 -150t150.5 -55q90 0 163 38v-94q-73 -37 -172 -37q-59 0 -113 19.5t-96 55.5t-67 93.5t-25 127.5z" />
<glyph unicode="&#xe2b;" horiz-adv-x="1010" d="M130 0v1116h100v-409q156 52 288 52q26 0 80 -5q18 15 31.5 30.5t26 34.5t22 43.5t16.5 55.5l47 198h100l-49 -210q-14 -63 -35.5 -101.5t-57.5 -69.5q92 -29 146 -94.5t54 -171.5v-469h-100v464q0 55 -23 95t-63.5 62.5t-90 33t-109.5 10.5q-133 0 -283 -45v-620h-100z " />
<glyph unicode="&#xe2c;" horiz-adv-x="1180" d="M105 1116h100l52 -975l284 716h98l283 -716l36 698q4 81 -32.5 132t-115.5 51h-64v94h69q76 0 113.5 33t49.5 106l51 330h100l-53 -341q-11 -76 -47.5 -116.5t-99.5 -53.5q47 -11 77.5 -43.5t43 -81t8.5 -112.5l-42 -837h-47q-57 0 -80 14.5t-43 63.5l-256 661l-258 -661 q-20 -49 -42 -63.5t-80 -14.5h-46z" />
<glyph unicode="&#xe2d;" horiz-adv-x="1006" d="M89 105v281q0 114 58 175t179 61h166v-93h-162q-74 0 -107 -36.5t-33 -108.5v-226q36 -23 84.5 -40.5t106.5 -28.5t113 -11q58 0 106.5 11.5t89.5 36t64 68.5t23 105v474q0 73 -21.5 125.5t-61.5 82t-88 43.5t-108 14q-156 0 -351 -85l-17 85q54 26 112 46t126.5 33.5 t129.5 13.5q62 0 116.5 -11.5t103.5 -38t84 -66.5t55 -101t20 -137v-481q0 -66 -20.5 -119.5t-56 -88.5t-85 -59t-104.5 -34t-117 -10q-109 0 -216.5 32t-188.5 88z" />
<glyph unicode="&#xe2e;" horiz-adv-x="1006" d="M89 105v281q0 114 58 175t179 61h166v-93h-162q-74 0 -107 -36.5t-33 -108.5v-226q36 -23 84.5 -40.5t106.5 -28.5t113 -11q58 0 106.5 11.5t89.5 36t64 68.5t23 105v474q0 73 -21.5 125.5t-61.5 82t-88 43.5t-108 14q-156 0 -351 -85l-17 85q54 26 112 46t126.5 33.5 t129.5 13.5q170 0 275 -87q7 14 17 55l20 84h101l-23 -96q-5 -22 -10.5 -37.5t-12.5 -28.5t-16.5 -23.5t-22.5 -19.5q51 -83 51 -201v-481q0 -66 -20.5 -119.5t-56 -88.5t-85 -59t-104.5 -34t-117 -10q-109 0 -216.5 32t-188.5 88z" />
<glyph unicode="&#xe2f;" horiz-adv-x="954" d="M85 786v94q0 119 73 185t188 66q74 0 150 -30v-89q-73 26 -150 26t-119 -37t-42 -126v-87q0 -85 55 -127.5t144 -42.5q81 0 173.5 33.5t168.5 89.5v375h100v-1116h-100v656q-76 -59 -173 -95.5t-193 -36.5q-45 0 -85 9.5t-75.5 30t-60.5 50.5t-39.5 74t-14.5 98z" />
<glyph unicode="&#xe30;" horiz-adv-x="577" d="M66 272v96h102v-93q0 -25 24 -25h315v-94h-322q-60 0 -89.5 28t-29.5 88zM66 893v96h102v-94q0 -13 5.5 -18.5t18.5 -5.5h315v-94h-322q-61 0 -90 28t-29 88z" />
<glyph unicode="&#xe31;" d="M-614 1425v126h101v-126q0 -25 24 -25h489v-94h-489q-39 0 -66.5 13t-43 40t-15.5 66z" />
<glyph unicode="&#xe32;" horiz-adv-x="698" d="M38 1003v88q102 40 199 40q154 0 243 -86t89 -246v-799h-100v795q0 124 -65.5 183.5t-175.5 59.5q-87 0 -190 -35z" />
<glyph unicode="&#xe33;" horiz-adv-x="698" d="M-409 1440q0 62 43.5 105.5t103.5 43.5q41 0 75.5 -20t55 -54t20.5 -75q0 -61 -44.5 -104t-106.5 -43q-60 0 -103.5 43t-43.5 104zM-328 1440q0 -27 19.5 -47t46.5 -20q29 0 48.5 20t19.5 47q0 19 -9 34t-24.5 23.5t-34.5 8.5q-13 0 -25 -5t-21 -13.5t-14.5 -21 t-5.5 -26.5zM38 1003v88q102 40 199 40q154 0 243 -86t89 -246v-799h-100v795q0 124 -65.5 183.5t-175.5 59.5q-87 0 -190 -35z" />
<glyph unicode="&#xe34;" d="M-848 1306l22 94h696v-94h-718z" />
<glyph unicode="&#xe35;" d="M-848 1306l22 94h596l11 174h89v-268h-718z" />
<glyph unicode="&#xe36;" d="M-848 1306l22 94h438q-10 22 -10 46q0 59 41.5 101t99.5 42q59 0 101.5 -42t42.5 -101q0 -57 -42.5 -98.5t-101.5 -41.5h-591zM-322 1446q0 -27 19 -45.5t46 -18.5q17 0 32.5 8.5t24 23.5t8.5 32q0 27 -19 46t-46 19q-18 0 -33 -8.5t-23.5 -23.5t-8.5 -33z" />
<glyph unicode="&#xe37;" d="M-848 1306l22 94h398l11 174h89v-174h98l11 174h89v-268h-718z" />
<glyph unicode="&#xe38;" d="M-402 -134h49q76 0 116.5 -40.5t40.5 -119.5v-202h-100v192q0 40 -16.5 58t-49.5 18h-40v94z" />
<glyph unicode="&#xe39;" d="M-571 -134h100v-194q0 -26 12.5 -43t31 -24t41.5 -7q51 0 90 27v241h100v-283q-31 -36 -82 -57.5t-108 -21.5q-36 0 -68 9t-59 28t-42.5 52t-15.5 77v196z" />
<glyph unicode="&#xe3a;" d="M-433 -257q0 50 36.5 86.5t86 36.5t86.5 -36.5t37 -86.5t-37 -86t-87 -36t-86 36t-36 86z" />
<glyph unicode="&#xe3f;" horiz-adv-x="1131" d="M143 29v1396h349v211h100v-211q94 -3 171 -33.5t127.5 -80.5t77.5 -114.5t27 -135.5q0 -66 -24 -131.5t-74 -122.5t-118 -83q257 -113 257 -369q0 -70 -27 -133t-79 -115t-139 -85t-199 -37v-208h-100v210q-169 4 -349 42zM243 107q108 -20 249 -29v596h-249v-567z M243 768h249v563h-249v-563zM592 78q57 4 106.5 17t86.5 33.5t66 47t47.5 58t27.5 65.5t9 69q0 60 -23.5 114.5t-67 96.5t-109 67.5t-143.5 27.5v-596zM592 768q74 3 133.5 30t95.5 70t55 93t19 102q0 54 -19 101.5t-55.5 84t-95 58.5t-133.5 24v-563z" />
<glyph unicode="&#xe40;" horiz-adv-x="403" d="M130 164v952h100v-946q0 -27 7 -43.5t24.5 -24.5t46.5 -8h54v-94h-54q-89 0 -133.5 43.5t-44.5 120.5z" />
<glyph unicode="&#xe41;" horiz-adv-x="767" d="M130 164v952h100v-946q0 -27 7 -43.5t24.5 -24.5t46.5 -8h54v-94h-54q-89 0 -133.5 43.5t-44.5 120.5zM494 164v952h100v-946q0 -28 7 -44t24 -24t46 -8h55v-94h-55q-89 0 -133 43.5t-44 120.5z" />
<glyph unicode="&#xe42;" horiz-adv-x="492" d="M62 1536v64q0 79 24 137.5t69 93t102.5 51t130.5 16.5h237v-94h-237q-224 0 -224 -208v-60q0 -45 13.5 -96t33 -99.5t39 -99.5t33 -113t13.5 -123v-835q0 -27 7.5 -43.5t24.5 -24.5t47 -8h53v-94h-53q-90 0 -134.5 43.5t-44.5 120.5v841q0 56 -13.5 115.5t-33.5 110 t-39.5 100t-33.5 103t-14 102.5z" />
<glyph unicode="&#xe43;" horiz-adv-x="537" d="M-4 1553v59q0 70 25.5 126t68.5 90t96 52t110 18q59 0 112 -18t96 -52t68.5 -90.5t25.5 -127.5v-70q0 -53 -19 -107t-47.5 -97t-62 -93.5t-62 -95.5t-47.5 -103.5t-19 -117.5v-756q0 -27 7 -43.5t24.5 -24.5t47.5 -8h53v-94h-53q-90 0 -134.5 43.5t-44.5 120.5v773 q0 64 19 125.5t47.5 108t62 96.5t62 91.5t47.5 91.5t19 97v61q0 64 -30 109.5t-74.5 66t-97 20.5t-96.5 -20.5t-74 -66t-30 -109.5v-49q0 -76 45 -132l-83 -61q-62 76 -62 187z" />
<glyph unicode="&#xe44;" horiz-adv-x="515" d="M-49 1804v94h353q63 0 105.5 -21t64.5 -62t22 -100v-63q0 -53 -18 -109t-44 -106.5t-52 -103.5t-44.5 -120.5t-18.5 -138.5v-904q0 -41 17.5 -58.5t61.5 -17.5h53v-94h-53q-90 0 -134.5 43.5t-44.5 120.5v912q0 79 18 151.5t44 126t51.5 101.5t44 99t18.5 98v58 q0 50 -20.5 72t-70.5 22h-353z" />
<glyph unicode="&#xe45;" horiz-adv-x="698" d="M38 1003v88q102 40 199 40q154 0 243 -86t89 -246v-1246h-100v1242q0 124 -65.5 183.5t-175.5 59.5q-87 0 -190 -35z" />
<glyph unicode="&#xe46;" horiz-adv-x="1001" d="M92 701v130q0 135 80.5 217.5t202.5 82.5q101 0 168 -51l183 -138l47 174h100v-1563h-100v1275q-47 0 -102 41l-158 117q-67 52 -145 52q-75 0 -125.5 -50t-50.5 -144v-143q0 -101 51.5 -147.5t135.5 -46.5q69 0 154 36v-90q-76 -40 -158 -40q-81 0 -144.5 33.5t-101 100 t-37.5 154.5z" />
<glyph unicode="&#xe47;" d="M-724 1306v192q0 31 10.5 57.5t29.5 45.5t47 29t61 10h420v-93h-415q-51 0 -51 -52v-35q85 -74 175 -74q45 0 73 19.5t28 51.5v25h101v-33q0 -51 -25.5 -87t-65.5 -52.5t-88 -16.5q-107 0 -198 85l-17 -72h-85z" />
<glyph unicode="&#xe48;" d="M-221 1674l11 241h80v-241h-91z" />
<glyph unicode="&#xe49;" d="M-560 1846l15 85h87q94 0 94 -89v-57q0 -26 27 -26h310l-16 -85h-300q-58 0 -84 23.5t-26 83.5v65h-107z" />
<glyph unicode="&#xe4a;" d="M-656 1793v22q0 42 20.5 73.5t50.5 46t65 14.5q75 0 141 -83l15 72h76v-190h9q20 0 31.5 4.5t19.5 15.5t13 32l38 138h92l-38 -143q-18 -70 -56.5 -101t-99.5 -31q-34 0 -100 16v116q-66 69 -130 69q-56 0 -56 -54v-15q0 -47 52 -47q20 0 51 9v-74q-32 -20 -69 -20 q-19 0 -36 4.5t-33.5 14t-29 24t-19.5 37t-7 50.5z" />
<glyph unicode="&#xe4b;" d="M-296 1748v92h75v75h91v-75h74v-92h-74v-74h-91v74h-75z" />
<glyph unicode="&#xe4c;" d="M-513 1706q0 72 32.5 104t105.5 32h353l-16 -85h-330q-32 0 -44 -12.5t-12 -43.5v-101h-76q-13 61 -13 106z" />
<glyph unicode="&#xe4d;" d="M-409 1440q0 62 43.5 105.5t103.5 43.5q41 0 75.5 -20t55 -54t20.5 -75q0 -61 -44.5 -104t-106.5 -43q-60 0 -103.5 43t-43.5 104zM-328 1440q0 -27 19.5 -47t46.5 -20q29 0 48.5 20t19.5 47q0 19 -9 34t-24.5 23.5t-34.5 8.5q-13 0 -25 -5t-21 -13.5t-14.5 -21 t-5.5 -26.5z" />
<glyph unicode="&#xe4e;" horiz-adv-x="1169" d="M134 0v1156l38 184h864v-1340h-902zM245 100h679v1139h-679v-1139z" />
<glyph unicode="&#xe4f;" horiz-adv-x="1146" d="M64 505q0 102 40 195.5t107.5 161t161 107.5t196.5 40q69 0 134.5 -18t120.5 -50.5t101.5 -79t79 -102t51 -121t18.5 -133.5q0 -103 -40 -196.5t-107.5 -161t-161 -107.5t-196.5 -40q-82 0 -159 25.5t-139 72t-109 108.5t-72.5 139t-25.5 160zM179 504.5 q0 -105.5 52 -195.5t142 -143t196 -53t196 53t142.5 143t52.5 196q0 79 -31 151t-83.5 124.5t-125 83.5t-151.5 31q-106 0 -195.5 -52.5t-142 -142.5t-52.5 -195.5zM304 505q0 109 78 187.5t187 78.5t187.5 -79t78.5 -187.5t-78.5 -187t-187.5 -78.5t-187 78.5t-78 187.5z " />
<glyph unicode="&#xe50;" horiz-adv-x="1012" d="M105 330v147q0 72 23 133.5t62 104.5t91.5 73.5t110.5 45t119 14.5q76 0 146 -23.5t126 -68t89.5 -116.5t33.5 -160v-357q-105 -69 -199.5 -103.5t-195.5 -34.5q-61 0 -118 12t-110 38.5t-92 66t-62.5 98.5t-23.5 130zM205 335q0 -66 25.5 -116.5t69 -80.5t97 -45 t114.5 -15q152 0 295 90v312q0 67 -24.5 120.5t-66.5 86.5t-94 50t-110 17q-47 0 -90.5 -9t-83.5 -30t-69 -52t-46 -78t-17 -105v-145z" />
<glyph unicode="&#xe51;" horiz-adv-x="1012" d="M143 498v56q0 72 28.5 129t77 92.5t110 54t130.5 18.5q78 0 145 -21.5t121 -65t85 -116.5t31 -168v-117q0 -177 -101.5 -268.5t-283.5 -91.5h-260v94h260q148 0 216.5 62.5t68.5 207.5v113q0 72 -22.5 126t-62 86.5t-89 48.5t-108.5 16q-67 0 -121.5 -21.5t-89.5 -68.5 t-35 -112v-47q0 -82 51.5 -120.5t131.5 -38.5q78 0 150 31v-89q-65 -36 -150 -36q-59 0 -110 15.5t-90 45t-61 77.5t-22 108z" />
<glyph unicode="&#xe52;" horiz-adv-x="1012" d="M89 308v808h101v-799q0 -52 17.5 -93t47 -68t71.5 -45t88 -25.5t99 -7.5q85 0 170 18t148 49v438q-39 0 -59.5 7t-49.5 30l-139 108q-37 26 -70 26q-44 0 -68.5 -37t-24.5 -99v-66q0 -132 147 -132q63 0 114 17v-89q-57 -20 -114 -20q-107 0 -177.5 59t-70.5 162v73 q0 71 26 123t67.5 77.5t92.5 25.5q78 0 136 -47l132 -102l58 134h100v-748q-73 -44 -188 -72t-230 -28q-68 0 -128 10t-115 34.5t-94.5 61t-63 92t-23.5 125.5z" />
<glyph unicode="&#xe53;" horiz-adv-x="1012" d="M116 279v297q0 127 67.5 199.5t191.5 72.5q104 0 187 -69l177 -140l49 194h103v-833h-101v520q-33 0 -51.5 7.5t-50.5 32.5l-177 141q-66 53 -136 53q-77 0 -117.5 -45t-40.5 -136v-292q0 -53 17 -93t46.5 -63.5t66 -35t79.5 -11.5q106 0 201 54v-94q-93 -53 -201 -53 q-66 0 -121.5 18t-98 53.5t-66.5 92.5t-24 130z" />
<glyph unicode="&#xe54;" horiz-adv-x="1012" d="M113 281v239q0 159 81 236t241 77h174q49 0 82 8.5t53.5 28t32 44.5t20.5 66l29 136h100l-29 -136q-15 -70 -39.5 -117.5t-61.5 -74.5t-81.5 -38t-105.5 -11h-174q-220 0 -220 -228v-230q0 -98 51.5 -150.5t131.5 -52.5q93 0 182 67q-13 41 -13 87v40q0 103 63.5 169 t170.5 66h66v-94h-66q-63 0 -99.5 -40t-36.5 -105v-31q0 -76 38 -109.5t121 -33.5h53v-94h-57q-133 0 -200 74q-45 -44 -103.5 -66.5t-118.5 -22.5q-123 0 -204 78.5t-81 217.5z" />
<glyph unicode="&#xe55;" horiz-adv-x="1012" d="M113 281v239q0 278 253 308q-11 29 -11 58q0 62 43.5 106t103.5 44q63 0 106.5 -44t43.5 -106q0 -24 -11 -53q39 3 65.5 13t44 29.5t28 43.5t18.5 61l29 136h100l-29 -136q-15 -70 -39.5 -117.5t-61.5 -74.5t-81.5 -38t-105.5 -11h-174q-220 0 -220 -228v-230 q0 -98 51.5 -150.5t131.5 -52.5q93 0 182 67q-13 41 -13 87v40q0 103 63.5 169t170.5 66h66v-94h-66q-63 0 -99.5 -40t-36.5 -105v-31q0 -76 38 -109.5t121 -33.5h53v-94h-57q-133 0 -200 74q-45 -44 -103.5 -66.5t-118.5 -22.5q-123 0 -204 78.5t-81 217.5zM435 886 q0 -27 20 -46.5t47 -19.5q29 0 48 19.5t19 46.5q0 29 -19 48t-48 19q-27 0 -47 -19.5t-20 -47.5z" />
<glyph unicode="&#xe56;" horiz-adv-x="1012" d="M154 1116h100l61 -181q11 -35 29 -57t47.5 -33.5t72.5 -11.5h83q156 0 239 -84.5t83 -243.5v-418q-70 -47 -161.5 -74.5t-183.5 -27.5q-71 0 -135 17t-114 50t-79.5 86.5t-29.5 120.5v33q0 44 8.5 80.5t24.5 63t38 46t50.5 31.5t59.5 17.5t66 5.5q59 0 139 -18v-90 q-88 15 -128 15q-34 0 -61 -7t-49.5 -23t-35 -46.5t-12.5 -74.5v-28q0 -48 21.5 -84.5t58.5 -58t82 -32.5t96 -11q69 0 136 17t108 43v367q0 234 -221 234h-83q-57 0 -97.5 12t-69 38t-47 60t-35.5 86z" />
<glyph unicode="&#xe57;" horiz-adv-x="1135" d="M64 279v297q0 84 26.5 144.5t79.5 94t129 33.5q51 0 92 -16t86 -53l108 -87l49 141h101v-739h15q45 0 76.5 11t52 36.5t32.5 61t20 89.5l113 824h102l-117 -837q-10 -69 -28.5 -118.5t-52.5 -87t-86.5 -55.5t-126.5 -18h-101v576q-28 0 -48.5 6.5t-49.5 28.5l-110 90 q-66 53 -127 53q-133 0 -133 -181v-292q0 -97 57 -150t143 -53q69 0 130 29v-92q-66 -30 -130 -30q-57 0 -110 18.5t-96.5 54t-69.5 93t-26 128.5z" />
<glyph unicode="&#xe58;" horiz-adv-x="1012" d="M128 0v522q0 148 73.5 229.5t229.5 81.5h170q49 0 81.5 8.5t53.5 28t32 44.5t20 66l30 136h100l-30 -136q-15 -70 -39.5 -117.5t-61 -74.5t-81 -38t-105.5 -11h-164q-77 0 -123 -23.5t-66 -71t-20 -124.5v-250q196 -192 386 -192q74 0 115.5 40t41.5 108v38q0 72 -33 105 t-104 33h-56v94h56q58 0 103 -16.5t74 -47t44.5 -72t15.5 -92.5v-42q0 -113 -69 -177t-188 -64q-104 0 -204 50t-182 131l-11 -166h-89z" />
<glyph unicode="&#xe59;" horiz-adv-x="1012" d="M83 296v240q0 154 73 233t192 79q110 0 176 -66q30 25 62 38t79 13h53q45 0 67 17t30 59l44 207h101l-44 -207q-19 -90 -64.5 -130t-133.5 -40h-53q-55 0 -89 -23q28 -53 49 -122l178 -594h-102l-170 562q-31 103 -75.5 147.5t-104.5 44.5q-168 0 -168 -223v-232 q0 -116 37.5 -168.5t127.5 -52.5q53 0 114 22v-89q-60 -26 -114 -26q-70 0 -122 24t-83 67.5t-45.5 98.5t-14.5 121z" />
<glyph unicode="&#xe5a;" horiz-adv-x="1212" d="M85 786v94q0 119 73 185t188 66q74 0 150 -30v-89q-73 26 -150 26t-119 -37t-42 -126v-87q0 -85 55 -127.5t144 -42.5q81 0 173.5 33.5t168.5 89.5v375h100v-1116h-100v656q-76 -59 -173 -95.5t-193 -36.5q-45 0 -85 9.5t-75.5 30t-60.5 50.5t-39.5 74t-14.5 98zM982 0 v1116h100v-1116h-100z" />
<glyph unicode="&#xe5b;" horiz-adv-x="1169" d="M134 0v1156l38 184h864v-1340h-902zM245 100h679v1139h-679v-1139z" />
<glyph unicode="&#x2000;" horiz-adv-x="1034" />
<glyph unicode="&#x2001;" horiz-adv-x="2069" />
<glyph unicode="&#x2002;" horiz-adv-x="1034" />
<glyph unicode="&#x2003;" horiz-adv-x="2069" />
<glyph unicode="&#x2004;" horiz-adv-x="689" />
<glyph unicode="&#x2005;" horiz-adv-x="517" />
<glyph unicode="&#x2006;" horiz-adv-x="344" />
<glyph unicode="&#x2007;" horiz-adv-x="344" />
<glyph unicode="&#x2008;" horiz-adv-x="258" />
<glyph unicode="&#x2009;" horiz-adv-x="413" />
<glyph unicode="&#x200a;" horiz-adv-x="114" />
<glyph unicode="&#x2010;" horiz-adv-x="546" d="M56 509v94h436v-94h-436z" />
<glyph unicode="&#x2011;" horiz-adv-x="546" d="M56 509v94h436v-94h-436z" />
<glyph unicode="&#x2012;" horiz-adv-x="546" d="M56 509v94h436v-94h-436z" />
<glyph unicode="&#x2013;" horiz-adv-x="711" d="M56 509v94h600v-94h-600z" />
<glyph unicode="&#x2014;" horiz-adv-x="1024" d="M56 509v94h913v-94h-913z" />
<glyph unicode="&#x2018;" horiz-adv-x="352" d="M34 1071l192 514h100l-136 -514h-156z" />
<glyph unicode="&#x2019;" horiz-adv-x="352" d="M34 1071l136 514h156l-192 -514h-100z" />
<glyph unicode="&#x201a;" horiz-adv-x="352" d="M34 -290l136 513h156l-192 -513h-100z" />
<glyph unicode="&#x201e;" horiz-adv-x="644" d="M40 -290l137 513h155l-191 -513h-101zM311 -290l136 513h156l-192 -513h-100z" />
<glyph unicode="&#x2020;" horiz-adv-x="691" d="M47 1022v94h247v469h101v-469h248v-94h-248v-1245h-101v1245h-247z" />
<glyph unicode="&#x2021;" horiz-adv-x="691" d="M47 245v94h247v683h-247v94h247v469h101v-469h248v-94h-248v-683h248v-94h-248v-468h-101v468h-247z" />
<glyph unicode="&#x2022;" horiz-adv-x="437" d="M58 660.5q0 68.5 46 115t115 46.5t114.5 -46.5t45.5 -115t-45.5 -114.5t-114.5 -46t-115 46t-46 114.5z" />
<glyph unicode="&#x2026;" horiz-adv-x="1312" d="M121 83q0 40 29 69t69 29t69 -29t29 -69t-29 -69t-69 -29t-69 29t-29 69zM558 83q0 40 29 69t69 29t69 -29t29 -69q0 -26 -13 -49t-36 -36t-49 -13q-40 0 -69 29t-29 69zM995 83q0 19 8 37.5t21.5 31.5t32 21t37.5 8q40 0 69 -29t29 -69t-29 -69t-69 -29t-69.5 29 t-29.5 69z" />
<glyph unicode="&#x202f;" horiz-adv-x="413" />
<glyph unicode="&#x2030;" horiz-adv-x="2287" d="M116 0l1257 1585h118l-1257 -1585h-118zM134 1301q0 125 87 212t211.5 87t212 -87t87.5 -211.5t-87.5 -211.5t-211.5 -87q-61 0 -116.5 23.5t-95.5 63.5t-63.5 95t-23.5 116zM237 1301.5q0 -81.5 57 -139t139 -57.5t139.5 57.5t57.5 139t-57.5 139t-139.5 57.5 t-139 -57.5t-57 -139zM880 283.5q0 124.5 87 212t211.5 87.5t212 -87.5t87.5 -212t-87.5 -211.5t-212 -87t-211.5 87t-87 211.5zM982 283.5q0 -81.5 57.5 -139t139 -57.5t139.5 57.5t58 139t-58 139t-139.5 57.5t-139 -57.5t-57.5 -139zM1598 283q0 82 40 151t109 109 t150.5 40t150.5 -40t108.5 -109t39.5 -151q0 -124 -87 -211t-211.5 -87t-212 87t-87.5 211zM1701 283.5q0 -81.5 57.5 -139t139 -57.5t139 57.5t57.5 139t-57.5 139t-139 57.5t-139 -57.5t-57.5 -139z" />
<glyph unicode="&#x2039;" horiz-adv-x="749" d="M69 511v94l596 462v-121l-495 -388l495 -388v-121z" />
<glyph unicode="&#x203a;" horiz-adv-x="749" d="M69 49v121l496 388l-496 388v121l596 -462v-94z" />
<glyph unicode="&#x205f;" horiz-adv-x="517" />
<glyph unicode="&#x20ac;" horiz-adv-x="1182" d="M34 583v94h145v164h-145v94h145q11 328 153 496.5t400 168.5q194 0 371 -94l-21 -86q-180 86 -352 86q-67 0 -125 -14.5t-107.5 -44t-88.5 -76t-67 -109.5t-44 -145t-19 -182h489v-94h-489v-164h489v-94h-489q21 -505 451 -505q97 0 197.5 31.5t186.5 93.5l22 -90 q-189 -128 -406 -128q-98 0 -178.5 19.5t-148.5 63.5t-115 113t-75.5 170.5t-33.5 231.5h-145z" />
<glyph unicode="&#x2126;" horiz-adv-x="1342" d="M85 960q0 310 152.5 475t433.5 165q187 0 318.5 -73t200.5 -217t69 -350q0 -238 -90.5 -391.5t-262.5 -213.5v-259h261v-96h-361v428q74 15 137 55t111.5 104.5t76.5 160t28 212.5q0 122 -31 221.5t-90.5 172.5t-153 112.5t-213.5 39.5q-96 0 -175 -25.5t-136.5 -73.5 t-97 -115.5t-58.5 -151t-19 -180.5q0 -117 28 -212.5t76.5 -160t111.5 -104.5t137 -55v-428h-361v96h260v259q-114 40 -192.5 121t-119 203t-40.5 281z" />
<glyph unicode="&#x2206;" horiz-adv-x="1338" d="M43 0l626 1723l628 -1723h-1254zM170 94h997l-498 1375z" />
<glyph unicode="&#x220f;" horiz-adv-x="1216" d="M64 1491v94h1088v-94h-174v-1491h-101v1491h-538v-1491h-100v1491h-175z" />
<glyph unicode="&#x2211;" horiz-adv-x="1039" d="M78 0v94l591 698l-591 699v94h872v-94h-733l554 -652v-93l-554 -652h733v-94h-872z" />
<glyph unicode="&#x2212;" horiz-adv-x="935" d="M83 509v94h769v-94h-769z" />
<glyph unicode="&#x2215;" horiz-adv-x="1568" d="M98 0l1275 1585h105l-1275 -1585h-105z" />
<glyph unicode="&#x221a;" horiz-adv-x="1075" d="M47 573v96h234l215 -509l439 1476h109l-488 -1636h-103l-240 573h-166z" />
<glyph unicode="&#x221e;" horiz-adv-x="1354" d="M69 906q0 51 15 97t45.5 84.5t82 61.5t118.5 23q95 0 189.5 -38t174.5 -127q77 78 154.5 121.5t178.5 43.5q67 0 118.5 -22.5t82 -60.5t45.5 -84.5t15 -98.5t-15 -98t-45.5 -84t-82 -60.5t-118.5 -22.5q-220 0 -375 174q-37 -39 -69 -67t-72 -54t-85.5 -39.5t-95.5 -13.5 q-67 0 -118.5 22t-82 60t-45.5 84.5t-15 98.5zM170 906q0 -73 39.5 -122t122.5 -49q26 0 51 6.5t44.5 14.5t44.5 26.5t39.5 30t41 39t37.5 39.5t40 44q-75 85 -145 114t-153 29q-42 0 -74.5 -14.5t-51 -40t-27.5 -55t-9 -62.5zM718 886q40 -47 80.5 -78.5t80 -46.5 t72.5 -20.5t74 -5.5q34 0 62 9.5t46.5 26t31 38.5t18 46t5.5 51q0 73 -40 122.5t-123 49.5q-46 0 -88 -14.5t-81.5 -45t-68 -58.5t-69.5 -74z" />
<glyph unicode="&#x222b;" horiz-adv-x="814" d="M-87 -428l13 96q77 -36 130 -36q65 0 101.5 43.5t47.5 139.5l187 1574q14 117 80.5 190t183.5 73q66 0 136 -25l-13 -91q-67 23 -121 23q-77 0 -116.5 -47t-52.5 -159l-183 -1549q-6 -59 -25 -107t-49 -84t-73.5 -55.5t-96.5 -19.5q-70 0 -149 34z" />
<glyph unicode="&#x2248;" horiz-adv-x="935" d="M87 301v16q0 203 181 203q53 0 112.5 -21t103 -46t94 -46t87.5 -21q40 0 61.5 28.5t21.5 83.5v13h98v-15q0 -98 -44.5 -151t-136.5 -53q-52 0 -111 21t-103 46t-94.5 46t-88.5 21q-83 0 -83 -111v-14h-98zM87 601v15q0 98 44.5 151t136.5 53q53 0 112.5 -21t103 -46 t94 -46t87.5 -21q83 0 83 111v13h98v-15q0 -203 -181 -203q-52 0 -111 21t-103 46t-94.5 46t-88.5 21q-40 0 -61.5 -28.5t-21.5 -83.5v-13h-98z" />
<glyph unicode="&#x2260;" horiz-adv-x="935" d="M83 379v94h299l71 166h-370v93h409l106 250h99l-107 -250h262v-93h-300l-72 -166h372v-94h-413l-102 -245h-98l102 245h-258z" />
<glyph unicode="&#x2264;" horiz-adv-x="935" d="M83 0v94h769v-94h-769zM83 520v89l769 373v-102l-651 -315l651 -315v-103z" />
<glyph unicode="&#x2265;" horiz-adv-x="935" d="M83 0v94h769v-94h-769zM83 147v103l652 315l-652 315v102l769 -373v-89z" />
<glyph unicode="&#x25ca;" horiz-adv-x="807" d="M22 826l382 897l382 -897l-382 -898zM113 826l291 -681l288 681l-288 683z" />
<glyph unicode="&#x25fc;" horiz-adv-x="1116" d="M0 0v1116h1116v-1116h-1116z" />
<glyph unicode="&#xf700;" horiz-adv-x="910" d="M81 810q0 71 22 126.5t59 91.5t88.5 60t107.5 33.5t119 9.5q157 0 313 -57l-17 -85q-141 49 -296 49q-41 0 -77 -5t-71 -15.5t-62.5 -29t-48.5 -44t-32.5 -61.5t-11.5 -80v-42q66 0 124.5 -4.5t121 -16t114 -29.5t98.5 -48t79.5 -68.5t51.5 -93t19 -119.5v-322 q-36 -23 -79.5 -40t-91 -26t-93.5 -9q-75 0 -136.5 21.5t-107.5 73t-59 127.5l-28 159q-4 32 -18.5 43t-45.5 11h-40v91h40q72 0 110.5 -28.5t49.5 -94.5l25 -147q14 -85 71.5 -124t138.5 -39q88 0 163 35v260q0 56 -18 100.5t-48 75t-76.5 53t-94 35.5t-109.5 20.5 t-115 9.5t-120 2q-19 80 -19 141z" />
<glyph unicode="&#xf701;" d="M-986 1306l21 94h637v-94h-658z" />
<glyph unicode="&#xf702;" d="M-986 1306l21 94h537l11 174h89v-268h-658z" />
<glyph unicode="&#xf703;" d="M-986 1306l21 94h373q-9 20 -9 46q0 59 42 101t99 42q59 0 101 -42t42 -101q0 -57 -42 -98.5t-101 -41.5h-526zM-524 1446q0 -27 18.5 -45.5t45.5 -18.5t46 19t19 45q0 18 -8.5 33t-23.5 23.5t-33 8.5t-32.5 -8.5t-23 -23.5t-8.5 -33z" />
<glyph unicode="&#xf704;" d="M-986 1306l21 94h338l11 174h90v-174h98l11 174h89v-268h-658z" />
<glyph unicode="&#xf705;" d="M-451 1306l12 268h88v-268h-100z" />
<glyph unicode="&#xf706;" d="M-688 1495l17 94h98q54 0 79 -24.5t25 -73.5v-62q0 -29 30 -29h417l-16 -94h-409q-64 0 -93 26t-29 93v70h-119z" />
<glyph unicode="&#xf707;" d="M-929 1436v24q0 71 45 110.5t107 39.5q86 0 157 -92l15 80h85v-212h9q32 0 49 12.5t25 45.5l42 154h101l-43 -158q-21 -78 -63 -112.5t-109 -34.5q-47 0 -111 17v128q-75 78 -145 78q-63 0 -63 -61v-15q0 -54 57 -54q30 0 59 11v-82q-32 -22 -78 -22q-57 0 -98 35 t-41 108z" />
<glyph unicode="&#xf708;" d="M-596 1389v100h85v85h100v-85h83v-100h-83v-83h-100v83h-85z" />
<glyph unicode="&#xf709;" d="M-590 1422q0 81 36.5 116.5t118.5 35.5h435l-15 -94h-413q-35 0 -49.5 -14.5t-14.5 -48.5v-111h-81q-17 67 -17 116z" />
<glyph unicode="&#xf70a;" d="M-230 1306l11 268h89v-268h-100z" />
<glyph unicode="&#xf70b;" d="M-614 1495l16 94h98q54 0 79.5 -24.5t25.5 -73.5v-62q0 -29 29 -29h344l-16 -94h-335q-64 0 -93.5 26t-29.5 93v70h-118z" />
<glyph unicode="&#xf70c;" d="M-786 1436v24q0 71 45 110.5t107 39.5q86 0 157 -92l15 80h85v-212h9q32 0 49 12.5t25 45.5l42 154h100l-42 -158q-22 -78 -63.5 -112.5t-108.5 -34.5q-47 0 -111 17v128q-76 78 -145 78q-64 0 -64 -61v-15q0 -54 59 -54q29 0 58 11v-82q-33 -22 -78 -22q-57 0 -98 35 t-41 108z" />
<glyph unicode="&#xf70d;" d="M-358 1389v100h86v85h100v-85h83v-100h-83v-83h-100v83h-86z" />
<glyph unicode="&#xf70e;" d="M-545 1422q0 81 36.5 116.5t118.5 35.5h390l-15 -94h-369q-23 0 -37 -6.5t-20 -20t-6 -36.5v-111h-82q-16 67 -16 116z" />
<glyph unicode="&#xf70f;" horiz-adv-x="1604" d="M85 1014q132 58 227 87.5t190 29.5q59 0 109.5 -11t95.5 -37.5t77 -66.5t50 -101t18 -138v-478q0 -60 20 -104t55.5 -69t78 -36.5t93.5 -11.5q71 0 145 22t132 56v960h100v-1014q-189 -117 -377 -117q-56 0 -106 10t-94.5 34t-76.5 59t-51 88.5t-19 119.5v481 q0 71 -20 123t-55.5 81.5t-79.5 43t-99 13.5q-129 0 -304 -73l36 -209v-522q0 -75 30 -107.5t100 -32.5h120v-94h-122q-77 0 -129 29.5t-75.5 79.5t-23.5 119v528z" />
<glyph unicode="&#xf710;" d="M-614 1425v126h101v-126q0 -25 24 -25h489v-94h-489q-39 0 -66.5 13t-43 40t-15.5 66z" />
<glyph unicode="&#xf711;" d="M-609 1440q0 62 43 105.5t104 43.5q62 0 105.5 -43.5t43.5 -105.5q0 -40 -20 -74t-54 -53.5t-75 -19.5q-20 0 -39 5t-35 14.5t-30 23.5t-23.5 30t-14.5 35t-5 39zM-529 1440q0 -27 20 -47t47 -20q28 0 47.5 20t19.5 47q0 28 -19 47t-48 19q-28 0 -47.5 -19t-19.5 -47z " />
<glyph unicode="&#xf712;" d="M-790 1306v192q0 64 39.5 103t107.5 39h587v-93h-583q-51 0 -51 -52v-35q85 -74 177 -74q44 0 72 19t28 52v25h100v-33q0 -51 -25.5 -87t-65 -52.5t-88.5 -16.5q-107 0 -198 85l-15 -72h-85z" />
<glyph unicode="&#xf713;" d="M-420 1674l11 241h81v-241h-92z" />
<glyph unicode="&#xf714;" d="M-732 1846l16 85h86q94 0 94 -89v-57q0 -26 27 -26h311l-17 -85h-301q-57 0 -83 23.5t-26 83.5v65h-107z" />
<glyph unicode="&#xf715;" d="M-818 1793v22q0 42 21 73.5t51 46t65 14.5q75 0 140 -83l17 72h75v-190h10q29 0 42.5 11t21.5 41l38 138h92l-38 -143q-10 -35 -24.5 -60.5t-34 -41t-43.5 -23t-54 -7.5q-35 0 -102 16v116q-65 69 -128 69q-57 0 -57 -54v-15q0 -47 52 -47q21 0 52 9v-74q-32 -20 -70 -20 q-52 0 -89 32t-37 98z" />
<glyph unicode="&#xf716;" d="M-496 1748v92h76v75h92v-75h74v-92h-74v-74h-92v74h-76z" />
<glyph unicode="&#xf717;" d="M-665 1706q0 72 32.5 104t106.5 32h352l-16 -85h-330q-21 0 -33 -5.5t-17.5 -17.5t-5.5 -33v-101h-76q-13 61 -13 106z" />
<glyph unicode="&#xf718;" d="M-402 -513h49q76 0 116.5 -40.5t40.5 -120.5v-201h-100v192q0 40 -16.5 58t-49.5 18h-40v94z" />
<glyph unicode="&#xf719;" d="M-571 -513h100v-194q0 -26 12.5 -43t31 -24.5t41.5 -7.5q51 0 90 28v241h100v-284q-15 -17 -36 -31.5t-45.5 -25t-52.5 -16t-56 -5.5q-36 0 -68 9t-59 28t-42.5 52t-15.5 76v197z" />
<glyph unicode="&#xf71a;" d="M-433 -636.5q0 49.5 36.5 86.5t85.5 37q33 0 61.5 -17t45.5 -45.5t17 -61.5q0 -49 -37 -85.5t-87 -36.5t-86 36.5t-36 86z" />
<glyph unicode="&#xf71d;" horiz-adv-x="1178" d="M105 1116h100l52 -975l284 716h98l283 -716l28 564q4 81 -32 132t-115 51h-38v94h43q76 0 114 33t49 106l9 62h100l-11 -73q-11 -76 -47.5 -116.5t-99.5 -53.5q70 -16 102.5 -78t27.5 -159l-36 -703h-47q-57 0 -80 14.5t-43 63.5l-256 661l-258 -661q-20 -49 -42 -63.5 t-80 -14.5h-46z" />
<glyph horiz-adv-x="698" d="M-609 1451q0 62 43 105.5t104 43.5q62 0 105.5 -43.5t43.5 -105.5q0 -40 -20 -74t-54 -53.5t-75 -19.5q-61 0 -104 43t-43 104zM-529 1451q0 -27 20 -47t47 -20q28 0 47.5 20t19.5 47q0 28 -19.5 47.5t-47.5 19.5q-27 0 -47 -19.5t-20 -47.5zM38 1003v88q102 40 199 40 q154 0 243 -86t89 -246v-799h-100v795q0 124 -65.5 183.5t-175.5 59.5q-87 0 -190 -35z" />
<glyph horiz-adv-x="1169" d="M134 0v1156l38 184h864v-1340h-902zM245 100h679v1139h-679v-1139z" />
<glyph horiz-adv-x="1354" d="M83 991l179 123q36 27 111 20l156 -13v67q0 93 85 131l201 89v-38l-110 -51v-173l-87 -36l159 -16v174l38 18v-197l480 -49v-13l-201 -90q-73 -32 -127 -38t-126 12l-26 7v-188l-38 -33v227l-72 16v-585q0 -85 -87 -127l-214 -96q132 -85 284 -85q30 0 89 9v457l38 34 q0 -56 39 -95t94.5 -39t94.5 39.5t39 94.5q0 38 -18 68.5t-48.5 48t-67.5 17.5v37l249 106q30 -45 45 -114t15 -134q0 -100 -34 -193t-92.5 -165t-140 -124t-175.5 -72v-109l-36 -38l-2 2v136q-44 -6 -89 -6q-116 0 -221.5 45t-181.5 121.5t-121 181.5t-45 221q0 144 68 257 zM128 984l93 -136l424 105l-330 69q-44 12 -83 9.5t-76 -26.5zM160 576q0 -126 55.5 -236.5t152.5 -183.5l163 74v663l-316 -81q-55 -109 -55 -236zM232 576q0 117 54 219l65 23q-76 -107 -76 -242q0 -212 176 -339l-40 -20q-83 63 -131 157t-48 202zM234 1058q35 6 96 -6 l518 -104q52 -14 107.5 -10t122.5 33l110 49l-822 85q-45 6 -87 -16zM565 243l46 23q58 22 58 89v574l-104 -28v-658zM565 1127l104 40v134l-47 -19q-57 -26 -57 -90v-65zM815 62q174 44 287.5 187.5t113.5 326.5q0 112 -40 201l-169 -67q51 -21 82.5 -64.5t31.5 -98.5 q0 -70 -51 -121t-122 -51q-44 0 -81.5 20.5t-51.5 47.5v-381zM875 547q0 12 3.5 23t10 20t15.5 16t20.5 10.5t23.5 3.5q20 0 36.5 -9.5t26 -26.5t9.5 -37q0 -30 -21 -52t-51 -22q-31 0 -52 21.5t-21 52.5z" />
<glyph horiz-adv-x="1293" d="M100 716v153q0 166 33.5 299t99.5 230t171 149.5t243 52.5t243.5 -52.5t171.5 -149.5t99.5 -230t33.5 -299v-153q0 -166 -33.5 -299t-99.5 -230t-171.5 -149.5t-243.5 -52.5t-243 52.5t-171 149.5t-99.5 230t-33.5 299zM201 705q0 -191 50.5 -331.5t152 -218t244 -77.5 t244 77.5t152 218t50.5 331.5v175q0 191 -50.5 331.5t-152 217.5t-244 77t-244 -77t-152 -217.5t-50.5 -331.5v-175z" />
<glyph horiz-adv-x="937" d="M62 1216l415 369h101v-1491h291v-94h-682v94h290v1366l-356 -322z" />
<glyph horiz-adv-x="1142" d="M74 0v130q118 95 218.5 185.5t191.5 184t160.5 183t121 177.5t78.5 174t27 165q0 80 -28 141t-77.5 96.5t-111 52.5t-134.5 17q-188 0 -409 -89l-13 92q88 40 200.5 65.5t221.5 25.5q73 0 137.5 -13.5t122.5 -44t100 -76.5t66.5 -115.5t24.5 -155.5q0 -449 -788 -1101 h871v-94h-980z" />
<glyph horiz-adv-x="1108" d="M78 81l20 104q93 -45 211.5 -76t226.5 -31q64 0 118 11t103.5 37.5t84.5 66.5t55.5 102.5t20.5 141.5q0 64 -21.5 123t-62 105.5t-105 74.5t-144.5 28h-281v94h279q74 0 133 28t94 74t53.5 101t18.5 113q0 74 -20 131.5t-53.5 94t-82 60t-101.5 33t-116 9.5 q-154 0 -360 -55l-15 91q195 58 375 58q77 0 143.5 -12t128.5 -42t105.5 -76t69.5 -119t26 -166q0 -75 -29 -149.5t-82.5 -133t-118.5 -82.5q88 -38 149 -99.5t89 -136t28 -160.5q0 -96 -25.5 -172t-69.5 -125.5t-106.5 -82t-131.5 -46t-149 -13.5q-219 0 -458 96z" />
<glyph horiz-adv-x="1191" d="M72 268v94l705 1223h111v-1223h237v-94h-237v-268h-100v268h-716zM181 362h607v1053z" />
<glyph horiz-adv-x="1135" d="M74 81l24 93q101 -46 215.5 -71t208.5 -25q101 0 181.5 31t130 82.5t75.5 115.5t26 136q0 109 -43 193t-132 136.5t-215 62.5l-407 32v718h829v-94h-728v-538l306 -22q120 -9 214.5 -52t154 -109t91 -149t31.5 -176q0 -71 -20 -137.5t-62 -125t-101 -102.5t-144 -69.5 t-185 -25.5q-105 0 -227 25.5t-223 70.5z" />
<glyph horiz-adv-x="1129" d="M89 543v397q0 168 38 295.5t108 206.5t165 118.5t214 39.5q156 0 348 -69l-22 -93q-178 68 -326 68q-96 0 -172 -31.5t-133.5 -97.5t-88 -174.5t-30.5 -254.5v-115q95 48 198 74t197 26q90 0 165 -25.5t128 -69t90 -102t54.5 -124.5t17.5 -137q0 -74 -19.5 -144.5 t-60 -133t-97 -110t-137 -75t-174.5 -27.5q-72 0 -138 20t-125.5 64t-103.5 107.5t-70 158t-26 208.5zM190 543q0 -96 20 -174.5t54 -131.5t80.5 -89.5t98.5 -53t109 -16.5q75 0 139 22.5t109.5 61t77 89.5t47 108t15.5 116q0 71 -22.5 135.5t-65 116t-112.5 82t-157 30.5 q-93 0 -196.5 -27.5t-196.5 -76.5v-192z" />
<glyph horiz-adv-x="1127" d="M66 1491v94h981v-94l-689 -1491h-108l690 1491h-874z" />
<glyph horiz-adv-x="1133" d="M87 390q0 130 75 257.5t226 223.5q-60 30 -103 60t-81 70t-57 90t-19 110q0 80 25 147t68 113t100.5 77.5t121.5 46.5t133 15q55 0 109 -11t103.5 -33t91.5 -56t72.5 -77t48 -100t17.5 -122q0 -116 -76.5 -226t-193.5 -169q67 -34 116.5 -69.5t93.5 -83.5t66.5 -110 t22.5 -136q0 -83 -27 -153.5t-73.5 -119t-109 -83t-132 -50.5t-143.5 -16q-111 0 -202 32.5t-150 88t-91 129t-32 155.5zM190 390q0 -64 23.5 -120t69 -99t117.5 -68t162 -25q58 0 113 12.5t104.5 38.5t86.5 63.5t58.5 92t21.5 119.5q0 35 -7.5 67t-19 58t-33 51.5t-40 44.5 t-50.5 40.5t-55 35.5t-62 33t-63 30t-67 30.5t-65 29.5q-95 -53 -162.5 -127t-99.5 -151.5t-32 -155.5zM228 1203q0 -27 6.5 -52t17 -46t29.5 -41.5t36.5 -36.5t46 -34t50.5 -30.5t57 -29t59 -27t63.5 -28t62.5 -28.5q119 54 190.5 149.5t71.5 203.5q0 73 -29 132t-78 95.5 t-109.5 56t-125.5 19.5q-54 0 -103.5 -11t-94.5 -35t-78 -59t-52.5 -85.5t-19.5 -112.5z" />
<glyph horiz-adv-x="1129" d="M89 1110q0 73 19.5 143.5t60 133.5t97 110.5t137.5 75t175 27.5q59 0 114.5 -14.5t108 -43t95.5 -74.5t75.5 -106.5t50.5 -142t18 -177.5v-397q0 -175 -37.5 -303t-108 -205.5t-166 -114.5t-219.5 -37q-132 0 -299 42l13 94q157 -43 286 -43q80 0 144.5 18.5t119 59.5 t90.5 105t56.5 159t20.5 217v102q-179 -117 -369 -117q-217 0 -349.5 132.5t-132.5 355.5zM190 1110q0 -95 29 -171t81 -124t121 -73.5t150 -25.5q189 0 369 121v205q0 96 -20 174t-54 131.5t-80.5 89.5t-98.5 52.5t-109 16.5q-76 0 -140 -22t-109 -60.5t-77 -89.5t-47 -108 t-15 -116z" />
</font>
</defs>
</svg>
