<?xml version="1.0" standalone="no"?>
<!DOCTYPE svg PUBLIC "-//W3C//DTD SVG 1.1//EN" "http://www.w3.org/Graphics/SVG/1.1/DTD/svg11.dtd" >
<svg xmlns="http://www.w3.org/2000/svg">
<metadata></metadata>
<defs>
<font id="thaisans_neueXBdIt" horiz-adv-x="0" >
<font-face units-per-em="2048" ascent="1561" descent="-487" />
<missing-glyph horiz-adv-x="869" />
<glyph unicode="&#x3b;&#x3b;arm&#x3b;&#x3b;" horiz-adv-x="2822" d="M100 1676v109h432v216q-62 0 -111.5 65t-49.5 150q0 92 65.5 154.5t149.5 62.5q103 0 160 -57t57 -160q0 -50 -18 -97t-56 -80.5t-89 -37.5v-216h433v-109h-433v-324l291 -650h-109l-236 541l-235 -541h-108l289 650v324h-432zM209 0q0 32 10.5 64t32.5 60.5t59.5 46.5 t85.5 18q81 0 135 -54t54 -135q0 -103 -73 -154l60 -276l149 298h54l148 -298l95 565h135l-43 -227l29 54l176 41q0 188 29.5 300.5t87.5 161t154 48.5q52 0 89.5 -24.5t55 -66.5t17.5 -97h-54q0 44 -21 76t-60 32q-101 0 -145.5 -98t-44.5 -305l198 48l24 -99l-222 -57 v-108q0 -79 -1 -139.5t-5 -127t-10.5 -115.5t-18 -100t-27 -86.5t-38 -68t-50.5 -52t-65 -30.5t-82 -11q-84 0 -136 42t-52 120h54q0 -38 32 -60t76 -22q39 0 70.5 11t53.5 39t38 54.5t26 80t15.5 92t8 113.5t3 122t0.5 138v80l-215 -54l-93 -485h-69l-191 405l-188 -405 h-70l-87 431l48 33q-2 -2 -15 -2q-8 -3 -39 -3q-21 0 -45 5.5t-50 19.5t-46.5 34.5t-33.5 53.5t-13 73zM317 0q0 -16 5 -29.5t14.5 -24.5t25.5 -17.5t35 -6.5q81 0 81 78q0 81 -81 81q-38 0 -59 -23t-21 -58zM478 2216q0 -46 25.5 -77t83 -31t82.5 31t25 77q0 40 -16 65 t-39 34.5t-53 9.5q-46 0 -77 -25.5t-31 -83.5zM1101 702l615 1677h466l540 -1677h-432l-165 515h-727l-190 -515h-107zM1452 1352h627l-294 918zM1800 54l55 271h80l-80 -271h-55zM1876 2298l35 -105l62 105h-97zM1930 2144l22 -76l140 230h-67zM1935 54l54 271h82l-82 -271 h-54zM1971 2017l30 -98l151 255l-29 91zM2028 1839l15 -54l152 250l-16 55zM2066 1720l16 -54l151 251l-17 54zM2100 -268q0 133 42 251t117 190.5t166 72.5q143 0 220 -98.5t77 -279.5q0 -259 -92 -386t-259 -127q-54 0 -101 21.5t-86 65t-61.5 118t-22.5 172.5zM2105 1595 l18 -55l150 250l-18 57zM2141 1486l19 -64l151 252l-18 64zM2179 1362l19 -54l149 252l-15 54zM2208 -214l379 163q-3 48 -21 92q-43 94 -141 94q-117 0 -178 -176q-26 -72 -39 -173zM2208 -348q0 -44 17 -86t55.5 -73.5t90.5 -31.5q39 0 70.5 14.5t53.5 41t37 55.5t27 66 q24 78 28 176zM2216 1241l17 -44l151 247l-13 52zM2252 1135l16 -43l152 249l-16 46zM2288 1027l15 -52l155 247l-17 57zM2322 919l20 -62l150 254l-18 60zM2358 810l7 -26h36l127 214l-19 65zM2443 784h54l66 111l-19 54zM2541 784h54l-18 59z" />
<glyph unicode=" "  horiz-adv-x="869" />
<glyph unicode="&#x09;" horiz-adv-x="869" />
<glyph unicode="&#xa0;" horiz-adv-x="869" />
<glyph unicode="!" horiz-adv-x="472" d="M100 0l57 271h273l-56 -271h-274zM183 400l233 1098h276l-235 -1098h-274z" />
<glyph unicode="&#x22;" horiz-adv-x="851" d="M305 973l111 523h262l-110 -523h-263zM694 973l109 523h265l-111 -523h-263z" />
<glyph unicode="#" horiz-adv-x="1620" d="M181 392l116 238h206l83 170h-205l111 240h210l182 374h274l-183 -374h263l181 374h273l-183 -374h232l-116 -240h-230l-84 -170h235l-122 -238h-229l-187 -392h-273l186 392h-258l-190 -392h-272l186 392h-206zM776 630h262l84 170h-263z" />
<glyph unicode="$" horiz-adv-x="1174" d="M119 106l51 227q66 -34 130 -60q152 -59 283 -59q72 0 129 17.5t93 47.5t57.5 65.5t29.5 76.5q11 48 -5.5 85.5t-52 61.5t-84 46t-103 39.5t-108 42t-99.5 53.5t-77.5 74.5t-42 104.5t6.5 143q32 138 154 235t290 126l45 209h268l-46 -206q110 -13 200 -57q42 -23 65 -40 l-46 -227q-41 20 -111 43q-159 46 -297 46q-43 0 -97.5 -16t-99.5 -46.5t-51 -64.5q-10 -41 13 -74t67.5 -54.5t102.5 -45.5t119.5 -47.5t117 -60.5t95 -84.5t54.5 -119.5t-4 -166q-14 -59 -36 -112t-58 -105.5t-83 -93t-113.5 -72t-145.5 -46.5l-46 -216h-266l44 203 q-134 0 -251 62q-48 25 -92 65z" />
<glyph unicode="%" horiz-adv-x="1659" d="M243 0l1336 1720h297l-1335 -1720h-298zM333 1005q-5 77 15 166q39 192 155.5 316.5t259.5 124.5q69 0 120 -31.5t78 -87t33.5 -132t-13.5 -166.5q-29 -127 -88.5 -226.5t-146 -158.5t-184.5 -59q-71 0 -122.5 32t-76.5 88.5t-30 133.5zM596 1034.5q1 -13.5 3 -21 t6.5 -11.5t8.5 -5.5t10 -1.5q12 0 21 6t20.5 23.5t23.5 56t25 98.5q7 33 11.5 59t6.5 45.5t2 34t-1.5 24t-5.5 15.5t-9 8.5t-12 2.5q-19 0 -32 -14.5t-27 -56.5t-31 -121q-8 -35 -12.5 -62.5t-6.5 -46.5t-1 -32.5zM997.5 207q-6.5 75 13.5 164q19 96 58 177.5t92 142 t122.5 95t146.5 34.5q91 0 149.5 -55t73.5 -149.5t-10 -220.5q-25 -121 -87.5 -220t-147 -155t-172.5 -56q-72 0 -124.5 30.5t-80 84t-34 128.5zM1279 381q-38 -178 8 -178q51 0 91 178q39 197 -10.5 197t-88.5 -197z" />
<glyph unicode="&#x26;" horiz-adv-x="1607" d="M180.5 201.5q-18.5 77.5 0.5 185.5q32 144 127.5 241.5t264.5 171.5q-62 46 -94.5 121t-11.5 171q33 147 172.5 248t317.5 101q84 0 153 -27t111.5 -71.5t60.5 -103t5 -120.5q-8 -35 -20.5 -66t-27 -55.5t-37.5 -49t-43 -42t-53.5 -40t-58 -37.5t-66.5 -40 q110 -99 141.5 -134t77.5 -114q87 118 131 209.5t72 201.5l24 88h276q-49 -173 -152.5 -369.5t-234.5 -340.5q31 -47 85.5 -67t156.5 -20l-49 -243q-94 0 -172.5 14t-139.5 45.5t-91 77.5q-83 -56 -164.5 -91t-169 -52.5t-186.5 -17.5q-108 0 -191 24t-139.5 74t-75 127.5z M448 335.5q-1 -22.5 7 -39.5t17.5 -29.5t26.5 -21.5t32.5 -14.5t35.5 -8.5t37 -4.5t36 -1.5q47 0 87 5.5t68.5 12.5t64.5 23.5t59 29.5t68 40q-8 16 -26.5 53.5t-26 51t-24 43t-27.5 43t-30.5 36.5t-38.5 37.5t-45.5 32t-57.5 33.5q-7 -3 -21 -10q-27 -13 -41.5 -20.5 t-40 -23t-40.5 -28t-36 -33t-34 -42t-25 -51t-19 -62.5q-5 -29 -6 -51.5zM741 1092q-13 -65 4.5 -104t54.5 -69q96 38 148 86.5t60 95.5q6 27 -7 48.5t-38 32t-57 10.5q-38 0 -69.5 -10t-50.5 -25.5t-30.5 -32t-14.5 -32.5z" />
<glyph unicode="'" horiz-adv-x="472" d="M305 973l111 523h273l-111 -523h-273z" />
<glyph unicode="(" horiz-adv-x="723" d="M144 290.5q4 122.5 32 258.5q60 279 203.5 521t350.5 436h292q-212 -205 -372 -458.5t-212 -495.5q-100 -481 186 -931h-291q-66 108 -108.5 213t-63.5 219.5t-17 237z" />
<glyph unicode=")" horiz-adv-x="723" d="M-57 -379q103 99 190 202t165.5 220t135 246.5t85.5 259.5q23 108 26 216.5t-10.5 205.5t-42.5 193t-67 179t-87 163h292q59 -96 99.5 -203t63 -226.5t20 -254t-31.5 -273.5q-59 -274 -203 -506.5t-351 -421.5h-284z" />
<glyph unicode="*" horiz-adv-x="780" d="M330 1084l243 113l-194 114l113 121l124 -145l16 214h152l-78 -217l189 148l65 -121l-246 -114l197 -113l-116 -122l-127 149l-13 -216h-152l75 214l-186 -147z" />
<glyph unicode="+" horiz-adv-x="1120" d="M201 478l50 241h338l74 352h248l-75 -352h337l-51 -241h-338l-67 -316h-247l69 316h-338z" />
<glyph unicode="," horiz-adv-x="475" d="M-201 -294q83 40 136 83q144 112 173 255l44 207h276l-44 -207q-39 -155 -170 -260q-63 -51 -131 -78h-284z" />
<glyph unicode="-" horiz-adv-x="836" d="M209 513l48 225h638l-49 -225h-637z" />
<glyph unicode="." horiz-adv-x="472" d="M100 0l52 251h276l-54 -251h-274z" />
<glyph unicode="/" horiz-adv-x="766" d="M18 0l828 1716h268l-830 -1716h-266z" />
<glyph unicode="0" horiz-adv-x="1228" d="M203 678q37 175 107.5 318t163.5 241.5t208 152.5t239 54q161 0 266.5 -87.5t141 -250.5t-9.5 -397q-37 -168 -110.5 -306t-170.5 -231.5t-214.5 -144.5t-242.5 -51q-244 0 -346 186.5t-32 515.5zM452.5 495.5q-2.5 -83.5 12 -135t43 -85t62.5 -46.5t75 -13q44 0 86.5 14 t89 48.5t86 87t75 137t58.5 191.5q23 111 24.5 198.5t-14.5 144t-46 93.5t-66.5 52t-80.5 15q-41 0 -82 -15t-85 -52.5t-82.5 -94.5t-73 -146.5t-56.5 -202.5q-23 -107 -25.5 -190.5z" />
<glyph unicode="1" horiz-adv-x="728" d="M260 944l52 240q132 46 261 137q82 61 116 93h242l-301 -1414h-274l222 1052q-49 -30 -138 -60t-180 -48z" />
<glyph unicode="2" horiz-adv-x="1026" d="M59 0l39 189q13 68 61 136.5t115 127t146 116.5t158 114t146 110.5t115 115t61 118.5q8 30 6.5 53.5t-7 41.5t-17.5 31t-26 21.5t-32 13.5t-35.5 7t-37.5 2q-90 0 -207.5 -37t-205.5 -97l49 232q78 64 188 106.5t230 42.5q137 0 231 -52.5t130 -143.5t10 -204 q-18 -87 -60.5 -163.5t-100 -134.5t-123.5 -110t-137 -99t-134 -91t-121 -96.5t-92 -106.5h649l-49 -243h-949z" />
<glyph unicode="3" horiz-adv-x="1053" d="M114 73l54 249q51 -52 140 -79t184 -27q32 0 66.5 4.5t76 16.5t75 31t60.5 51t35 73q6 40 3 71.5t-24 55t-54 40t-86 27t-121.5 15.5t-160.5 5l51 240q111 -4 219 13q225 36 255 176q8 31 5.5 54.5t-7.5 40.5t-18 29t-25.5 19.5t-30.5 11.5t-33 5.5t-32 1.5 q-213 0 -357 -91l47 232q38 22 80.5 40t90 33.5t97.5 24t96 8.5q61 0 121.5 -16t112 -46.5t87.5 -75t50.5 -101.5t-0.5 -127q-13 -62 -43 -114.5t-70.5 -90.5t-91 -66t-103 -44t-107.5 -22q55 -7 105 -22t96.5 -42t78 -63.5t45 -90.5t0.5 -118q-14 -61 -42.5 -116.5 t-70 -103.5t-96.5 -86.5t-120.5 -65.5t-144.5 -42t-166 -15q-88 0 -180.5 30t-146.5 67z" />
<glyph unicode="4" horiz-adv-x="1083" d="M83 317l44 207l825 890h248l-181 -852h165l-54 -245h-165l-67 -317h-271l65 317h-609zM473 562h270l85 387z" />
<glyph unicode="5" horiz-adv-x="999" d="M108 46l57 268q40 -31 81 -49q105 -49 184 -49q48 0 86.5 5t80 18.5t71.5 36.5t54 61.5t34 90.5q5 25 5.5 48.5t-3.5 47.5t-13.5 45t-26 38.5t-39 30.5t-54.5 20t-71 7q-77 0 -224 -25l-45 -9t-53 -12l168 795h748l-51 -243h-475l-60 -276h73q98 0 178.5 -27t140 -83 t80 -142t-1.5 -205q-21 -102 -73.5 -186t-134 -146t-196 -96t-252.5 -34q-149 0 -268 70z" />
<glyph unicode="6" horiz-adv-x="1094" d="M182 266q-36 142 7 348q34 166 92.5 303t133 233.5t164.5 163.5t186.5 98.5t199.5 31.5q31 0 71 -3t81 -8.5t77.5 -14.5t56.5 -20l-51 -247q-12 3 -42.5 12t-48.5 13q-123 24 -198 21q-138 -5 -234.5 -94t-147.5 -236q114 64 258 64q83 0 156.5 -36t122.5 -99t69 -149 t-2 -188q-32 -139 -120.5 -250t-212 -172t-259.5 -61t-229.5 74t-129.5 216zM434 387q0 -36 7 -61t19.5 -44.5t28 -31.5t34 -20t35.5 -11t35 -3q34 0 73.5 15.5t78.5 44t70.5 77t43.5 106.5q9 39 9.5 71.5t-6.5 56t-20.5 41.5t-30 29.5t-37.5 18.5t-41 10t-41 3 q-54 0 -99.5 -21t-74.5 -56t-47.5 -72t-26.5 -75q-10 -42 -10 -78z" />
<glyph unicode="7" horiz-adv-x="1016" d="M222 0l694 1171h-651l54 243l979 -3l-19 -80l-776 -1331h-281z" />
<glyph unicode="8" horiz-adv-x="1066" d="M134 257q-4 64 10 138q24 120 87 205t180 159q-109 114 -73 296q16 72 61 141.5t109.5 124.5t152 89t180.5 34q86 0 157.5 -35.5t114.5 -91.5t61 -125.5t5 -136.5q-22 -89 -68.5 -155.5t-129.5 -140.5q75 -58 104 -155t7 -209q-39 -187 -191.5 -303t-368.5 -116 q-94 0 -168 20t-121.5 57t-76 88.5t-32.5 115.5zM414.5 342q5.5 -36 19 -60t37.5 -38.5t49.5 -21t55.5 -6.5q24 0 48 4.5t49.5 13t48.5 24.5t43 38t35.5 54t24.5 71q15 67 -2.5 117t-58 75t-96.5 25q-27 0 -55 -6.5t-59 -22t-57 -38.5t-46.5 -60t-29.5 -83q-12 -50 -6.5 -86 zM606 1038q-17 -82 16.5 -119t96.5 -37q22 0 48.5 8.5t55 25.5t50.5 49t30 73q2 14 2 29.5t-3 34t-11 35t-20.5 30.5t-34 22t-49.5 8q-31 0 -57 -8.5t-44.5 -23t-33.5 -31.5t-24 -36t-14.5 -33.5t-7.5 -26.5z" />
<glyph unicode="9" horiz-adv-x="1091" d="M140 18l51 242q9 -3 72 -22q87 -22 178 -22q28 0 53 3t57.5 11.5t62 23t63 39.5t63.5 59t61 83.5t58 110.5q-107 -62 -258 -62q-69 0 -131 25.5t-106 70t-74.5 104t-36 129t9.5 144.5q16 73 48.5 139t77 119t99 96.5t114 72.5t123.5 44.5t126 15.5q89 0 159 -32t115 -91 t70.5 -141t24.5 -182t-23 -214q-82 -394 -291 -601t-514 -207q-63 0 -136.5 12.5t-115.5 29.5zM521.5 869q3.5 -42 19.5 -74t56 -51t100 -19q47 0 88.5 18t68.5 43.5t48.5 56.5t31.5 54.5t12 38.5q7 36 9 69t-4.5 69t-23 62.5t-49.5 43.5t-81 17q-41 0 -80.5 -15.5 t-69 -40.5t-54 -57t-40 -64.5t-21.5 -62.5q-14 -46 -10.5 -88z" />
<glyph unicode=":" horiz-adv-x="472" d="M100 0l54 268h274l-54 -268h-274zM260 768l59 270h274l-57 -270h-276z" />
<glyph unicode=";" horiz-adv-x="475" d="M-201 -294q87 54 139 96q144 123 170 242l46 219h276l-46 -219q-26 -124 -168 -245q-14 -12 -33 -26t-29.5 -21.5t-37.5 -24.5t-33 -21h-284zM263 766l56 269h276l-59 -269h-273z" />
<glyph unicode="&#x3c;" horiz-adv-x="1086" d="M149 421l27 136l1127 557l-57 -276l-692 -343l555 -297l-57 -265z" />
<glyph unicode="=" horiz-adv-x="1120" d="M160 284l49 235h924l-52 -235h-921zM235 649l51 238h926l-54 -238h-923z" />
<glyph unicode="&#x3e;" horiz-adv-x="1086" d="M3 -67l56 265l682 297l-543 343l57 276l888 -557l-26 -136z" />
<glyph unicode="?" horiz-adv-x="959" d="M263 0l56 271h274l-57 -271h-273zM325 1068l49 227q43 43 96 73q121 76 293 76q77 0 145 -26.5t114 -72t66 -111t4 -137.5q-11 -58 -39 -108t-64.5 -86t-78 -67.5t-82.5 -58t-75.5 -51.5t-59 -54.5t-30.5 -60.5l-44 -211h-273l49 227q10 49 43.5 94.5t76.5 78.5t93 69 t92.5 66t74.5 68.5t41 77.5q13 57 -23.5 85.5t-114.5 28.5q-121 0 -248 -65q-35 -17 -105 -62z" />
<glyph unicode="@" horiz-adv-x="1767" d="M216 549q26 125 93.5 242.5t164 211t212 164t246 108.5t257.5 38q155 0 283.5 -50.5t211.5 -137t116.5 -209.5t5.5 -261q-21 -104 -77 -202.5t-127 -168.5t-152 -112.5t-152 -42.5q-53 0 -90.5 10t-59.5 30t-33.5 40.5t-20.5 50.5q-23 -26 -45.5 -45t-58 -40.5 t-83.5 -33.5t-104 -12q-73 0 -135 28.5t-102.5 82t-54.5 130t8 171.5q16 82 56.5 154t95 124t118.5 89.5t129 56t126 18.5q74 0 139.5 -40.5t75.5 -88.5l44 108h216l-175 -443q-21 -60 -28 -101q-7 -44 1 -70t40 -26q49 0 98 33.5t86 84.5t64 107.5t38 107.5q11 39 8.5 82 t-10.5 87.5t-29 88t-48 82.5t-68.5 73t-89.5 58.5t-111.5 38.5t-134.5 14q-112 0 -224 -39.5t-202.5 -104.5t-165.5 -147t-123 -169.5t-66 -169.5q-12 -62 -14 -122.5t14 -118.5t42.5 -109.5t70.5 -94.5t98.5 -74t127.5 -48.5t156 -17.5q194 0 405 80l-30 -142 q-230 -72 -406 -72q-160 0 -292 54.5t-216.5 148.5t-117.5 228.5t-1 287.5zM783.5 467.5q4.5 -30.5 14 -49t27 -28.5t29.5 -13t22 -3q42 0 76.5 17.5t57.5 43.5t41.5 62t28 65.5t17.5 61.5q28 139 -59 147q-42 0 -79 -14.5t-64 -37.5t-48.5 -53.5t-34.5 -61.5t-20 -63 q-13 -43 -8.5 -73.5z" />
<glyph unicode="A" horiz-adv-x="1329" d="M18 0l825 1414h238l230 -1414h-281l-60 346h-478l-203 -346h-271zM630 586h309l-60 436z" />
<glyph unicode="B" horiz-adv-x="1148" d="M100 0l300 1414h430q133 0 223 -47q89 -47 125 -127q22 -50 23 -108q0 -36 -9 -75q-16 -69 -54.5 -125.5t-89.5 -92.5t-107.5 -56.5t-112.5 -23.5q43 -2 83.5 -10.5t81.5 -26t71 -43.5t53 -63t27 -85q1 -14 2 -29q0 -37 -8 -81q-17 -81 -60.5 -150.5t-104.5 -118.5 t-135.5 -84t-153 -51.5t-157.5 -16.5h-427zM421 243h139q121 0 205 49.5t100 128.5q4 33 3 63t-17.5 55.5t-44 44.5t-74.5 29.5t-110 10.5h-119zM557 867h88q113 0 182 41t86 122q4 17 4 32q0 17 -5 31q-9 27 -27 41.5t-46 23t-50.5 11t-47.5 2.5h-119z" />
<glyph unicode="C" horiz-adv-x="1231" d="M187 496q-1 14 -1 28q0 80 20 168q34 166 118 307.5t199.5 238.5t257.5 151.5t290 54.5q143 0 255 -23.5t177 -58.5l-146 -235q-129 70 -341 70q-69 0 -133.5 -19.5t-114 -52t-93 -77t-75 -91t-56.5 -96t-39.5 -91t-22.5 -78.5q-15 -71 -16 -134q0 -62 16 -115 q30 -108 113.5 -167.5t212.5 -59.5q94 0 184 26.5t192 74.5l46 -234q-88 -47 -223 -77t-269 -30q-100 0 -186.5 24.5t-151 70t-113 109.5t-72.5 143.5t-28 172.5z" />
<glyph unicode="D" horiz-adv-x="1351" d="M100 0l300 1414h410q117 0 214.5 -17t178.5 -52.5t137 -91t90 -133.5q34 -76 36 -176q0 -9 1 -19q0 -93 -23 -206q-29 -134 -94.5 -249.5t-156.5 -201t-203 -146.5t-238 -91.5t-257 -30.5h-395zM421 243h125q127 0 235.5 37.5t186 103t129.5 151.5t74 184q15 69 15 129 q0 32 -4 60q-12 84 -57.5 142t-136 89.5t-222.5 31.5h-144z" />
<glyph unicode="E" horiz-adv-x="1013" d="M100 0l300 1414h814l-51 -243h-541l-73 -341h486l-54 -247h-486l-74 -340h541l-49 -243h-813z" />
<glyph unicode="F" horiz-adv-x="931" d="M100 0l300 1414h814l-51 -243h-541l-73 -341h486l-54 -247h-486l-121 -583h-274z" />
<glyph unicode="G" horiz-adv-x="1378" d="M196 387q-13 57 -13 120q0 81 20 171q33 157 119.5 297.5t208 244t278 164t321.5 60.5q199 0 314 -54q44 -20 89 -54l-57 -271q-46 51 -161 91.5t-271 40.5q-94 0 -180 -34t-149.5 -88t-114 -123.5t-81 -138.5t-44.5 -135q-9 -46 -11 -92q-1 -11 -1 -23q0 -34 5 -68 q7 -46 22 -87t42.5 -76t65 -60.5t90.5 -40.5t117 -15q96 0 139.5 6t115.5 33l57 277h-297l50 244h574l-146 -686q-108 -56 -260 -85t-292 -29q-142 0 -258 49.5t-190.5 140.5t-101.5 221z" />
<glyph unicode="H" horiz-adv-x="1310" d="M100 0l300 1414h273l-119 -560h563l119 560h275l-299 -1414h-273l126 611h-565l-129 -611h-271z" />
<glyph unicode="I" horiz-adv-x="472" d="M100 0l300 1414h273l-299 -1414h-274z" />
<glyph unicode="J" horiz-adv-x="810" d="M26 44l139 207q14 -9 49 -19q61 -16 108 -16q82 0 136.5 67.5t87.5 224.5l192 906h273l-191 -906q-26 -115 -71.5 -207.5t-101.5 -152.5t-124 -100t-135.5 -57t-139.5 -17q-85 0 -161 34q-23 8 -61 36z" />
<glyph unicode="K" horiz-adv-x="1191" d="M100 0l300 1414h273l-119 -560l573 560h333l-521 -514l234 -900h-289l-175 678l-244 -232l-91 -446h-274z" />
<glyph unicode="L" horiz-adv-x="931" d="M100 0l300 1414h273l-252 -1171h541l-49 -243h-813z" />
<glyph unicode="M" horiz-adv-x="1689" d="M100 0l300 1414h306l215 -984l658 984h311l-301 -1414h-273l187 882l-595 -882h-154l-197 865l-186 -865h-271z" />
<glyph unicode="N" horiz-adv-x="1391" d="M100 0l300 1414h286l425 -965l205 965h276l-300 -1414h-289l-427 954l-202 -954h-274z" />
<glyph unicode="O" horiz-adv-x="1499" d="M186 492q0 9 -1 18q0 84 21 176q34 164 111.5 303.5t187 240t253 157.5t302.5 57q89 0 166.5 -19t138.5 -54t108.5 -84.5t78.5 -112.5q30 -62 46 -134q14 -64 14 -136v-18q-2 -82 -20 -169q-36 -165 -113.5 -302t-188.5 -234t-256.5 -151t-311.5 -54q-101 0 -186.5 24 t-149 69t-109 108.5t-67.5 143t-24 171.5zM465 475q12 -89 58.5 -146.5t110.5 -85t142 -27.5q72 0 138.5 17.5t130.5 56.5t116 96.5t93.5 142t64.5 188.5q16 78 16 143q0 36 -5 69q-14 90 -61 149.5t-113 89t-145 29.5q-88 0 -170.5 -30.5t-154.5 -91t-127 -160.5t-81 -229 q-17 -82 -17 -150q0 -32 4 -61z" />
<glyph unicode="P" horiz-adv-x="1081" d="M100 0l300 1414h408q109 0 194 -26t145 -81t80 -141q10 -41 10 -89q0 -53 -12 -115q-21 -101 -67 -182.5t-107.5 -137.5t-139.5 -93t-162 -54t-176 -17h-100l-102 -478h-271zM524 722h100q78 0 137 18t96.5 52t60 74.5t34.5 93.5q4 25 6 43q3 23 3 44q-1 19 -5 32 q-4 15 -12.5 30.5t-24.5 26t-38 19t-53.5 12.5t-71.5 4h-134z" />
<glyph unicode="Q" horiz-adv-x="1499" d="M188 454q-2 21 -2 41q0 90 20 191q34 163 113.5 303.5t188.5 240.5t246.5 157t283.5 57q93 0 174.5 -19t144.5 -54t112.5 -84.5t81 -112t47.5 -134.5q15 -67 15 -141q0 -7 -1 -13q-1 -82 -20 -169q-49 -228 -176.5 -398t-296.5 -254q19 -9 35.5 -18.5t36.5 -23t34.5 -29 t29.5 -35.5t21.5 -41.5t10 -48t-4.5 -55.5h-260q3 15 3 30q0 19 -5 36q-8 31 -28 52t-42.5 35.5t-49.5 24.5q-74 -16 -203 -16q-111 0 -204 34.5t-156.5 97.5t-103.5 151t-45 195zM464 476q11 -89 55.5 -147.5t109.5 -86.5t147 -28q70 0 136.5 17.5t130.5 57t116.5 97 t94.5 142.5t65 189q16 78 16 143q0 37 -5 69q-14 90 -63 149.5t-121 89t-163 29.5q-58 0 -118 -18.5t-120.5 -59.5t-112 -99.5t-92.5 -144.5t-62 -189q-18 -84 -18 -152q0 -31 4 -58z" />
<glyph unicode="R" horiz-adv-x="1234" d="M100 0l300 1414h446q72 0 136.5 -16t119.5 -48t90.5 -80.5t49.5 -114.5q6 -29 6 -61q0 -41 -10 -88q-15 -68 -58 -127t-97 -97.5t-112 -61.5t-109 -26q52 -21 100.5 -102.5t102.5 -215.5l152 -376h-317l-126 330q-26 64 -56 111t-58.5 71t-53 34.5t-46.5 10.5h-70 l-119 -557h-271zM544 803h140q231 0 278 203q4 18 4 34q0 50 -35 82q-46 44 -168 46l-141 3z" />
<glyph unicode="S" horiz-adv-x="1174" d="M121 108l49 230q44 -34 106 -62q126 -60 263 -60q55 0 99.5 5.5t88 19t75 36t55.5 59t35 85.5q4 20 4 38q0 27 -10 50q-16 38 -51.5 62t-84 46t-103 39t-108 41.5t-99.5 53t-78 73.5q-32 46 -42 104q-4 22 -4 48q0 42 11 95q22 102 106.5 187.5t206.5 134t252 48.5 q182 0 322 -51q52 -23 89 -52l-49 -241q-56 31 -114 49q-157 51 -299 51q-93 0 -160.5 -37.5t-77.5 -88.5q-3 -13 -3 -25q0 -26 12 -46q17 -30 53 -50.5t84 -40t102 -37.5t107 -44t98 -58.5t76 -81.5t41 -113q4 -24 3 -51q0 -46 -10 -103q-15 -63 -40.5 -119t-63 -106.5 t-89 -90t-114.5 -69t-144 -45t-174 -15.5q-185 0 -317 65q-56 25 -103 67z" />
<glyph unicode="T" horiz-adv-x="1053" d="M265 1171l54 243h1017l-52 -243h-365l-248 -1171h-274l246 1171h-378z" />
<glyph unicode="U" horiz-adv-x="1310" d="M200 290q-4 33 -5 71q0 83 21 185l184 868h273l-181 -857q-17 -83 -17 -144q0 -57 14 -93q14 -38 42.5 -61.5t65.5 -33t87 -9.5q45 0 86.5 8t86.5 30.5t81.5 57.5t67 94t46.5 135l186 873h273l-180 -849q-26 -122 -74.5 -220.5t-113.5 -166.5t-147 -114t-173 -67 t-193 -21q-122 0 -212 33.5t-147 103t-71 177.5z" />
<glyph unicode="V" horiz-adv-x="1329" d="M319 1414h276l153 -1011l583 1011h278l-825 -1414h-240z" />
<glyph unicode="W" horiz-adv-x="1888" d="M319 1414h276l65 -973l503 973h189l41 -965l500 965h274l-737 -1414h-276l-21 874l-431 -874h-274z" />
<glyph unicode="X" horiz-adv-x="1297" d="M18 0l617 706l-287 708h320l181 -468l405 468h322l-619 -708l322 -706h-325l-208 473l-405 -473h-323z" />
<glyph unicode="Y" horiz-adv-x="1215" d="M319 1414h284l163 -601l442 601h290l-660 -895l-108 -519h-276l108 519z" />
<glyph unicode="Z" horiz-adv-x="1148" d="M18 0l23 111l932 1060h-654l55 243h1056l-24 -111l-936 -1060h681l-47 -243h-1086z" />
<glyph unicode="[" horiz-adv-x="640" d="M18 -379l400 1890h526l-52 -242h-265l-302 -1406h264l-48 -242h-523z" />
<glyph unicode="\" horiz-adv-x="766" d="M381 1716h264l103 -1716h-266z" />
<glyph unicode="]" horiz-adv-x="640" d="M-57 -379l49 242h259l301 1406h-266l52 242h524l-403 -1890h-516z" />
<glyph unicode="^" horiz-adv-x="1404" d="M211 521l710 988h139l356 -988h-278l-225 604l-426 -604h-276z" />
<glyph unicode="_" horiz-adv-x="1120" d="M70 -132l49 222h921l-47 -222h-923z" />
<glyph unicode="`" horiz-adv-x="797" d="M436 1581h305l208 -392h-271z" />
<glyph unicode="a" horiz-adv-x="1073" d="M170 305q17 68 52 120t76.5 81t93 47.5t95 24t89.5 5.5q121 0 203 20q59 20 62 21q9 41 10.5 74t-3.5 56t-16.5 40t-25.5 27.5t-33 16.5t-36.5 8.5t-39.5 2.5q-144 0 -272 -78q-63 -37 -106 -79l-40 157q45 64 113 113q159 116 362 116q90 0 164.5 -26.5t126.5 -78.5 t71 -129q9 -37 10 -79q0 -47 -12 -100l-141 -665h-259l32 152q-2 -1 -23 -20t-27.5 -24.5t-29 -24t-34.5 -25.5t-34 -22t-39 -21.5t-39 -15t-43.5 -12t-43.5 -3.5q-94 0 -162.5 41.5t-96.5 115.5q-15 40 -15 84q0 38 11 80zM430 305q-3 -15 -3 -27q0 -15 4 -27 q7 -22 26 -32.5t40 -14t49 -3.5q58 0 124 26t106 70l29 136q-61 -14 -70 -15q-54 -10 -149 -10q-28 0 -61 -12t-60.5 -36.5t-34.5 -54.5z" />
<glyph unicode="b" horiz-adv-x="1202" d="M100 0l316 1498h262l-132 -616q28 52 78 99q109 103 243 103q58 0 120 -20t122 -61.5t101 -104.5q42 -64 58 -151q7 -35 6 -73q0 -58 -15 -125q-25 -117 -79 -214.5t-120.5 -160.5t-145 -106.5t-151.5 -62t-141 -18.5q-139 0 -194 94q-27 43 -31 97l-38 -178h-259z M428 330q32 -37 62 -57q76 -57 167 -57q55 0 106.5 19t98.5 57t83.5 103.5t55.5 150.5q7 36 7 69q0 29 -6 57q-12 56 -42 96t-73.5 61.5t-94.5 21.5q-93 0 -189 -56q-46 -29 -87 -57z" />
<glyph unicode="c" horiz-adv-x="945" d="M162 278q-10 45 -10 97q0 59 13 128q26 125 93 234t157 183t197 116t213 42q99 0 222 -51q43 -17 88 -49l-154 -230q-23 23 -60 49q-30 18 -44 25.5t-43 17t-55 9.5q-65 0 -127 -31t-107 -81t-76.5 -111t-43.5 -123q-9 -41 -9 -78t9 -69q18 -65 74.5 -103.5t145.5 -38.5 q71 0 165 49q37 18 80 51l56 -231q-64 -29 -121 -47q-149 -49 -236 -49q-107 0 -195 32.5t-149 97.5t-83 161z" />
<glyph unicode="d" horiz-adv-x="1202" d="M168 306q-8 43 -9 92q0 70 17 151q20 97 69 183.5t111.5 148.5t133.5 107.5t139.5 67.5t126.5 22q137 0 217 -100q40 -51 57 -96l130 616h262l-318 -1498h-261l39 178q-57 -67 -95 -95q-113 -94 -255 -94q-83 0 -158 36t-130.5 106.5t-75.5 174.5zM436 546 q-12 -55 -13 -103q1 -75 31 -133q48 -94 152 -94q123 0 224 57q41 21 81 57l87 408q-20 28 -57 57q-76 56 -198 56q-66 0 -132.5 -43t-114 -113.5t-60.5 -148.5z" />
<glyph unicode="e" horiz-adv-x="1061" d="M155 282q-5 34 -5 73q0 72 18 158q24 110 81 212t135.5 180.5t181 125.5t210.5 47q89 0 156 -24t109 -69.5t66 -109.5q23 -63 25 -143q0 -7 1 -15q0 -73 -14 -157l-22 -124h-681q-7 -26 -7 -49q0 -59 44 -107q61 -66 185 -66q110 0 216 49q37 16 73 51l51 -198 q-59 -39 -119 -65q-136 -62 -294 -62q-113 0 -198.5 32.5t-141 97.5t-70.5 163zM475 665h395q2 18 2 38v9q0 24 -11 49t-27 44.5t-44 31.5t-63 12q-41 0 -84.5 -19t-77 -47t-58 -59.5t-32.5 -58.5z" />
<glyph unicode="f" horiz-adv-x="743" d="M189 810l49 234h175l23 91q16 67 38 122t56.5 106t78.5 85.5t106.5 55.5t138.5 21q70 0 141 -19q19 -8 43 -20l-48 -243q-8 7 -44 28q-47 27 -87 27q-135 0 -167 -163l-19 -91h273l-51 -234h-271l-173 -810h-257l170 810h-175z" />
<glyph unicode="g" horiz-adv-x="1202" d="M67 -338l139 211q26 -34 59 -56q77 -57 197 -57q53 0 96.5 5.5t92.5 24t85.5 48.5t67.5 83t47 125l31 132q-29 -49 -82 -97q-101 -97 -243 -97q-88 0 -168 35.5t-139 103.5t-83 167q-12 48 -12 102q0 57 13 121q22 107 72.5 200t115 159t139.5 113.5t148.5 70t140.5 22.5 q134 0 203 -100q33 -54 43 -96l38 183h263l-212 -992q-61 -282 -236.5 -414t-471.5 -132q-134 0 -251 68q-42 21 -93 67zM428 378q15 -70 61 -118.5t112 -48.5q125 0 227 57q42 20 83 57l87 408q-26 29 -62 54q-82 56 -203 56q-66 0 -130 -44t-110 -119.5t-65 -166.5 q-8 -34 -8 -68q0 -33 8 -67z" />
<glyph unicode="h" horiz-adv-x="1120" d="M100 0l316 1498h262l-137 -644q57 77 91 111q114 113 230 113q55 0 101.5 -11t81 -31.5t60.5 -49.5t42 -64q15 -34 23 -74q6 -34 6 -70v-15q-2 -44 -10 -90l-144 -673h-259l143 681q3 16 3 31q-1 47 -33 81q-44 45 -141 45q-84 0 -157 -54q-39 -26 -65 -51l-154 -733 h-259z" />
<glyph unicode="i" horiz-adv-x="459" d="M100 0l225 1065h261l-227 -1065h-259zM356 1208l55 255h260l-55 -255h-260z" />
<glyph unicode="j" horiz-adv-x="459" d="M-368 -387l138 209q14 -17 36 -31q33 -29 73 -29q37 0 67.5 11t62 38.5t56.5 82t41 132.5l219 1039h261l-215 -1006q-24 -117 -72.5 -214t-117.5 -167t-161 -109t-198 -39q-82 0 -144 40q-33 23 -46 43zM354 1205l57 258h260l-57 -258h-260z" />
<glyph unicode="k" horiz-adv-x="1040" d="M100 0l316 1498h262l-183 -863l436 422h305l-400 -386l175 -671h-263l-121 470l-214 -213l-54 -257h-259z" />
<glyph unicode="l" horiz-adv-x="459" d="M100 0l316 1498h262l-319 -1498h-259z" />
<glyph unicode="m" horiz-adv-x="1783" d="M100 0l225 1065h261l-45 -211l9 14t23.5 33t36 43.5t50 47.5t61 42.5t74 31.5t84.5 12q64 0 116.5 -21t86.5 -56t54.5 -74.5t29.5 -83.5q3 4 15 19t23 28t29 32.5t36 36t40.5 35t47.5 33t51.5 26.5t56.5 18.5t60 6.5q64 0 116.5 -15.5t88 -44t61 -66.5t35.5 -83t12 -95 v-11q0 -45 -11 -90l-143 -673h-260l144 681q3 20 2 41t-12 41.5t-28.5 36.5t-48 26t-70.5 10q-57 0 -157 -52q-51 -31 -78 -51l-154 -733h-259l143 681q3 17 3 32q1 46 -31 78q-42 42 -143 42q-55 0 -149 -52q-34 -19 -73 -48l-154 -733h-259z" />
<glyph unicode="n" horiz-adv-x="1120" d="M100 0l225 1065h261l-45 -211q43 66 91 111q124 113 252 113q59 0 107.5 -15.5t82.5 -44t58 -66.5t34 -84q11 -48 11 -99q0 -47 -11 -96l-144 -673h-259l140 681q5 25 -1 51.5t-22.5 50t-48.5 38.5t-75 15q-67 0 -167 -52q-40 -24 -76 -51l-154 -733h-259z" />
<glyph unicode="o" horiz-adv-x="1172" d="M168 516q21 97 62.5 183t101.5 155.5t134.5 119.5t165.5 77t190 27q96 0 173.5 -27t128.5 -75.5t82.5 -116t35.5 -148.5q1 -14 1 -28q0 -69 -15 -144q-37 -164 -128.5 -289t-229.5 -195.5t-302 -70.5q-154 0 -257 70t-139 190q-19 63 -20 135q0 65 16 137zM419 431 q0 -41 10.5 -81.5t32.5 -70t62.5 -47.5t94.5 -18q74 0 134.5 25.5t102 71.5t69.5 102.5t43 125.5q10 51 10 95q0 40 -11 80t-33.5 70t-63.5 47.5t-96 17.5q-74 0 -135.5 -29t-103 -78t-68.5 -106t-39 -120q-9 -44 -9 -85z" />
<glyph unicode="p" horiz-adv-x="1202" d="M5 -430l320 1495h261l-40 -183q50 58 92 96q110 100 211 100q103 0 188 -36.5t143.5 -107.5t78.5 -176q8 -44 8 -94q0 -70 -16 -151q-20 -96 -70 -183t-114.5 -148.5t-138.5 -107t-143.5 -68t-127.5 -22.5q-134 0 -211 97q-35 49 -49 97l-132 -608h-260zM428 325 q20 -27 62 -60q81 -56 191 -56q22 0 53.5 9.5t70.5 32.5t74.5 56.5t66 87.5t44.5 118q13 60 14 109v9q0 43 -8 74q-10 34 -28 59.5t-39 41t-46.5 25t-47 12.5t-43.5 3q-90 0 -186 -57l-90 -56z" />
<glyph unicode="q" horiz-adv-x="1202" d="M168 290q-13 48 -13 103q0 57 13 120q22 107 68.5 200t106 159t128.5 113.5t139 70t136 22.5q137 0 222 -100q44 -57 62 -96l38 183h263l-323 -1495h-260l134 608q-30 -45 -87 -97q-107 -97 -246 -97q-83 0 -161 35.5t-137 103.5t-83 167zM421 395q9 -51 29 -86.5 t50.5 -58t58 -32t50.5 -9.5q105 0 211 56q29 17 91 60l87 408q-45 39 -67 56q-82 57 -172 57q-25 0 -55 -6.5t-72.5 -28.5t-79.5 -56.5t-71.5 -97t-52.5 -144.5q-10 -43 -10 -79q0 -21 3 -39z" />
<glyph unicode="r" horiz-adv-x="720" d="M100 0l225 1065h261l-62 -294q37 79 90 153q116 154 219 154q25 0 62 -15q14 -10 29 -14l-54 -260q-7 3 -18.5 8.5t-18.5 7.5q-46 17 -77 17q-67 0 -175 -103q-35 -32 -91 -103l-131 -616h-259z" />
<glyph unicode="s" horiz-adv-x="959" d="M111 62l49 227q29 -23 83 -46q103 -42 206 -42q193 0 216 113q8 35 -7.5 61.5t-47 42t-72.5 31.5t-84.5 31t-83 39t-68 55.5t-39.5 81.5q-5 23 -5 50q0 32 7 68q13 60 48.5 112.5t83 88.5t103 62.5t109 39t100.5 12.5q134 0 240 -49q40 -17 67 -45l-48 -221 q-34 22 -84 42q-118 46 -221 46q-51 0 -91.5 -29t-47.5 -59q-7 -28 16 -47.5t64 -31.5t91 -29.5t97.5 -40t84.5 -63.5q37 -42 51 -100q6 -26 5 -57q0 -40 -9 -91q-33 -152 -168.5 -245t-339.5 -93q-99 0 -213 42q-38 16 -92 44z" />
<glyph unicode="t" horiz-adv-x="743" d="M189 810l49 234h175l98 454h263l-98 -454h270l-51 -234h-271l-92 -439q-8 -32 -10 -57t2 -41t13 -27.5t17 -17t21.5 -8.5t21 -3.5t19.5 -0.5q43 0 109 22q9 4 27 12.5t27 12.5l-49 -245q-17 -6 -49 -15q-59 -14 -142 -14q-45 0 -83.5 8t-68 22.5t-53 35t-39 46.5t-25 56 t-12.5 64q-2 19 -2 38q0 16 2 33q2 37 10 76l94 442h-173z" />
<glyph unicode="u" horiz-adv-x="1120" d="M181 387l144 678h261l-140 -654q-5 -28 -6 -51q0 -18 4 -32q7 -33 31.5 -53t52 -28.5t58.5 -8.5q89 0 168 51q42 25 79 54l154 722h262l-225 -1054h-258l39 195q-28 -59 -72 -103q-103 -103 -235 -103q-56 0 -103 11t-82.5 30.5t-63 47.5t-45.5 61q-18 34 -26 72 q-8 36 -8 76q0 44 11 89z" />
<glyph unicode="v" horiz-adv-x="1086" d="M243 1065h296l99 -676l389 676h268l-603 -1065h-267z" />
<glyph unicode="w" horiz-adv-x="1548" d="M243 1065h289l30 -644l349 644h190l50 -644l325 644h278l-557 -1065h-245l-46 619l-330 -619h-259z" />
<glyph unicode="x" horiz-adv-x="1056" d="M18 0l472 529l-247 536h298l143 -317l281 317h297l-478 -549l254 -516h-295l-154 302l-275 -302h-296z" />
<glyph unicode="y" horiz-adv-x="1151" d="M-51 -392l126 206q8 -6 44 -28q47 -26 84 -26q39 0 70.5 16.5t59 49t59.5 87.5l78 133l-224 1019h283l155 -670l392 670h281l-743 -1222q-47 -78 -91.5 -133t-98 -97t-116.5 -62.5t-138 -20.5q-101 0 -173 37q-28 16 -48 41z" />
<glyph unicode="z" horiz-adv-x="1007" d="M100 0l21 114l658 722h-452l49 229h841l-28 -124l-653 -714h491l-46 -227h-881z" />
<glyph unicode="{" horiz-adv-x="675" d="M147 411l44 219q46 3 75 10.5t56 26t44.5 51.5t30.5 85l68 316q13 69 37 124.5t64.5 104.5t96 83t135.5 55.5t180 24.5l-51 -237q-20 0 -40.5 -3.5t-46.5 -14.5t-47.5 -27.5t-39.5 -46.5t-26 -68l-67 -325q-22 -103 -102 -176.5t-184 -101.5q93 -24 142 -97t25 -182 l-68 -310q-6 -24 -6.5 -44.5t3 -35t12 -26t17.5 -18.5t22 -12t22.5 -7.5t23.5 -4t20 -1.5h16h3l-49 -240q-218 0 -304.5 97.5t-46.5 271.5l70 322q7 36 8.5 63t-4 46.5t-16 33t-28.5 22t-39 13.5t-50 9z" />
<glyph unicode="|" horiz-adv-x="462" d="M26 -338l423 1979h262l-422 -1979h-263z" />
<glyph unicode="}" horiz-adv-x="675" d="M-75 -467l49 240h20.5t26.5 2.5t32.5 7.5t31.5 16t32.5 26t26 40t21.5 57l67 310q24 108 104.5 181t182.5 98q-93 28 -141.5 101.5t-26.5 176.5l67 325q5 25 4.5 45.5t-6.5 36.5t-14 28t-20 20.5t-24 14t-25.5 9t-24.5 5t-22 1.5l52 237q98 -3 168 -24t110 -56t61 -83 t19.5 -105t-12.5 -124l-68 -316q-8 -35 -9.5 -61.5t5.5 -44.5t18 -30.5t30.5 -20t39.5 -11t48 -5.5l-46 -219q-45 -6 -75.5 -15t-58.5 -29t-46.5 -55t-29.5 -88l-67 -322q-36 -174 -162 -271.5t-338 -97.5z" />
<glyph unicode="~" horiz-adv-x="1118" d="M194 446q10 46 28 92t48 92t68 81t90 56.5t111 21.5q47 0 88.5 -13.5t70.5 -33t55 -38.5t54.5 -33t57.5 -14q40 0 59 28t38 104h225q-18 -68 -45.5 -126.5t-68 -109t-98 -79t-126.5 -28.5q-55 0 -102.5 13.5t-79 33t-58 39t-51.5 33t-47 13.5q-39 0 -60 -29.5t-35 -102.5 h-222z" />
<glyph unicode="&#xa9;" horiz-adv-x="1775" d="M100 654.5q0 162.5 62.5 308.5t168 251t251.5 166t308 61t308 -61t251 -166t166 -251t61 -308.5t-61 -308t-166 -249.5t-251 -165t-308 -61t-308 61t-251.5 165t-168 249.5t-62.5 308zM224 652.5q0 -135.5 53 -258t142.5 -210.5t213 -140t259.5 -52t259 52t211.5 140 t140.5 210t52 258t-52 258.5t-140.5 211t-211.5 140t-258.5 51.5t-259.5 -52t-213.5 -140t-142.5 -210.5t-53 -258zM413 640q0 91 22.5 171t65 142t101 106.5t133.5 68t160 23.5q42 0 92.5 -5t100 -14t80.5 -21l-43 -89q-82 38 -227 38q-87 0 -158.5 -35t-118 -94t-72 -134 t-25.5 -157q0 -114 43 -206t129 -147t202 -55q47 0 85 6t71.5 18t70.5 33l41 -95q-101 -57 -282 -57q-213 0 -342 137.5t-129 365.5z" />
<glyph unicode="&#xad;" horiz-adv-x="836" d="M209 513l48 225h638l-49 -225h-637z" />
<glyph unicode="&#xae;" horiz-adv-x="1775" d="M100 654.5q0 162.5 62.5 308.5t168 251t251.5 166t308 61t308 -61t251 -166t166 -251t61 -308.5t-61 -308t-166 -249.5t-251 -165t-308 -61t-308 61t-251.5 165t-168 249.5t-62.5 308zM224 649q0 -135 53 -257.5t142.5 -210.5t213 -140t259.5 -52q137 0 260.5 52t212 140 t141 210.5t52.5 257.5q0 139 -52.5 262.5t-141.5 211.5t-212 139t-260 51q-136 0 -259 -51t-213 -139t-143 -211.5t-53 -262.5zM593 178v988h289q60 0 114 -16.5t97 -48.5t68.5 -84.5t25.5 -118.5q0 -51 -13 -92t-34 -69.5t-51.5 -49.5t-63 -33t-71.5 -19q49 -27 96 -69.5 t69 -81.5l184 -306h-135l-167 279q-27 46 -67 80.5t-76 50t-63 15.5h-89v-425h-113zM706 697h122q39 0 74.5 7t67.5 22.5t55 38.5t37 57t14 76q0 53 -26 91.5t-75.5 58.5t-117.5 20h-151v-371z" />
<glyph unicode="&#xbc;" horiz-adv-x="2072" d="M413 0l1369 1716h267l-1371 -1716h-265zM425 1455l26 129q78 28 142 75l64 49h130l-163 -767h-149l123 570q-87 -39 -173 -56zM1503 302l24 111l446 485h135l-96 -462h88l-29 -134h-90l-37 -173h-146l35 173h-330zM1713 436h147l46 209z" />
<glyph unicode="&#xbd;" horiz-adv-x="2097" d="M413 0l1369 1716h267l-1371 -1716h-265zM425 1455l26 129q78 28 142 75l64 49h130l-163 -767h-149l123 570q-87 -39 -173 -56zM1519 129l21 106q9 43 44 87t80.5 79.5t98.5 74.5t98.5 72t80 72.5t42.5 76.5q16 95 -81 95q-51 0 -116 -19.5t-113 -53.5l26 127 q27 23 61.5 41.5t80 31t90.5 12.5q115 0 171 -63t33 -159q-12 -56 -42.5 -105t-68.5 -82t-84 -67t-87 -60t-80.5 -60.5t-62.5 -69.5h360l-28 -136h-524z" />
<glyph unicode="&#xbe;" horiz-adv-x="2113" d="M308 995l30 135q29 -29 76.5 -44t98.5 -15q22 0 47.5 4.5t52 15t46.5 31t25 46.5q14 65 -40 90.5t-200 25.5l26 130q75 -5 119 5q122 21 138 98q5 27 0 46t-17.5 28t-26 12t-31.5 3q-117 0 -195 -51l27 127q97 56 197 56q41 0 81.5 -14t71 -38.5t45 -63t3.5 -82.5 q-12 -56 -47.5 -96.5t-79.5 -60t-98 -26.5q39 -5 71.5 -17.5t60 -33.5t39.5 -55t5 -78q-24 -102 -115.5 -167t-230.5 -65q-50 0 -99 16.5t-80 37.5zM457 0l1367 1716h266l-1368 -1716h-265zM1546 302l25 111l446 485h135l-98 -462h90l-29 -134h-90l-38 -173h-146l35 173 h-330zM1757 436h146l47 209z" />
<glyph unicode="&#xe01;" horiz-adv-x="1275" d="M173 0l124 583q2 13 5.5 25.5t6 22t7.5 22.5t7 19.5t8 20.5t7.5 17t8 17.5t7.5 15.5q14 29 33 57q-10 10 -22.5 23t-23.5 25t-19 19q-65 65 -65 69q75 99 164 173q91 75 204 124t240 49q91 0 173.5 -18.5t148.5 -54t110.5 -88t60.5 -119.5t-1 -148l-137 -648 q-5 -24 -22 -50t-35.5 -45.5t-45.5 -43.5q-38 -34 -90 -67h-124l170 800q9 46 5.5 81.5t-22.5 62t-43.5 44t-58 28t-65.5 15t-67 4.5q-101 0 -195 -52q-40 -19 -67 -47l137 -136q-28 -24 -57 -57q-57 -77 -80 -175l-122 -568h-265z" />
<glyph unicode="&#xe02;" horiz-adv-x="1081" d="M219.5 291.5q1.5 60.5 15.5 129.5l22 108q34 150 189 325q6 6 16.5 17t18 19t17 19t15.5 19.5t11.5 17.5t7.5 16q4 27 -16.5 39.5t-66.5 12.5h-176l52 240h175q77 0 135.5 -15t94.5 -41t58 -62.5t24 -80.5t-7 -93q-13 -64 -51.5 -122.5t-90.5 -101.5q-39 -33 -86 -95 t-56 -114l-21 -108q-23 -103 1 -154t97 -51q77 0 129 56.5t70 148.5l176 833h273l-175 -833q-14 -69 -38.5 -129.5t-68.5 -119.5t-103.5 -100.5t-148 -67t-196.5 -25.5q-84 0 -144 25.5t-92.5 67.5t-47 100.5t-13 119z" />
<glyph unicode="&#xe03;" horiz-adv-x="1081" d="M216.5 238.5q-3.5 45.5 0 89.5t13.5 93l21 111q9 40 25 79.5t30.5 65.5t43.5 64.5t43 54.5t51 58q4 5 40 36t57.5 55.5t23.5 41.5q6 27 -13.5 37.5t-53.5 -10.5q-20 -12 -68 -54q-19 -16 -35 -36q-8 15 -31 44q-40 46 -91 46l52 240q47 0 83 -65q21 -36 30 -62 q35 35 70 62q86 65 160 65q32 0 65 -14.5t61.5 -46t38 -80.5t-4.5 -118q-28 -140 -155 -247q-23 -17 -51 -46t-59.5 -80t-41.5 -101l-21 -100q-15 -69 -10 -114t33 -68t80 -23q76 0 127 60t70 154l173 824h273l-173 -813q-16 -75 -42.5 -140t-70 -126t-99.5 -104t-135.5 -69 t-173.5 -26q-70 0 -125 13.5t-92.5 37t-63 57t-38.5 71.5t-16.5 83.5z" />
<glyph unicode="&#xe04;" horiz-adv-x="1283" d="M100 0l181 854q19 92 81 172.5t148.5 136t192 87.5t210.5 32t195.5 -31t154.5 -86t92.5 -136t9.5 -175l-181 -854h-273l181 854q16 75 -49 128t-184 53t-203.5 -52t-101.5 -129l-51 -245q59 47 103 69q122 70 224 70l-59 -270q-145 0 -239 -53q-44 -21 -83 -51l-78 -374 h-271z" />
<glyph unicode="&#xe05;" horiz-adv-x="1283" d="M100 0l181 854q16 70 60.5 145.5t102 136.5t126.5 100.5t130 39.5q34 0 64 -24t61 -65q36 -52 51 -90q38 53 81 90q92 92 165 92q53 0 99 -26t77 -69t52 -98.5t23.5 -114.5t-8.5 -117l-181 -854h-273l181 854q15 80 -4.5 130.5t-63.5 50.5q-35 0 -121 -91 q-55 -61 -78 -90q-15 38 -46 90q-3 4 -8 12q-18 27 -27.5 40t-24 26t-27.5 13q-41 0 -83 -51.5t-57 -129.5l-52 -245q51 44 101 69q121 70 229 70l-59 -270q-121 0 -235 -50q-48 -23 -85 -52l-80 -376h-271z" />
<glyph unicode="&#xe06;" horiz-adv-x="1297" d="M140 0l123 573q12 58 37.5 106.5t56 79.5t64 60.5t62 51t50.5 49t29 55.5q4 10 4 19t-3 17.5t-12.5 13.5t-23.5 5q-27 0 -81 -55q-28 -23 -51 -51q-14 16 -41 44q-18 16 -26 22.5t-24.5 15t-30.5 8.5l52 240q47 0 83 -65q21 -36 30 -62q30 34 70 65q82 62 160 62 q96 -6 146 -83t27 -181q-10 -49 -31 -90t-47 -70t-55 -55t-58 -50t-54 -48.5t-43.5 -57t-25.5 -70.5l-37 -185q19 -28 62 -62q77 -62 194 -62q231 0 284 263l159 751h274l-173 -808q-28 -135 -102 -242t-181 -167.5t-228 -60.5q-157 0 -260 114q-46 49 -65 116l-43 -206 h-271z" />
<glyph unicode="&#xe07;" horiz-adv-x="1110" d="M246 862h275l28 -616q30 0 68 12.5t83 42.5t85.5 72.5t75 108t50.5 142.5q20 102 4.5 174.5t-65 119.5t-116.5 68.5t-151 21.5l55 243q100 0 190 -23t168.5 -71t128.5 -122.5t69 -176.5t-10 -234q-23 -102 -76.5 -199t-125.5 -172.5t-155.5 -133t-171.5 -88.5t-168 -31 h-211z" />
<glyph unicode="&#xe08;" horiz-adv-x="1234" d="M260 1024q59 67 148 127q197 131 433 131q73 0 139 -18.5t118 -51.5t95.5 -79t71 -101t44.5 -117.5t17 -128.5t-13 -134q-22 -104 -64 -198t-108 -177.5t-149 -144.5t-193.5 -96.5t-236.5 -35.5h-134l-20 428q-2 9 -5 13.5t-7.5 6.5t-8 2t-13 -0.5t-15.5 -0.5h-54l51 245 h109h9h35.5t35 -3.5t36.5 -9.5t32.5 -19t31 -31.5t24.5 -47t20 -64.5l11 -273q45 0 97 31.5t99 85t86 130t58 159.5q15 67 11 119.5t-17 92.5t-38 69.5t-51 49t-56.5 31t-54.5 16.5t-45 5q-199 0 -359 -119q-83 -64 -125 -119z" />
<glyph unicode="&#xe09;" horiz-adv-x="1269" d="M165 503l51 245h179q201 0 146 -250l-17 -77q-9 -39 -9.5 -69.5t6.5 -49t17 -31t26 -18.5t30 -8t33 -2q125 0 247 62q35 18 101 66l80 375q9 41 10.5 79.5t-9 77.5t-34 67.5t-68.5 46.5t-108 18q-147 0 -307 -75q-79 -32 -144 -76l-49 227q75 50 160 84q200 87 394 87 q252 0 369 -136.5t67 -371.5l-165 -774h-273l43 206q-54 -65 -125 -116q-156 -114 -305 -114q-80 0 -138.5 28.5t-89.5 79.5t-40.5 122t8.5 156l20 97q7 23 2.5 33.5t-27.5 10.5h-81z" />
<glyph unicode="&#xe0a;" horiz-adv-x="1127" d="M217 313q3 43 13 90l27 126q15 60 48 125t69 114.5t72 85.5q78 78 86 108q3 15 -5.5 25t-27 15t-39 7t-47.5 2h-140l52 243h142q87 0 152.5 -15t105 -41t63 -62.5t25.5 -80.5t-8 -93q-27 -129 -134 -216q-19 -14 -37 -30.5t-42.5 -44.5t-43.5 -65t-27 -77l-26 -137 q-36 -176 116 -176q49 0 89 15.5t67 39.5t47.5 57.5t32 66.5t18.5 70q20 96 17 160.5t-22.5 97.5t-51.5 33l54 247q47 0 95 67.5t86.5 177t67.5 248.5h274q-29 -131 -72.5 -240.5t-85.5 -174.5t-85 -112t-69 -65.5t-38 -21.5q0 -1 2 -1q9 -5 16.5 -10.5t25 -22t30 -36.5 t25.5 -54.5t18.5 -75t2.5 -98.5t-17 -125q-22 -103 -70 -190t-120.5 -152t-172.5 -101.5t-218 -36.5q-67 0 -121.5 12.5t-92 34.5t-64 54t-40.5 68.5t-19.5 79t-2.5 85.5z" />
<glyph unicode="&#xe0b;" horiz-adv-x="1127" d="M216 228q-4 44 0 86t14 89l25 113q42 181 181 330q5 5 42.5 37.5t61 59t25.5 44.5q6 24 -11 36t-43 -1q-31 -17 -75 -57q-7 -7 -22 -19.5t-22 -18.5q-13 15 -41 43q-49 44 -78 44l52 240q47 0 83 -65q21 -36 30 -62q27 31 68 62q80 65 162 65q48 0 84 -22.5t54 -59 t24 -84.5t-5 -98q-10 -43 -27.5 -80t-45 -70t-46 -52t-53.5 -52q-7 -6 -10 -9q-98 -97 -119 -198l-29 -137q-16 -60 -5.5 -99t46 -58t99.5 -19q50 0 91.5 23t68.5 60t44 77t26 83q20 96 17 162t-22.5 100.5t-51.5 34.5l54 247q47 0 95 67.5t86.5 177t67.5 248.5h274 q-29 -131 -72 -240t-84.5 -174.5t-83.5 -112.5t-68 -65.5t-39 -21.5l12.5 -7.5t24 -20.5t30 -36t27.5 -54.5t20 -75.5t3.5 -101t-17.5 -128q-16 -70 -47.5 -138t-81.5 -131t-112 -110t-144 -75.5t-172 -28.5q-77 0 -137.5 13t-101 35.5t-68 55t-41 68.5t-17.5 80z" />
<glyph unicode="&#xe0c;" horiz-adv-x="1978" d="M211.5 167.5q0.5 29.5 7.5 64.5l75 351q3 13 6 25.5t6 22t7.5 22.5t7 19.5t8.5 20.5t7.5 17t8 17.5t6.5 15.5q18 35 36 57q-10 10 -22.5 23t-23.5 25t-19 19q-65 65 -65 69q65 91 164 173q215 173 463 173q84 0 162 -18.5t142 -54t108.5 -88t61 -119.5t-0.5 -148 l-103 -490q11 -31 41 -62q62 -62 183 -62q48 0 81.5 11t63 39.5t51 80.5t37.5 132l159 751h274l-176 -833q-13 -58 -39 -117.5t-67 -118.5t-90.5 -104.5t-115.5 -73.5t-137 -28q-169 0 -250 113q-38 53 -49 114l-44 -206h-273l170 800q13 61 1 105t-47 73t-84.5 43 t-112.5 14q-117 0 -211 -52q-42 -23 -59 -47l137 -136q-19 -16 -57 -54q-52 -61 -78 -163l-62 -283q-7 -23 -2 -38t26 -16h82l-52 -246h-118q-22 0 -39 1t-38.5 3.5t-38 7.5t-35 13.5t-31 20.5t-23 30t-15.5 40t-4.5 51.5z" />
<glyph unicode="&#xe0d;" horiz-adv-x="1986" d="M207.5 138q-4.5 43 8.5 94l76 351q2 11 4.5 22t5.5 21.5t6 19t7 19t6.5 17t7 17.5t6.5 15t7 15.5t6 13.5q18 35 36 57q-10 10 -22 23t-23.5 25t-19.5 19q-62 62 -62 69q65 91 164 173q215 173 461 173q84 0 161.5 -18.5t142 -54t108.5 -88t60.5 -119.5t-0.5 -148 l-89 -424q-8 -33 -8 -60t6 -46.5t18.5 -34t28 -23t36 -14t41 -7.5t45.5 -2q94 0 180 59q47 37 70 60l186 892h273l-206 -1011q-22 -113 -74 -210.5t-118.5 -166.5t-144.5 -118t-156 -72.5t-150 -23.5q-172 0 -294 85q-59 39 -92 90l92 137q21 -37 59 -67q78 -67 200 -67 q132 0 235.5 94t145.5 259l5 23q-43 -66 -97 -116q-116 -116 -270 -116q-78 0 -138 25t-95.5 68.5t-54 103t-17.5 127.5t19 143l78 359q11 41 6 74t-16 57.5t-32.5 42.5t-44.5 29.5t-51 18.5t-52.5 10t-49.5 3q-117 0 -212 -52q-42 -23 -59 -47l137 -136q-18 -13 -56 -52 q-52 -60 -78 -165l-60 -283q-8 -23 -6 -38t22 -16h90l-52 -246h-149q-66 0 -110 17t-63.5 47.5t-24 73.5z" />
<glyph unicode="&#xe0e;" horiz-adv-x="1275" d="M-18 -539l44 247q165 0 330 76q80 32 147 76q30 -45 57 -69q77 -67 157 -67q43 0 70.5 9t45 31.5t27 49t19.5 72.5l194 914q13 61 0.5 105t-49 73t-87 43t-112.5 14q-109 0 -203 -52q-41 -22 -62 -47l137 -136q-20 -17 -48 -49q-53 -62 -76 -168l-75 -351 q-16 -68 -40.5 -113.5t-62 -71.5t-83 -36.5t-109.5 -10.5h-138l49 240h80q7 1 12.5 3.5t9 5t6.5 9t4 9.5t3 13t3 14l62 289q3 13 6 25.5t6 22t7.5 22.5t7 19.5t8.5 20.5t7.5 17t8 17.5t6.5 15.5q18 35 36 57q-10 10 -22.5 23t-23.5 25t-19 19q-65 65 -65 69q75 99 164 173 q210 173 453 173q74 0 149 -18t142.5 -55t117 -87t70.5 -120t4 -148l-224 -1057q-7 -25 -13.5 -45.5t-22.5 -57t-35 -65t-51 -61.5t-70.5 -55t-94 -37t-119.5 -15q-107 0 -200 74q-45 31 -76 76q-61 -41 -146 -76q-157 -74 -323 -74z" />
<glyph unicode="&#xe0f;" horiz-adv-x="1275" d="M-18 -539l44 247q128 0 266 78q63 35 119 82l67 -123l131 144q0 -4 6 -22.5t19.5 -45.5t30.5 -52t42 -43t52 -18q82 0 95 73l219 1019q24 111 -42.5 173t-192.5 62q-122 0 -216 -52q-41 -22 -62 -47l146 -136q-18 -13 -54 -49q-57 -67 -79 -168l-75 -351 q-52 -232 -271 -232h-162l49 240h80q9 1 15 3.5t9.5 8t5.5 10t4.5 13t3.5 11.5l62 303q15 76 57 157q21 36 36 54q-10 10 -22.5 23t-23.5 25t-19 19q-65 65 -65 69q65 91 164 173q215 173 471 173q81 0 157 -18.5t139.5 -54t107.5 -88t61 -119.5t0 -148l-224 -1048 q-4 -20 -10.5 -43t-21.5 -58t-35 -66.5t-52 -64.5t-70 -57.5t-92.5 -40t-116.5 -15.5q-72 0 -132 74q-37 43 -51 76l-124 -117l-72 117q-56 -37 -140 -76q-61 -32 -125.5 -53t-108.5 -21z" />
<glyph unicode="&#xe10;" horiz-adv-x="1234" d="M-26 -565l47 243q148 0 268 90q56 41 90 92l70 -141l127 141q0 -5 11.5 -32t29.5 -61.5t48 -61.5t60 -27q17 0 31 8t23 20.5t13 28.5l38 187h274l-44 -201q-7 -31 -21.5 -65t-44 -75t-68 -72t-97.5 -52.5t-129 -21.5q-40 0 -70 10.5t-47 25t-34 37.5q-26 34 -33 76 l-119 -113l-78 104q-68 -51 -105 -70q-127 -70 -240 -70zM255 1022q54 74 132 129q192 131 441 131q103 0 224 -46q60 18 96 59.5t52 112.5h273q-9 -35 -24 -70t-34.5 -65.5t-43.5 -58t-49.5 -48.5t-53 -36.5t-54.5 -23.5q51 -57 79.5 -136.5t30.5 -158.5t-13 -159 q-23 -111 -66.5 -206.5t-101 -166t-126 -124.5t-146 -87.5t-157.5 -50.5t-162 -17h-127l-20 411q-1 6 -3 15t-2.5 11.5t-3.5 6t-8 4.5t-14 1h-72l52 245h133q28 0 50.5 -3t50.5 -14.5t47.5 -31t34 -56.5t16.5 -86l11 -257q44 0 96.5 31.5t100.5 84.5t88 130t58 160 q11 51 12 95.5t-6 78.5t-20.5 63t-31.5 50t-40 37.5t-45 26.5t-47.5 17t-46 9.5t-41.5 2.5q-187 0 -346 -126q-67 -52 -123 -125z" />
<glyph unicode="&#xe11;" horiz-adv-x="1277" d="M119 0l70 330q20 92 56 177t75 145t81.5 115.5t76 93t58 73t29.5 59.5q3 11 1 20t-12 15.5t-25 6.5q-4 0 -9 -1.5t-11 -5t-11 -6.5t-13 -8.5t-12.5 -9t-13.5 -11t-13 -10.5q-32 -27 -51 -50q-6 12 -31 42q-38 44 -88 44l49 240q24 0 47 -18t39 -44q20 -36 30 -62 q34 35 70 62q83 62 152 62q31 0 56 -9t45 -31t25 -58.5t-5 -89.5q49 56 106 105q132 106 240 106q59 0 106 -29.5t74 -77t41.5 -107.5t14 -122t-13.5 -118l-176 -828h-273l157 746q16 78 16.5 132t-13.5 82t-33 39.5t-47 11.5q-64 0 -128.5 -34.5t-116.5 -90.5t-99 -124 t-80.5 -138t-55 -129t-28.5 -100q-1 -3 -1.5 -7t-1.5 -7t-2 -5q-3 -8 -3 -25l-72 -351h-276z" />
<glyph unicode="&#xe12;" horiz-adv-x="1973" d="M185 280q-33 147 9 358q35 155 92 279t125 201t141 117.5t145 40.5q19 0 40.5 -14.5t35.5 -31t35 -43.5q35 -50 54 -90q32 40 82 90q92 92 148 92q46 0 88 -17t74 -46t57.5 -68.5t38 -84t16 -92.5t-8.5 -95l-111 -512q17 -29 52 -64q67 -62 178 -62q66 0 107 21t71 78.5 t51 165.5l160 751h273l-175 -833q-14 -59 -37 -118t-61 -119t-84 -105t-109.5 -74t-133.5 -29q-173 0 -262 119q-41 56 -59 119l-46 -214h-273l186 876q14 68 -12 113.5t-61 45.5t-121 -91q-67 -74 -80 -90q-17 45 -44 90q-3 4 -8 12q-18 27 -27.5 40t-24.5 26t-28 13 q-12 0 -25 -5.5t-31.5 -19t-37 -42t-39 -70t-40.5 -109t-38 -151.5q-8 -39 -14 -74.5t-9 -79t-0.5 -80t13.5 -72.5t30 -60.5t52 -40t77 -15.5q45 0 117 27q46 20 62 28l-52 -245q-13 -9 -54 -26q-59 -24 -124 -24q-150 0 -248.5 78.5t-131.5 225.5z" />
<glyph unicode="&#xe13;" horiz-adv-x="1978" d="M209 167.5q0 29.5 7 64.5l76 351q2 11 4.5 22t5.5 21.5t6 19t7 19t6.5 17t7 17.5t6.5 15t7 15.5t6 13.5q18 35 36 57q-10 10 -22 23t-23.5 25t-19.5 19q-62 62 -62 69q75 99 164 173q206 169 441 173q64 0 126.5 -10t124.5 -31.5t111.5 -55.5t85.5 -81.5t47 -109.5 t-3 -140l-72 -351q-9 -43 -13.5 -74.5t-5.5 -58.5t2 -45.5t11.5 -33.5t20.5 -23.5t30.5 -14.5t41 -8t53.5 -2q94 0 184 59q44 31 76 62l186 890h273l-263 -1254h-276l44 206q-37 -65 -96 -116q-130 -114 -301 -114q-66 0 -117 20t-81.5 54.5t-49.5 78t-24 94.5t-1.5 100 t14.5 98l81 379q8 46 4 81.5t-24 62t-45.5 44t-59.5 28t-66.5 15t-66.5 4.5q-111 0 -199 -52q-38 -21 -57 -47l137 -136q-18 -16 -56 -54q-62 -72 -78 -163l-60 -283q-7 -23 -2 -38t26 -16h82l-52 -246h-108q-21 0 -38.5 1t-40 3.5t-40 7.5t-37 13.5t-33 20.5t-25.5 30 t-17.5 40t-5.5 51.5z" />
<glyph unicode="&#xe14;" horiz-adv-x="1269" d="M171 423q1 100 23 215q28 126 82.5 232.5t124 181.5t153.5 127.5t171 77.5t175 25q112 0 204.5 -29.5t155 -83t88 -135t4.5 -180.5l-181 -854h-273l173 822q5 32 5 58t-8 47t-20 37.5t-30 28t-37 20t-42.5 13.5t-46 7t-46.5 2q-32 0 -70.5 -10.5t-86 -39t-89 -71 t-78 -114.5t-55.5 -162q-9 -42 -14.5 -79.5t-8.5 -81t0 -79.5t14 -70.5t30.5 -58.5t52 -38.5t75.5 -14.5q72 0 132 27q25 11 47 28l-52 -241q-18 -14 -49 -27q-66 -27 -137 -27q-95 0 -169 32.5t-120.5 91.5t-72 141t-24.5 182z" />
<glyph unicode="&#xe15;" horiz-adv-x="1269" d="M172 422q0 100 22 216q35 155 92 279t125 201t141 117.5t145 40.5q28 0 55 -24t58 -65q27 -38 52 -90q27 38 79 90q43 42 79.5 67t71.5 25q44 0 86 -17t74 -46t57.5 -68.5t38.5 -84t17 -92.5t-8 -95l-186 -876h-273l186 876q14 73 -13.5 116t-64.5 43q-28 0 -114 -91 q-33 -37 -82 -90q-17 45 -44 90q-3 4 -8 12q-18 27 -27.5 40t-24.5 26t-28 13q-15 0 -32 -7.5t-41.5 -33t-47 -66.5t-47.5 -117t-45 -176q-88 -419 151 -419q45 0 117 27q46 20 62 28l-52 -245q-14 -8 -57 -26q-64 -24 -142 -24q-87 0 -157 32.5t-116 91t-72.5 140.5 t-26.5 182z" />
<glyph unicode="&#xe16;" horiz-adv-x="1275" d="M219 232l75 351q3 13 6 25.5t6 22t7.5 22.5t7 19.5t8.5 20.5t7.5 17t8 17.5t6.5 15.5q18 35 36 57q-10 10 -22.5 23t-23.5 25t-19 19q-65 65 -65 69q69 90 168 173q215 173 459 173q84 0 162 -18.5t142 -54t108.5 -88t61 -119.5t-0.5 -148l-137 -648q-5 -24 -22 -50 t-35.5 -45.5t-45.5 -43.5q-38 -34 -90 -67h-124l170 800q13 63 0.5 109.5t-47.5 73t-84 39.5t-112 13q-117 0 -211 -52q-42 -23 -59 -47l137 -136q-19 -16 -57 -54q-52 -61 -78 -163l-62 -281q-8 -22 -6 -38t22 -16l90 -2l-52 -246l-186 3q-88 2 -131 58t-18 171z" />
<glyph unicode="&#xe17;" horiz-adv-x="1256" d="M100 0l264 1254h274l-43 -210q43 66 105 119q139 119 311 119q60 0 112.5 -18.5t90 -51t67 -76.5t43 -94.5t18 -105t-8.5 -108.5l-175 -828h-274l156 746q6 32 9.5 57t3 54t-7 50t-20.5 41.5t-36.5 33.5t-57 21t-80.5 8q-95 0 -202 -65q-47 -26 -89 -64l-189 -882h-271z " />
<glyph unicode="&#xe18;" horiz-adv-x="1174" d="M153 282q-4 51 12 113l21 105l3 13h278l-2 -15q-1 -8 -4 -21.5t-8 -35.5t-9 -46q-36 -147 93 -172q34 -7 106 -7q45 0 89.5 10t85.5 29.5t69.5 53.5t36.5 78q11 53 -3 92t-47.5 60t-80.5 36.5t-102 22t-112.5 16.5t-111.5 21t-99 33.5t-75.5 54.5t-40.5 85.5t5 124.5 q18 88 77 156.5t145 109.5t186 62t209 21q171 0 334 -65q57 -23 125 -63l-54 -256q-52 45 -113 70q-148 70 -344 70h-11q-27 0 -42.5 -0.5t-43.5 -1.5t-45.5 -4t-41.5 -7.5t-39.5 -12.5t-31 -18.5t-25 -26t-13.5 -34.5q-6 -33 23.5 -53t83.5 -27t122.5 -16t139.5 -20.5 t135.5 -40t109.5 -75.5t62 -126.5t-8 -193.5q-13 -58 -44 -115t-82.5 -110t-116.5 -92.5t-153 -63.5t-187 -24q-39 0 -74 2t-78 8t-77 16t-72 26t-63.5 38.5t-50.5 53.5t-33.5 71t-12.5 91z" />
<glyph unicode="&#xe19;" horiz-adv-x="1256" d="M179 333q0 46 10 92l170 808h273l-157 -749q-8 -39 -8 -72t7 -56.5t18 -42.5t27 -30.5t32 -20t34.5 -12.5t33.5 -5.5t30 -1.5q110 0 221 65q28 15 92 66l184 859h270l-258 -1233h-274l43 209q-47 -66 -114 -117q-136 -116 -315 -116q-52 0 -97.5 13.5t-80 38t-62 58 t-44.5 73.5t-26 84t-9 90z" />
<glyph unicode="&#xe1a;" horiz-adv-x="1228" d="M180 334q0 54 11 107l173 813h274l-173 -824q-18 -91 16 -152.5t105 -61.5h114q87 0 159 62t90 152l173 824h276l-176 -813q-13 -64 -43.5 -128.5t-78.5 -125t-107 -107.5t-135.5 -75.5t-157.5 -28.5h-189q-71 0 -128 20t-94.5 54.5t-63 79.5t-35.5 97.5t-10 106.5z" />
<glyph unicode="&#xe1b;" horiz-adv-x="1228" d="M180 334q0 54 11 107l173 813h274l-173 -824q-18 -91 18.5 -152.5t111.5 -61.5h114q82 0 149.5 61t90.5 153l248 1176h273l-248 -1165q-13 -64 -42.5 -128.5t-78 -125.5t-108.5 -107.5t-140.5 -75t-168.5 -28.5h-189q-66 0 -119.5 20t-89.5 54.5t-60.5 80t-35 97.5 t-10.5 106z" />
<glyph unicode="&#xe1c;" horiz-adv-x="1465" d="M271 276q-38 352 26 657q32 154 114.5 237.5t197.5 83.5h157l-52 -248l-95 2q-15 0 -25 -5.5t-16 -18.5t-9 -23.5t-7 -29.5q-36 -189 -30 -371q4 -73 12 -132l284 454h129l87 -454q38 45 91 161q112 239 222 665h273q-116 -477 -340 -927q-85 -173 -193 -327h-178 l-106 484l-307 -484h-181q-40 139 -54 276z" />
<glyph unicode="&#xe1d;" horiz-adv-x="1458" d="M271 279q-38 356 26 654q33 151 111 236t190 85h165l-52 -248l-95 2q-24 0 -35.5 -17.5t-20.5 -57.5q-42 -188 -36 -373q3 -66 17 -132l284 454h129l90 -454q59 89 116 237q140 348 267 947h276q-147 -694 -392 -1225q-104 -221 -214 -387h-181l-106 484l-307 -484h-178 q-41 148 -54 279z" />
<glyph unicode="&#xe1e;" horiz-adv-x="1556" d="M284 1254h268l59 -772l343 772h179l13 -772l387 772h270l-624 -1254h-227l-19 741l-332 -741h-220z" />
<glyph unicode="&#xe1f;" horiz-adv-x="1659" d="M284 1254h268l59 -772l343 772h179l13 -772l565 1130h270l-802 -1612h-227l-21 725l-322 -725h-228z" />
<glyph unicode="&#xe20;" horiz-adv-x="1275" d="M62 -3l54 246h82q9 1 14.5 3t9.5 8.5t5.5 10.5t4 15.5t3.5 16.5l57 286q15 81 56 160q14 27 39 57q-10 10 -22.5 23t-23.5 25t-19 19q-65 65 -65 69q69 96 161 173q210 173 447 173q93 0 176 -18.5t148.5 -54t109.5 -88t59.5 -119.5t-1.5 -148l-137 -648q-5 -24 -22 -50 t-35.5 -45.5t-45.5 -43.5q-38 -34 -90 -67h-124l170 800q13 65 -2 111.5t-53.5 73t-89.5 38.5t-118 12q-89 0 -183 -52q-45 -24 -67 -47l137 -136q-20 -17 -48 -49q-53 -62 -76 -168l-75 -351q-23 -101 -96.5 -168t-155.5 -67h-184z" />
<glyph unicode="&#xe21;" horiz-adv-x="1256" d="M100 0l264 1254h274l-179 -843q29 -37 65 -65q77 -62 160 -62q75 0 130.5 17t91 50.5t56.5 76t33 99.5l153 727h274l-176 -833q-11 -53 -40 -112.5t-76 -118.5t-104 -106.5t-131.5 -77.5t-151.5 -30q-162 0 -265 114q-42 45 -62 116l-42 -206h-274z" />
<glyph unicode="&#xe22;" horiz-adv-x="1189" d="M130 304q2 37 10 77q39 162 208 259q79 47 171 66q-76 12 -132 45q-126 83 -98 211q16 74 57 135.5t94 101t112.5 61.5t115.5 22q77 0 181 -25q53 -18 67 -24l-54 -258q-49 25 -65 31l-19.5 6.5l-21 7t-19.5 6t-21 5t-19.5 3t-20.5 1.5q-16 0 -31.5 -3t-33.5 -10 t-31 -22.5t-18 -37.5q-6 -33 4 -57t31.5 -39t59 -23.5t78.5 -11.5t98 -3l-54 -245q-83 0 -151 -17.5t-111 -47.5t-69.5 -64.5t-34.5 -72.5q-5 -21 -5.5 -40t3 -34t11 -27t17.5 -21.5t23 -16.5t28 -12t33 -8t36 -4.5t39 -1.5q120 0 206 61t104 153l173 824h273l-173 -813 q-13 -66 -43 -129t-83.5 -124.5t-123 -108t-169 -75t-216.5 -28.5q-69 0 -127 9t-101 25.5t-77 39t-55.5 51.5t-35 61t-18 68.5t-2.5 73.5z" />
<glyph unicode="&#xe23;" horiz-adv-x="1066" d="M116 78l49 230q39 -22 106 -45q125 -47 245 -47q109 0 173.5 38.5t86.5 126.5q10 42 -9 71.5t-58 45.5t-89.5 32.5t-103.5 32t-101 43.5t-81.5 68.5t-45 106t8.5 155.5q22 94 94.5 173t184.5 126t237 47q162 0 263 -54q46 -22 87 -55l-57 -260q-28 33 -76 60 q-111 62 -267 62q-81 0 -131.5 -28.5t-63.5 -82.5q-8 -34 12 -60t58.5 -42t88.5 -33.5t102 -35.5t99.5 -48t81 -71t45.5 -104.5t-6 -148.5q-11 -57 -33 -109t-65 -107.5t-101.5 -96t-149.5 -66.5t-202 -26q-175 0 -282 50q-36 13 -100 52z" />
<glyph unicode="&#xe24;" horiz-adv-x="1275" d="M219 232l75 351q3 13 6 25.5t6 22t7.5 22.5t7 19.5t8.5 20.5t7.5 17t8 17.5t6.5 15.5q18 35 36 57q-10 10 -22.5 23t-23.5 25t-19 19q-65 65 -65 69q69 90 168 173q215 173 451 173q87 0 166.5 -18.5t144 -54t109.5 -88t61.5 -119.5t-0.5 -148l-260 -1213 q-12 -59 -102 -139q-38 -34 -89 -67h-125l292 1365q8 46 5 81t-20.5 61t-41.5 44t-58 29t-70 15.5t-78 4.5q-102 0 -191 -52q-36 -19 -59 -47l134 -136q-8 -7 -17 -16t-20 -20.5t-17 -17.5q-52 -61 -78 -163l-62 -281q-8 -22 -6 -38t22 -16l90 -2l-52 -243h-165 q-101 0 -147.5 59t-22.5 170z" />
<glyph unicode="&#xe25;" horiz-adv-x="1161" d="M127 183q-15 68 5 158q17 78 62 145t104.5 113t131 78.5t142 48t137.5 15.5q162 0 212 13q26 7 31 17l10 45q46 216 -194 216q-156 0 -301 -108q-64 -49 -116 -108l-49 239q59 62 139 113q179 114 381 114q108 0 189 -24.5t130 -69.5t76.5 -108.5t27.5 -140.5t-17 -165 l-165 -774h-274l111 529q-13 -9 -43 -13q-60 -13 -202 -13q-53 0 -104 -16t-93.5 -54.5t-52.5 -91.5q-14 -56 22.5 -90.5t116.5 -34.5q47 0 113 22q6 2 25.5 9.5t28.5 12.5l-54 -252q-16 -10 -46 -19q-66 -15 -144 -15q-92 0 -163.5 23.5t-116.5 70.5t-60 115z" />
<glyph unicode="&#xe26;" horiz-adv-x="1275" d="M65 0l51 243h82q9 1 14.5 3t9.5 8.5t5.5 10.5t4 15.5t3.5 16.5l57 286q15 81 56 160q14 27 39 57q-10 10 -22.5 23t-23.5 25t-19 19q-65 65 -65 69q69 96 161 173q210 173 466 173q74 0 148.5 -18.5t140.5 -55.5t113.5 -87t67.5 -120t3 -147l-260 -1213 q-12 -59 -102 -139q-38 -34 -89 -67h-125l292 1365q24 109 -42.5 172t-192.5 63q-122 0 -216 -52q-41 -22 -62 -47l137 -136q-20 -17 -48 -49q-53 -62 -76 -168l-75 -351q-23 -102 -94 -164.5t-166 -64.5z" />
<glyph unicode="&#xe27;" horiz-adv-x="1153" d="M92 154l148 246q27 -51 74 -92q102 -92 238 -92q33 0 70.5 11t78 32.5t80 56t73 78t60.5 103.5t40 127q19 85 11.5 149.5t-29.5 109.5t-58 73.5t-75 41.5t-81 13q-142 0 -276 -75q-52 -27 -111 -74l-43 235q52 52 126 92q167 93 353 93q126 0 226.5 -47.5t161.5 -134 t81.5 -208t-12.5 -268.5q-43 -192 -150.5 -340.5t-257 -228t-317.5 -79.5q-193 0 -317 89q-58 36 -94 89z" />
<glyph unicode="&#xe28;" horiz-adv-x="1283" d="M100 0l181 854q9 44 28 85.5t44.5 77t58 67.5t69 58.5t77 49t83 39t85.5 28t86 17.5t83 6q112 0 189 -28q57 23 85.5 57t42.5 97h272q-25 -94 -74.5 -169t-117.5 -104q28 -23 47 -59.5t26.5 -75.5t7.5 -77t-8 -69l-181 -854h-273l181 854q17 85 -53 134.5t-196 49.5 q-114 0 -197.5 -57t-93.5 -127l-46 -227q49 34 97 59q127 62 227 62l-59 -270q-125 0 -239 -50q-46 -19 -81 -49l-80 -379h-271z" />
<glyph unicode="&#xe29;" horiz-adv-x="1228" d="M191 441l173 813h274l-171 -808q-23 -103 14 -166.5t120 -63.5h113q84 0 143.5 59.5t83.5 154.5l32 127h-243l41 189h243l108 508h276l-111 -508h81l-40 -189h-82l-29 -116q-55 -212 -193.5 -338.5t-321.5 -126.5h-189q-121 0 -204.5 60t-114.5 166t-3 239z" />
<glyph unicode="&#xe2a;" horiz-adv-x="1184" d="M130.5 178.5q-18.5 68.5 1.5 162.5q17 78 58.5 144.5t96.5 113t121 79t134 48t134 15.5q164 0 232 13q35 7 49 17l11 45q22 109 -29 162.5t-165 53.5q-156 0 -301 -108q-65 -49 -117 -108l-42 247q51 54 135 108q178 111 379 111q81 0 147 -17q29 9 49.5 20.5t34 23 t23 28t15.5 32t12 39.5h273q-34 -153 -224 -237q62 -57 83 -161t-5 -236l-168 -774h-273l111 529q-15 -6 -60 -16q-72 -13 -222 -13q-46 0 -92.5 -22.5t-79 -59.5t-41.5 -77q-15 -56 21.5 -90.5t116.5 -34.5q57 0 116 24q35 15 54 28l-54 -260q-14 -7 -54 -19 q-66 -15 -116 -15q-93 0 -167.5 22t-126.5 68t-70.5 114.5z" />
<glyph unicode="&#xe2b;" horiz-adv-x="1158" d="M100 0l264 1254h274l-89 -429l524 429h371l-536 -438q29 -7 54.5 -15t56 -21.5t55.5 -32.5t49.5 -43.5t40 -58t25 -73.5t8 -92t-15.5 -112l-77 -368h-276l67 330q11 52 10 95t-8.5 76.5t-23.5 60.5t-33 46t-38 32.5t-39 21.5t-36 11l-257 -216l-99 -457h-271z" />
<glyph unicode="&#xe2c;" horiz-adv-x="1659" d="M289 1254h271l59 -772l341 772h180l11 -772l273 532q22 34 25 64q17 87 -43 158q-35 34 -65 51q90 31 168 81q168 104 199 244h279q-11 -50 -33 -91.5t-52.5 -73t-60.5 -54t-68 -44.5q-69 -40 -171 -62q35 -12 66 -38q62 -57 52 -140q-4 -29 -19.5 -66.5t-31.5 -68 t-18 -35.5l-467 -939h-227l-21 725l-322 -725h-227z" />
<glyph unicode="&#xe2d;" horiz-adv-x="1261" d="M162 462q49 232 233 232h307l-50 -245l-170 2q-22 6 -35.5 -5.5t-13.5 -34.5q0 -50 18.5 -88.5t50.5 -61t71 -34t84 -11.5q162 0 260.5 98.5t145.5 309.5q20 103 11.5 180t-42 128t-85 77t-117.5 26q-144 0 -254 -111q-53 -53 -78 -108h-266q46 131 136 233q32 37 68 69 t85 63t102.5 52.5t121 35t139.5 13.5q83 0 152.5 -17t118.5 -47.5t87 -71t60.5 -90t36 -102.5t16 -110.5t-2.5 -111.5t-16 -108q-32 -154 -103.5 -278t-169 -204t-215 -123t-245.5 -43q-160 0 -272 62.5t-156.5 173.5t-12.5 250z" />
<glyph unicode="&#xe2e;" horiz-adv-x="1261" d="M162 462q9 47 25 86t42.5 73t67.5 53.5t92 19.5h313l-50 -245h-168q-47 0 -51 -41q-4 -61 28.5 -105.5t84 -65.5t111.5 -21q157 0 258.5 99.5t147.5 308.5q28 137 3 229t-87 138.5t-151 46.5q-142 0 -252 -111q-54 -54 -78 -107h-266q47 129 136 229q201 233 511 233 q40 0 64 -1t64 -8.5t71 -21.5q55 16 84 53t43 104h263q-22 -92 -88 -168.5t-139 -101.5q56 -62 85 -147.5t29 -176.5t-19 -190q-32 -154 -103.5 -278t-169 -204t-215 -123t-245.5 -43q-159 0 -270 63t-155 173t-16 250z" />
<glyph unicode="&#xe2f;" horiz-adv-x="1169" d="M325 1152q-3 49 0 102h268q1 -28 2 -44t3.5 -39.5t5 -36.5t7.5 -31t11 -27.5t15 -22t20.5 -19t26.5 -12.5t33.5 -8.5t41.5 -2.5q92 0 176.5 63t137.5 180h263l-173 -813q-19 -87 -45.5 -155.5t-60.5 -116.5t-72.5 -81t-86 -52.5t-97 -27.5t-109.5 -8l51 243h3 q18 0 26 0.5t21.5 3t20 7.5t16.5 14.5t16.5 24.5t15 36.5t15.5 51t15 68.5l89 425q-48 -38 -81 -52q-87 -51 -219 -51q-61 0 -112.5 14.5t-89 39.5t-66 61t-46.5 78t-28.5 90.5t-13.5 97.5z" />
<glyph unicode="&#xe30;" horiz-adv-x="823" d="M189 421l27 139h262l-19 -95q-3 -18 -1 -30t13 -20t32 -11.5t57 -3.5h248l-151 -238h-236q-150 0 -204 65.5t-28 193.5zM308 904.5q-5 50.5 9 111.5l24 130h262l-22 -99q-9 -37 11.5 -51.5t88.5 -14.5h250l-150 -238h-242q-80 0 -131 19.5t-73 55.5t-27 86.5z" />
<glyph unicode="&#xe31;" d="M-357.5 1634q-1.5 36 9.5 82l26 128h265l-18 -92q-7 -37 11 -51t82 -14h503l-150 -230h-492q-35 0 -63 3t-56.5 11t-48 21t-36.5 32.5t-24 46.5t-8.5 63z" />
<glyph unicode="&#xe32;" horiz-adv-x="1026" d="M248 900l52 240q64 52 108 72q132 70 265 70q104 0 192 -33.5t148 -94t83.5 -152.5t0.5 -202l-170 -800h-272l165 774q9 49 7 87.5t-17.5 67.5t-36.5 49.5t-49 33t-56 18t-57 5.5q-95 0 -243 -67q-43 -20 -120 -68z" />
<glyph unicode="&#xe33;" horiz-adv-x="1026" d="M-263 1720q11 55 43 105t75 85t94.5 56t101.5 21q116 0 175.5 -76.5t36.5 -190.5q-23 -108 -117.5 -185.5t-202.5 -77.5t-169 77.5t-37 185.5zM-87 1720q-5 -23 2 -41.5t24 -29.5t40 -11q31 0 57 23.5t34 58.5q6 33 -12 56.5t-50 23.5q-31 0 -60 -24t-35 -56zM248 900 l52 240q64 52 108 72q132 70 265 70q104 0 192 -33.5t148 -94t83.5 -152.5t0.5 -202l-170 -800h-272l165 774q9 49 7 87.5t-17.5 67.5t-36.5 49.5t-49 33t-56 18t-57 5.5q-95 0 -243 -67q-43 -20 -120 -68z" />
<glyph unicode="&#xe34;" d="M-741 1457l146 225h789l-45 -225h-890z" />
<glyph unicode="&#xe35;" d="M-741 1457l148 233h523l32 154h268l-81 -387h-890z" />
<glyph unicode="&#xe36;" d="M-741 1457l146 233h338q3 18 17 41q32 73 104.5 120t146.5 47q46 0 82 -14t57 -37t34.5 -52t14 -60t-4.5 -61q-11 -49 -42 -91.5t-71 -69t-81.5 -41.5t-77.5 -15h-663zM-73 1676q-5 -15 5.5 -28t26.5 -13q10 0 19.5 6t16 15t10.5 20q2 17 -5.5 28.5t-23 11.5t-29 -11.5 t-20.5 -28.5z" />
<glyph unicode="&#xe37;" d="M-741 1457l148 233h307l31 154h190l-33 -154h82l27 154h219l-81 -387h-890z" />
<glyph unicode="&#xe38;" d="M-601 -438l55 237h143q124 0 182 -59t32 -176l-51 -235h-273l35 168q6 26 -7 45.5t-39 19.5h-77z" />
<glyph unicode="&#xe39;" d="M-965 -438l54 237h168q59 0 107.5 -22t75 -65.5t16.5 -98.5q-9 -42 -3.5 -57t28.5 -15q19 0 31 5.5t21 21t16 43.5l40 188h274l-54 -248q-8 -35 -21 -66t-42 -66t-69.5 -60t-107 -42t-150.5 -17q-76 0 -131.5 16t-84.5 44t-39 62.5t-2 74.5q6 26 -7 45.5t-39 19.5h-81z " />
<glyph unicode="&#xe3a;" d="M-467 -454l56 253h274l-57 -253h-273z" />
<glyph unicode="&#xe3f;" horiz-adv-x="1148" d="M100 0l300 1416h260l49 225h264l-52 -233q152 -22 225 -121t46 -230q-24 -109 -100 -195t-186 -116q132 -24 197 -108.5t35 -216.5q-22 -106 -97 -197t-184 -148.5t-233 -72.5l-48 -227h-264l47 224h-259zM421 240h149q65 0 120 17.5t90.5 45t57 58.5t27.5 60 q4 31 3.5 60t-17 55t-43.5 45.5t-75 31t-111 11.5h-119zM557 870h103q24 0 49 3t60 13t63 26.5t51 47t30 70.5q6 29 3 51.5t-18.5 38.5t-33 26t-41 16.5t-43.5 8.5t-39 2h-119z" />
<glyph unicode="&#xe40;" horiz-adv-x="539" d="M145 123q-7 44 4 109l215 1022h274l-202 -957q-9 -23 -7 -37.5t22 -16.5h81l-50 -243h-165q-43 0 -77 12t-61 39.5t-34 71.5z" />
<glyph unicode="&#xe41;" horiz-adv-x="1061" d="M149 232l215 1022h274l-202 -957q-9 -23 -7 -37.5t22 -16.5h81l-50 -243h-185q-86 0 -128.5 59t-19.5 173zM668 232l216 1022h274l-201 -957q-8 -23 -6.5 -37.5t22.5 -16.5h82l-52 -243h-181q-87 0 -132.5 59.5t-21.5 172.5z" />
<glyph unicode="&#xe42;" horiz-adv-x="683" d="M292 232l192 908q18 78 25 148.5t5.5 112.5t-0.5 87.5t7 77.5q28 126 151 203.5t318 77.5h364l-51 -241h-209q-149 0 -223 -16t-82 -55q-3 -22 -3 -63t1.5 -79t-6 -107t-25.5 -146l-178 -843q-7 -23 -4.5 -37.5t19.5 -16.5h80l-49 -243h-183q-83 0 -127.5 65.5 t-21.5 166.5z" />
<glyph unicode="&#xe43;" horiz-adv-x="867" d="M351 1663q56 60 111 104q135 109 265 109q56 0 105.5 -10t93 -30.5t75 -52t52 -76t23.5 -101.5t-11 -128q-11 -53 -29 -98.5t-34 -75.5t-37 -90.5t-38 -140.5l-161 -768q-8 -23 -6 -37.5t19 -16.5h80l-51 -251h-173q-95 0 -139 64.5t-21 167.5l180 841q18 92 48 169.5 t55.5 135t33.5 100.5q4 17 4 33.5t-2.5 34t-11.5 32.5t-22.5 27t-35.5 18.5t-51 6.5q-91 0 -191 -100q-50 -50 -87 -100z" />
<glyph unicode="&#xe44;" horiz-adv-x="926" d="M338 1606l54 243q29 0 58.5 -10t52.5 -26.5t43 -34.5t34.5 -36.5t22.5 -30t11 -16.5q20 33 67 75q82 77 193 77q51 0 90 -17.5t62.5 -48t37 -70.5t16.5 -89t-1.5 -98.5t-15.5 -101.5l-241 -1122q-8 -23 -6 -38t22 -16h81l-52 -246h-167q-102 0 -144.5 63.5t-19.5 168.5 l253 1190q2 8 5.5 24.5t5.5 28t5 28t3.5 28t0.5 25t-3.5 22.5t-9 16.5t-15 10.5t-22.5 1q-5 0 -10.5 -2t-10 -4.5t-11 -7t-11 -8t-11.5 -10.5l-11.5 -11.5t-12 -13t-11.5 -13t-12.5 -14t-12.5 -13.5q-34 -43 -67 -93q-11 38 -46 95q-73 95 -194 95z" />
<glyph unicode="&#xe45;" horiz-adv-x="1026" d="M248 900l52 240q61 49 111 72q142 70 281 70q97 0 180.5 -33t142.5 -95t82 -151.5t0 -202.5l-248 -1159q-7 -35 -34 -68t-69 -71q-41 -37 -89 -67h-125l288 1339q9 52 6 92t-20 69t-38.5 48.5t-50.5 30.5t-54.5 16t-51.5 5q-95 0 -243 -67q-43 -20 -120 -68z" />
<glyph unicode="&#xe46;" horiz-adv-x="1189" d="M251 908q16 71 54.5 138t91.5 119.5t121.5 84.5t138.5 32q28 0 52.5 -24.5t53.5 -68.5q21 -35 42 -92q55 64 87 92q49 44 85 68.5t63 24.5q44 0 81.5 -12.5t65 -33.5t48.5 -50t33.5 -62.5t18.5 -70t4.5 -73.5t-9.5 -72l-271 -1267q-7 -35 -33.5 -68t-69.5 -71 q-41 -37 -88 -67h-126l304 1419q16 68 12.5 108t-17 56.5t-36.5 16.5q-28 0 -119 -102q-9 -11 -26 -30t-33 -37.5t-31 -35.5q-18 45 -48 103q-4 7 -12 20q-13 22 -19 32.5t-15.5 24t-16.5 19.5t-13 6t-15 -2.5t-21.5 -11t-23.5 -21.5t-22 -37t-18 -55q-16 -74 20 -132 q12 -28 37 -41l-137 -219q-73 24 -122 73q-115 115 -71 319z" />
<glyph unicode="&#xe47;" d="M-647.5 1589.5q-10.5 43.5 2.5 100.5q10 45 28.5 83t44 66.5t56.5 49.5t68 35t76 21.5t83 9.5l216 5q103 0 208 75q33 22 92 73l-54 -256q-37 -16 -81 -28q-103 -26 -200 -26h-189q-74 0 -111 -31t-46 -77q-7 -29 10 -55t55 -26q57 0 95 54q14 18 34 57h69q0 -25 5 -57 q7 -27 15 -40.5t24 -13.5q40 0 68 31t38 80h185q-12 -49 -38.5 -95.5t-63.5 -84t-88 -60.5t-106 -23q-50 0 -88 49q-15 18 -28 49q-18 -25 -51 -49q-68 -49 -132 -49q-48 0 -88 15t-69 44.5t-39.5 73z" />
<glyph unicode="&#xe48;" d="M-62 1457l80 387h271l-80 -387h-271z" />
<glyph unicode="&#xe49;" d="M-438 1609l49 235h278q41 0 68.5 -30t21.5 -70q-6 -22 5 -38t29 -16h428l-149 -233h-486q-55 0 -86.5 24t-19.5 74q10 54 -38 54h-100z" />
<glyph unicode="&#xe4a;" d="M-597.5 1579.5q0.5 10.5 2.5 29.5q6 32 20 61.5t33 53t42.5 43.5t49 34.5t51.5 25t51.5 15.5t47.5 5q19 0 36 -9t24.5 -17.5t20.5 -25.5q9 -17 18 -51q20 27 41 49q52 51 101 51q69 0 125.5 -40.5t47.5 -87.5q-2 -6 -3 -11t0 -7.5t1.5 -4.5t4 -2.5t4.5 -1t6.5 0t7.5 0.5 h306l-149 -233h-281q-36 0 -58.5 16t-29 40.5t-7 48.5t5.5 47q7 33 -3 57t-35 24q-55 0 -70 -81h-85q4 14 4.5 19t2.5 17.5t0 18t-6 13t-13 10.5t-22 3q-22 0 -43.5 -25t-27.5 -56q-5 -10 -3.5 -24t3 -22t7.5 -21t10 -20t11 -19q19 -28 43 -46h-241q-12 12 -30 46 q-6 15 -9.5 24t-8 25.5t-4 27z" />
<glyph unicode="&#xe4b;" d="M-181 1530l52 237h132l15 77h271l-16 -79h135l-49 -235h-135l-15 -73h-271l16 73h-135z" />
<glyph unicode="&#xe4c;" d="M-379 1457l25 101q15 65 69.5 131.5t131.5 110.5t150 44h219l-151 -235h-47q-50 0 -72.5 -24.5t-37.5 -81.5l-11 -46h-276z" />
<glyph unicode="&#xe4d;" d="M-263 1716q23 110 117.5 190.5t196.5 80.5q114 0 173 -78.5t39 -192.5q-23 -108 -117.5 -184.5t-202.5 -76.5t-169 77t-37 184zM-87 1716q-8 -34 11.5 -57.5t54.5 -23.5q20 0 39 10.5t33 29t19 41.5q4 21 -3 40t-23 30.5t-36 11.5q-33 0 -61 -24.5t-34 -57.5z" />
<glyph unicode="&#xe4e;" d="M-397.5 1535.5q-4.5 32.5 5.5 66.5q14 63 51 112.5t85.5 78t100 42.5t101.5 14q11 56 61.5 95.5t123 57.5t161.5 18l-29 -142q-87 0 -147.5 -54.5t-89.5 -185.5q-147 0 -170 -103q-10 -37 9 -62q9 -12 19 -16h-255q-9 13 -15.5 29.5t-11 49z" />
<glyph unicode="&#xe4f;" horiz-adv-x="1313" d="M202 352q-8 83 9 177q24 115 90 218.5t156.5 177.5t202.5 117.5t224 43.5q93 0 173 -28t137 -78t94.5 -120t46 -153.5t-9.5 -177.5q-32 -153 -133 -280t-245 -200t-298 -73q-92 0 -171 27.5t-136 77.5t-94.5 119t-45.5 152zM404 389q16 -66 54 -115t99 -77.5t132 -28.5 q100 0 194 48.5t159.5 132t87.5 180.5q21 100 -10 183.5t-104.5 131.5t-172.5 48q-95 0 -188.5 -47.5t-160.5 -131.5t-89 -184q-17 -74 -1 -140zM521 529q15 68 60 124.5t108 89.5t131 33q103 0 159.5 -72t34.5 -175q-23 -102 -110.5 -173.5t-189.5 -71.5q-103 0 -159 71.5 t-34 173.5z" />
<glyph unicode="&#xe50;" horiz-adv-x="1256" d="M161 352q-8 83 9 177q24 112 92 216t161 180t207 121.5t226.5 45.5t208 -45.5t157 -121t86 -180t0.5 -216.5q-24 -114 -94 -217.5t-165.5 -177t-211.5 -117t-228 -43.5q-92 0 -171.5 27.5t-136.5 78t-94.5 120t-45.5 152.5zM437.5 405q12.5 -58 43 -102t81 -69t111.5 -25 q124 0 231 94t136 226q16 66 3 124.5t-44 102.5t-81 69.5t-110 25.5q-123 0 -230.5 -94.5t-136.5 -227.5q-16 -66 -3.5 -124z" />
<glyph unicode="&#xe51;" horiz-adv-x="1256" d="M179.5 496q-3.5 59 11.5 131q19 91 80 175.5t147 147.5t197.5 101t225.5 38q124 0 223 -42t160.5 -119.5t83.5 -188.5t-8 -249q-19 -90 -60.5 -170t-95 -138.5t-118.5 -107.5t-132 -81t-135.5 -54.5t-128.5 -32t-111 -9.5q-7 0 -66.5 1.5t-65.5 1.5l119 232h10 q51 0 111 13t124.5 42.5t120 70t98 101t57.5 131.5q18 90 8 157t-44.5 111t-85 66t-113.5 22q-40 0 -78 -7.5t-68.5 -20.5t-57.5 -30.5t-47 -37.5t-36 -41.5t-26 -42t-14 -39.5q-16 -62 -4.5 -101t30.5 -57t38 -18t32.5 7.5t22 23t14 32t11.5 43.5l10 52h273l-18 -103 q-8 -34 -22.5 -68t-45.5 -76.5t-73 -74.5t-108.5 -54t-146.5 -22q-38 0 -77.5 11t-77.5 33t-68.5 56t-51 80t-24 105z" />
<glyph unicode="&#xe52;" horiz-adv-x="1540" d="M312 1387l50 241h41q55 0 105 -16t86.5 -43.5t68 -63.5t49.5 -76.5t30.5 -82.5t12 -82t-6.5 -75l-155 -740q-12 -54 -7.5 -93.5t16 -66.5t33 -43t44.5 -23t48 -7h354q76 0 133 45.5t78 138.5l60 276q51 232 -49 232q-44 0 -98 -54q-8 -8 -47 -54q-12 28 -25 54 q-33 54 -73 54q-37 0 -67.5 -35t-40.5 -84q-9 -34 3.5 -58t32 -35.5t56.5 -17.5t58 -6.5t56 -0.5h5l-52 -243q-45 0 -77 1t-72 5t-67 11t-57.5 20.5t-49 32t-35 45.5t-22 62t-4 81.5t13.5 102.5q7 32 22 69t43 80.5t63.5 78t86 57.5t107.5 23q69 0 105 -65q12 -20 27 -64 q25 32 62 64q80 65 146 65q47 0 85 -14.5t63.5 -39t44 -58t28 -71.5t12.5 -79.5t0 -81t-11 -77.5l-62 -292q-28 -130 -105.5 -223.5t-185 -139t-234.5 -45.5h-429q-61 0 -119 26.5t-103.5 78t-63.5 128t2 175.5l173 813q9 44 6 79t-20.5 60t-60.5 38t-111 13z" />
<glyph unicode="&#xe53;" horiz-adv-x="1529" d="M167 287q-21 106 6 249q56 258 193.5 405.5t339.5 147.5q136 0 202 -145q31 -73 38 -144q52 88 98 144q124 145 259 145q114 0 190 -67t101 -190t-10 -296q-53 -220 -168 -396q-56 -85 -111 -140h-258q48 59 104 154q117 196 157 382q31 154 5.5 233.5t-99.5 79.5 q-39 0 -72 -24.5t-61.5 -74.5t-52 -124t-45.5 -177h-248q42 186 28.5 293t-90.5 107q-15 0 -32 -5.5t-38 -18t-42 -36t-41 -56.5t-39 -84t-32 -113q-33 -152 9 -236t151 -84q43 0 102 14q26 3 55 13l-49 -219q-16 -13 -44 -27q-54 -23 -121 -23q-88 0 -166 34t-138 103.5 t-81 175.5z" />
<glyph unicode="&#xe54;" horiz-adv-x="1486" d="M155 358q-2 77 15 163q12 55 28.5 108t42 107.5t57 102t73 90t89 72t108 47t126.5 17.5h425q38 0 68.5 4.5t63 18t56.5 36t44.5 61.5t30.5 91l75 357l276 -5l-98 -441q-16 -76 -52 -137t-82 -100.5t-102 -66.5t-112 -38.5t-114 -11.5h-446q-71 0 -131.5 -44.5 t-98.5 -114.5t-56 -158q-32 -140 1.5 -206.5t150.5 -66.5l372 -3q-61 37 -114 98q-110 131 -72 294h281q-22 -115 -1.5 -201.5t84.5 -137t157 -50.5h135l-48 -243h-909q-70 0 -129.5 27t-100 75t-66 113.5t-27.5 142.5z" />
<glyph unicode="&#xe55;" horiz-adv-x="1491" d="M156 393q-3 62 12 123q16 77 44.5 151.5t75 147.5t103.5 128t134.5 88.5t163.5 33.5h52q0 12 5 49q23 103 112 177t191 74q104 0 162 -73.5t40 -177.5q-2 -3 -4 -8t-2.5 -8.5t-2 -7.5t-4.5 -6q33 13 57 31t39.5 37t28 50.5t20 60.5t18.5 78l59 292h276l-90 -428 q-21 -96 -65 -169t-104.5 -116.5t-130.5 -65t-149 -21.5h-456q-75 0 -137 -44.5t-100.5 -114.5t-57.5 -158q-20 -87 -15.5 -147.5t43 -93t112.5 -32.5h384q-59 32 -113 95q-110 131 -73 294h281q-18 -85 -4.5 -156.5t47.5 -123t81 -80.5t95 -29h157l-48 -243h-909 q-60 0 -113 21t-90.5 58t-66.5 87t-42 107.5t-16 119.5zM913 1097q-7 -34 11.5 -57.5t53.5 -23.5h9q33 7 58 28.5t31 52.5q6 33 -13 57.5t-52 24.5q-34 0 -63 -24.5t-35 -57.5z" />
<glyph unicode="&#xe56;" horiz-adv-x="1675" d="M312 1387l52 243h57q82 0 148.5 -18.5t114 -50.5t83.5 -82.5t58 -105t36.5 -127t21 -140.5t9.5 -154q43 43 101 72q131 73 289 73q61 0 115.5 -9.5t99 -27.5t82 -43.5t66 -56.5t49.5 -67.5t33.5 -76.5t18 -83t3 -87t-12.5 -89q-20 -90 -62 -174.5t-106 -158t-142.5 -129 t-177 -87.5t-204.5 -32q-86 0 -158.5 26t-121.5 68t-85.5 99t-56.5 114.5t-29 119.5h277q17 -89 78.5 -138t145.5 -49q35 0 75.5 11.5t86.5 38.5t86 65t73 97t48 129q15 71 1.5 126t-49 92.5t-83.5 56.5t-102 19q-62 0 -115.5 -22.5t-95.5 -65t-73.5 -91t-61.5 -112.5h-249 q-3 126 -5.5 200t-9 167.5t-16 145t-25.5 112.5t-39 91.5t-55.5 60t-75 40t-97.5 10.5z" />
<glyph unicode="&#xe57;" horiz-adv-x="2007" d="M159 359.5q-4 83.5 14 176.5q54 247 188 391t302 144q49 0 89 -21t64 -51.5t42 -69t25.5 -69t13 -58t6.5 -28.5l6 11t13.5 24.5t21 34t27.5 40.5t33.5 43t40 43t46 39t51.5 32t56.5 21.5t60.5 8.5q111 0 183.5 -62.5t96.5 -181.5t-12 -291q-26 -116 -43.5 -165 t-56.5 -116q67 8 107 60t66 172l157 741q28 131 105 222.5t187.5 135.5t245.5 44h37l-50 -243q-68 0 -113.5 -9.5t-73.5 -32t-42 -51.5t-23 -74l-173 -815q-16 -77 -56 -144.5t-91 -114t-110.5 -80.5t-116 -50t-105.5 -16h-400q57 64 114 154q119 183 162 382 q33 154 16 221.5t-91 67.5q-158 0 -227 -319h-219q30 143 4.5 231t-97.5 88q-17 0 -32 -3.5t-34 -13.5t-35 -30.5t-33 -51t-32 -79t-28 -111.5q-31 -147 13.5 -233.5t135.5 -86.5q36 0 107 16q53 15 61 19l-46 -227q-42 -14 -65 -24q-64 -24 -111 -24q-83 0 -152.5 29 t-117 80t-78 121t-34.5 153.5z" />
<glyph unicode="&#xe58;" horiz-adv-x="1491" d="M171 239.5q-32 124.5 2 296.5q18 82 54 159t89.5 144t119 117.5t148 79.5t170.5 29h373q38 0 68.5 5t63.5 19t58 36.5t45 62t31 91.5l72 354h273l-84 -397q-20 -96 -60.5 -169.5t-89 -117.5t-109.5 -72.5t-117.5 -38.5t-117.5 -10h-363q-60 0 -111 -15.5t-89 -42.5 t-68 -65t-49 -82.5t-31 -95.5q-22 -102 -15 -171t33 -104.5t65 -35.5q29 0 62 21.5t60 52t52 69.5q38 59 75 144q19 -78 49 -144q70 -143 173 -143q37 0 66 8.5t57 29t48 60t31 97.5l15 71h272l-14 -71q-13 -73 -39 -135t-69.5 -118t-101 -96t-138.5 -63t-178 -23 q-128 0 -198 86q-30 38 -45 90q-23 -44 -69 -90q-86 -86 -189 -86q-96 0 -172 69.5t-108 194z" />
<glyph unicode="&#xe59;" horiz-adv-x="1783" d="M160 359.5q-5 83.5 13 176.5q21 97 64 186t96.5 154t113 114t117 74t104.5 25q49 0 90 -14t72 -39.5t52 -52t42 -62.5q33 116 111 185.5t179 69.5q44 0 84 -14t67.5 -35t54.5 -45.5t47 -45.5t42.5 -35t42.5 -14q12 0 22 5.5t19.5 18.5t17 26t16 38.5t14.5 45t14.5 55.5 t14 59.5t14.5 67.5l70 330h276l-70 -330q-13 -58 -25 -102t-33 -105.5t-44 -106.5t-58 -93.5t-74.5 -79t-94 -50.5t-117.5 -20q-58 0 -108 19.5t-82.5 47.5t-60.5 55.5t-54.5 46t-50.5 16.5q-72 -19 -93 -93q0 -5 -1 -14.5t-1 -13.5l13 -147q24 -291 49 -663h-268l-52 714 q-6 57 -43.5 100t-85.5 43q-18 0 -40 -8t-49.5 -30.5t-52.5 -57t-49 -93t-39 -132.5q-32 -146 4.5 -233t125.5 -87q39 0 105 22q9 4 28.5 11t28.5 11l-49 -234l-6 -3q-23 -13 -40 -21t-55.5 -17t-81.5 -9q-70 0 -131.5 29t-106 80t-74 121t-34.5 153.5z" />
<glyph unicode="&#xe5a;" horiz-adv-x="1574" d="M325 1254h268q2 -52 6 -84.5t14 -66t27 -51.5t45 -29.5t69 -11.5q97 0 181.5 62.5t137.5 180.5h263l-173 -813q-11 -51 -23.5 -93t-29 -84.5t-37.5 -75.5t-47.5 -64t-59.5 -53t-73.5 -38.5t-91 -24.5t-109.5 -8l51 243h16q17 -1 25 -0.5t20.5 3.5t18 9t14.5 18t14.5 29 t14 44.5t16.5 61.5t18 82l81 384q-40 -35 -78 -52q-87 -51 -235 -51q-81 0 -143.5 27.5t-101.5 73.5t-63 109.5t-31.5 131t-3.5 141.5zM1203 0l265 1254h273l-265 -1254h-273z" />
<glyph unicode="&#xe5b;" horiz-adv-x="2043" d="M197.5 399.5q0.5 56.5 11.5 113.5q16 74 46 143.5t73 133.5t100.5 117t125.5 93t152 62t176 22q281 0 369 -230q38 -108 31 -230h-268q0 65 -19 111q-42 114 -162 114q-52 0 -106.5 -23t-103 -64.5t-86 -106t-53.5 -142.5q-14 -76 -2 -132t47 -93.5t81 -55.5t99 -18 q96 0 204 78q38 27 93 82l113 -134l138 136l97 -136l147 144q17 -53 39 -87q15 -20 24.5 -32.5t24 -26.5t31 -20.5t34.5 -6.5q38 0 60.5 18.5t29.5 46.5q11 59 -24 116q-16 28 -41 49h265q27 -22 37 -46q33 -59 16 -144q-5 -25 -19 -53.5t-35 -60t-52 -60t-68 -51.5 t-85 -36.5t-100 -13.5q-80 0 -140 86q-27 41 -38 90l-141 -136l-94 136l-136 -136l-111 136q-54 -63 -94 -90q-118 -88 -229 -88q-72 0 -136 15.5t-113 44t-89 68t-64.5 87t-40 101t-15 110z" />
<glyph unicode="&#x2000;" horiz-adv-x="1216" />
<glyph unicode="&#x2001;" horiz-adv-x="2433" />
<glyph unicode="&#x2002;" horiz-adv-x="1216" />
<glyph unicode="&#x2003;" horiz-adv-x="2433" />
<glyph unicode="&#x2004;" horiz-adv-x="811" />
<glyph unicode="&#x2005;" horiz-adv-x="608" />
<glyph unicode="&#x2006;" horiz-adv-x="405" />
<glyph unicode="&#x2007;" horiz-adv-x="405" />
<glyph unicode="&#x2008;" horiz-adv-x="304" />
<glyph unicode="&#x2009;" horiz-adv-x="486" />
<glyph unicode="&#x200a;" horiz-adv-x="135" />
<glyph unicode="&#x2010;" horiz-adv-x="836" d="M209 513l48 225h638l-49 -225h-637z" />
<glyph unicode="&#x2011;" horiz-adv-x="836" d="M209 513l48 225h638l-49 -225h-637z" />
<glyph unicode="&#x2012;" horiz-adv-x="836" d="M209 513l48 225h638l-49 -225h-637z" />
<glyph unicode="&#x2013;" horiz-adv-x="1120" d="M209 513l48 225h922l-49 -225h-921z" />
<glyph unicode="&#x2014;" horiz-adv-x="1635" d="M209 513l48 225h1435l-49 -225h-1434z" />
<glyph unicode="&#x2018;" horiz-adv-x="472" d="M305 973l43 206q28 130 165 248q43 37 136 95h290q-88 -52 -144 -98q-151 -129 -173 -245l-44 -206h-273z" />
<glyph unicode="&#x2019;" horiz-adv-x="475" d="M65 973q78 46 141 98q148 126 173 242l42 209h276l-42 -209q-26 -124 -165 -242q-53 -46 -136 -98h-289z" />
<glyph unicode="&#x201c;" horiz-adv-x="851" d="M305 973l43 206q28 130 165 248q43 37 136 95h257q-70 -43 -132 -98q-141 -129 -163 -245l-43 -206h-263zM694 973l44 206q26 125 175 248q48 37 147 95h256q-83 -49 -143 -98q-150 -129 -172 -245l-44 -206h-263z" />
<glyph unicode="&#x201d;" horiz-adv-x="854" d="M65 973q78 46 141 98q148 126 173 242l42 209h265l-46 -209q-10 -47 -40 -94.5t-61 -79t-74 -68.5q-75 -58 -143 -98h-257zM475 973q76 49 131 98q137 126 162 242l45 209h263l-44 -209q-26 -124 -165 -242q-56 -49 -134 -98h-258z" />
<glyph unicode="&#x2022;" horiz-adv-x="782" d="M232 630q27 124 130 209t227 85q122 0 187.5 -85.5t39.5 -208.5q-27 -121 -128.5 -205t-222.5 -84q-80 0 -140 38.5t-85 105t-8 145.5z" />
<glyph unicode="&#x2026;" horiz-adv-x="1607" d="M100 0l52 251h276l-54 -251h-274zM668 0l51 251h276l-54 -251h-273zM1236 0l51 251h276l-54 -251h-273z" />
<glyph unicode="&#x202f;" horiz-adv-x="486" />
<glyph unicode="&#x205f;" horiz-adv-x="608" />
<glyph unicode="&#x20ac;" horiz-adv-x="1486" d="M191 438l41 186h136l13 68q2 4 8.5 34t13.5 48h-138l37 188h176q272 473 787 473q278 0 411 -73l-146 -237q-134 72 -322 72q-132 0 -245.5 -61.5t-186.5 -173.5h506l-41 -188h-563q-14 -37 -23 -82q-6 -17 -12 -68h511l-40 -186h-454q20 -60 60 -106t88.5 -70.5t96 -36 t93.5 -11.5q49 0 95 7.5t95 24.5t80.5 30.5t88.5 40.5l46 -234q-200 -107 -484 -107q-91 0 -172.5 19.5t-149 58.5t-117.5 94t-78.5 129.5t-30.5 160.5h-180z" />
<glyph unicode="&#x2122;" horiz-adv-x="1063" d="M379 1313l13 65h335l-13 -65h-128l-86 -413h-79l90 413h-132zM668 900l103 478h88l80 -359l237 359h81l-99 -478h-69l77 357l-245 -357h-26l-75 357l-77 -357h-75z" />
<glyph unicode="&#x25fc;" horiz-adv-x="1066" d="M0 0v1068h1068v-1068h-1068z" />
<glyph horiz-adv-x="869" />
<glyph horiz-adv-x="1234" d="M265 1014q46 67 127 132q181 136 436 136q103 0 224 -46q60 18 96 59.5t52 112.5h273q-9 -35 -24 -70t-34.5 -65.5t-43.5 -58t-49.5 -48.5t-53 -36.5t-54.5 -23.5q51 -57 79.5 -136.5t30.5 -158.5t-13 -159q-23 -111 -66.5 -206.5t-101 -166t-126 -124.5t-146 -87.5 t-157.5 -50.5t-162 -17h-127l-20 411q-1 6 -3 15t-2.5 11.5t-3.5 6t-8 4.5t-14 1h-72l52 245h133q28 0 50.5 -3t50.5 -14.5t47.5 -31t34 -56.5t16.5 -86l11 -257q44 0 96.5 31.5t100.5 84.5t88 130t58 160q11 51 12 95.5t-6 78.5t-20.5 63t-31.5 50t-40 37.5t-45 26.5 t-47.5 17t-46 9.5t-41.5 2.5q-187 0 -346 -126q-67 -52 -123 -125z" />
<glyph horiz-adv-x="1973" d="M216 232l76 351q2 11 4.5 22t5.5 21.5t6 19t7 19t6.5 17t7 17.5t6.5 15t7 15.5t6 13.5q18 35 36 57q-10 10 -22 23t-23.5 25t-19.5 19q-62 62 -62 69q75 99 164 173q210 173 438 173q90 0 171.5 -18.5t148.5 -55t112.5 -87t63 -119.5t-0.5 -148l-89 -424q-7 -39 -9.5 -69 t1.5 -58t16 -46.5t35 -29.5t57 -11h113q84 0 140 59.5t74 154.5l173 824h273l-173 -813q-13 -65 -40 -128.5t-71.5 -125t-100.5 -108t-133.5 -75t-164.5 -28.5h-217q-72 0 -125 24.5t-84 67.5t-45 102t-11.5 127t20.5 144l75 359q13 61 0 105t-49 73t-85.5 43t-111.5 14 q-120 0 -208 -52q-38 -21 -57 -47l137 -136q-18 -13 -54 -49q-58 -69 -80 -168l-62 -283q-9 -23 -7 -38t22 -16h93l-52 -246h-151q-124 -2 -167.5 60.5t-19.5 171.5z" />
<glyph d="M-779 1692q56 263 354 263h162q107 0 209 67q45 25 90 70l-44 -237q-31 -14 -84 -28q-103 -27 -202 -27h-136q-74 0 -111.5 -31t-47.5 -77q-7 -30 1 -55t36 -25q52 0 85 54q4 8 23 54h52q-3 -21 3 -54q4 -18 9 -28.5t16.5 -18t28.5 -7.5q36 0 67 38t38 70h186 q-25 -116 -106 -189.5t-191 -73.5q-49 0 -87 49q-9 12 -26 52q-18 -31 -38 -52q-20 -15 -33.5 -24t-37 -17t-48.5 -8q-92 0 -142 63t-26 172z" />
<glyph d="M-144 2120l52 235h265q41 0 68 -30t19 -70q-6 -23 5.5 -39t34.5 -16h303l-149 -235h-343q-60 0 -89.5 29t-21.5 72q9 54 -36 54h-108z" />
<glyph d="M-263 2058q13 58 47.5 106t76.5 75t82.5 41.5t72.5 14.5q39 0 67 -51q14 -27 17 -51q13 22 37 51q52 51 101 51q41 0 74 -15.5t54.5 -44.5t30.5 -68q1 -6 1.5 -10.5t2 -7.5t1.5 -4.5t3 -2.5t3.5 -1h5.5h7l168 -3l-148 -232h-149q-69 0 -92 30.5t-14 77.5q1 4 2 13 q2 15 3 23.5t2 24t-0.5 25t-5 19.5t-11.5 14.5t-19 4.5q-21 0 -37 -23.5t-22 -56.5h-54q8 27 3 53.5t-26 26.5q-18 0 -39.5 -25t-27.5 -55q-10 -52 22 -106q15 -29 32 -46h-217q-22 23 -34 46q-33 55 -20 106z" />
<glyph horiz-adv-x="2146" d="M219 232l75 351q3 13 6 25.5t6 22t7.5 22.5t7 19.5t8.5 20.5t7.5 17t8 17.5t6.5 15.5q18 35 36 57q-10 10 -22.5 23t-23.5 25t-19 19q-65 65 -65 69q69 90 168 173q215 173 451 173q155 0 281 -58.5t179 -160.5q31 38 72 72.5t99 69.5t136.5 56t164.5 21q99 0 183 -33 t142 -95t81 -151.5t0 -202.5l-246 -1159q-7 -35 -33.5 -68t-69.5 -71q-41 -37 -88 -67h-128l286 1339q9 52 6.5 92t-19.5 69t-38 48.5t-49.5 30.5t-53.5 16t-50 5q-63 0 -118 -12t-93 -30.5t-69.5 -42.5t-50 -46.5t-31.5 -43t-18 -32.5t-5 -15l-249 -1172q-12 -59 -102 -139 q-38 -34 -89 -67h-125l292 1365q8 46 5 81t-20.5 61t-41.5 44t-58 29t-70 15.5t-78 4.5q-102 0 -191 -52q-36 -19 -59 -47l132 -136q-2 0 -12.5 -9t-27 -28t-33 -43.5t-32.5 -61t-25 -75.5l-62 -281q-4 -14 -1 -24.5t5 -17t10 -10.5t14.5 -5.5t18 -1.5t19.5 0.5t20 1.5t20 1 l-52 -243h-165q-101 0 -147.5 59t-22.5 170z" />
<glyph horiz-adv-x="2146" d="M65 0l51 243h82q7 2 12.5 5t9.5 9t7 11t5.5 14t3.5 14t3.5 16t3.5 15l49 256q11 72 56 160q28 43 39 57q-10 10 -22.5 23t-23.5 25t-19 19q-65 65 -65 69q69 96 161 173q210 173 466 173q140 0 265 -60t182 -165q31 39 71.5 74t99.5 71t138.5 58t167.5 22q99 0 183 -33 t142 -95t81 -151.5t0 -202.5l-246 -1159q-7 -35 -33.5 -68t-69.5 -71q-41 -37 -88 -67h-128l286 1339q9 52 6.5 92t-19.5 69t-38 48.5t-49.5 30.5t-53.5 16t-50 5q-53 0 -100.5 -8.5t-82.5 -23t-65 -33.5t-50.5 -39.5t-37.5 -42t-26.5 -40t-16 -34.5t-9 -24.5t-2.5 -10.5 l-244 -1138q-12 -59 -102 -139q-38 -34 -89 -67h-125l292 1365q24 109 -42.5 172t-192.5 63q-122 0 -216 -52q-41 -22 -62 -47l137 -136q-20 -17 -48 -49q-53 -62 -76 -168l-75 -351q-23 -100 -95 -164.5t-165 -64.5q-29 0 -87 -1.5t-86 -1.5z" />
</font>
</defs>
</svg>
