<?xml version="1.0" standalone="no"?>
<!DOCTYPE svg PUBLIC "-//W3C//DTD SVG 1.1//EN" "http://www.w3.org/Graphics/SVG/1.1/DTD/svg11.dtd" >
<svg xmlns="http://www.w3.org/2000/svg">
<metadata></metadata>
<defs>
<font id="thaisans_neueultraBdIt" horiz-adv-x="0" >
<font-face units-per-em="2048" ascent="1569" descent="-479" />
<missing-glyph horiz-adv-x="843" />
<glyph unicode="&#x3b;&#x3b;arm&#x3b;&#x3b;" horiz-adv-x="2736" d="M97 1626v105h419v209q-60 0 -108 63t-48 146q0 89 63.5 149.5t144.5 60.5q100 0 155 -55t55 -155q0 -49 -17.5 -94.5t-54 -78t-85.5 -36.5v-209h420v-105h-420v-315l281 -630h-105l-229 525l-228 -525h-104l280 630v315h-419zM202 0q0 24 6.5 49t21 49t35 43t52 30.5 t68.5 11.5q79 0 131 -52t52 -131q0 -100 -70 -150l58 -267l144 289h53l143 -289l92 548h131l-41 -221l28 53l170 40q0 182 28.5 291.5t85 156.5t149.5 47q76 0 116.5 -50.5t40.5 -132.5h-52q0 27 -8.5 50.5t-27 39t-43.5 15.5q-98 0 -141 -95t-43 -296l192 47l23 -96 l-215 -56v-104q0 -77 -1 -135.5t-5 -123t-10.5 -112.5t-17.5 -97t-26 -83.5t-36.5 -66t-49 -50.5t-63.5 -29.5t-79 -10.5q-82 0 -132.5 40.5t-50.5 116.5h53q0 -37 31 -58t74 -21q38 0 68 10.5t51.5 37.5t37 53t25 77.5t15 89t8 110t3 118t0.5 134.5v78l-208 -53l-90 -471 h-68l-184 393l-183 -393h-68l-85 419l48 32q-3 -3 -16 -3q-7 -2 -37 -2q-17 0 -36 4t-40 12t-40 23t-34 34t-24 46.5t-9 60.5zM307 0q0 -32 20.5 -54t57.5 -22q78 0 78 76q0 78 -78 78q-37 0 -57.5 -22t-20.5 -56zM463 2149q0 -45 25 -75t80.5 -30t80 30t24.5 75 q0 38 -16 62.5t-38 33.5t-51 9q-45 0 -75 -24.5t-30 -80.5zM1068 681l596 1626h452l523 -1626h-418l-160 499h-705l-185 -499h-103zM1408 1311h608l-285 891zM1746 52l52 263h78l-78 -263h-52zM1819 2228l34 -102l61 102h-95zM1871 2079l22 -73l136 222h-65zM1876 52l53 263 h79l-79 -263h-53zM1911 1956l29 -95l146 247l-28 88zM1966 1783l15 -52l148 243l-16 52zM2003 1668l16 -53l147 244l-17 52zM2036 -260q0 130 40.5 244t114 184t160.5 70q139 0 213.5 -95.5t74.5 -270.5q0 -251 -89 -374.5t-251 -123.5q-52 0 -97.5 21t-83.5 63t-60 114.5 t-22 167.5zM2042 1546l16 -52l146 242l-18 55zM2076 1441l18 -62l147 244l-18 63zM2113 1321l18 -53l145 245l-14 52zM2141 -207l368 157q-4 47 -21 90q-41 91 -137 91q-113 0 -172 -171q-26 -70 -38 -167zM2141 -338q0 -42 16.5 -82.5t53.5 -71t88 -30.5q38 0 68.5 14 t52 39.5t36 53.5t26.5 64q23 76 27 171zM2149 1203l17 -42l146 239l-13 50zM2184 1101l15 -42l147 241l-15 45zM2218 996l16 -50l149 239l-16 55zM2252 891l19 -60l146 247l-18 57zM2286 786l8 -26h34l123 208l-18 62zM2369 760h53l64 108l-19 52zM2464 760h52l-17 58z" />
<glyph unicode=" "  horiz-adv-x="843" />
<glyph unicode="&#x09;" horiz-adv-x="843" />
<glyph unicode="&#xa0;" horiz-adv-x="843" />
<glyph unicode="!" horiz-adv-x="495" d="M97 0l63 296h301l-63 -296h-301zM183 412l229 1069h301l-228 -1069h-302z" />
<glyph unicode="&#x22;" horiz-adv-x="888" d="M296 943l112 535h290l-113 -535h-289zM703 943l112 535h288l-112 -535h-288z" />
<glyph unicode="#" horiz-adv-x="1619" d="M175 378l132 267h199l62 128h-198l123 268h207l173 359h302l-174 -359h215l175 359h302l-175 -359h225l-130 -268h-224l-63 -128h228l-136 -267h-222l-181 -378h-302l180 378h-215l-183 -378h-300l180 378h-200zM808 645h217l63 128h-218z" />
<glyph unicode="$" horiz-adv-x="1176" d="M118 110l55 250q60 -33 132 -62q157 -57 283 -57q56 0 101.5 11.5t75 29.5t51.5 43.5t33.5 49t18.5 50.5q10 43 -6 76t-50.5 54.5t-81.5 42t-99.5 37.5t-104.5 41.5t-96.5 54.5t-75.5 75.5t-41 104.5t7 142q32 135 150.5 234t284.5 131l45 202h293l-42 -199 q109 -17 189 -60q28 -16 66 -43l-53 -248q-67 30 -115 44q-160 44 -297 44q-27 0 -63 -8t-69.5 -22t-58.5 -33t-29 -39q-8 -37 15.5 -66.5t67 -49t100 -42t115 -46t112 -60t91 -84t52 -119t-4.5 -164.5q-14 -58 -35.5 -110t-57 -104t-81 -93t-110 -73.5t-140.5 -49.5 l-45 -213h-294l42 198q-124 0 -238 65q-10 5 -19.5 11t-20 13.5t-17 12.5t-19 15t-16.5 13z" />
<glyph unicode="%" horiz-adv-x="1646" d="M223 0l1321 1696h330l-1321 -1696h-330zM324 1018q1 63 16 133q25 123 86 223t149.5 158.5t187.5 58.5q73 0 126.5 -32.5t80.5 -89t34 -132.5t-13 -162q-30 -126 -89 -226t-147.5 -161.5t-191.5 -61.5q-61 0 -108 22t-75.5 61t-42.5 92.5t-13 116.5zM616 1033.5 q-1 -16.5 1.5 -25t6 -10.5t8.5 -2q10 0 16.5 9.5t17 43.5t29.5 109q7 34 12 58.5t7.5 43t3 30t-1 18.5t-5 10t-8.5 3q-21 0 -31 -28t-35 -137q-10 -44 -15 -75t-6 -47.5zM970 214q-7 75 13 161q19 92 58 173.5t93.5 144t127 99t151.5 36.5q72 0 124.5 -33.5t78.5 -91.5 t32 -136.5t-15 -168.5q-24 -118 -87.5 -217t-151 -157.5t-178.5 -58.5q-74 0 -128.5 32t-82.5 87t-35 130zM1260 240q4 -10 14 -10q32 0 66 155q26 132 20 159q-4 14 -15 14q-20 0 -34 -41.5t-32 -131.5q-27 -122 -19 -145z" />
<glyph unicode="&#x26;" horiz-adv-x="1596" d="M170 235.5q-12 67.5 8 154.5q29 139 123.5 233.5t256.5 162.5q-60 47 -91.5 122t-10.5 167q21 94 90.5 174t177 128.5t227.5 48.5q58 0 109.5 -13t90.5 -35.5t70.5 -53.5t48 -67t22.5 -76t-4 -80q-10 -47 -30 -87t-42.5 -69t-60 -60t-69.5 -52.5t-85 -54.5 q29 -28 61 -57.5t43 -39.5t27 -28t27.5 -35t30.5 -47q55 82 87 141.5t50 108t36 120.5l26 100h307q-48 -174 -148.5 -370.5t-226.5 -332.5q24 -37 78 -52.5t155 -15.5l-55 -270q-94 0 -172 11.5t-143.5 40.5t-95.5 73q-86 -52 -162.5 -84t-159.5 -48t-178 -16q-84 0 -154 15 t-126.5 46.5t-91 80.5t-46.5 116.5zM474.5 347q3.5 -19 5 -33.5t13.5 -25.5t20.5 -18.5t25 -12.5t27.5 -8t29 -4t28 -1.5t25 -0.5q44 0 77 3.5t63.5 14t48.5 18t55.5 27t61.5 29.5l-6 12q-21 45 -31.5 65t-28 51.5t-32 48.5t-37 40t-49.5 41.5t-62 38.5q-10 -5 -32.5 -17.5 t-37.5 -21.5t-37 -24.5t-38 -31.5t-33 -37.5t-29.5 -49.5t-20.5 -60q-9 -24 -5.5 -43zM752 1036q-1 -18 2.5 -32.5t7.5 -25t11.5 -20.5t12 -15t12.5 -13l5 -5q84 35 127.5 75.5t49.5 74.5q3 17 -1.5 31t-15.5 24t-28.5 15.5t-41.5 5.5q-60 0 -96 -27t-39 -49q-5 -21 -6 -39z " />
<glyph unicode="'" horiz-adv-x="495" d="M296 943l112 535h302l-112 -535h-302z" />
<glyph unicode="(" horiz-adv-x="759" d="M141 294q4 120 32 254q58 272 202 510.5t348 430.5h330q-100 -99 -191 -208.5t-172.5 -230.5t-141 -250.5t-85.5 -249.5q-22 -109 -23 -216t15 -197.5t49 -182.5t71 -166.5t88 -154.5h-330q-67 109 -110 213t-64.5 216t-17.5 232z" />
<glyph unicode=")" horiz-adv-x="759" d="M-55 -367q489 471 582 912q97 475 -192 944h328q59 -95 100 -199.5t63.5 -222.5t21 -250t-29.5 -269q-113 -515 -550 -915h-323z" />
<glyph unicode="*" horiz-adv-x="756" d="M323 1068l235 110l-188 110l110 117l120 -142l16 208h147l-76 -210l183 144l63 -117l-238 -110l191 -110l-113 -120l-123 145l-13 -210h-147l73 208l-180 -143z" />
<glyph unicode="+" horiz-adv-x="1123" d="M195 461l57 267h328l70 340h275l-70 -340h328l-58 -267h-328l-66 -304h-275l66 304h-327z" />
<glyph unicode="," horiz-adv-x="497" d="M-218 -285q73 26 142 75q146 105 184 268l47 215h303l-46 -215q-38 -164 -176 -268q-66 -49 -131 -75h-323z" />
<glyph unicode="-" horiz-adv-x="848" d="M202 498l53 247h655l-52 -247h-656z" />
<glyph unicode="." horiz-adv-x="495" d="M97 0l58 273h301l-58 -273h-301z" />
<glyph unicode="/" horiz-adv-x="791" d="M18 0l818 1693h297l-821 -1693h-294z" />
<glyph unicode="0" horiz-adv-x="1228" d="M185 301.5q-29 154.5 15 371.5q49 227 154 398.5t251 265.5t313 94q163 0 270 -89t140.5 -251t-10.5 -388q-48 -218 -156 -383t-258 -254t-322 -89q-162 0 -265 85t-132 239.5zM479 499q-2 -79 11.5 -126.5t40 -77.5t56 -41t66.5 -11q29 0 59.5 8.5t65.5 27.5t68 54 t64 82t57.5 118t44.5 157q22 107 23 190t-14 134t-43.5 84t-60.5 45.5t-70 12.5q-34 0 -69.5 -12.5t-76 -46.5t-75.5 -85.5t-68 -136.5t-55 -194q-22 -103 -24 -182z" />
<glyph unicode="1" horiz-adv-x="743" d="M250 908l57 263q125 42 259 137q63 44 119 92h258l-295 -1400h-302l212 1001q-78 -47 -308 -93z" />
<glyph unicode="2" horiz-adv-x="1031" d="M58 0l42 205q13 66 59 133t111 123.5t141.5 113t152.5 110.5t141 106t111.5 109.5t59.5 111.5q4 31 3 53.5t-12 38.5t-23.5 26t-31 16t-34.5 8t-33 2q-86 0 -208 -37.5t-212 -98.5l55 254q50 40 113 74t147.5 58.5t164.5 24.5q84 0 153.5 -21t116 -58t77 -88t36 -110.5 t-7.5 -125.5q-15 -76 -47.5 -142.5t-74 -116t-94.5 -96.5t-106.5 -83t-112.5 -75.5t-110.5 -74.5t-101.5 -79.5t-85 -90.5h622l-55 -270h-957z" />
<glyph unicode="3" horiz-adv-x="1058" d="M113 78l57 275q51 -50 144 -80t184 -30q24 0 52 3t67.5 13t72 25.5t59 44.5t34.5 67q9 44 -0.5 75.5t-38 54t-83 35.5t-129 18.5t-181.5 5.5l57 270q109 -7 210 5q220 37 245 160q4 20 5 36.5t-2 29t-7 22.5t-12 17.5t-15.5 12.5t-18.5 8.5t-19.5 5.5t-20.5 2.5t-19 1 t-18 0.5q-216 0 -361 -95l53 257q51 29 109.5 53t129.5 42t130 18q60 0 119.5 -15t112.5 -46t91 -74t53.5 -104t1.5 -131q-14 -65 -46 -118t-73.5 -89t-93.5 -62t-104 -39t-108 -17q39 -5 75 -13t75 -21.5t70 -32t59.5 -44t43 -57.5t21 -72t-5.5 -88q-21 -90 -73.5 -167.5 t-132.5 -137t-194 -93t-248 -33.5q-84 0 -178 32t-149 69z" />
<glyph unicode="4" horiz-adv-x="1086" d="M81 305l47 225l810 870h268l-176 -820h160l-57 -275h-160l-65 -305h-300l63 305h-590zM520 580h208l63 296z" />
<glyph unicode="5" horiz-adv-x="1006" d="M108 52l62 299q47 -33 85 -53q87 -51 178 -51q24 0 42 0.5t42.5 2.5t42 5.5t39.5 10t38 16t33 23.5t28.5 31.5t21.5 41t16 52.5q5 20 6 40t-1.5 41.5t-10 40t-22 35.5t-34.5 29t-50.5 19.5t-67.5 7.5q-97 0 -228 -27q-19 -4 -105 -23l170 807h763l-58 -270h-461l-49 -231 h62q72 0 136 -16t121 -50t92 -87.5t49 -129.5t-7 -176t-73.5 -183t-134 -146.5t-199 -98.5t-259.5 -35q-139 0 -267 75z" />
<glyph unicode="6" horiz-adv-x="1098" d="M166 333.5q-14 117.5 20 271.5q35 167 95 304t135 233t164.5 161.5t184.5 96.5t195 31q65 0 160 -16t136 -36l-58 -273q-54 17 -97 27q-122 26 -202 23q-61 -3 -114 -24.5t-93.5 -58t-71.5 -80.5t-54 -97q121 37 231 37q82 0 154 -35.5t120 -98.5t68 -149.5t-1 -188.5 q-31 -140 -121.5 -251.5t-215.5 -172t-258 -60.5q-98 0 -177.5 40t-132.5 119.5t-67 197zM461.5 387q2.5 -32 8 -55.5t20 -39.5t27.5 -25.5t30.5 -14.5t29.5 -7t23 -2q21 0 46 7t54.5 23.5t56 40.5t49 62t32.5 85q8 33 9 60.5t-4 47.5t-14 36t-22.5 26t-27.5 17t-30.5 11 t-30 5.5t-28.5 1.5q-48 0 -87.5 -19t-65.5 -50.5t-42.5 -65.5t-24.5 -70q-11 -42 -8.5 -74z" />
<glyph unicode="7" horiz-adv-x="1021" d="M207 0l671 1130h-621l58 270l985 -2l-19 -80l-761 -1318h-313z" />
<glyph unicode="8" horiz-adv-x="1071" d="M132.5 263q-3.5 63 9.5 135q24 118 79.5 198t166.5 157q-95 115 -58 285q13 56 44 112t78.5 106.5t105.5 89.5t131 62t149 23q51 0 97 -12.5t82.5 -34.5t68 -52.5t52 -65.5t34.5 -73.5t15.5 -77.5t-4.5 -77q-21 -85 -61 -144.5t-118 -140.5q64 -62 90 -155t4 -200 q-15 -71 -48 -135t-84 -116t-115 -90t-144 -59t-169 -21q-97 0 -172.5 21t-123 58.5t-77 90.5t-33 116zM441.5 361.5q0.5 -29.5 12 -50t25.5 -34t34 -21t37 -10.5t35 -3q23 0 45 3.5t50 15.5t50.5 31t42.5 53t30 79q20 94 -22 142.5t-118 48.5q-15 0 -30.5 -2t-34.5 -8 t-37 -14.5t-36 -23.5t-32.5 -33.5t-26.5 -45.5t-18 -59q-7 -39 -6.5 -68.5zM624.5 953.5q3.5 -26.5 20.5 -41.5t35 -20.5t41 -5.5q15 0 35.5 6t46.5 19.5t47 42.5t28 69q2 6 2.5 17.5t-1 27t-8.5 30.5t-17.5 28t-30 21.5t-45.5 8.5q-32 0 -59 -12t-42 -26.5t-27.5 -36.5 t-16 -32.5t-6.5 -23.5l-1 -2q-5 -43 -1.5 -69.5z" />
<glyph unicode="9" horiz-adv-x="1095" d="M136 23l59 270q25 -11 73 -25q85 -25 175 -25h11q23 0 37.5 0.5t44.5 5t52.5 13.5t55.5 28.5t60.5 46t59 69.5t59.5 97q-123 -36 -233 -36q-67 0 -128 26.5t-104.5 72t-73.5 106.5t-35.5 129.5t8.5 141.5q19 88 63 166.5t104 136.5t131.5 100t147 63.5t147.5 21.5 q90 0 161.5 -32.5t116.5 -91.5t70.5 -141t24.5 -180.5t-22 -209.5q-84 -390 -293.5 -594.5t-517.5 -204.5q-59 0 -135.5 14t-118.5 32zM547.5 847q1.5 -25 11 -44.5t26 -35.5t46 -25t69.5 -9q45 0 83.5 18t62 41.5t41 52.5t24.5 48t9 30q5 21 7 42.5t1.5 49.5t-8.5 52 t-22.5 44.5t-42.5 32.5t-67 12q-47 0 -90.5 -23t-72 -57.5t-46.5 -69t-23 -63.5q-6 -26 -8 -48.5t-0.5 -47.5z" />
<glyph unicode=":" horiz-adv-x="495" d="M97 0l60 293h301l-60 -293h-301zM252 740l63 296h301l-63 -296h-301z" />
<glyph unicode=";" horiz-adv-x="497" d="M-218 -285q96 53 148 93q148 118 178 250l49 230h304l-49 -230q-29 -128 -171 -250q-59 -48 -136 -93h-323zM255 736l62 297h301l-62 -297h-301z" />
<glyph unicode="&#x3c;" horiz-adv-x="1089" d="M145 415l30 151l1133 557l-63 -308l-647 -320l518 -275l-63 -296z" />
<glyph unicode="=" horiz-adv-x="1123" d="M152 262l55 263h931l-55 -263h-931zM230 640l58 262h931l-58 -262h-931z" />
<glyph unicode="&#x3e;" horiz-adv-x="1089" d="M0 -76l63 296l637 275l-508 320l63 308l896 -557l-32 -151z" />
<glyph unicode="?" horiz-adv-x="966" d="M255 0l62 296h301l-62 -296h-301zM312 1023l55 248q51 51 100 79q133 81 296 81q79 0 148.5 -28t116 -75t66.5 -112t4 -136q-10 -56 -37.5 -105t-62.5 -84.5t-75.5 -67t-80.5 -58.5t-73.5 -52t-57.5 -54t-30 -59l-38 -188h-303l45 211q9 42 34 81t59.5 70.5t74 61t79 57 t73 54t58 56.5t32.5 61q6 30 -6.5 50t-43.5 29.5t-79 9.5q-113 0 -246 -65q-30 -13 -108 -65z" />
<glyph unicode="@" horiz-adv-x="1713" d="M212 548q18 87 57 170.5t94.5 156.5t124 137.5t148.5 115t165 87.5t176 56t179 19q150 0 274.5 -49t205 -133.5t113 -203.5t5.5 -254q-16 -82 -54.5 -162t-90 -145t-110.5 -115t-121 -77.5t-117 -27.5q-30 0 -54 2.5t-43.5 10t-32 13t-26 18.5t-19 18t-18 21t-15.5 19 q-3 -2 -14.5 -11t-20 -15.5t-24.5 -16.5t-30.5 -17.5t-36 -16t-43 -13.5t-49 -8.5t-57.5 -3.5q-75 0 -138 30.5t-103 85.5t-54.5 132t7.5 169q18 81 59 152.5t94 122.5t115 87.5t124 54.5t119 18q70 0 141.5 -43t81.5 -88l42 104h230l-172 -428q-12 -33 -29 -98 q-10 -37 -3.5 -65.5t37.5 -28.5q44 0 89.5 32.5t80.5 82t60.5 104t36.5 103.5q10 38 7.5 80t-10 85t-27.5 85t-46.5 80t-66.5 71t-87 56.5t-108 37t-130 13.5q-109 0 -217.5 -38t-196.5 -101t-160.5 -142.5t-119.5 -164.5t-64 -164q-12 -60 -13.5 -119t14 -115t41 -105.5 t68 -91t95.5 -71.5t123.5 -47t151.5 -17q191 0 393 76l-30 -136q-226 -72 -393 -72q-155 0 -283 53t-210 144.5t-114 222t-1 278.5zM786.5 489.5q1.5 -21.5 5.5 -37t12.5 -26t16.5 -16.5t17.5 -9.5t15 -4t9.5 -0.5q38 0 70.5 18.5t52 43.5t34 56.5t20.5 52t8 33.5 q27 135 -44 142q-39 0 -73 -15t-56.5 -37t-41 -50.5t-28 -53t-14.5 -46.5q-6 -29 -4.5 -50.5z" />
<glyph unicode="A" horiz-adv-x="1338" d="M18 0l818 1400h257l228 -1400h-309l-58 333h-441l-196 -333h-299zM668 603h247l-47 345z" />
<glyph unicode="B" horiz-adv-x="1150" d="M97 0l296 1400h435q100 0 178 -28.5t124 -77t64 -114.5q9 -36 9 -73q0 -32 -7 -66q-13 -62 -42.5 -111.5t-68 -81.5t-85 -53.5t-91.5 -30.5t-89 -9q35 0 70 -4.5t72 -15.5t68 -28t58 -43t42 -60q14 -34 20 -79q2 -13 2 -28q0 -34 -9 -72q-18 -83 -63.5 -153.5t-107 -120 t-137 -84t-154 -51t-156.5 -16.5h-428zM453 270h110q111 0 188 43t90 112q7 21 5.5 42.5t-7 41t-22.5 37t-41.5 30t-64 20t-90.5 7.5h-96zM582 873h66q101 0 163 36t77 106q4 15 4 28q0 16 -6 29q-4 11 -11 19.5t-16 14.5t-19.5 10.5t-21.5 7t-22 4.5t-21.5 2h-18.5 q-3 0 -6 1q-5 0 -10 -1h-7h-96z" />
<glyph unicode="C" horiz-adv-x="1236" d="M184 496q-1 16 0 32q0 77 18 159q34 163 119 303t200.5 236t255 150.5t282.5 54.5q150 0 264 -26.5t180 -61.5l-160 -260q-66 35 -160 54t-185 19q-70 0 -133 -21.5t-109.5 -55t-87 -78.5t-67.5 -89t-48 -90.5t-31.5 -78.5t-15.5 -56q-14 -63 -14 -119q0 -32 4 -60 q12 -82 49.5 -140.5t104.5 -91.5t155 -33q155 0 380 105l50 -256q-87 -49 -228.5 -82t-278.5 -33q-98 0 -183 25t-149 70.5t-112 110t-72 143t-28 170.5z" />
<glyph unicode="D" horiz-adv-x="1346" d="M97 0l296 1400h415q98 0 182 -11.5t158 -37t130 -64.5t98 -93.5t62 -125.5q20 -72 22 -160q0 -8 1 -16q0 -82 -22 -179q-29 -135 -95.5 -250.5t-158.5 -200t-204.5 -144t-236.5 -89t-251 -29.5h-396zM453 270h97q121 0 225 36.5t176 99t120 141t67 166.5q12 70 12 130v9 q-1 64 -25.5 115.5t-69 87.5t-120 55.5t-177.5 19.5h-121z" />
<glyph unicode="E" horiz-adv-x="1018" d="M97 0l296 1400h826l-58 -270h-524l-62 -294h471l-58 -273h-472l-63 -293h525l-55 -270h-826z" />
<glyph unicode="F" horiz-adv-x="940" d="M97 0l296 1400h826l-58 -270h-524l-62 -294h471l-58 -273h-472l-118 -563h-301z" />
<glyph unicode="G" horiz-adv-x="1373" d="M194 385q-13 58 -13 123q0 78 19 165q25 122 84.5 236t147 208t194 164.5t234 110t259.5 39.5q189 0 317 -58q56 -25 92 -57l-65 -307q-58 59 -177.5 103t-260.5 44q-77 0 -148 -24.5t-125 -65.5t-99 -91.5t-75.5 -105.5t-50 -104t-27.5 -92q-7 -36 -10 -74v-28 q0 -25 2 -53q5 -42 17.5 -81t36.5 -74.5t57 -62t83 -42t111 -15.5h22q42 0 60.5 0.5t45 3.5t50 9.5t58.5 18.5l50 238h-288l57 270h589l-146 -688q-105 -54 -266 -86t-293 -32q-138 0 -252.5 49t-188 139.5t-101.5 219.5z" />
<glyph unicode="H" horiz-adv-x="1306" d="M97 0l296 1400h302l-115 -540h511l112 540h305l-297 -1400h-301l123 590h-511l-126 -590h-299z" />
<glyph unicode="I" horiz-adv-x="495" d="M97 0l296 1400h302l-297 -1400h-301z" />
<glyph unicode="J" horiz-adv-x="828" d="M29 52l151 231q9 -4 27.5 -10.5t25.5 -10.5q60 -19 107 -19q70 0 118.5 61t79.5 204l188 892h302l-190 -892q-24 -118 -71.5 -211.5t-105.5 -153t-128.5 -98.5t-138 -55t-137.5 -16q-88 0 -162 39q-40 17 -66 39z" />
<glyph unicode="K" horiz-adv-x="1203" d="M97 0l296 1400h302l-107 -507l520 507h368l-525 -519l234 -881h-322l-165 640l-208 -197l-92 -443h-301z" />
<glyph unicode="L" horiz-adv-x="940" d="M97 0l296 1400h302l-242 -1130h525l-55 -270h-826z" />
<glyph unicode="M" horiz-adv-x="1674" d="M97 0l296 1400h328l204 -923l619 923h330l-296 -1400h-302l165 786l-531 -786h-174l-175 765l-165 -765h-299z" />
<glyph unicode="N" horiz-adv-x="1386" d="M97 0l296 1400h307l393 -889l188 889h305l-296 -1400h-310l-395 878l-187 -878h-301z" />
<glyph unicode="O" horiz-adv-x="1491" d="M182 490v22q0 81 20 169q34 159 111 296.5t185.5 238t250.5 158t299 57.5q105 0 194 -25.5t153.5 -72.5t112 -113t69.5 -146q21 -80 25 -172q0 -12 1 -24q0 -81 -20 -168q-34 -160 -111 -294.5t-186.5 -232t-255.5 -152t-312 -54.5q-102 0 -188 24.5t-148.5 69.5 t-108.5 108.5t-67 142t-24 168.5zM487 538.5q0 -63.5 17 -112t44 -83.5t64.5 -57t78 -32.5t85.5 -10.5q39 0 77 6t77 18t75.5 32t71 47t65.5 63.5t57 81t47 100t35 119.5q16 71 16 130q1 20 -1 38q-8 74 -34 126.5t-69.5 86t-93 49.5t-103.5 16q-62 0 -121.5 -16t-118 -52.5 t-107 -90.5t-87 -135t-59.5 -181q-16 -79 -16 -142.5z" />
<glyph unicode="P" horiz-adv-x="1084" d="M97 0l296 1400h412q69 0 130 -11t115 -34t93.5 -59.5t65 -86.5t29.5 -115q1 -13 1 -27q0 -55 -13 -119q-22 -106 -69.5 -190t-110.5 -139t-142.5 -91t-162 -51.5t-173.5 -15.5h-73l-99 -461h-299zM553 731h73q74 0 128.5 16.5t87.5 47.5t52 67t31 84q6 24 8 40q2 13 2 28 q-1 4 -1 8q0 20 -5.5 35t-18.5 29.5t-34 23.5t-53.5 14.5t-74.5 5.5h-111z" />
<glyph unicode="Q" horiz-adv-x="1491" d="M183 490v22q0 81 19 169q33 157 113 296t188.5 238.5t244 157.5t275.5 58q83 0 157 -14.5t133.5 -42t108 -66.5t83 -88t58 -106.5t33.5 -122.5q7 -49 7 -102q0 -17 -1 -33q-3 -71 -19 -146q-45 -219 -175.5 -391.5t-293.5 -253.5q18 -8 34 -17t36.5 -22.5t35.5 -28.5 t30 -34.5t22 -41t11 -47.5t-4 -54h-288q3 18 3 35q0 43 -22 73q-31 42 -86 62q-60 -13 -201 -13q-91 0 -169.5 24.5t-138 69.5t-103.5 108.5t-66 142t-25 168.5zM486 514q6 -73 29 -125t64.5 -85t91 -48t107.5 -15q51 0 101 11t100.5 33.5t96 60.5t85 88.5t71 121 t49.5 154.5q17 72 17 132q0 19 -2 36q-7 74 -33.5 126.5t-72.5 86t-103 49.5t-124 16q-48 0 -100 -16t-108 -53t-104 -90.5t-88 -135t-60 -180.5q-18 -76 -18 -138q0 -15 1 -29z" />
<glyph unicode="R" horiz-adv-x="1246" d="M97 0l296 1400h448q71 0 136 -15.5t122 -47.5t94 -81t51 -115q6 -29 7 -61q0 -42 -11 -89q-15 -67 -58.5 -125t-98 -94t-109 -56.5t-96.5 -20.5q92 -37 210 -335l142 -360h-349l-113 307q-27 69 -59.5 118.5t-61.5 71.5t-50.5 31.5t-38.5 9.5h-47l-115 -538h-299z M568 810l117 3q76 1 127 22t80 59q28 36 44 96q4 16 4 32q0 39 -30 66q-41 38 -157 40l-116 2z" />
<glyph unicode="S" horiz-adv-x="1176" d="M120 113l53 254q42 -33 102 -60q118 -60 255 -60q45 0 78.5 2t71.5 8.5t66 19t53.5 31.5t42.5 48.5t26 68.5q4 17 4 33q0 25 -10 46q-16 34 -50.5 55.5t-81.5 41.5t-99.5 36.5t-104.5 40t-96.5 52.5t-75.5 74.5t-41 105.5q-4 22 -4 47q0 43 11 96q12 61 48.5 117.5 t91.5 102.5t122.5 80.5t146.5 53.5t159 19q213 0 331 -55q51 -21 87 -53l-55 -265q-62 30 -121 50q-134 53 -299 53q-87 0 -143 -31t-65 -72q-2 -10 -2 -19q0 -26 17 -48q23 -30 66.5 -49t100 -40.5t115 -43.5t112 -57.5t91 -83t51.5 -119.5q6 -31 6 -65q0 -47 -11 -103 q-22 -98 -71 -178t-125.5 -141t-186 -95t-243.5 -34q-182 0 -320 68q-60 25 -103 68z" />
<glyph unicode="T" horiz-adv-x="1058" d="M257 1130l58 270h1021l-57 -270h-354l-238 -1130h-302l238 1130h-366z" />
<glyph unicode="U" horiz-adv-x="1306" d="M198 288q-5 37 -5 79q0 80 19 178l181 855h302l-179 -844q-14 -65 -16 -115v-17q0 -38 8 -66q10 -34 25.5 -57t41 -35.5t53 -17.5t62.5 -5q37 0 71 6t76 25t76 50t64 86.5t46 129.5l183 860h302l-179 -837q-27 -123 -77 -221.5t-115 -166t-146.5 -112.5t-171 -65.5 t-189.5 -20.5q-120 0 -209 33t-148.5 101.5t-74.5 176.5z" />
<glyph unicode="V" horiz-adv-x="1338" d="M315 1400h306l144 -939l543 939h310l-821 -1400h-257z" />
<glyph unicode="W" horiz-adv-x="1879" d="M315 1400h306l60 -892l462 892h213l39 -880l456 880h307l-735 -1400h-293l-22 788l-390 -788h-293z" />
<glyph unicode="X" horiz-adv-x="1323" d="M18 0l612 700l-284 700h352l170 -435l377 435h356l-615 -700l320 -700h-358l-195 440l-381 -440h-354z" />
<glyph unicode="Y" horiz-adv-x="1236" d="M315 1400h315l153 -556l413 556h320l-653 -884l-108 -516h-304l107 516z" />
<glyph unicode="Z" horiz-adv-x="1150" d="M18 0l27 131l883 999h-618l57 270h1061l-28 -132l-887 -998h648l-55 -270h-1088z" />
<glyph unicode="[" horiz-adv-x="657" d="M18 -367l397 1861h542l-58 -270h-256l-283 -1321h256l-55 -270h-543z" />
<glyph unicode="\" horiz-adv-x="791" d="M378 1693h293l102 -1693h-296z" />
<glyph unicode="]" horiz-adv-x="657" d="M-55 -367l55 270h252l283 1321h-257l57 270h543l-395 -1861h-538z" />
<glyph unicode="^" horiz-adv-x="1423" d="M205 506l713 985h155l361 -985h-311l-210 562l-402 -562h-306z" />
<glyph unicode="_" horiz-adv-x="1123" d="M68 -128l52 243h931l-53 -243h-930z" />
<glyph unicode="`" horiz-adv-x="846" d="M428 1563h343l222 -410h-306z" />
<glyph unicode="a" horiz-adv-x="1079" d="M170 312q16 66 50 116.5t74 79t90.5 46t92.5 23t86 5.5q123 0 197 18q58 20 60 21q9 37 10 67.5t-3.5 50.5t-15.5 35t-23.5 23t-29.5 13t-31.5 6.5t-31.5 1.5q-141 0 -270 -73q-58 -30 -110 -74l-42 165q51 66 117 118q163 121 370 121q95 0 171.5 -28t126.5 -82 q50 -53 68 -131q9 -36 8 -78q0 -46 -11 -98l-140 -658h-288l33 163q-7 -7 -34 -32t-43.5 -39t-47.5 -37t-56 -35.5t-58 -22.5t-64 -10q-89 0 -156 43.5t-95 118.5q-15 41 -14 86q0 37 10 77zM458 312q-2 -10 -1 -19q0 -15 3 -25q6 -18 22 -26t33 -11t41 -3q48 0 107 21.5 t97 62.5l21 100q-10 -1 -31.5 -5.5t-31.5 -5.5q-59 -8 -141 -8q-31 0 -71.5 -23.5t-47.5 -57.5z" />
<glyph unicode="b" horiz-adv-x="1203" d="M97 0l315 1481h288l-132 -611q24 54 72 105q102 108 230 108q48 0 98.5 -14t101.5 -42.5t92.5 -72.5t71.5 -103q28 -59 36 -135q2 -23 3 -48q0 -56 -12 -120q-21 -99 -62.5 -183.5t-95.5 -144t-116 -105.5t-127 -73.5t-125 -41t-114 -13.5q-132 0 -178 100q-18 43 -18 88 v13l-40 -188h-288zM456 343q28 -33 55 -50q69 -46 147 -46q42 0 80.5 10t76 32.5t67.5 56.5t54 85t37 114q8 38 8 71q0 76 -40 130q-57 78 -160 77q-28 0 -61 -9t-50 -16.5t-54 -24.5q-43 -22 -78 -50z" />
<glyph unicode="c" horiz-adv-x="958" d="M160 276q-10 45 -11 96q0 60 14 131q20 100 68.5 190t114.5 159t144 119.5t163 77t167 26.5q118 0 231 -55q31 -14 95 -52l-173 -258q-30 30 -60 53q-75 55 -145 55q-52 0 -99.5 -21t-82 -54t-63 -75.5t-46 -83.5t-26.5 -81q-8 -34 -8.5 -66t7 -61.5t23 -54t39 -42.5 t59 -28t79.5 -10q76 0 165 52q34 18 81 55l64 -256q-100 -42 -129 -52q-57 -23 -122.5 -38t-118.5 -15q-104 0 -191.5 31.5t-152 96.5t-86.5 161z" />
<glyph unicode="d" horiz-adv-x="1203" d="M166 310q-9 45 -8 95q0 66 15 143q20 94 68.5 179t110 147t132 108.5t138 69.5t123.5 23q125 0 206 -102q32 -50 50 -103l132 611h288l-315 -1481h-288l40 188q-38 -54 -90 -98q-120 -100 -243 -100q-81 0 -154.5 37t-129 108t-75.5 175zM450 432q4 -54 21.5 -96.5 t53 -67.5t83.5 -25q125 0 210 50q36 16 70 50l82 380q-21 29 -50 48q-86 49 -187 49q-63 0 -122 -42.5t-97 -104.5t-53 -128q-12 -47 -11 -90q-1 -12 0 -23z" />
<glyph unicode="e" horiz-adv-x="1066" d="M154 284q-6 36 -6 77q0 70 17 152q24 108 80 208.5t135 179.5t182.5 126.5t213.5 47.5q65 0 118.5 -13t93 -37t69 -59.5t47 -79t25.5 -95.5q6 -42 7 -87q0 -11 -1 -23q-2 -58 -12 -123l-25 -138h-658q-8 -29 1.5 -60t34 -58t70 -44t104.5 -17q128 0 213 50q31 13 73 49 l55 -215q-58 -42 -121 -67q-148 -68 -307 -68q-113 0 -198.5 32.5t-140 98t-70.5 163.5zM508 676h342q1 7 1 17q-1 5 -1 11q0 17 -10 37t-23 37t-38.5 28.5t-57.5 11.5q-28 0 -59 -11.5t-56.5 -29t-47 -37t-34.5 -37t-16 -27.5z" />
<glyph unicode="f" horiz-adv-x="756" d="M183 783l55 260h168l19 73q13 54 30.5 99.5t42.5 91.5t59.5 81t77.5 63t100.5 42.5t124.5 14.5q73 0 141 -22q46 -20 47 -20l-57 -276q-21 18 -48 31q-52 32 -85 32h-4q-13 1 -23 0t-30.5 -7.5t-35.5 -19.5t-31 -41.5t-24 -68.5l-15 -73h265l-55 -260h-262l-168 -783 h-287l165 783h-170z" />
<glyph unicode="g" horiz-adv-x="1203" d="M63 -315l155 234q25 -33 57 -59q78 -57 192 -57q33 0 58 1.5t59.5 7.5t61.5 16.5t57 29.5t52.5 45.5t42 66.5t30.5 90l30 128q-23 -49 -75 -101q-97 -102 -227 -102q-89 0 -169.5 36.5t-139 105.5t-82.5 167q-12 48 -12 103t12 116q18 87 57 166t89 139t110 109.5 t122 81.5t122 49t113 17q129 0 190 -102q25 -46 33 -103l40 191h290l-206 -974q-116 -545 -713 -545q-145 0 -252 70q-60 36 -97 73zM448 443q0 -35 10 -70q11 -37 28 -67t47 -49t67 -19q110 0 213 47q37 16 75 50l82 381q-20 27 -55 47q-86 50 -194 50q-63 0 -120.5 -46 t-95 -113t-52.5 -141q-5 -35 -5 -70z" />
<glyph unicode="h" horiz-adv-x="1123" d="M97 0l315 1481h288l-137 -637q39 58 92 116q106 115 215 115q63 0 114.5 -15.5t87 -43t60.5 -66t35 -83.5t12 -95v-15q0 -44 -10 -89l-141 -668h-288l141 676q5 25 -0.5 47.5t-22 42t-50.5 31t-82 11.5q-60 0 -131 -43q-16 -10 -57 -39l-153 -726h-288z" />
<glyph unicode="i" horiz-adv-x="481" d="M97 0l226 1061h288l-226 -1061h-288zM351 1198l61 283h288l-60 -283h-289z" />
<glyph unicode="j" horiz-adv-x="481" d="M-357 -360l152 229q25 -24 37 -32q37 -32 73 -32q26 0 45.5 4.5t43 18.5t41.5 39t36.5 69.5t33.5 105.5l218 1019h288l-213 -988q-24 -115 -71.5 -210.5t-117 -167t-164 -111.5t-205.5 -40q-76 0 -147 48q-31 22 -50 48zM348 1196l64 285h288l-63 -285h-289z" />
<glyph unicode="k" horiz-adv-x="1058" d="M97 0l315 1481h288l-170 -800l393 380h343l-414 -398l176 -663h-297l-113 438l-178 -178l-55 -260h-288z" />
<glyph unicode="l" horiz-adv-x="481" d="M97 0l315 1481h288l-315 -1481h-288z" />
<glyph unicode="m" horiz-adv-x="1766" d="M97 0l226 1061h288l-48 -217l13 20q13 19 30 43.5t47 54.5t63.5 55t79.5 41.5t95 16.5q62 0 113 -22t83.5 -59t52.5 -77.5t29 -83.5q3 4 24 31t40 50t52.5 54.5t66 53.5t75.5 37.5t86 15.5q62 0 113.5 -16.5t86.5 -45.5t60.5 -68.5t35.5 -84.5q11 -45 13 -94v-16 q0 -41 -11 -82l-141 -668h-289l142 676q0 9 1 19.5t-2.5 23t-8 25t-15.5 23.5t-25.5 19.5t-36.5 13.5t-50 5q-18 0 -44.5 -7.5t-39.5 -13t-46 -19.5q-35 -19 -76 -39l-152 -726h-288l141 676q2 13 2 24q1 40 -27 68q-36 34 -130 35q-7 0 -15 -1.5t-17.5 -4t-15.5 -4.5 t-18 -7t-16.5 -7t-18.5 -8.5t-17 -7.5q-18 -8 -70 -37l-153 -726h-288z" />
<glyph unicode="n" horiz-adv-x="1123" d="M97 0l226 1061h288l-48 -217q47 70 92 116q116 115 244 115q54 0 100.5 -16.5t78.5 -45.5t56 -68.5t33.5 -84.5t11.5 -94v-14q0 -42 -10 -84l-141 -668h-288l138 676q3 17 -1 38t-16.5 42t-40 35t-65.5 14q-51 0 -144 -40q-12 -6 -37 -19.5t-36 -19.5l-153 -726h-288z " />
<glyph unicode="o" horiz-adv-x="1173" d="M151 375v21q0 58 14 120q27 119 84.5 220.5t140.5 177t194 118.5t236 43q82 0 150.5 -19.5t118 -54.5t85.5 -84.5t52 -109t18 -127.5q0 -9 1 -18q0 -60 -15 -124q-26 -119 -86 -220.5t-145 -175.5t-196 -115.5t-235 -41.5q-78 0 -144.5 19t-115 53.5t-84.5 83t-53 107.5 t-20 127zM444 444q0 -5 1 -11q0 -31 6 -63q8 -38 26 -65.5t55.5 -45.5t90.5 -18q58 0 106.5 17t82 45t60 68t42.5 80t27 87q7 32 9 64q1 13 2 27q0 19 -2 37q-4 32 -17 59t-34 48t-55 33t-79 12q-57 0 -106.5 -20.5t-82 -51.5t-58.5 -73.5t-40.5 -79.5t-24.5 -77 q-7 -38 -9 -72z" />
<glyph unicode="p" horiz-adv-x="1203" d="M5 -417l318 1478h288l-43 -191q34 50 87 103q108 102 189 102q106 0 193.5 -37.5t145.5 -109.5t78 -176q8 -44 8 -93q0 -68 -16 -146q-19 -93 -69.5 -179t-115 -148t-137.5 -108.5t-141.5 -69.5t-123.5 -23q-131 0 -199 102q-33 55 -42 101l-132 -605h-288zM456 335 q29 -34 57 -50q68 -49 177 -49q16 0 41 7t60 26.5t67 49t61 80.5t44 114q13 61 13 110q0 44 -10 73q-9 31 -27 54t-37 35t-43.5 19.5t-42 9t-35.5 1.5q-28 0 -61 -9t-50 -16t-54 -25q-43 -22 -78 -49z" />
<glyph unicode="q" horiz-adv-x="1203" d="M165 294q-12 48 -12 103t12 116q22 104 67.5 195.5t104 157.5t126 114t136 71.5t132.5 23.5q126 0 212 -102q43 -60 58 -103l42 191h288l-316 -1478h-289l132 605q-28 -53 -80 -101q-102 -102 -233 -102q-83 0 -161.5 36.5t-136.5 105.5t-82 167zM444 416q2 -43 17.5 -74 t35 -51.5t43 -32.5t42 -17t31.5 -5q107 0 192 49q31 14 83 50l82 381q-24 24 -62 49q-86 50 -153 50q-12 0 -27.5 -1.5t-41 -9t-49.5 -19.5t-52.5 -35t-52 -54t-45 -78t-34.5 -105q-9 -47 -9 -84v-13z" />
<glyph unicode="r" horiz-adv-x="736" d="M97 0l226 1061h288l-63 -296q53 104 89 155q108 158 215 158q13 0 58 -19q8 -6 28 -16l-60 -288q-29 12 -40 18q-3 1 -9 3.5t-10.5 4t-10 3t-10.5 3t-11 2.5t-12 1.5t-12 0.5q-67 0 -165 -88q-51 -45 -85 -90l-128 -613h-288z" />
<glyph unicode="s" horiz-adv-x="966" d="M110 68l55 255q36 -28 85 -48q107 -47 203 -47q52 0 89.5 7t58.5 20.5t32 29t15 35.5q5 29 -11 51.5t-46.5 36.5t-70.5 29.5t-81.5 30.5t-79.5 39.5t-65 57.5q-28 33 -38 83q-4 22 -4 47q0 33 8 70q12 53 40 99.5t65.5 81t82 61.5t91 44t90 25.5t81.5 8.5q139 0 247 -49 q46 -24 68 -50l-52 -246q-62 32 -92 43q-124 48 -223 48q-42 0 -75 -24t-35 -42q-4 -21 19.5 -37t63 -27.5t88 -28.5t93.5 -41t80 -65t48 -100q6 -26 6 -56q0 -40 -10 -90q-34 -158 -172.5 -250.5t-341.5 -92.5q-101 0 -215 43q-37 14 -97 48z" />
<glyph unicode="t" horiz-adv-x="756" d="M183 783l55 260h170l92 438h291l-93 -438h262l-55 -260h-262l-87 -408q-8 -33 -8 -58t6 -38t15 -22t19.5 -10.5t19 -3.5t13.5 0h2q8 0 15.5 1t14 2t15 2.5t14 3t14.5 4.5t14.5 4.5t15 4.5t14.5 5q52 23 63 28l-58 -272q-14 -7 -53 -18q-60 -18 -144 -18 q-62 0 -112.5 13.5t-84.5 39t-57 60.5t-33 77q-10 40 -10 86q0 49 11 104l89 413h-168z" />
<glyph unicode="u" horiz-adv-x="1123" d="M169 307.5q0 41.5 9 82.5l145 671h288l-136 -639q-6 -24 -6 -44q-1 -11 1 -20q6 -27 17.5 -44.5t31.5 -27.5t37.5 -14t36.5 -4q51 0 143 42q8 4 35 18t42 23l152 710h288l-223 -1048h-288l41 202q-24 -63 -65 -107q-97 -108 -223 -108q-53 0 -99.5 11.5t-82 32t-63.5 49 t-45.5 62.5t-26.5 72.5t-9 80z" />
<glyph unicode="v" horiz-adv-x="1105" d="M243 1061h323l94 -616l358 616h295l-603 -1061h-285z" />
<glyph unicode="w" horiz-adv-x="1548" d="M243 1061h318l27 -571l311 571h212l45 -571l290 571h310l-558 -1061h-265l-45 550l-293 -550h-278z" />
<glyph unicode="x" horiz-adv-x="1093" d="M18 0l472 530l-247 531h332l133 -290l260 290h330l-480 -545l257 -516h-330l-142 278l-257 -278h-328z" />
<glyph unicode="y" horiz-adv-x="1166" d="M-45 -367l142 225q12 -12 45 -28q4 -2 14.5 -6.5t15 -6.5t13.5 -5.5t14.5 -5t13.5 -2.5t15 -1q54 0 95.5 38t84.5 119l55 100l-220 1001h313l144 -616l361 616h312l-733 -1203q-46 -76 -92 -131t-100.5 -97.5t-117.5 -64t-135 -21.5q-112 0 -187 44q-37 23 -53 45z" />
<glyph unicode="z" horiz-adv-x="1013" d="M97 0l26 133l617 672h-423l55 256h849l-31 -141l-610 -665h461l-53 -255h-891z" />
<glyph unicode="{" horiz-adv-x="691" d="M142 398l53 245q27 2 43 3.5t36 6t32 11t26 17t23.5 26t18.5 37.5t16 51l66 306q13 67 35.5 121t63.5 103.5t98.5 84t143 57.5t194.5 29l-58 -266q-13 0 -25 -1t-34 -4.5t-40 -12.5t-37 -23t-32.5 -38t-19.5 -55l-67 -315q-14 -67 -60.5 -123.5t-105.5 -92t-127 -54.5 q91 -24 143.5 -95.5t34.5 -174.5l-65 -301q-6 -22 -5 -39.5t4.5 -30t12.5 -22t18 -15.5t21.5 -9.5t22.5 -5.5t21.5 -2.5t18.5 0t13.5 1l6.5 0.5l-55 -270q-94 0 -165.5 18.5t-115.5 51.5t-70.5 80t-29 103.5t8.5 121.5l65 311q6 26 8 47t-1 37t-6.5 27.5t-14 19.5 t-19.5 13.5t-26.5 9.5t-31 6t-37.5 5z" />
<glyph unicode="|" horiz-adv-x="483" d="M26 -328l414 1948h291l-414 -1948h-291z" />
<glyph unicode="}" horiz-adv-x="691" d="M-73 -453l55 270h5q12 -1 21.5 -1t29.5 1.5t36 9t34.5 20.5t32.5 37t22 56l65 301q9 51 40 98.5t73.5 81t89.5 57t91 33.5q-94 30 -147 100.5t-32 169.5l65 315q6 21 3.5 38.5t-5 31t-12.5 23.5t-17.5 16.5t-20.5 11.5t-22 7.5t-21.5 3.5t-19.5 1.5t-15 0.5l57 266 q67 -3 121.5 -13.5t95 -27t70.5 -37.5t49 -48t30 -56t13.5 -64.5t-0.5 -71.5t-11 -77l-66 -306q-6 -25 -8.5 -45t1 -35t8 -26t15.5 -18.5t21 -12t28 -8t31.5 -5t37.5 -2.5l-53 -245q-28 -3 -43 -5.5t-37 -8t-34.5 -12t-28 -18.5t-25.5 -28.5t-19 -39.5t-15 -53l-65 -311 q-18 -83 -58 -150.5t-103.5 -118.5t-156 -78.5t-206.5 -27.5z" />
<glyph unicode="~" horiz-adv-x="1121" d="M188 433q8 37 22 75.5t35 80t50.5 77.5t65 65.5t82.5 46.5t100 17q36 0 68.5 -7t56 -18t45 -24.5t39.5 -27.5t34.5 -25t35 -18t36.5 -7q36 0 49 21.5t30 89.5q1 3 1 4.5t0.5 3.5l1 4t1.5 4h252q-11 -44 -26.5 -85t-37 -83t-49.5 -76t-62 -61t-78 -42t-93 -15 q-57 0 -106 12.5t-80.5 31t-57 37t-48 31.5t-42.5 13q-30 0 -44.5 -25.5t-28.5 -99.5h-252z" />
<glyph unicode="&#xa9;" horiz-adv-x="1721" d="M97 634.5q0 157.5 60.5 299.5t163 243.5t244 161t298.5 59.5t298.5 -59.5t243.5 -161.5t161.5 -243t59.5 -299q0 -105 -27 -204.5t-76 -183t-119 -153t-153.5 -118t-183 -75t-204.5 -26.5q-157 0 -298.5 59t-244 160t-163 242t-60.5 298.5zM233 632.5q0 -127.5 50 -244 t135 -201t202 -134.5t245 -50t244 50t200.5 134.5t134.5 201t50 244t-50 243.5t-134.5 200.5t-200.5 134.5t-244 50t-245 -50t-202 -134.5t-135 -200.5t-50 -243.5zM388 621q0 225 129 361.5t338 136.5q60 0 142 -11.5t131 -27.5l-45 -94q-85 39 -225 39q-67 0 -125.5 -23 t-99.5 -62.5t-71 -91t-44.5 -109.5t-14.5 -118q0 -79 23.5 -149.5t67 -125t112 -86.5t152.5 -32q67 0 119 13.5t106 43.5l42 -97q-50 -28 -127.5 -42.5t-153.5 -14.5q-206 0 -331 134.5t-125 355.5z" />
<glyph unicode="&#xad;" horiz-adv-x="848" d="M202 498l53 247h655l-52 -247h-656z" />
<glyph unicode="&#xae;" horiz-adv-x="1721" d="M97 634.5q0 157.5 60.5 299.5t163 243.5t244 161t298.5 59.5t298.5 -59.5t243.5 -161.5t161.5 -243t59.5 -299q0 -105 -27 -204.5t-76 -183t-119 -153t-153.5 -118t-183 -75t-204.5 -26.5q-157 0 -298.5 59t-244 160t-163 242t-60.5 298.5zM233 630q0 -129 50 -246 t135 -201t202 -133.5t245 -49.5q132 0 249 49.5t201 133.5t132.5 200.5t48.5 246.5q0 132 -48.5 249t-132.5 200.5t-201 132.5t-249 49q-103 0 -199 -31t-174 -88.5t-136.5 -135t-90.5 -174.5t-32 -202zM568 170v963h282q59 0 111.5 -16t95.5 -47t68.5 -82.5t25.5 -117.5 q0 -60 -18.5 -106.5t-51 -76t-71 -46.5t-85.5 -25q49 -27 96.5 -68.5t69.5 -77.5l175 -300h-138l-163 273q-38 65 -97 102t-103 37h-80v-412h-117zM685 678h112q48 0 90 11.5t76.5 34t54.5 60t20 86.5q0 79 -56 121t-156 42h-141v-355z" />
<glyph unicode="&#xbc;" horiz-adv-x="2076" d="M398 0l1343 1693h295l-1344 -1693h-294zM415 1426l30 145q80 28 140 73q40 29 63 49h140l-158 -757h-163l115 542q-58 -30 -167 -52zM1513 315l26 120l437 473h145l-95 -445h87l-32 -148h-85l-38 -165h-160l35 165h-320zM1748 463h113l35 160z" />
<glyph unicode="&#xbd;" horiz-adv-x="2096" d="M398 0l1343 1693h295l-1344 -1693h-294zM415 1426l30 145q80 28 140 73q40 29 63 49h140l-158 -757h-163l115 542q-58 -30 -167 -52zM1523 150l23 112q8 43 41.5 85.5t77.5 76.5t95 71.5t95 69.5t77.5 69.5t41.5 73.5q4 25 -0.5 41.5t-17.5 24t-25.5 10t-29.5 2.5 q-49 0 -115 -20t-116 -56l31 142q42 36 104.5 61t128.5 25q116 0 173 -64t34 -158q-11 -55 -39 -101t-62 -77t-76.5 -62t-81.5 -55t-78.5 -56.5t-65.5 -66.5h343l-30 -148h-528z" />
<glyph unicode="&#xbe;" horiz-adv-x="2131" d="M305 991l30 149q29 -28 78.5 -44t99.5 -16q17 0 37.5 3t46.5 11t46 26t25 44q9 40 -11.5 62t-72.5 31t-149 9l32 145q68 -5 113 2q114 15 130 90q5 25 0.5 41t-17.5 22t-23.5 8t-26.5 2q-113 0 -195 -53l27 138q114 64 201 64q40 0 79.5 -13.5t71.5 -38t47.5 -64 t6.5 -86.5q-9 -35 -26.5 -64t-40 -48.5t-50.5 -33t-56 -20.5t-58 -9q26 -4 48.5 -9.5t47.5 -15t42 -23t31.5 -32.5t17 -43.5t-3.5 -55.5q-23 -102 -115 -167.5t-235 -65.5q-44 0 -94.5 17.5t-83.5 37.5zM453 0l1343 1693h296l-1344 -1693h-295zM1568 315l26 120l437 473h145 l-95 -445h87l-32 -148h-85l-38 -165h-160l35 165h-320zM1804 463h112l35 160z" />
<glyph unicode="&#xe01;" horiz-adv-x="1276" d="M170 0l123 582q13 66 53 154q14 28 32 55q-10 10 -22 23t-23 24.5t-18 19.5q-63 62 -63 65q77 100 168 173q216 175 445 175q118 0 218 -30.5t168.5 -84.5t98 -135.5t8.5 -176.5l-134 -629q-13 -62 -110 -145q-70 -54 -94 -70h-142l168 791q8 35 4.5 63.5t-13 50 t-28 37.5t-39 27t-46.5 17.5t-51 9t-53 2.5q-87 0 -172 -38q-28 -12 -58 -37l136 -132q-37 -25 -63 -58q-57 -65 -83 -175l-119 -558h-291z" />
<glyph unicode="&#xe02;" horiz-adv-x="1084" d="M218 297.5q2 60.5 15 127.5l22 105q14 74 67.5 162t110.5 152q6 7 18.5 19.5l22.5 22.5t20 21.5t17 22t9 18.5q5 15 -18 23.5t-62 8.5h-175l55 265h175q69 0 124.5 -11t93 -30.5t64.5 -47.5t38 -61t13.5 -70t-8.5 -77q-8 -42 -28.5 -83.5t-47.5 -75.5t-59 -61 q-34 -29 -82.5 -92.5t-57.5 -105.5l-20 -105q-40 -182 78 -182q64 0 109.5 48t63.5 134l172 820h303l-173 -820q-14 -68 -38.5 -128t-70 -120t-106.5 -102.5t-153 -68.5t-204 -26q-81 0 -140 26.5t-90 69.5t-45.5 102t-12.5 119.5z" />
<glyph unicode="&#xe03;" horiz-adv-x="1084" d="M212.5 334q3.5 44 12.5 91l22 97q11 50 27.5 92t43 82t45 64t55.5 67q3 3 4.5 5t3.5 4.5t4 4.5q10 14 64 65t56 64q7 21 -10 27q-21 8 -55 -19q-41 -36 -63 -58l-32 -32q-16 34 -28 45q-45 45 -97 45l55 267q51 0 86 -67q18 -32 29 -70q36 46 71 70q88 67 172 67 q22 0 46 -8t50 -27t43.5 -50t24.5 -75.5t-6 -104.5q-17 -75 -57 -141.5t-89 -107.5q-39 -31 -86.5 -93.5t-60.5 -129.5l-18 -83q-22 -98 -0.5 -140t86.5 -42q60 0 105 51.5t62 138.5l170 812h303l-171 -802q-14 -71 -41.5 -136t-72.5 -126t-102.5 -105.5t-137.5 -71.5 t-173 -27q-71 0 -127 14t-93.5 38t-63.5 58.5t-39 73t-17 84t-0.5 89.5z" />
<glyph unicode="&#xe04;" horiz-adv-x="1281" d="M97 0l178 844q24 120 121.5 219t234 153.5t279.5 54.5q106 0 197.5 -31.5t154.5 -87t91 -136t10 -172.5l-178 -844h-302l178 844q15 57 -42.5 105.5t-168.5 48.5t-184.5 -46.5t-88.5 -107.5l-45 -214q55 39 100 62q123 66 215 66l-64 -297q-130 0 -235 -46 q-44 -18 -76 -45l-76 -370h-299z" />
<glyph unicode="&#xe05;" horiz-adv-x="1281" d="M97 0l178 844q16 66 61 141.5t102.5 137t125 102.5t123.5 41q63 0 128 -95q6 -9 17.5 -27t20.5 -33t17 -31q33 45 84 95q93 93 174 93q41 0 79 -18.5t66.5 -51t51.5 -75t33.5 -89.5t13.5 -96t-9 -94l-178 -844h-302l178 844q15 74 -0.5 114t-48.5 40t-119 -90 q-32 -37 -78 -90q-14 39 -44 90q-5 6 -12.5 18.5t-12 19t-11.5 16.5t-12 15l-11 11t-12.5 8t-12.5 2q-27 0 -62.5 -41.5t-49.5 -112.5l-45 -214q64 46 96 62q123 66 221 66l-64 -297q-121 0 -233 -44q-43 -17 -75 -45l-79 -372h-299z" />
<glyph unicode="&#xe06;" horiz-adv-x="1294" d="M136 0l121 571q12 54 37.5 101.5t55.5 79t63.5 61.5t61 51t48 45.5t25.5 47.5q0 2 1.5 8t2.5 9t0.5 8.5t-3.5 8.5t-9 5t-15 2q-27 0 -82 -55q-9 -9 -26.5 -27.5t-26.5 -27.5l-44 45q-8 5 -21 15.5t-20.5 15.5t-18.5 9.5t-21 4.5l55 267q51 0 86 -67q18 -32 29 -70 q36 46 73 72q89 69 170 65q65 -3 111 -42.5t63.5 -100t2.5 -127.5q-8 -37 -22.5 -70t-32 -58t-38.5 -47t-42.5 -40.5t-43 -36.5t-41.5 -37t-36.5 -39.5t-29.5 -46.5t-19 -55l-34 -167q19 -32 55 -55q74 -55 184 -55q199 0 246 235l157 742h302l-167 -789 q-31 -144 -107 -253.5t-181.5 -167.5t-223.5 -58q-156 0 -243 118q-38 51 -58 120l-45 -215h-299z" />
<glyph unicode="&#xe07;" horiz-adv-x="1118" d="M247 863h303l27 -588q20 0 50 10.5t70 36.5t76.5 63.5t69 99t48.5 136.5q19 78 9 137t-36.5 100t-73 66.5t-100.5 37t-119 11.5l59 270q81 0 158 -15t149.5 -46.5t127.5 -81t93.5 -118.5t47 -159t-12.5 -202q-22 -99 -75 -195t-125 -171.5t-154.5 -133.5t-169 -89.5 t-163.5 -31.5h-231z" />
<glyph unicode="&#xe08;" horiz-adv-x="1236" d="M252 1020q70 74 154 126q205 125 441 125q72 0 137.5 -18.5t116.5 -52t94.5 -79.5t70.5 -101t44.5 -116.5t17.5 -126t-12 -129.5q-22 -101 -63.5 -193.5t-108 -176t-151 -145t-198.5 -97.5t-245 -36h-130l-19 412q-3 9 -5.5 13.5t-7 6.5t-8 2t-12 -0.5t-15.5 -0.5h-51 l58 272h103q6 0 19 1q18 -1 36.5 -0.5t38.5 -3.5t39 -10.5t37 -21.5t33.5 -35.5t28 -53.5t21.5 -75l5 -231q30 0 72 27.5t85 74.5t81 119t56 152q15 64 10 114t-18 87t-38 63.5t-49.5 43t-52 26t-46.5 13t-33 3.5q-204 0 -358 -115q-76 -55 -125 -115z" />
<glyph unicode="&#xe09;" horiz-adv-x="1268" d="M160 485l58 273h194q109 0 144 -65t5 -195l-16 -73q-7 -32 -7 -58t3.5 -42t13 -27t17.5 -16.5t21 -8t18 -3t15 -0.5q119 0 232 55q41 22 93 58l74 357q5 24 7.5 46t1.5 48.5t-7.5 49t-20.5 44.5t-36 37t-56 24t-78 9q-143 0 -304 -73q-76 -31 -144 -70l-55 248 q82 53 165 85q202 83 398 83q246 0 365 -135.5t73 -370.5l-163 -765h-301l45 215q-60 -78 -115 -120q-143 -118 -294 -118q-155 0 -223 101t-36 268l21 107q5 22 0 27t-30 5h-78z" />
<glyph unicode="&#xe0a;" horiz-adv-x="1121" d="M215.5 318.5q2.5 42.5 12.5 87.5l27 124q14 70 70 166t108 148l13 13l15.5 15.5l15 15t15.5 16.5t12 15.5t10 15.5t6 13q4 16 -21 22q-23 5 -106 5h-128l58 273h130q81 0 145.5 -11.5t106 -31.5t71 -48t40.5 -61t13.5 -70.5t-9.5 -77.5q-26 -129 -125 -208 q-16 -13 -22 -18t-26 -23t-32 -33.5t-28 -37.5t-26.5 -47t-15.5 -51l-25 -134q-30 -153 91 -153q47 0 84 13.5t60 33.5t40 51.5t25.5 59.5t15.5 66q20 92 18 151t-12.5 86t-23.5 27l58 273q14 0 30 12.5t31 35.5t30.5 56t30 73.5t28.5 88t27 100t25 108.5h298 q-20 -91 -47 -173.5t-54.5 -141.5t-57 -109t-55.5 -82.5t-49 -55.5t-37.5 -33.5t-22.5 -12.5q7 -4 13 -8t21.5 -20t27 -35t23.5 -53.5t16.5 -74t1 -97.5t-17.5 -124q-24 -106 -75 -194t-125 -151.5t-174 -98t-216 -34.5q-65 0 -118 13t-89.5 35.5t-63 55t-40 69.5t-19 80 t-3 85.5z" />
<glyph unicode="&#xe0b;" horiz-adv-x="1121" d="M228 406l22 97q36 164 170 328q2 1 42 39t63 63.5t25 36.5q4 10 -1.5 19.5t-18 11t-30.5 -12.5q-9 -7 -22.5 -18.5l-27 -23t-22.5 -18.5q-15 -14 -40 -35q-8 8 -23.5 22.5t-21.5 20.5q-4 3 -16.5 11.5t-17.5 12t-14.5 9t-16 7.5t-13.5 2l55 267q51 0 86 -67 q18 -32 29 -70q36 46 71 70q88 67 172 67q50 0 86 -23.5t53.5 -61.5t23 -86.5t-7.5 -98.5q-5 -27 -14 -51.5t-22 -47.5t-24.5 -40t-30.5 -37.5t-30 -32t-32.5 -32.5t-29.5 -29q-2 -2 -17 -20t-24.5 -31.5t-23.5 -35t-24 -47t-16 -51.5l-25 -124q-11 -37 -8 -63t11 -43 t26.5 -26.5t39.5 -13t51 -3.5q151 0 196 214q20 92 18 152t-12.5 89t-23.5 29l58 273q53 0 105 130t97 344h298q-18 -80 -40.5 -153.5t-46 -129t-49 -104t-49.5 -82.5t-45.5 -60.5t-40 -43t-30.5 -25t-19 -10.5q5 -2 12 -7t21 -20t26 -34.5t23.5 -53t16 -73t1 -97.5 t-17.5 -124q-15 -72 -48 -141t-84 -131t-114 -109.5t-143.5 -75t-166.5 -27.5q-445 0 -354 429z" />
<glyph unicode="&#xe0c;" horiz-adv-x="1957" d="M208.5 170q0.5 32 9.5 71l73 341q2 14 5.5 27t8 26t7.5 22t8.5 22.5t8 19.5t9 20t8.5 17q14 28 32 55q-10 10 -22 23t-23 24.5t-18 19.5q-63 62 -63 65q73 100 168 173q227 175 468 175q84 0 162 -19.5t141 -55.5t107 -88.5t60 -118.5t0 -145l-100 -469q8 -32 35 -55 q52 -52 173 -52q28 0 49 4t44.5 18t41 39t34.5 69t29 105l157 742h303l-173 -820q-13 -57 -39.5 -116.5t-68.5 -118.5t-92 -105t-115 -74.5t-133 -28.5q-164 0 -240 115q-32 55 -39 118l-44 -215h-302l168 791q14 65 -8.5 112.5t-76.5 71t-133 23.5q-119 0 -193 -38 q-28 -16 -45 -37l136 -132q-35 -26 -60 -55q-67 -83 -81 -154l-55 -254q-13 -49 26 -53h79l-58 -275h-121q-22 0 -37.5 0.5t-40.5 3t-42.5 6.5t-39 12.5t-36 20.5t-28 30.5t-19 41.5t-5 55z" />
<glyph unicode="&#xe0d;" horiz-adv-x="1968" d="M212 241l73 341q3 14 6.5 27t7.5 26t7.5 22t9 22.5t8 19.5t9 20t7.5 17q17 34 35 55q-10 10 -22 23t-22.5 24.5t-18.5 19.5q-60 60 -60 65q73 100 168 173q227 175 466 175q84 0 162 -19.5t141 -55.5t107 -88.5t60 -118.5t0 -145l-88 -411q-6 -29 -6.5 -52t5.5 -39 t14.5 -28.5t22.5 -20t27 -12.5t31.5 -7.5t32 -3t31.5 -0.5q82 0 150 50q30 23 60 52l183 873h302l-195 -967q-24 -122 -76.5 -225t-119.5 -174t-145.5 -121t-156.5 -73t-152 -23q-186 0 -301 91q-58 38 -94 92l89 137q22 -38 58 -66q75 -66 193 -66q128 0 231 91.5 t139 250.5l5 23q-39 -69 -91 -120q-120 -121 -257 -121q-63 0 -115 18.5t-87.5 50.5t-59 76t-33 96.5t-7.5 110t17 117.5l75 348q11 37 6 66.5t-15 51.5t-30 37.5t-41 25.5t-46 16t-45.5 8t-40.5 2q-120 0 -194 -38q-28 -16 -44 -37l135 -132q-36 -27 -60 -51 q-65 -70 -81 -158l-55 -254q-8 -22 -6 -36.5t22 -16.5h89l-57 -275h-158q-252 0 -205 241z" />
<glyph unicode="&#xe0e;" horiz-adv-x="1276" d="M-20 -548l52 273q155 0 330 75q71 31 149 80q19 -35 50 -66q66 -66 147 -66q41 0 67 8.5t42 30.5t24 47.5t17 70.5l188 886q11 49 -0.5 88.5t-41 65.5t-76 39.5t-105.5 13.5q-98 0 -183 -38q-26 -13 -50 -37l136 -132q-23 -16 -53 -46q-53 -63 -75 -163l-73 -341 q-16 -72 -43 -119.5t-68 -74t-89.5 -37t-117.5 -10.5h-142l55 268h80q7 0 12 2.5t7.5 5t5 8t3 10t2 12.5t3.5 14l58 262q2 14 5.5 27t8 26t7.5 22t8.5 22.5t8 19.5t9 20t8.5 17q14 28 32 55q-10 10 -22 23t-23 24.5t-18 19.5q-63 62 -63 65q71 98 165 173q217 175 459 175 q71 0 145.5 -19t142 -56.5t117.5 -88t72 -119.5t5 -144l-223 -1046q-6 -24 -12.5 -45t-23 -58.5t-36 -67.5t-53 -64t-72.5 -57t-95.5 -38.5t-121.5 -15.5q-102 0 -194 73q-43 31 -74 74q-70 -43 -148 -74q-170 -73 -325 -73z" />
<glyph unicode="&#xe0f;" horiz-adv-x="1276" d="M-20 -548l52 273q133 0 273 80q62 33 120 82l63 -112l128 141q0 -7 10.5 -36t28 -64.5t46 -63t57.5 -27.5h6h7t7.5 0.5t8.5 1t8.5 2.5t8.5 4.5t7.5 6.5t7 8.5t5.5 11.5t4 15l218 1016q18 89 -37.5 148t-170.5 59q-113 0 -198 -38q-26 -13 -50 -37l146 -132 q-40 -29 -58 -46q-58 -63 -80 -163l-73 -341q-24 -109 -94 -175t-190 -66h-176l55 268h80q8 0 14 3.5t9 6t5.5 10.5t3 10t1.5 12l58 278q16 82 52 152q18 31 35 51q-10 10 -22 23t-23 24.5t-18 19.5q-63 62 -63 65q73 100 168 173q227 175 479 175q79 0 154.5 -19t138 -56.5 t106 -88t60.5 -119t0 -144.5l-223 -1046q-3 -19 -10 -43t-22.5 -58.5t-36.5 -66.5t-54 -65t-72.5 -57.5t-95 -40t-118.5 -15.5q-72 0 -126 73q-27 32 -47 77l-123 -108l-65 105q-67 -39 -147 -74q-64 -31 -129.5 -52t-108.5 -21z" />
<glyph unicode="&#xe10;" horiz-adv-x="1233" d="M-23 -548l52 273q161 0 276 95q58 50 91 93l67 -136l127 136q0 -5 11.5 -33t29.5 -63.5t45 -63.5t52 -28q12 0 26 9t19 28l42 196h299l-44 -213q-6 -35 -23.5 -73.5t-49 -78t-72.5 -70.5t-100.5 -51t-126.5 -20q-105 0 -148 73q-20 33 -28 77l-116 -102l-78 92 q-55 -47 -110 -72q-129 -68 -241 -68zM247 1015q49 68 133 128q193 128 451 128q99 0 222 -47q54 16 77.5 54.5t40.5 116.5h300q-29 -109 -99.5 -201t-147.5 -114q36 -43 60 -98.5t33.5 -112.5t8.5 -113t-13 -108q-30 -140 -90.5 -252t-136 -185t-169 -121.5t-187 -69 t-192.5 -20.5h-121l-19 390q-2 9 -3 19t-1.5 14t-5.5 7t-16 3h-74l59 272h133q29 0 51 -2.5t53.5 -15t53.5 -35t40.5 -65.5t24.5 -102l5 -210q28 0 70.5 27.5t86.5 74.5t83 119.5t57 151.5q10 56 11 101t-11 80.5t-27.5 61.5t-39.5 44.5t-46.5 30t-48.5 18.5t-45.5 9.5 t-36.5 2.5q-181 0 -346 -123q-71 -59 -120 -123z" />
<glyph unicode="&#xe11;" horiz-adv-x="1268" d="M110 0l70 335q16 77 43.5 148.5t60 125.5t68 102t69 85.5t61 68.5t46 58t22.5 47q1 5 1.5 11t-6.5 11.5t-20 5.5q-27 0 -82 -55q-8 -6 -16.5 -15t-19.5 -20l-17 -17q-14 28 -28 42q-45 45 -97 45l55 267q51 0 86 -67q18 -32 29 -70q44 49 73 70q88 67 160 67 q30 0 53.5 -8.5t42.5 -30.5t22.5 -59t-5.5 -94q55 63 110 108q130 110 244 110q61 0 106.5 -29.5t71 -77t37.5 -108t10 -121.5t-15 -117l-176 -818h-299l155 740q12 61 15 105t-2 68.5t-17 39t-25 18.5t-31 4q-60 0 -119.5 -32t-107.5 -84.5t-90 -115.5t-73 -129t-51 -121 t-29 -95q-1 -3 -2.5 -9t-2.5 -9q-1 -4 -2 -8.5t-1.5 -7t-1 -4.5t-0.5 -3l-73 -357h-302z" />
<glyph unicode="&#xe12;" horiz-adv-x="1949" d="M185 273q-37 146 7 362q33 149 90 271.5t124 199.5t139.5 118.5t141.5 41.5q28 0 58.5 -27t57.5 -68q5 -8 13 -21t14 -22.5t13.5 -22.5t14.5 -25q40 55 80 95q94 93 155 93q52 0 100 -24t81.5 -64.5t58 -93t29 -109t-5.5 -112.5l-105 -490q14 -29 44 -55q60 -55 165 -55 q40 0 66 8t51.5 32t44.5 72.5t34 125.5l158 742h302l-173 -820q-14 -58 -36.5 -116t-59.5 -119t-82 -107.5t-107.5 -76t-131.5 -29.5q-165 0 -252 123q-41 59 -55 125l-48 -225h-301l183 865q6 35 2 60t-15 41.5t-22 24t-20 7.5q-19 0 -48 -24t-69 -66q-33 -37 -78 -90 q-15 39 -45 90q-4 5 -12.5 18.5t-12.5 19t-11.5 16t-12 15.5t-11.5 11t-13 8t-12 2q-12 0 -24.5 -4.5t-33 -25.5t-39.5 -57.5t-41.5 -107.5t-41.5 -168l-3 -18q-6 -29 -8.5 -46t-7 -50.5t-5.5 -56t0.5 -54t7.5 -52.5t17 -45t28 -37.5t43 -23t58 -9.5q54 0 125 32q25 9 67 32 l-57 -270q-26 -18 -58 -32q-54 -28 -134 -28q-146 0 -245 75t-136 221z" />
<glyph unicode="&#xe13;" horiz-adv-x="1954" d="M206 170q0 32 9 71l73 341q3 14 6 27t7.5 26t7.5 22t9 22.5t8.5 19.5t9 20t7.5 17q14 28 32 55q-10 10 -22 23t-22.5 24.5t-18.5 19.5q-60 60 -60 65q77 100 168 173q213 172 443 175q61 0 123 -10t125 -31t113 -54.5t87.5 -81t48.5 -110t-4 -140.5l-75 -341 q-10 -53 -14.5 -90t-0.5 -63.5t13 -41.5t29 -24t42.5 -11.5t60.5 -2.5q84 0 160 53q38 25 65 52l183 870h302l-262 -1245h-301l43 215q-35 -68 -91 -120q-122 -118 -289 -118q-66 0 -116.5 20.5t-80.5 56t-48.5 79.5t-23.5 95.5t-1.5 100.5t14.5 96l78 366q10 47 -0.5 84.5 t-34 60t-58 37t-69 20t-71.5 5.5q-104 0 -178 -38q-28 -16 -44 -37l135 -132q-35 -26 -60 -55q-67 -83 -81 -154l-55 -254q-12 -49 26 -53h79l-57 -275h-105q-22 0 -38 0.5t-42 3t-44.5 6.5t-42 12.5t-39 20.5t-30.5 30.5t-21.5 41.5t-6.5 55z" />
<glyph unicode="&#xe14;" horiz-adv-x="1268" d="M170 458.5q3 84.5 22 176.5q27 122 80.5 226.5t123 179t152.5 127t171 78t177 25.5q115 0 208.5 -30t155.5 -84.5t87 -135.5t3 -177l-179 -844h-301l168 800q10 36 6.5 64.5t-10.5 49.5t-24.5 35.5t-35 24t-42.5 15t-47.5 7.5t-48.5 2q-28 0 -60 -7.5t-76 -31.5t-82 -62 t-72.5 -106t-52.5 -156q-11 -40 -17.5 -79t-9.5 -85.5t4.5 -85.5t23 -71.5t49 -51.5t80.5 -19q78 0 140 32q29 13 52 32l-55 -267q-29 -21 -55 -32q-68 -31 -149 -31t-146.5 23t-111 66t-76 102.5t-43 132.5t-9.5 157.5z" />
<glyph unicode="&#xe15;" horiz-adv-x="1268" d="M170.5 369.5q-11.5 120.5 21.5 265.5q33 149 90 271.5t124 199.5t139.5 118.5t141.5 41.5q50 0 116 -95q5 -8 13 -21t14 -22.5t13.5 -22.5t14.5 -25q40 55 80 95q94 93 155 93q54 0 102.5 -24t82 -64.5t57 -93t27.5 -109t-6 -112.5l-185 -865h-301l183 865q7 38 2.5 63.5 t-17.5 41t-25 22t-22 6.5q-25 0 -110 -90q-33 -37 -78 -90q-15 39 -45 90q-4 5 -12.5 18.5t-12.5 19t-11.5 16t-12 15.5t-11.5 11t-13 8t-12 2q-12 0 -24.5 -5t-33.5 -27t-40.5 -59t-42 -109t-42.5 -168q-39 -197 -4.5 -292t137.5 -95q54 0 125 32q25 9 67 32l-57 -270 q-32 -22 -60 -32q-63 -28 -160 -28q-105 0 -185.5 48.5t-125.5 136t-56.5 208z" />
<glyph unicode="&#xe16;" horiz-adv-x="1276" d="M218 241l73 341q2 14 5.5 27t8 26t7.5 22t8.5 22.5t8 19.5t9 20t8.5 17q14 28 32 55q-10 10 -22 23t-23 24.5t-18 19.5q-63 62 -63 65q75 98 173 173q47 36 93 64.5t104.5 55t126.5 41t139 14.5q84 0 162 -19.5t141 -55.5t107 -88.5t60 -118.5t0 -145l-134 -629 q-12 -59 -110 -142q-10 -7 -28.5 -22.5t-34 -28t-31.5 -22.5h-142l168 791q21 105 -37 156t-181 51q-119 0 -193 -38q-28 -16 -45 -37l136 -132q-35 -26 -60 -55q-67 -83 -81 -154l-55 -252q-8 -22 -6.5 -37t21.5 -15l90 -3l-58 -275l-207 3q-86 2 -131.5 61.5t-20.5 176.5z " />
<glyph unicode="&#xe17;" horiz-adv-x="1254" d="M97 0l263 1245h300l-44 -217q51 78 100 120q133 123 296 123q57 0 108.5 -18.5t89.5 -50.5t68 -76t44.5 -94t18.5 -105t-10 -109l-173 -818h-300l154 740q6 28 8.5 46.5t3.5 45.5t-4 45t-17 38t-32.5 32t-53 20t-76.5 8q-85 0 -183 -57q-42 -26 -78 -58l-184 -860h-299z " />
<glyph unicode="&#xe18;" horiz-adv-x="1176" d="M150.5 275.5q1.5 54.5 12.5 122.5q5 26 9 48t5.5 31.5t2.5 12.5h308q2 2 2 1l-2 -3q-1 -3 -18 -90q-6 -25 -6 -46t3 -36t12 -27t17.5 -19.5t24.5 -13t27 -8t31 -4t31 -1.5h32h8q38 0 74.5 7t73 22.5t63.5 45.5t38 72q10 53 -8.5 89t-58.5 54t-94.5 31t-115.5 19.5 t-121.5 20.5t-112.5 32t-89 55t-50.5 90.5t3.5 136.5q23 114 113.5 195t220 119.5t284.5 38.5q176 0 341 -65q61 -25 123 -63l-60 -288q-44 44 -108 73q-134 73 -353 73h-42.5t-40.5 -1t-42 -3t-37 -6t-36 -10t-27.5 -14.5t-22.5 -21t-12 -27.5q-6 -30 32.5 -46t104 -21.5 t144.5 -18t154 -35t133.5 -72t81 -130.5t-1.5 -210q-13 -59 -44.5 -117t-83.5 -110.5t-117.5 -92.5t-152 -64t-182.5 -24q-49 0 -92 3t-92 11.5t-87 22.5t-77 36.5t-62 54t-42.5 74t-18 97z" />
<glyph unicode="&#xe19;" horiz-adv-x="1254" d="M177 346.5q1 40.5 9 81.5l167 791h302l-157 -742q-6 -30 -7 -56.5t4.5 -45.5t12.5 -35t19 -26.5t22.5 -18.5t25 -12.5t24.5 -7.5t23 -4t17 -1h11q105 0 208 58q42 24 80 57l178 834h300l-258 -1219h-300l44 218q-50 -71 -107 -121q-141 -120 -302 -120q-44 0 -84 10.5 t-72 29.5t-58.5 45.5t-45.5 59t-32 69t-19 76t-5 80z" />
<glyph unicode="&#xe1a;" horiz-adv-x="1228" d="M177 353.5q2 45.5 11 89.5l172 802h300l-170 -812q-16 -84 16 -137t84 -53h110q74 0 137.5 52t85.5 138l173 815h302l-174 -805q-13 -62 -43.5 -126t-78.5 -125.5t-107 -109t-136 -76.5t-159 -29h-184q-63 0 -115.5 15t-89.5 41.5t-64.5 63t-42.5 78t-22 87.5t-5 91.5z " />
<glyph unicode="&#xe1b;" horiz-adv-x="1228" d="M177.5 353.5q1.5 45.5 10.5 89.5l172 802h300l-170 -812q-11 -57 2.5 -101t42.5 -66.5t68 -22.5h110q68 0 128 52t82 138l243 1153h302l-244 -1143q-13 -63 -42.5 -126.5t-78 -125t-109.5 -109t-144 -76.5t-174 -29h-183q-56 0 -104 15t-82.5 42t-60.5 63t-41 77.5 t-22 87.5t-5.5 91.5z" />
<glyph unicode="&#xe1c;" horiz-adv-x="1456" d="M268 268q-43 345 23 652q35 164 123 244.5t204 80.5h165l-57 -275l-96 3q-24 0 -31 -10.5t-14 -44.5q-32 -169 -32 -341q0 -55 5 -114l255 407h141l79 -407q28 36 81 148q103 222 210 634l302 3q-124 -524 -336 -923q-99 -187 -197 -325h-197l-96 438l-280 -438h-197 q-37 129 -55 268z" />
<glyph unicode="&#xe1d;" horiz-adv-x="1451" d="M265 270q-42 340 26 650q36 162 118.5 243.5t195.5 81.5h176l-58 -275l-97 3q-22 0 -29 -9t-15 -44q-42 -192 -37 -343q5 -82 11 -114l254 407h141l79 -407q43 60 105 213q113 285 251 910h305q-158 -727 -388 -1214q-111 -235 -210 -372h-200l-96 438l-281 -438h-196 q-36 127 -55 270z" />
<glyph unicode="&#xe1e;" horiz-adv-x="1556" d="M280 1245h300l57 -729l304 729h199l-5 -729l368 729h298l-621 -1245h-260v676l-288 -676h-252z" />
<glyph unicode="&#xe1f;" horiz-adv-x="1653" d="M280 1245h300l57 -729l304 729h202l-8 -729l538 1070h298l-791 -1586h-260l-5 653l-275 -653h-260z" />
<glyph unicode="&#xe20;" horiz-adv-x="1276" d="M63 -5l60 278h79q9 0 14.5 2.5t9 9t5 10t4 15t3.5 15.5l50 257q3 14 6 27t7.5 26t7.5 22t9 22.5t8.5 19.5t9 20t7.5 17q17 34 35 55q-10 10 -22 23t-23 24.5t-18 19.5q-63 62 -63 65q71 98 165 173q217 175 448 175q120 0 220 -30.5t168 -84.5t97 -135t8 -177l-134 -629 q-13 -62 -110 -145q-9 -7 -27.5 -21.5t-33.5 -26.5t-30 -22h-145l168 791q11 55 -2 95.5t-47 64.5t-82 35.5t-110 11.5q-75 0 -160 -38q-26 -13 -55 -37l136 -132q-23 -16 -53 -46q-53 -63 -75 -163l-73 -341q-19 -97 -99.5 -170.5t-160.5 -73.5z" />
<glyph unicode="&#xe21;" horiz-adv-x="1254" d="M97 0l263 1245h300l-170 -810q30 -34 58 -55q74 -55 139 -55q71 0 123.5 16t84.5 45.5t49.5 65.5t25.5 83l149 710h302l-173 -820q-9 -42 -31 -90.5t-54.5 -99t-77.5 -96.5t-96 -82.5t-114 -58t-127 -21.5q-170 0 -253 118q-41 56 -52 120l-45 -215h-301z" />
<glyph unicode="&#xe22;" horiz-adv-x="1189" d="M129 299q1 42 11 86q38 160 208 252q75 43 172 63q-68 11 -135 45q-21 13 -37.5 26.5t-33 32t-24.5 39t-12 48t5 57.5q20 94 83 170t143.5 116t158.5 40q80 0 190 -29q40 -10 73 -26l-61 -288q-29 16 -70 34q-74 33 -122 33l-5.5 0.5t-9 0t-10.5 -0.5t-12 -1t-12 -3 t-12 -4.5t-11 -6t-10 -8.5t-7 -12t-4 -15q-5 -27 0 -46.5t22.5 -32t37.5 -20t57 -11t67 -4.5t81 -1l-59 -270q-157 0 -246.5 -51t-104.5 -127q-4 -18 -4.5 -34.5t3 -29t9 -22.5t14 -17.5t18 -13.5t22 -9.5t24 -6t25.5 -3.5t25 -1.5t24 -0.5q106 0 186 50t97 136l170 812h303 l-171 -802q-13 -64 -43 -126.5t-84 -125t-124.5 -109t-172 -76t-218.5 -29.5q-78 0 -142 12t-109 33.5t-77.5 51.5t-51.5 65.5t-27 76.5t-7 83z" />
<glyph unicode="&#xe23;" horiz-adv-x="1071" d="M113 76l52 252q53 -26 105 -43q129 -42 243 -42q40 0 71 3.5t60 13t49.5 25t37 41t24.5 59.5q8 37 -12 63.5t-57.5 41t-86.5 29.5t-100 30.5t-96.5 44t-77.5 69t-43 106t9 154.5q15 68 61.5 130.5t114.5 111t160 77.5t191 29q158 0 265 -52q43 -19 86 -53l-63 -290 q-31 35 -76 60q-107 62 -270 62q-151 0 -170 -90q-6 -31 21 -54t74 -38t105 -36t112.5 -47.5t97 -72.5t59 -111t-2.5 -164q-9 -39 -22 -76t-36.5 -79t-53.5 -77.5t-74 -68.5t-96 -56t-122.5 -37t-151.5 -14q-177 0 -285 49q-43 14 -102 50z" />
<glyph unicode="&#xe24;" horiz-adv-x="1276" d="M218 241l73 341q2 14 5.5 27t8 26t7.5 22t8.5 22.5t8 19.5t9 20t8.5 17q14 28 32 55q-10 10 -22 23t-23 24.5t-18 19.5q-63 62 -63 65q75 98 173 173q227 175 453 175q88 0 168 -19.5t144 -55.5t108.5 -88.5t60 -118.5t-0.5 -145l-252 -1177q-13 -62 -108 -142 q-9 -7 -27.5 -22.5t-34.5 -28t-31 -22.5h-145l286 1339q8 39 6 70t-17 54t-36.5 39t-52.5 26t-65.5 14t-75.5 4q-94 0 -168 -38q-23 -14 -47 -37l133 -132q-38 -32 -57 -55q-67 -83 -81 -154l-55 -252q-8 -22 -6.5 -37t21.5 -15l90 -3l-58 -272h-179q-107 0 -156.5 61 t-23.5 177z" />
<glyph unicode="&#xe25;" horiz-adv-x="1163" d="M126.5 187q-16.5 69 4.5 159q16 75 61 142t105.5 114t131.5 81t141.5 50.5t134.5 16.5q171 0 200 8q23 4 23 10l8 40q21 103 -26 145.5t-157 42.5q-145 0 -290 -103q-63 -43 -110 -98l-55 264q51 51 140 105q189 107 375 107q93 0 166.5 -17.5t123.5 -50t83.5 -77.5 t47.5 -102t13 -121t-17 -138l-162 -765h-303l105 503q-14 -7 -34 -10q-32 -8 -191 -8q-75 0 -137.5 -36.5t-74.5 -102.5q-11 -44 17.5 -73.5t102.5 -29.5q49 0 115 25q51 21 58 25l-60 -283q-14 -8 -48 -18q-56 -18 -151 -18q-89 0 -159.5 24.5t-117.5 72t-63.5 116.5z" />
<glyph unicode="&#xe26;" horiz-adv-x="1276" d="M65 0l58 273h79q9 0 14.5 2.5t9 9t5 10t4 15t3.5 15.5l50 257q3 14 6 27t7.5 26t7.5 22t9 22.5t8.5 19.5t9 20t7.5 17q17 34 35 55q-10 10 -22 23t-23 24.5t-18 19.5q-63 62 -63 65q71 98 165 173q217 175 474 175q71 0 144.5 -19t138.5 -56.5t112.5 -88t68 -119.5 t3.5 -144l-252 -1177q-13 -62 -108 -142q-9 -7 -27.5 -22.5t-34.5 -28t-31 -22.5h-145l286 1339q18 85 -37 146t-168 61t-198 -38q-28 -12 -53 -37l136 -132q-23 -16 -53 -46q-53 -63 -75 -163l-73 -341q-22 -101 -98.5 -169t-171.5 -69z" />
<glyph unicode="&#xe27;" horiz-adv-x="1158" d="M92 165l168 275q25 -52 73 -100q97 -97 233 -97q31 0 69.5 12.5t84 42t86 71t74.5 107.5t51 145q17 81 9 141.5t-28 101t-53.5 65.5t-67 35.5t-68.5 10.5q-132 0 -272 -79q-66 -36 -116 -78l-50 262q50 44 137 95q168 96 351 96q102 0 188 -31.5t146.5 -88.5t98.5 -138 t44 -179.5t-17 -212.5q-42 -188 -148 -335t-256 -228t-318 -81q-185 0 -316 93q-59 44 -103 95z" />
<glyph unicode="&#xe28;" horiz-adv-x="1281" d="M97 0l178 844q17 77 63 146.5t109.5 119.5t138 87t152 55.5t148.5 18.5q120 0 192 -26q52 21 70.5 51.5t34.5 98.5h298q-25 -99 -69.5 -176.5t-108.5 -104.5q26 -24 42.5 -61.5t21 -75.5t3.5 -72.5t-7 -60.5l-178 -844h-302l178 844q14 69 -50.5 113t-182.5 44 q-55 0 -103 -16.5t-78.5 -42t-48.5 -51t-23 -47.5l-40 -189q48 29 95 50q107 53 217 53l-64 -297q-129 0 -235 -44q-48 -21 -73 -42l-79 -375h-299z" />
<glyph unicode="&#xe29;" horiz-adv-x="1228" d="M183 253q-16 86 5 190l172 802h300l-167 -794q-21 -98 12.5 -153t102.5 -55h110q72 0 122.5 49t74.5 138l28 108h-235l42 202h236l107 508h305l-110 -508h78l-42 -202h-81l-27 -95q-60 -221 -196 -343.5t-317 -122.5h-183q-90 0 -161.5 33.5t-115.5 95t-60 147.5z" />
<glyph unicode="&#xe2a;" horiz-adv-x="1189" d="M125.5 210q-11.5 60 5.5 136q20 94 76 172.5t130.5 127t158 75.5t164.5 27q173 0 226 10q16 2 50 10l7 40q10 43 4.5 75t-19.5 53.5t-40.5 34.5t-57 19t-70.5 6q-143 0 -288 -103q-63 -43 -110 -98l-50 273q57 52 136 101q179 102 372 102q88 0 148 -15q29 10 48.5 20.5 t31 19.5t19.5 25.5t11 28t8 36.5q1 6 2 9h301q-12 -52 -42.5 -97t-77 -80.5t-108.5 -61.5q61 -56 82.5 -159t-3.5 -232l-165 -765h-302l105 503q-43 -9 -58 -10q-56 -10 -215 -10q-37 0 -75.5 -24.5t-62 -56t-27.5 -56.5q-10 -44 18.5 -73.5t102.5 -29.5q61 0 117 30 q41 17 58 29l-60 -292q-10 -4 -58 -18q-60 -18 -118 -18q-71 0 -133.5 14.5t-113.5 44t-83.5 73.5t-44 104z" />
<glyph unicode="&#xe2b;" horiz-adv-x="1184" d="M97 0l263 1245h300l-80 -387l476 387h412l-540 -437q32 -7 60 -17t61 -27.5t58.5 -39.5t47.5 -56t33.5 -75.5t11.5 -98t-15 -122.5l-79 -372h-303l67 335q14 65 9 115t-18.5 85t-37.5 59t-47 36.5t-48 17.5l-235 -197l-97 -451h-299z" />
<glyph unicode="&#xe2c;" horiz-adv-x="1653" d="M288 1245h300l57 -729l303 729h203l-8 -729l248 477q21 33 25 63q17 88 -40 155q-37 37 -60 52q85 35 160 82q165 108 194 241h309q-36 -161 -207 -260q-72 -42 -168 -63q25 -8 60 -33q28 -28 43 -58t9 -74q-5 -37 -23.5 -82.5t-38.5 -82t-21 -40.5l-445 -893h-260 l-5 653l-275 -653h-260z" />
<glyph unicode="&#xe2d;" horiz-adv-x="1263" d="M155.5 308q-7.5 73 7.5 155q28 126 92.5 184t150.5 58h320l-58 -272l-162 2q-15 4 -26.5 0t-17 -14.5t-4.5 -24.5q2 -32 13.5 -57.5t29.5 -41.5t38.5 -27.5t44.5 -16.5t42.5 -7.5t36.5 -2.5q146 0 237.5 88.5t135.5 289.5q19 100 11 171.5t-42 117.5t-80.5 67t-104.5 21 q-128 0 -230 -102q-53 -58 -74 -101h-291q52 134 137 238q40 48 88 87.5t111.5 75t145.5 55.5t174 20q84 0 154 -17t119.5 -47.5t87.5 -71t60 -90t35.5 -102t16 -109.5t-2 -109t-15.5 -104q-31 -150 -101 -272.5t-166.5 -203.5t-216 -124.5t-249.5 -43.5q-97 0 -178 24.5 t-136 68.5t-90.5 104.5t-43 133.5z" />
<glyph unicode="&#xe2e;" horiz-adv-x="1263" d="M155.5 308q-7.5 73 7.5 155q8 46 25.5 87t45.5 77t71 57t96 21h325l-58 -272h-160q-46 0 -50 -40q2 -34 17.5 -61t37.5 -43t50 -27t52.5 -15t47.5 -4q141 0 235 89.5t138 288.5q18 99 10 171t-41.5 118.5t-80.5 68.5t-106 22q-123 0 -225 -102q-53 -57 -77 -102h-291 q53 133 137 236q198 238 514 238q42 0 64.5 -0.5t65.5 -8t77 -22.5q21 6 37 17t25.5 22t17.5 32t12 37t10 47h288q-12 -56 -47.5 -115.5t-82 -104t-90.5 -59.5q51 -61 77 -143t25.5 -169.5t-19.5 -182.5q-31 -150 -101 -272.5t-166.5 -203.5t-216 -124.5t-249.5 -43.5 q-97 0 -178 24.5t-136 68.5t-90.5 104.5t-43 133.5z" />
<glyph unicode="&#xe2f;" horiz-adv-x="1173" d="M319.5 1146q-0.5 50 0.5 99h296v-12q3 -54 5.5 -78.5t11 -58.5t24 -48t44 -25t70.5 -11q81 0 156 60t126 173h287l-171 -802q-25 -110 -63.5 -190.5t-83 -128.5t-103.5 -76.5t-116 -38t-130 -9.5l58 273h11q15 -1 22 -0.5t19 2.5t17.5 6.5t14.5 13t14.5 21t13 31.5 t14 44.5t13.5 59.5l78 364q-42 -26 -72 -37q-100 -36 -200 -36q-64 0 -117 16t-90 44t-66 66.5t-45 83.5t-27 94.5t-11.5 99.5z" />
<glyph unicode="&#xe30;" horiz-adv-x="843" d="M186 425l32 152h288l-18 -92q-4 -24 1.5 -36.5t27.5 -19.5t68 -7h251l-170 -265h-236q-157 0 -214.5 71t-29.5 197zM298.5 911q0.5 41 11.5 90l28 139h288l-21 -94q-8 -35 11.5 -49t86.5 -14h251l-168 -265h-248q-66 0 -113.5 14.5t-74.5 39.5t-39.5 61.5t-12 77.5z" />
<glyph unicode="&#xe31;" d="M-356 1623.5q-2 37.5 10 85.5l29 139h294l-19 -87q-8 -35 10.5 -48.5t81.5 -13.5h495l-167 -258h-491q-33 0 -61 3.5t-57 11t-50 21t-39.5 33.5t-26 48t-9.5 65.5z" />
<glyph unicode="&#xe32;" horiz-adv-x="1031" d="M238 858l58 270q54 40 112 70q130 73 265 73q109 0 199 -34t149 -96.5t82.5 -151t-0.5 -198.5l-167 -791h-301l162 765q8 33 8.5 62t-6.5 51t-18 40.5t-26.5 31.5t-32.5 22.5t-36.5 15t-37 8t-35.5 2.5q-97 0 -246 -70q-53 -24 -129 -70z" />
<glyph unicode="&#xe33;" horiz-adv-x="1031" d="M-278 1711q17 76 68 140.5t119.5 101t137.5 36.5q119 0 181.5 -80t36.5 -198q-26 -111 -121.5 -190.5t-208.5 -79.5q-72 0 -127 36.5t-79 99t-7 134.5zM-92 1711q-8 -33 10.5 -55.5t52.5 -22.5q30 0 56 22.5t33 55.5q6 33 -11.5 56.5t-48.5 23.5q-30 0 -58 -24t-34 -56z M238 858l58 270q54 40 112 70q130 73 265 73q109 0 199 -34t149 -96.5t82.5 -151t-0.5 -198.5l-167 -791h-301l162 765q8 33 8.5 62t-6.5 51t-18 40.5t-26.5 31.5t-32.5 22.5t-36.5 15t-37 8t-35.5 2.5q-97 0 -246 -70q-53 -24 -129 -70z" />
<glyph unicode="&#xe34;" d="M-758 1441l165 247h795l-52 -247h-908z" />
<glyph unicode="&#xe35;" d="M-758 1441l168 260h498l32 147h296l-86 -407h-908z" />
<glyph unicode="&#xe36;" d="M-758 1441l165 260h320q3 15 18 40q36 73 111.5 116.5t148.5 43.5q42 0 76 -10.5t55.5 -28.5t37 -42t21 -50.5t7.5 -53.5t-5 -52q-12 -52 -46 -95.5t-76 -70.5t-85.5 -42t-79.5 -15h-668zM-78 1670q-6 -15 4.5 -27t26.5 -12q14 0 27.5 11.5t19.5 27.5q0 17 -8.5 28 t-23.5 11t-27.5 -11t-18.5 -28z" />
<glyph unicode="&#xe37;" d="M-758 1441l168 260h288l32 147h202l-32 -147h80l25 147h231l-86 -407h-908z" />
<glyph unicode="&#xe38;" d="M-623 -456l57 261h149q132 0 196 -61t35 -182l-52 -240h-302l34 158q6 25 -6.5 44.5t-37.5 19.5h-73z" />
<glyph unicode="&#xe39;" d="M-991 -458l58 263h180q59 0 111 -21.5t82 -63.5t20 -95q-9 -41 -6 -54.5t19 -13.5q11 0 18.5 2.5t13.5 10t10.5 19.5t9.5 33l40 183h302l-55 -256q-7 -34 -20 -64.5t-43.5 -67.5t-73 -63t-114 -44t-161.5 -18q-149 0 -216.5 52t-51.5 134q6 25 -6.5 44.5t-38.5 19.5h-78z " />
<glyph unicode="&#xe3a;" d="M-495 -470l60 275h302l-62 -275h-300z" />
<glyph unicode="&#xe3f;" horiz-adv-x="1150" d="M97 0l296 1405h252l47 215h294l-50 -225q95 -17 161 -70t91.5 -127.5t7.5 -156.5q-24 -107 -96 -190t-180 -111q128 -23 190 -105t33 -210q-21 -102 -94.5 -194t-181 -152.5t-224.5 -73.5l-48 -223h-293l46 218h-251zM453 268h127q50 0 93 11t71 28t49.5 39t32.5 41.5 t15 37.5q7 20 5.5 41t-7 41t-22.5 37.5t-41.5 30.5t-64 20.5t-90.5 7.5h-96zM582 876h81q12 0 23 0.5t32 3t39 8t39.5 16t38.5 24.5t31.5 36.5t21.5 50.5q6 32 -5 55.5t-28.5 35t-44 18t-43 8t-34.5 1.5h-96z" />
<glyph unicode="&#xe40;" horiz-adv-x="560" d="M139.5 144q-6.5 41 7.5 97l213 1004h300l-193 -920q-8 -22 -6 -36.5t22 -15.5h78l-58 -273h-178q-33 0 -62 7t-57 24t-44 44.5t-22.5 68.5z" />
<glyph unicode="&#xe41;" horiz-adv-x="1084" d="M147 241l213 1004h300l-193 -920q-8 -22 -6 -36.5t22 -15.5h78l-58 -273h-201q-85 0 -132 63.5t-23 177.5zM666 137q-8 45 5 104l212 1004h302l-194 -920q-8 -22 -6.5 -36.5t21.5 -15.5h79l-57 -273h-200q-40 0 -73.5 15.5t-57 46t-31.5 75.5z" />
<glyph unicode="&#xe42;" horiz-adv-x="698" d="M285 241l187 882q17 74 24 142.5t5.5 109t-0.5 84t7 74.5q27 123 154 204.5t316 81.5h390l-57 -268h-203q-150 0 -225 -11.5t-80 -43.5q-4 -21 -3.5 -59.5t2.5 -74t-5 -100.5t-24 -139l-168 -800q-7 -22 -5 -36.5t18 -16.5h80l-55 -270h-205q-80 0 -126 71.5t-27 169.5z " />
<glyph unicode="&#xe43;" horiz-adv-x="885" d="M343 1618q46 60 118 115q135 115 270 115q65 0 123 -14t108.5 -44t82 -76.5t43.5 -112t-8 -151.5q-11 -51 -28.5 -95.5t-33 -74t-35.5 -88t-37 -136.5l-151 -721q-7 -22 -5 -36t18 -16h78l-58 -283h-191q-93 0 -140 70t-25 171l173 815q12 57 28 109t31.5 89t30 69.5 t26.5 65t17 61.5q3 11 3.5 25t-4 32t-15 33t-33.5 25.5t-56 10.5q-85 0 -193 -108q-38 -38 -90 -107z" />
<glyph unicode="&#xe44;" horiz-adv-x="961" d="M328 1551l57 270q29 0 58 -11t52 -27.5t44.5 -37.5t35.5 -38t25.5 -32t12.5 -16q28 45 65 79q91 81 200 81q63 0 110 -25.5t73 -67t38.5 -97t11 -114.5t-14.5 -120l-228 -1067q-8 -22 -6.5 -36.5t21.5 -16.5h80l-58 -275h-184q-105 0 -150.5 68.5t-22.5 172.5l247 1154 q2 10 6 30.5t6.5 32t4.5 28.5t0 26.5t-6.5 19.5t-14.5 14.5t-26 4.5q-21 0 -50.5 -26.5t-69.5 -74.5q-59 -76 -74 -100q-10 50 -41 100q-70 101 -202 101z" />
<glyph unicode="&#xe45;" horiz-adv-x="1031" d="M238 858l58 270q61 45 112 70q130 73 290 73q99 0 183.5 -34t142 -96.5t80.5 -151t-1 -198.5l-240 -1124q-13 -62 -108 -142q-8 -6 -28 -22t-35.5 -28.5t-31.5 -22.5h-144l281 1313q11 42 7 75t-13.5 57.5t-28 42t-37 29t-41 18t-39.5 9t-32 2.5q-97 0 -246 -70 q-53 -24 -129 -70z" />
<glyph unicode="&#xe46;" horiz-adv-x="1189" d="M247 896q16 68 55 135t93 120.5t124 86.5t141 33q27 0 50 -25t50 -71q25 -47 43 -95q51 61 85 95q96 96 148 96q50 0 93 -17t71.5 -45.5t50.5 -66t30 -79t9.5 -85t-9.5 -82.5l-261 -1229q-13 -62 -107 -142q-8 -6 -28 -22t-36 -28.5t-31 -22.5h-145l297 1392 q9 38 11.5 66.5t0 45t-8.5 26.5t-12.5 13t-14.5 3q-5 0 -13 -5t-21.5 -18t-23 -23t-29 -31t-28.5 -30q-17 -19 -49.5 -57t-41.5 -48q-13 32 -48 105q-2 5 -8 14q-13 24 -20 36t-16.5 28t-16 22.5t-10.5 6.5q-21 -5 -28 -12q-32 -23 -45 -90q-8 -27 -4.5 -52t9 -39t15.5 -32 q16 -24 40 -40l-152 -240q-84 28 -131 75q-125 126 -78 328z" />
<glyph unicode="&#xe47;" d="M-655 1683q28 134 123.5 200.5t243.5 72.5l210 5q95 0 214 83q46 31 100 85l-61 -288q-52 -19 -88 -27q-110 -26 -202 -26h-183q-72 0 -107.5 -30t-45.5 -75q-6 -27 10.5 -53t52.5 -26q52 0 92 57q16 23 34 62h70q0 -17 6 -62q5 -19 8.5 -28.5t11 -19t16.5 -9.5 q72 0 103 119h197q-10 -51 -37.5 -101.5t-67.5 -90.5t-94 -65t-111 -25q-50 0 -83 55q-14 22 -27 55q-21 -28 -53 -55q-59 -55 -128 -55q-110 0 -169 67t-35 175z" />
<glyph unicode="&#xe48;" d="M-90 1441l87 407h296l-86 -407h-297z" />
<glyph unicode="&#xe49;" d="M-438 1586l55 262h299q39 0 64.5 -27.5t19.5 -66.5q-2 -24 7 -39.5t30 -13.5l430 -2l-165 -258h-502q-23 0 -40.5 4t-33.5 13t-22.5 28t-1.5 47q9 53 -37 53h-103z" />
<glyph unicode="&#xe4a;" d="M-616 1604q13 59 48 107.5t80 78t91.5 45.5t86.5 16q52 0 77 -58q12 -27 15 -57q25 34 43 55q18 18 30.5 28.5t31.5 19.5t37 9q41 0 84.5 -17t71.5 -46.5t22 -59.5q-6 -24 9 -26h14h342l-165 -258h-315q-34 0 -56 17.5t-29 44.5t-7 53t5 48q6 32 -2.5 55.5t-33.5 23.5 q-30 0 -43 -21t-21 -58h-88q0 2 1 5l4.5 21t1.5 19t-3.5 18t-12.5 11t-23 5q-22 0 -42 -24.5t-26 -54.5q-12 -46 35 -110q24 -34 46 -53h-259q-19 24 -32 53q-29 52 -18 110z" />
<glyph unicode="&#xe4b;" d="M-205 1513l55 261h132l15 74h296l-15 -76h130l-55 -259h-130l-16 -72h-297l17 72h-132z" />
<glyph unicode="&#xe4c;" d="M-417 1441l27 113q14 63 72.5 132t138.5 115.5t150 46.5h239l-168 -262h-42q-27 0 -44 -5.5t-28 -20.5t-16.5 -29.5t-13.5 -44.5l-11 -45h-304z" />
<glyph unicode="&#xe4d;" d="M-278 1709q26 115 122.5 196.5t202.5 81.5q119 0 181.5 -80t36.5 -198q-26 -112 -121.5 -191t-208.5 -79q-72 0 -127 36.5t-79 99t-7 134.5zM-92 1709q-8 -34 10.5 -56t52.5 -22q30 0 56 22t33 56q6 31 -12 55t-48 24q-32 0 -59 -23.5t-33 -55.5z" />
<glyph unicode="&#xe4e;" d="M-406 1599q15 67 54 118.5t90 80t102.5 42t101.5 13.5q10 53 66 91t130.5 55t157.5 17l-31 -150q-83 0 -144 -59.5t-89 -191.5q-143 0 -165 -99q-9 -33 10 -58q9 -14 18 -17h-275q-45 63 -26 158z" />
<glyph unicode="&#xe4f;" horiz-adv-x="1301" d="M199.5 354.5q-8.5 82.5 7.5 175.5q23 113 89 215.5t156.5 176.5t202.5 117.5t223 43.5q77 0 145.5 -19.5t121 -55.5t93 -86.5t62 -112t27.5 -132t-11 -147.5q-23 -113 -88.5 -215.5t-155.5 -176.5t-202.5 -117.5t-226.5 -43.5q-90 0 -168.5 28t-135 78t-94 119.5t-46 152 zM407.5 394q16.5 -64 54 -112t97 -76t128.5 -28q97 0 187.5 47.5t153 128.5t83.5 176q21 97 -8.5 177.5t-100 127t-166.5 46.5q-95 0 -186 -46.5t-156 -127t-86 -177.5q-17 -72 -0.5 -136zM522 530q22 99 107 168.5t184 69.5q100 0 153.5 -69t31.5 -169t-105 -169.5 t-183 -69.5t-155 69.5t-33 169.5z" />
<glyph unicode="&#xe50;" horiz-adv-x="1254" d="M159.5 351.5q-8.5 82.5 8.5 175.5q23 112 91.5 216t162 179.5t208 120.5t225.5 45q114 0 210 -45t157 -120.5t85 -179.5t1 -216q-18 -90 -67.5 -175t-120.5 -152.5t-155 -118.5t-178 -79t-184 -28t-168.5 28t-134.5 78.5t-94 119.5t-46.5 151.5zM467 530 q-17 -82 4.5 -149.5t76 -106t130.5 -38.5q112 0 210 86.5t124 207.5q17 77 -5.5 144.5t-77 106.5t-126.5 39q-115 0 -212.5 -85.5t-123.5 -204.5z" />
<glyph unicode="&#xe51;" horiz-adv-x="1254" d="M181 463.5q-12 69.5 7 159.5q15 72 57.5 141.5t106.5 127t141 101.5t167 68t178 24q126 0 226 -43t160.5 -121.5t83 -188t-7.5 -242.5q-20 -94 -63 -176t-98 -141t-122.5 -106.5t-134 -77.5t-134.5 -50t-123 -28t-100 -8q-7 0 -78 1t-77 1l130 258h11q47 0 102.5 10.5 t118 35.5t116 61.5t95 93.5t55.5 126q16 83 6.5 144t-41 101.5t-77 60t-103.5 19.5t-110.5 -18t-89.5 -46.5t-61 -61.5t-32 -66q-9 -36 -8 -62t7 -43t16.5 -27t19 -14.5t15.5 -4.5q11 0 19 4.5t13 10.5t9.5 19t7 22.5t6.5 30.5l3 12l10 50h302l-24 -113q-5 -22 -13.5 -46 t-24.5 -55t-37 -58.5t-53 -55t-70.5 -47t-91.5 -32t-113 -12.5q-47 0 -93.5 15t-92 46.5t-75 81t-41.5 119z" />
<glyph unicode="&#xe52;" horiz-adv-x="1530" d="M302 1340l58 266h38q75 0 141 -30.5t110 -79t73.5 -107t39.5 -116t1 -104.5l-147 -697q-12 -66 -9 -110.5t23 -70.5t44.5 -37t56.5 -11h344q70 0 118 42.5t65 122.5l55 263q6 27 10 48.5t8 50t3 49t-5 39t-15 28.5t-29 10q-42 0 -95 -52q-16 -17 -47 -53q-11 27 -24 53 q-32 52 -71 52q-30 0 -57 -34t-37 -81q-4 -18 -1 -32.5t12 -24t21.5 -17t28.5 -11.5t33.5 -7t35.5 -3.5l36 -1t33 0.5h18l-57 -270q-53 0 -83.5 0.5t-75.5 4t-71 10t-59 19.5t-50 31t-34 46t-21 63.5t-1.5 84t14.5 107.5q6 25 18 55.5t30.5 67t46 69.5t60 61t75.5 45t90 17 q66 0 103 -71q16 -33 24 -71q38 47 65 71q81 71 144 71q54 0 97 -20t69.5 -53.5t44 -76t23 -91t3.5 -95t-11 -89.5l-61 -283q-41 -193 -186 -302t-350 -109h-418q-59 0 -116.5 27.5t-102 80.5t-62.5 129t1 174l168 790q11 53 2 89.5t-54.5 54.5t-133.5 18z" />
<glyph unicode="&#xe53;" horiz-adv-x="1519" d="M157 327q-13 91 13 208q27 123 74.5 222.5t115 173.5t157.5 114t196 40q130 0 195 -147q28 -72 35 -147q43 80 95 147q52 64 117.5 105.5t137.5 41.5q112 0 189 -69t102 -191.5t-8 -289.5q-51 -213 -168 -393q-50 -79 -113 -142h-283q42 50 107 157q112 182 155 378 q21 99 15 162t-30 92t-63 29q-74 0 -118 -88.5t-87 -296.5h-278q13 64 21 112.5t12.5 94t2.5 76.5t-10.5 55t-25.5 35.5t-42 11.5q-15 0 -31 -5t-40 -22.5t-44.5 -46.5t-42 -83t-36.5 -126q-31 -145 7 -218.5t134 -73.5q35 0 108 14q9 3 60 16l-53 -241q-18 -19 -43 -29 q-46 -29 -132 -29q-67 0 -132 21t-123 64.5t-95.5 110t-50.5 157.5z" />
<glyph unicode="&#xe54;" horiz-adv-x="1478" d="M154 359.5q-3 77.5 14 162.5q11 54 26.5 105t40 106.5t54.5 102t71.5 89.5t89 73t109.5 48t131 18h401q36 0 65.5 4t61 17.5t55 35t43 59.5t29.5 88l73 345l305 -7l-103 -455q-13 -62 -41 -114t-64.5 -89t-79.5 -65t-90.5 -45t-94 -25t-92.5 -8h-416q-105 0 -174 -78 t-101 -211q-30 -136 1.5 -191t147.5 -55l325 -2q-60 36 -110 94q-105 125 -68 286h310q-20 -83 -13 -152.5t35 -119.5t82 -78t129 -28h130l-55 -270h-904q-67 0 -126 27t-100 75t-67.5 114t-29.5 143.5z" />
<glyph unicode="&#xe55;" horiz-adv-x="1483" d="M154.5 395q-3.5 61 10.5 121q16 76 42.5 148.5t71 146.5t100 129t134 89.5t168.5 34.5h29q0 26 6 34q22 107 112.5 182.5t196.5 75.5q109 0 168 -74.5t37 -183.5q-3 -9 -6 -13q19 10 34 19.5t27 22t20.5 22t16 26t12 27t10 32.5t8 34.5t8 40.5t8.5 44l55 260h305 l-92 -438q-20 -94 -64 -166t-104 -116t-130 -66t-148 -22h-432q-107 0 -181 -79t-105 -210q-17 -84 -12.5 -138.5t40 -81t108.5 -26.5h340q-57 32 -110 92q-106 128 -70 286h310q-18 -83 -6 -152.5t43.5 -119.5t76.5 -78t93 -28h156l-55 -270h-903q-59 0 -111 21.5t-90 59 t-67.5 88t-43 108t-17 118.5zM888 1080q-7 -33 11 -56t52 -23h9q31 6 55.5 27.5t30.5 51.5q6 32 -12.5 55t-50.5 23q-22 0 -42.5 -10.5t-34.5 -28.5t-18 -39z" />
<glyph unicode="&#xe56;" horiz-adv-x="1661" d="M302 1340l58 269h55q82 0 149.5 -16.5t116.5 -45.5t86.5 -73.5t61.5 -95.5t40 -118t23 -133.5t10 -148.5q47 33 99 58q128 60 267 60q79 0 146.5 -16.5t118 -45t90 -68.5t64 -87.5t37 -101t12 -109.5t-12.5 -112q-19 -87 -61 -171t-106 -157.5t-143 -129.5t-178 -88.5 t-205 -32.5q-66 0 -123.5 15t-100.5 40.5t-79 61.5t-60.5 75.5t-44 85t-30.5 86.5t-17 84h306q17 -87 72 -134.5t135 -47.5q25 0 59 9.5t77 33t81 57.5t70 90t46 123q14 68 1 118.5t-47 83.5t-76.5 49t-87.5 16q-59 0 -108.5 -22t-88.5 -63.5t-67.5 -88t-58.5 -109.5h-270 q0 88 -1 155t-4 137t-9 121.5t-15 103.5t-22 88t-30.5 70t-40.5 55.5t-51.5 38.5t-64 24t-78.5 7z" />
<glyph unicode="&#xe57;" horiz-adv-x="2001" d="M157.5 361q-4.5 83 12.5 174q53 243 188.5 389t309.5 146q42 0 76.5 -15.5t57 -41.5t39.5 -56t26.5 -63t15.5 -59t9 -46.5t4 -23.5q0 1 7 14.5t16.5 30t24.5 40.5t33 48t40 49.5t48 47t53.5 38.5t60.5 27t66 10q175 0 251.5 -144t24.5 -391q-3 -13 -9.5 -40.5t-8.5 -35 t-6.5 -27.5t-6.5 -25t-6 -19.5t-7 -20.5t-7 -17t-9 -20t-11 -20t-14 -25q61 8 89.5 55t55.5 171l147 695q18 85 57.5 153t92.5 114.5t120 77t139 44.5t152 14h37l-58 -269q-90 0 -139 -14.5t-70.5 -44.5t-32.5 -88l-167 -790q-16 -74 -57 -140t-93.5 -113t-112 -81.5 t-116 -51.5t-101.5 -17h-438q59 71 115 157q124 201 163 378q30 150 17 206t-75 56q-75 0 -120.5 -73.5t-80.5 -235.5h-250q31 139 12.5 224t-82.5 85q-18 0 -31 -2.5t-33.5 -17t-36.5 -41t-34 -78t-33 -123.5q-21 -98 -5.5 -163t51 -97t85.5 -32q38 0 113 19q56 14 67 18 l-52 -248q-27 -15 -71 -29q-79 -26 -117 -26q-84 0 -154.5 29t-118 80.5t-78 121.5t-35 153z" />
<glyph unicode="&#xe58;" horiz-adv-x="1486" d="M170 244q-32 124 0 291q17 82 53 159.5t89.5 144.5t118.5 117t145.5 79t165.5 29h359q36 0 66 4.5t62 18t56 35.5t43.5 60t29.5 89l70 342h303l-85 -400q-22 -98 -64.5 -173.5t-93 -120t-113.5 -72.5t-118.5 -37.5t-116.5 -9.5h-332q-273 0 -331 -273q-21 -98 -13.5 -160 t28 -91t48.5 -29q41 0 83 41.5t87 109.5q35 53 76 155q18 -82 47 -155q69 -151 163 -151q35 0 62 8t51.5 27.5t41.5 57t27 93.5l12 67h301l-13 -67q-13 -72 -37 -134.5t-67.5 -123t-101.5 -103.5t-144 -69t-190 -26q-125 0 -188 91q-33 53 -45 95q-19 -34 -68 -95 q-81 -91 -184 -91q-97 0 -174 71.5t-109 195.5z" />
<glyph unicode="&#xe59;" horiz-adv-x="1766" d="M158.5 361q-5.5 83 11.5 174q21 93 63.5 180.5t95 153t111 115.5t114 75.5t99.5 25.5q51 0 92 -13.5t71.5 -40t51.5 -54.5t42 -67q31 119 106.5 190t181.5 71q52 0 98.5 -19t79 -45.5t59.5 -53.5t51.5 -46t44.5 -19q8 0 15.5 4t14 14t11.5 20.5t11 29.5t10.5 35t10.5 43 t10.5 47t11.5 54t12 58l68 320h305l-68 -320q-14 -60 -24.5 -101.5t-32 -106.5t-44 -110t-58.5 -96.5t-77 -83.5t-98 -53t-123 -21q-56 0 -106 20t-84 47.5t-62.5 54.5t-54 43t-46.5 10l-3.5 -1t-5.5 -2t-6 -2.5t-7.5 -4t-8 -6.5t-8 -9t-7.5 -11.5t-7.5 -15t-6.5 -18.5 q0 -6 -1.5 -14t-1.5 -12l13 -145q32 -382 50 -655h-297l-53 705q-5 51 -41 87t-69 36q-14 0 -31 -6t-42 -25t-47 -49.5t-44.5 -85.5t-36.5 -127q-21 -96 -10 -161t43.5 -98t79.5 -33q35 0 110 25q49 18 65 25l-55 -256q-1 0 -12 -7t-14 -8.5t-14.5 -7.5t-17 -8t-18 -7.5 t-20.5 -7.5l-22 -5.5t-26 -5t-27 -2.5t-31 -1q-69 0 -130 29t-105.5 80.5t-74 121.5t-35 153z" />
<glyph unicode="&#xe5a;" horiz-adv-x="1593" d="M320 1146q-1 50 0 99h296q2 -37 3.5 -59t6 -50.5t10.5 -44t16.5 -33t25.5 -26t36 -14.5t49 -6q86 0 162.5 60t127.5 173h287l-171 -802q-11 -50 -23.5 -91t-29.5 -83.5t-38.5 -76t-49.5 -64.5t-63 -54t-78 -40t-97 -25.5t-117 -8.5l58 273q8 0 23 -1q20 -1 28.5 -0.5 t21.5 7.5t19 19.5t16.5 39.5t19.5 65t22 97l67 315q-34 -24 -70 -37q-100 -36 -218 -36q-58 0 -108 16t-85 44t-63 66.5t-44 83.5t-27.5 94.5t-12.5 99.5zM1196 0l264 1248l299 -3l-263 -1245h-300z" />
<glyph unicode="&#xe5b;" horiz-adv-x="2017" d="M194 401.5q1 55.5 11 111.5q19 87 56.5 168t97 154t135 127t176 86t213.5 32q66 0 122 -13.5t95 -36t70 -54.5t50.5 -64.5t32.5 -70.5q37 -111 26 -238h-293q0 59 -16 107q-36 108 -142 108q-46 0 -94 -19t-93.5 -55t-81.5 -96t-51 -135q-13 -59 -5 -104.5t28 -77.5 t51.5 -52t65 -29t68.5 -9q87 0 194 82q50 35 91 80l110 -128l134 133l95 -130l144 139q13 -46 39 -89q14 -22 23.5 -34t23.5 -27t29.5 -22t33.5 -7q57 0 68 50q11 57 -28 118q-26 36 -45 55h288q25 -18 42 -49q34 -65 18 -152q-8 -42 -37 -90t-74.5 -92t-113 -72.5 t-142.5 -28.5q-45 0 -76.5 24t-56.5 67q-24 45 -35 95l-135 -131l-93 131l-130 -131l-108 131q-43 -52 -94 -95q-113 -94 -223 -94q-74 0 -139.5 16.5t-115 45.5t-90 69t-65 87.5t-40 100.5t-14.5 108.5z" />
<glyph unicode="&#x2000;" horiz-adv-x="1186" />
<glyph unicode="&#x2001;" horiz-adv-x="2372" />
<glyph unicode="&#x2002;" horiz-adv-x="1186" />
<glyph unicode="&#x2003;" horiz-adv-x="2372" />
<glyph unicode="&#x2004;" horiz-adv-x="790" />
<glyph unicode="&#x2005;" horiz-adv-x="593" />
<glyph unicode="&#x2006;" horiz-adv-x="395" />
<glyph unicode="&#x2007;" horiz-adv-x="395" />
<glyph unicode="&#x2008;" horiz-adv-x="296" />
<glyph unicode="&#x2009;" horiz-adv-x="474" />
<glyph unicode="&#x200a;" horiz-adv-x="131" />
<glyph unicode="&#x2010;" horiz-adv-x="848" d="M202 498l53 247h655l-52 -247h-656z" />
<glyph unicode="&#x2011;" horiz-adv-x="848" d="M202 498l53 247h655l-52 -247h-656z" />
<glyph unicode="&#x2012;" horiz-adv-x="848" d="M202 498l53 247h655l-52 -247h-656z" />
<glyph unicode="&#x2013;" horiz-adv-x="1123" d="M202 498l53 247h930l-52 -247h-931z" />
<glyph unicode="&#x2014;" horiz-adv-x="1621" d="M202 498l53 247h1428l-52 -247h-1429z" />
<glyph unicode="&#x2018;" horiz-adv-x="495" d="M296 943l44 215q25 128 171 253q61 50 137 94h330q-96 -51 -152 -94q-157 -117 -183 -253l-45 -215h-302z" />
<glyph unicode="&#x2019;" horiz-adv-x="497" d="M40 943q73 39 148 98q153 122 182 249l47 215h304l-48 -215q-29 -129 -170 -249q-76 -62 -136 -98h-327z" />
<glyph unicode="&#x201c;" horiz-adv-x="888" d="M296 943l44 215q25 128 171 253q61 50 137 94h288q-72 -42 -136 -94q-145 -125 -170 -253l-45 -215h-289zM703 943l45 215q26 136 183 253q56 43 152 94h288q-96 -51 -152 -94q-157 -117 -183 -253l-45 -215h-288z" />
<glyph unicode="&#x201d;" horiz-adv-x="890" d="M40 943q73 39 148 98q153 122 182 249l47 215h288l-47 -215q-16 -71 -66 -135t-117 -114q-73 -56 -150 -98h-285zM472 943q60 36 136 98q141 120 170 249l48 215h288l-46 -215q-29 -127 -172 -249q-76 -62 -136 -98h-288z" />
<glyph unicode="&#x2022;" horiz-adv-x="788" d="M228 623q13 62 48.5 118t85 96.5t110.5 64t123 23.5q80 0 138.5 -40t82.5 -109.5t7 -152.5q-26 -120 -130 -206.5t-226 -86.5q-82 0 -143.5 40t-87 107.5t-8.5 145.5z" />
<glyph unicode="&#x2026;" horiz-adv-x="1596" d="M97 0l58 273h301l-58 -273h-301zM648 0l57 273h301l-58 -273h-300zM1198 0l58 273h302l-59 -273h-301z" />
<glyph unicode="&#x202f;" horiz-adv-x="474" />
<glyph unicode="&#x205f;" horiz-adv-x="593" />
<glyph unicode="&#x20ac;" horiz-adv-x="1483" d="M186 422l42 199h134l10 66q3 10 6.5 25.5t6.5 27.5t8 25h-133l42 200h173q78 126 169 216.5t191 142t202 74.5t216 23q274 0 417 -78l-160 -263q-139 76 -322 76q-117 0 -216 -49.5t-164 -141.5h477l-42 -200h-545q-18 -43 -25 -78q-3 -10 -5 -21t-3 -26t-2 -19h495 l-42 -199h-429q20 -44 52 -78t65 -53t70.5 -31t65.5 -15.5t53 -3.5q39 0 80 7t70 14.5t74.5 26t65.5 27.5t70 32l50 -256q-216 -115 -495 -115q-107 0 -203.5 30t-171.5 85t-120 140.5t-48 189.5h-179z" />
<glyph unicode="&#x2122;" horiz-adv-x="1040" d="M370 1285l13 71h333l-13 -71h-123l-87 -402h-81l86 402h-128zM650 883l100 473h91l77 -344l228 344h84l-100 -473h-71l74 341l-234 -341h-26l-70 341l-75 -341h-78z" />
<glyph unicode="&#x25fc;" horiz-adv-x="1061" d="M0 0v1061h1061v-1061h-1061z" />
<glyph horiz-adv-x="843" />
<glyph horiz-adv-x="1233" d="M260 1006q47 74 128 132q188 133 443 133q99 0 222 -47q54 16 77.5 54.5t40.5 116.5h300q-29 -109 -99.5 -201t-147.5 -114q36 -43 60 -98.5t33.5 -112.5t8.5 -113t-13 -108q-30 -140 -90.5 -252t-136 -185t-169 -121.5t-187 -69t-192.5 -20.5h-121l-19 390q-2 9 -3 19 t-1.5 14t-5.5 7t-16 3h-74l59 272h133q29 0 51 -2.5t53.5 -15t53.5 -35t40.5 -65.5t24.5 -102l5 -210q28 0 70.5 27.5t86.5 74.5t83 119.5t57 151.5q10 56 11 101t-11 80.5t-27.5 61.5t-39.5 44.5t-46.5 30t-48.5 18.5t-45.5 9.5t-36.5 2.5q-181 0 -346 -123 q-71 -59 -120 -123z" />
<glyph horiz-adv-x="1949" d="M204 165.5q1 35.5 8 75.5l73 341q3 14 6.5 27t7.5 26t7.5 22t9 22.5t8 19.5t9 20t7.5 17q17 34 35 55q-10 10 -22 23t-22.5 24.5t-18.5 19.5q-60 60 -60 65q77 100 168 173q216 175 440 175q91 0 173.5 -19t148.5 -56t111 -88t62 -119.5t1 -144.5l-88 -411 q-11 -60 -10 -102t23.5 -65t68.5 -23h110q69 0 117.5 50.5t66.5 139.5l170 812h302l-170 -802q-14 -64 -40.5 -126.5t-71.5 -124.5t-102.5 -109.5t-137.5 -76.5t-171 -29h-210q-70 0 -123 23.5t-84 65.5t-46 100.5t-13.5 128t18.5 148.5l76 348q21 98 -40.5 152.5 t-182.5 54.5q-114 0 -188 -38q-31 -17 -42 -37l135 -132q-40 -29 -57 -46q-62 -67 -84 -163l-57 -254q-8 -22 -6.5 -36.5t21.5 -16.5h92l-57 -275h-160q-55 0 -96.5 12.5t-65 34.5t-37 52.5t-12.5 66z" />
<glyph d="M-800 1686q59 270 365 270h157q98 0 213 75q39 23 97 77l-47 -265q-50 -17 -90 -27q-110 -25 -207 -25h-131q-30 0 -55 -6.5t-42 -16.5t-29 -24t-18.5 -28t-10.5 -30q-7 -29 1.5 -54.5t35.5 -25.5q46 0 81 58q18 42 24 59h50q-2 -22 3 -59q4 -18 9 -28.5t16 -20t27 -9.5 q24 0 47.5 24t36.5 49t17 44h200q-26 -126 -111 -204t-201 -78q-47 0 -81 55q-22 51 -24 58q-17 -33 -39 -55q-12 -13 -23 -21.5t-25 -17t-31 -12.5t-36 -4q-101 0 -152 66.5t-27 175.5z" />
<glyph d="M-145 2111l58 261h282q40 0 65 -27.5t18 -66.5q-6 -21 7 -36.5t35 -15.5h312l-169 -260h-355q-59 0 -87.5 26t-20.5 66q9 53 -35 53h-110z" />
<glyph d="M-260 2051q8 41 28.5 78t47 62.5t56.5 46t59.5 32.5t53.5 18t41 6q39 0 64 -58q6 -15 18 -55q11 17 44 55q58 58 103 58q54 0 96 -30.5t64 -90.5q0 -1 1 -4q5 -15 8.5 -18.5t15.5 -3.5l173 -3l-165 -256h-155q-121 0 -101 104q27 137 -29 137q-21 0 -35 -22.5t-20 -55.5 h-53q8 25 2.5 51.5t-25.5 26.5q-21 0 -39.5 -23.5t-24.5 -54.5q-13 -49 22 -111q12 -29 36 -52h-226q-18 22 -36 52q-36 65 -24 111z" />
<glyph horiz-adv-x="2154" d="M218 241l73 341q2 14 5.5 27t8 26t7.5 22t8.5 22.5t8 19.5t9 20t8.5 17q14 28 32 55q-10 10 -22 23t-23 24.5t-18 19.5q-63 62 -63 65q75 98 173 173q227 175 453 175q158 0 281 -58.5t175 -161.5q202 220 485 220q99 0 184 -34t142.5 -96.5t80.5 -151t0 -198.5 l-242 -1124q-13 -62 -108 -142q-8 -7 -21.5 -17.5t-23 -19t-23 -18.5t-25.5 -18h-145l281 1313q10 42 6 75t-13.5 57.5t-27.5 42t-36.5 29t-40.5 18t-39 9t-32 2.5q-64 0 -119.5 -11t-94 -29t-70.5 -40t-51 -43.5t-32 -41t-18.5 -31t-5.5 -14.5l-239 -1121 q-13 -62 -108 -142q-9 -7 -27.5 -22.5t-34.5 -28t-31 -22.5h-145l286 1339q8 39 6 70t-17 54t-36.5 39t-52.5 26t-65.5 14t-75.5 4q-94 0 -168 -38q-23 -14 -47 -37l131 -132q-1 0 -9 -7t-17 -15.5t-21.5 -22t-25 -30.5t-25 -37t-22.5 -45t-16 -52l-55 -252q-1 -12 -1.5 -21 t4 -15t8 -10.5t11.5 -6.5t14.5 -3t16.5 -1t17 0.5t17.5 1t17.5 0.5l-58 -272h-179q-107 0 -156.5 61t-23.5 177z" />
<glyph horiz-adv-x="2154" d="M65 0l58 273h79q9 0 14.5 2.5t9 9t5 10t4 15t3.5 15.5l50 257q3 14 6 27t7.5 26t7.5 22t9 22.5t8.5 19.5t9 20t7.5 17q17 34 35 55q-10 10 -22 23t-23 24.5t-18 19.5q-63 62 -63 65q71 98 165 173q217 175 474 175q85 0 170.5 -26t158 -79t109.5 -123q208 228 490 228 q99 0 184 -34t142.5 -96.5t80.5 -151t0 -198.5l-242 -1124q-13 -62 -108 -142q-8 -7 -21.5 -17.5t-23 -19t-23 -18.5t-25.5 -18h-145l281 1313q10 42 6 75t-13.5 57.5t-27.5 42t-36.5 29t-40.5 18t-39 9t-32 2.5q-64 0 -119.5 -11t-94 -29t-70.5 -40t-51 -43.5t-32 -41 t-18.5 -31t-5.5 -14.5l-239 -1121q-13 -62 -108 -142q-9 -7 -27.5 -22.5t-34.5 -28t-31 -22.5h-145l286 1339q18 85 -37 146t-168 61t-198 -38q-28 -12 -53 -37l136 -132q-23 -16 -53 -46q-53 -63 -75 -163l-73 -341q-23 -99 -99.5 -168.5t-170.5 -69.5q-32 0 -95 -1.5 t-95 -1.5z" />
</font>
</defs>
</svg>
